<?xml version="1.0" standalone="no"?>
<!DOCTYPE svg PUBLIC "-//W3C//DTD SVG 1.1//EN" "http://www.w3.org/Graphics/SVG/1.1/DTD/svg11.dtd" >
<svg>
<metadata>
Created by FontForge 20120731 at Sun Apr 17 23:54:14 2016
 By www
Copyright (c) 2012 by Jonathan Hill. All rights reserved.
</metadata>
<defs>
<font id="BordaW00-Bold" horiz-adv-x="663" >
  <font-face 
    font-family="BordaW00-Bold"
    font-weight="700"
    font-stretch="normal"
    units-per-em="1000"
    panose-1="1 0 0 0 0 0 0 0 0 0"
    ascent="800"
    descent="-200"
    x-height="500"
    cap-height="700"
    bbox="-71 -212 944 1069"
    underline-thickness="50"
    underline-position="-125"
    unicode-range="U+0020-FB02"
  />
<missing-glyph horiz-adv-x="250" 
 />
    <glyph glyph-name=".notdef" horiz-adv-x="250" 
 />
    <glyph glyph-name=".null" horiz-adv-x="0" 
 />
    <glyph glyph-name="nonmarkingreturn" horiz-adv-x="333" 
 />
    <glyph glyph-name="space" unicode=" " horiz-adv-x="300" 
 />
    <glyph glyph-name="exclam" unicode="!" horiz-adv-x="205" 
d="M161 700v-209l-9 -318h-99l-9 318v209h117zM168 128v-128h-131v128h131z" />
    <glyph glyph-name="quotedbl" unicode="&#x22;" horiz-adv-x="353" 
d="M153 764v-110l-10 -130h-97l-10 130v110h117zM317 764v-110l-10 -130h-97l-10 130v110h117z" />
    <glyph glyph-name="numbersign" unicode="#" horiz-adv-x="642" 
d="M553 700l-40 -189h93v-101h-114l-18 -83h132v-101h-153l-48 -226h-112l48 226h-91l-48 -226h-112l48 226h-106v70l32 31h96l18 83h-145v70l32 31h135l40 189h112l-40 -189h91l40 189h110zM379 410h-91l-18 -83h91z" />
    <glyph glyph-name="dollar" unicode="$" horiz-adv-x="538" 
d="M434 340q73 -37 73 -108v-60q0 -27 -9.5 -48.5t-32.5 -44.5l-41 -41q-18 -18 -43 -28t-57 -10h-15v-45h-76v45h-164l-33 32v73h197v216l-150 76q-25 13 -36 31.5t-11 47.5v57q0 27 7 44.5t25 35.5l54 54q19 19 35.5 26t42.5 7h31v45h76v-45h134l33 -32v-73h-167v-193z
M235 441v155h-16q-13 0 -20 -7l-40 -41q-8 -9 -8 -18v-35q0 -11 10 -17zM393 229q0 11 -10 17l-73 37v-177h15q13 0 20 7l41 41q8 8 8 17z" />
    <glyph glyph-name="percent" unicode="%" horiz-adv-x="645" 
d="M491 716h88l-420 -732h-88zM196 671q23 0 38 -15l22 -22q15 -15 15 -36v-140q0 -21 -15 -36l-22 -22q-15 -15 -38 -15h-85q-23 0 -38 15l-22 22q-15 15 -15 36v140q0 21 15 36l22 22q15 15 38 15h85zM190 608q-4 4 -7 4h-60q-4 0 -7 -3l-9 -9q-3 -3 -3 -7v-129q0 -4 3 -7
l9 -9q3 -3 7 -3h60q4 0 7 3l9 9q3 3 3 7v129q0 4 -3 7zM536 310q23 0 38 -15l22 -22q15 -15 15 -36v-140q0 -21 -15 -36l-22 -22q-15 -15 -38 -15h-85q-23 0 -38 15l-22 22q-15 15 -15 36v140q0 21 15 36l22 22q15 15 38 15h85zM530 247q-4 4 -7 4h-60q-4 0 -7 -3l-9 -9
q-3 -3 -3 -7v-129q0 -4 3 -7l9 -9q3 -3 7 -3h60q4 0 7 3l9 9q3 3 3 7v129q0 4 -3 7z" />
    <glyph glyph-name="ampersand" unicode="&#x26;" horiz-adv-x="625" 
d="M532 153l60 -62v-58l-48 -48l-88 92l-55 -55q-15 -15 -30 -21.5t-37 -6.5h-166q-22 0 -37 6.5t-30 21.5l-39 39q-16 16 -22 31t-6 37v61q0 22 6 37t21 31l113 114l-70 73q-15 16 -21.5 30.5t-6.5 36.5v53q0 22 6 37t22 31l39 39q15 15 30 21.5t37 6.5h82q22 0 37 -6.5
t30 -21.5l39 -39q16 -16 22 -31t6 -37v-53q0 -22 -6 -36.5t-20 -29.5l-75 -75l132 -137l83 83l52 -52v-49zM253 447l58 58q5 5 5 12v38q0 7 -6 13l-21 21q-5 5 -13 5h-46q-8 0 -13 -5l-21 -21q-6 -6 -6 -13v-38q0 -6 5 -13zM382 157l-132 137l-97 -98q-6 -6 -6 -13v-46
q0 -7 6 -13l21 -21q5 -5 13 -5h130q8 0 13 5z" />
    <glyph glyph-name="quotesingle" unicode="'" horiz-adv-x="191" 
d="M154 764v-110l-10 -130h-97l-10 130v110h117z" />
    <glyph glyph-name="parenleft" unicode="(" horiz-adv-x="307" 
d="M272 783v-107h-39q-8 0 -13 -5l-63 -62q-6 -6 -6 -13v-526q0 -7 6 -13l63 -63q4 -4 13 -4h39v-107h-62q-22 0 -37 6.5t-29 21.5l-68 66q-22 21 -31 36.5t-9 41.5v555q0 21 6 35.5t21 29.5l80 79q15 15 30 21t37 6z" />
    <glyph glyph-name="parenright" unicode=")" horiz-adv-x="307" 
d="M98 779q22 0 37 -6t30 -21l80 -79q15 -15 21 -29.5t6 -35.5v-555q0 -26 -9 -41.5t-31 -36.5l-68 -66q-14 -15 -29 -21.5t-37 -6.5h-62v107h39q8 0 13 5l63 62q6 6 6 13v526q0 7 -6 13l-63 62q-5 5 -13 5h-39v107z" />
    <glyph glyph-name="asterisk" unicode="*" horiz-adv-x="499" 
d="M297 721v-101l-4 -47l38 26l89 51l46 -79l-88 -51l-46 -22l46 -22l88 -51l-46 -79l-89 51l-38 26l4 -47v-101h-93v101l4 48l-39 -27l-89 -51l-46 79l88 51l46 22l-46 22l-88 51l46 79l89 -51l39 -27l-4 48v101h93z" />
    <glyph glyph-name="plus" unicode="+" horiz-adv-x="532" 
d="M324 524v-177h175v-109h-175v-177h-115v177h-174v109h174v177h115z" />
    <glyph glyph-name="comma" unicode="," horiz-adv-x="229" 
d="M194 112v-81q0 -33 -13 -60l-30 -63h-101l39 84h-27v120h132z" />
    <glyph glyph-name="hyphen" unicode="-" horiz-adv-x="413" 
d="M378 348v-109h-342v109h342z" />
    <glyph glyph-name="period" unicode="." horiz-adv-x="205" 
d="M168 91v-128h-131v128h131z" />
    <glyph glyph-name="slash" unicode="/" horiz-adv-x="419" 
d="M267 700h116l-230 -700h-116z" />
    <glyph glyph-name="zero" unicode="0" horiz-adv-x="488" 
d="M325 673q22 0 37 -6t30 -21l39 -39q15 -15 21 -30t6 -36v-409q0 -21 -6 -36t-21 -30l-39 -39q-15 -15 -30 -21t-37 -6h-160q-22 0 -37 6t-30 21l-39 39q-15 15 -21 30t-6 36v409q0 21 6 36t21 30l39 39q15 15 30 21t37 6h160zM321 567q-5 5 -13 5h-125q-8 0 -13 -5
l-21 -21q-6 -6 -6 -13v-395q0 -7 6 -13l21 -21q5 -5 13 -5h124q8 0 13 5l21 21q6 6 6 13v395q0 7 -6 13z" />
    <glyph glyph-name="one" unicode="1" horiz-adv-x="316" 
d="M248 673l37 -37v-637h-111v553l-137 -51l-24 67l22 47l156 58h57z" />
    <glyph glyph-name="two" unicode="2" horiz-adv-x="507" 
d="M297 672q26 0 43 -7t37 -27l49 -49q18 -18 25.5 -36t7.5 -45v-71q0 -29 -9 -51t-33 -34l-265 -134q-11 -6 -11 -16v-103h345v-68l-34 -33h-422v204q0 73 73 110l235 120q11 5 11 15v60q0 6 -1 9.5t-6 8.5l-40 41q-7 7 -18 7h-97q-11 0 -18 -7l-58 -60l-76 76l57 57
q20 20 37 27t43 7z" />
    <glyph glyph-name="three" unicode="3" horiz-adv-x="475" 
d="M305 669q22 0 37 -6t30 -21l39 -39q15 -15 21 -30t6 -36v-70q0 -21 -6.5 -35.5t-21.5 -29.5l-31 -32l36 -36q15 -15 21 -30t6 -36v-140q0 -21 -6 -36t-21 -30l-39 -39q-15 -15 -30 -21t-36 -6h-186q-21 0 -36 6t-30 21l-43 43l75 75l39 -39q5 -5 13 -5h151q8 0 13 5
l21 21q6 6 6 13v125q0 7 -6 13l-46 46q-5 5 -13 5h-170v101h179q8 0 13 5l32 33q5 7 5 13v56q0 7 -6 13l-21 21q-5 5 -13 5h-141q-8 0 -13 -5l-39 -39l-75 75l43 43q15 15 30 21t37 6z" />
    <glyph glyph-name="four" unicode="4" horiz-adv-x="499" 
d="M361 673l37 -37v-390h85v-63l-37 -37h-48v-147h-111v147h-234l-37 37v48l228 442h117zM287 515l-140 -269h140v269z" />
    <glyph glyph-name="five" unicode="5" horiz-adv-x="463" 
d="M378 672l37 -37v-63h-239l-24 -168h149q22 0 37 -6t30 -21l39 -39q15 -15 21 -30t6 -36v-141q0 -21 -6 -36t-21 -30l-39 -39q-15 -15 -30 -21t-36 -6h-160q-21 0 -36 6t-30 21l-43 43l75 75l39 -39q5 -5 13 -5h124q8 0 13 5l21 21q6 6 6 13v127q0 7 -6 13l-21 21
q-5 5 -13 5h-201l-50 50l39 282l36 36z" />
    <glyph glyph-name="six" unicode="6" horiz-adv-x="469" 
d="M323 672q22 0 37 -6t30 -21l43 -43l-75 -75l-39 39q-5 5 -13 5h-124q-8 0 -13 -5l-21 -21q-6 -6 -6 -13v-134l57 27q27 13 55 13h51q21 0 35.5 -6t30.5 -22l39 -39q14 -14 20.5 -30t6.5 -39v-168q0 -23 -6.5 -39t-20.5 -30l-38 -38q-17 -17 -32 -22.5t-35 -5.5h-142
q-20 0 -34.5 5.5t-31.5 22.5l-39 39q-14 14 -20.5 30t-6.5 39v406q0 21 6 36t21 30l39 39q15 15 30 21t37 6zM301 332q-5 5 -13 5h-32q-5 0 -9 -2l-106 -49v-150q0 -6 6 -12l20 -20q5 -5 13 -5h108q8 0 13 5l20 20q6 6 6 12v164q0 6 -6 12z" />
    <glyph glyph-name="seven" unicode="7" horiz-adv-x="407" 
d="M357 673l37 -37v-36l-184 -601h-113l171 573h-254v64l37 37h306z" />
    <glyph glyph-name="eight" unicode="8" horiz-adv-x="488" 
d="M320 673q22 0 37 -6t30 -21l39 -39q15 -15 21 -30t6 -36v-106q0 -21 -6 -36t-22 -30l-13 -13l18 -18q15 -15 21 -29.5t6 -35.5v-139q0 -21 -6 -36t-21 -30l-39 -39q-15 -15 -30 -21t-37 -6h-160q-22 0 -37 6t-30 21l-39 39q-15 15 -21 30t-6 36v139q0 21 6 36t21 30
l18 18l-13 13q-15 15 -21 29.5t-6 35.5v106q0 21 6 36t21 30l39 39q15 15 30 21t37 6h151zM316 567q-5 5 -13 5h-115q-8 0 -13 -5l-21 -21q-6 -6 -6 -13v-92q0 -7 6 -13l21 -21q5 -5 12 -5h116q7 0 12 5l21 21q6 6 6 13v92q0 7 -6 13zM321 298q-5 5 -12 5h-126q-7 0 -12 -5
l-21 -21q-6 -6 -6 -13v-125q0 -7 6 -13l21 -21q5 -5 13 -5h124q8 0 13 5l21 21q6 6 6 13v125q0 7 -6 13z" />
    <glyph glyph-name="nine" unicode="9" horiz-adv-x="469" 
d="M304 673q21 0 35.5 -6t30.5 -22l39 -39q14 -14 20.5 -30t6.5 -39v-406q0 -21 -6 -36t-21 -30l-39 -39q-14 -14 -28.5 -20.5t-36.5 -6.5h-160q-22 0 -36.5 6.5t-29.5 20.5l-43 43l75 75l39 -39q5 -5 13 -5h124q8 0 13 5l21 21q6 6 6 13v149l-57 -27q-27 -13 -55 -13h-51
q-21 0 -35.5 6t-30.5 22l-39 39q-14 14 -20.5 30t-6.5 39v153q0 23 6.5 39t20.5 30l39 39q16 16 30.5 22t35.5 6h140zM300 565q-5 5 -13 5h-108q-8 0 -13 -5l-20 -20q-6 -6 -6 -12v-149q0 -6 6 -12l20 -20q5 -5 13 -5h32q5 0 9 2l106 50v135q0 6 -6 12z" />
    <glyph glyph-name="colon" unicode=":" horiz-adv-x="205" 
d="M168 512v-128h-131v128h131zM168 117v-129h-131v129h131z" />
    <glyph glyph-name="semicolon" unicode=";" horiz-adv-x="229" 
d="M193 507v-128h-131v128h131zM194 112v-81q0 -33 -13 -60l-30 -63h-101l39 84h-27v120h132z" />
    <glyph glyph-name="less" unicode="&#x3c;" horiz-adv-x="553" 
d="M477 535l41 -98l-345 -166v-18l345 -166l-41 -97l-442 213v118z" />
    <glyph glyph-name="equal" unicode="=" horiz-adv-x="532" 
d="M499 435v-109h-464v109h464zM499 257v-109h-464v109h464z" />
    <glyph glyph-name="greater" unicode="&#x3e;" horiz-adv-x="553" 
d="M76 536l442 -214v-118l-442 -213l-41 97l345 166v18l-345 166z" />
    <glyph glyph-name="question" unicode="?" horiz-adv-x="485" 
d="M287 700q26 0 43.5 -7t37.5 -27l49 -49q18 -18 25.5 -36t7.5 -45v-74q0 -29 -9 -51t-33 -34l-109 -55q-12 -6 -12 -18v-128h-112v132q0 72 73 110l79 41q12 5 12 16v60q0 6 -1 8.5t-6 7.5l-40 40q-7 7 -18 7h-84q-11 0 -18 -7l-58 -58l-77 76l57 57q20 20 37 27t43 7h113
zM295 128v-128h-131v128h131z" />
    <glyph glyph-name="at" unicode="@" horiz-adv-x="717" 
d="M526 544q33 0 57 -24l75 -74q23 -23 23 -56v-219q0 -33 -23 -56l-75 -74q-24 -24 -57 -24h-106l-3 19l-18 -8q-21 -10 -47 -10h-57q-30 0 -52 22l-29 29q-21 21 -21 52v40q0 31 21 52l33 33q22 22 52 22h114v28q0 6 -4 10l-17 17q-5 5 -11 5h-170v57l26 25h159
q30 0 52 -22l32 -32q21 -21 21 -52v-199h18q8 0 13 5l50 60q5 7 5 12v200q0 6 -4 10l-65 64q-6 6 -13 6h-298q-7 0 -12 -5l-65 -64q-4 -4 -4 -11v-336q0 -8 6 -12l65 -64q4 -4 10 -4h295v-84h-312q-33 0 -56 24l-75 74q-23 23 -23 56v357q0 33 23 56l75 75q24 24 57 24z
M412 187h-99q-6 0 -11 -5l-17 -17q-4 -4 -4 -10v-26q0 -6 4 -10l13 -13q5 -5 11 -5h40q4 0 10 2l53 25v59z" />
    <glyph glyph-name="A" unicode="A" horiz-adv-x="629" 
d="M396 700l216 -672l-61 -28h-50l-68 216h-236l-68 -216h-50l-61 28l216 672h162zM318 580h-7l-81 -259h170z" />
    <glyph glyph-name="B" unicode="B" horiz-adv-x="600" 
d="M399 699q21 0 35.5 -6t29.5 -21l39 -39q15 -15 21 -29.5t6 -35.5v-139q0 -17 -4.5 -30.5t-10.5 -21.5l-7 -7q-1 -1 -1 -3q0 -1 2 -3l25 -25q15 -15 21 -29.5t6 -35.5v-143q0 -21 -6 -35.5t-21 -29.5l-39 -39q-15 -15 -29.5 -21t-35.5 -6h-350v664l36 36zM389 589
q-5 5 -13 5h-182v-191h182q8 0 13 5l22 22q6 6 6 13v111q0 7 -6 13zM420 292q-5 5 -13 5h-214v-194h214q8 0 13 5l22 22q6 6 6 13v115q0 7 -6 13z" />
    <glyph glyph-name="C" unicode="C" horiz-adv-x="586" 
d="M405 701q21 0 35.5 -6t29.5 -21l84 -83l-79 -79l-80 80q-5 5 -13 5h-126q-8 0 -13 -5l-63 -63q-6 -6 -6 -13v-329q0 -7 6 -13l63 -63q5 -5 13 -5h126q8 0 13 5l80 80l79 -79l-84 -84q-15 -15 -29.5 -21t-35.5 -6h-171q-21 0 -35.5 6t-29.5 21l-80 79q-15 15 -21 29.5
t-6 35.5v357q0 21 6 35.5t21 29.5l80 79q15 15 29.5 21t35.5 6z" />
    <glyph glyph-name="D" unicode="D" horiz-adv-x="633" 
d="M401 699q21 0 35.5 -6t29.5 -21l80 -79q15 -15 21 -29.5t6 -35.5v-357q0 -21 -6 -35.5t-21 -29.5l-80 -79q-15 -15 -29.5 -21t-35.5 -6h-321v664l36 36zM392 588q-5 5 -13 5h-185v-490h185q8 0 13 5l63 63q6 6 6 13v329q0 7 -6 13z" />
    <glyph glyph-name="E" unicode="E" horiz-adv-x="540" 
d="M467 701l36 -36v-69h-276q-8 0 -13 -5l-22 -22q-6 -6 -6 -13v-153h264v-105h-264v-153q0 -7 6 -13l22 -22q5 -5 13 -5h276v-69l-36 -36h-263q-21 0 -35.5 6t-29.5 21l-39 39q-15 15 -21 29.5t-6 35.5v438q0 21 6 35.5t21 29.5l39 39q15 15 29.5 21t35.5 6z" />
    <glyph glyph-name="F" unicode="F" horiz-adv-x="527" 
d="M456 701l36 -36v-69h-259q-8 0 -13 -5l-22 -22q-6 -6 -6 -13v-171h246v-105h-246v-279h-114v568q0 21 6 35.5t21 29.5l39 39q15 15 29.5 21t35.5 6z" />
    <glyph glyph-name="G" unicode="G" horiz-adv-x="611" 
d="M403 702q21 0 35.5 -6t29.5 -21l84 -84l-79 -79l-81 80q-6 6 -15 6h-122q-8 0 -13 -5l-63 -63q-6 -6 -6 -13v-330q0 -7 6 -13l65 -64q6 -6 15 -6h121q8 0 13 5l63 63q6 6 6 13v108h-153v69l36 36h230v-227q0 -21 -6 -35.5t-21 -29.5l-80 -79q-10 -10 -25 -18.5t-33 -7.5
h-177q-21 0 -35.5 6t-29.5 21l-80 79q-15 15 -21 29.5t-6 35.5v358q0 21 6 35.5t21 29.5l80 79q10 10 25 18.5t33 7.5z" />
    <glyph glyph-name="H" unicode="H" horiz-adv-x="678" 
d="M600 700v-700h-114v309h-290v-309h-114v664l36 36h77v-286h290v250l36 36h79z" />
    <glyph glyph-name="I" unicode="I" horiz-adv-x="251" 
d="M183 700v-700h-114v664l36 36h78z" />
    <glyph glyph-name="J" unicode="J" horiz-adv-x="322" 
d="M251 692v-683q0 -22 -6.5 -35.5t-20.5 -28.5l-39 -39q-14 -14 -28.5 -21t-36.5 -7h-106v105h84q8 0 13 6l21 20q5 7 5 13v566h-124v69l36 36z" />
    <glyph glyph-name="K" unicode="K" horiz-adv-x="590" 
d="M195 701v-286l252 286h48l50 -50l-246 -284l275 -317l-50 -50h-48l-250 283l-31 -36v-247h-114v664l36 36z" />
    <glyph glyph-name="L" unicode="L" horiz-adv-x="507" 
d="M191 700v-595h298v-105h-375l-36 36v628l36 36h77z" />
    <glyph glyph-name="M" unicode="M" horiz-adv-x="877" 
d="M770 700l36 -36v-664h-114v562h-12l-169 -562h-141l-168 562h-13v-562h-114v664l36 36h160l161 -576h15l160 576h163z" />
    <glyph glyph-name="N" unicode="N" horiz-adv-x="667" 
d="M593 700v-664l-36 -36h-137l-224 562h-6v-562h-114v664l36 36h140l222 -562h5v562h114z" />
    <glyph glyph-name="O" unicode="O" 
d="M430 700q21 0 35.5 -6t29.5 -21l80 -79q15 -15 21 -29.5t6 -35.5v-357q0 -21 -6 -35.5t-21 -29.5l-80 -79q-15 -15 -29.5 -21t-35.5 -6h-196q-21 0 -35.5 6t-29.5 21l-80 79q-15 15 -21 29.5t-6 35.5v357q0 21 6 35.5t21 29.5l80 79q15 15 29.5 21t35.5 6h196zM421 590
q-5 5 -13 5h-150q-8 0 -13 -5l-63 -63q-6 -6 -6 -13v-329q0 -7 6 -13l63 -63q5 -5 13 -5h150q8 0 13 5l63 63q6 6 6 13v329q0 7 -6 13z" />
    <glyph glyph-name="P" unicode="P" horiz-adv-x="587" 
d="M408 700q21 0 35.5 -6t29.5 -21l39 -39q15 -15 21 -29.5t6 -35.5v-158q0 -21 -6 -35.5t-21 -29.5l-39 -39q-15 -15 -29.5 -21t-35.5 -6h-215v-280h-114v664l36 36h293zM398 590q-5 5 -13 5h-192v-210h192q8 0 13 5l22 22q6 6 6 13v130q0 7 -6 13z" />
    <glyph glyph-name="Q" unicode="Q" horiz-adv-x="684" 
d="M433 700q21 0 35.5 -6t29.5 -21l80 -79q15 -15 21 -29.5t6 -35.5v-358q0 -20 -5 -33t-18 -27l-11 -11l88 -89l-50 -48h-51l-62 63l-9 -9q-12 -10 -24.5 -13.5t-29.5 -3.5h-196q-21 0 -35.5 6t-29.5 21l-80 79q-15 15 -21 29.5t-6 35.5v358q0 21 6 35.5t21 29.5l80 79
q15 15 29.5 21t35.5 6h196zM424 590q-5 5 -13 5h-150q-8 0 -13 -5l-63 -63q-6 -6 -6 -13v-329q0 -7 6 -13l63 -63q5 -5 13 -5h150q8 0 13 5l63 63q6 6 6 13v329q0 7 -6 13z" />
    <glyph glyph-name="R" unicode="R" horiz-adv-x="605" 
d="M409 699q21 0 35.5 -6t29.5 -21l39 -39q15 -15 21 -29.5t6 -35.5v-141q0 -21 -6 -35.5t-21 -29.5l-39 -39q-9 -9 -18 -13l-10 -1l125 -262l-47 -47h-55l-141 298h-133v-298h-114v664l36 36zM399 589q-5 5 -13 5h-192v-193h192q8 0 13 5l22 22q6 6 6 13v113q0 7 -6 13z
" />
    <glyph glyph-name="S" unicode="S" horiz-adv-x="547" 
d="M448 700l33 -32v-73h-258q-13 0 -20 -7l-40 -41q-8 -9 -8 -18v-37q0 -9 10 -14l273 -138q73 -37 73 -108v-60q0 -27 -9.5 -48.5t-32.5 -44.5l-41 -41q-18 -18 -43 -28t-57 -10h-255l-33 32v73h288q13 0 20 7l41 41q8 8 8 17v57q0 11 -12 18l-297 152q-25 13 -36 31.5
t-11 47.5v57q0 27 7 44.5t25 35.5l54 54q19 19 35.5 26t42.5 7h243z" />
    <glyph glyph-name="T" unicode="T" horiz-adv-x="552" 
d="M497 700l36 -36v-69h-199v-595h-114v595h-199v69l36 36h440z" />
    <glyph glyph-name="U" unicode="U" horiz-adv-x="655" 
d="M503 700h77v-569q0 -21 -6 -35.5t-21 -29.5l-39 -39q-15 -15 -29.5 -21t-35.5 -6h-238q-21 0 -35.5 6t-29.5 21l-39 39q-15 15 -21 29.5t-6 35.5v533l36 36h77v-555q0 -7 6 -13l22 -22q5 -5 13 -5h192q8 0 13 5l22 22q6 6 6 13v519z" />
    <glyph glyph-name="V" unicode="V" horiz-adv-x="633" 
d="M555 700l61 -28l-203 -672h-191l-203 672l61 28h50l176 -595h23l176 595h50z" />
    <glyph glyph-name="W" unicode="W" horiz-adv-x="960" 
d="M883 700l60 -28l-170 -672h-160l-128 562h-9l-129 -562h-160l-170 672l60 28h51l128 -562h20l122 562h164l121 -562h20l130 562h50z" />
    <glyph glyph-name="X" unicode="X" horiz-adv-x="561" 
d="M496 700l48 -48l-197 -304l197 -300l-48 -48h-50l-166 253l-164 -253h-50l-48 48l197 304l-197 300l48 48h49l167 -254l162 254h52z" />
    <glyph glyph-name="Y" unicode="Y" horiz-adv-x="583" 
d="M507 700l62 -29l-190 -437h-29v-234h-114v234h-29l-190 437l62 29h49l151 -361h27l151 361h50z" />
    <glyph glyph-name="Z" unicode="Z" horiz-adv-x="573" 
d="M484 701l36 -36v-114l-365 -437v-8h379v-69l-36 -36h-420l-37 36v112l365 436v10h-346v69l36 36z" />
    <glyph glyph-name="bracketleft" unicode="[" horiz-adv-x="279" 
d="M243 751v-70l-37 -37h-55v-659h54l37 -35v-72h-169l-37 36v800l37 37h170z" />
    <glyph glyph-name="backslash" unicode="\" horiz-adv-x="416" 
d="M149 700l230 -700h-112l-230 700h112z" />
    <glyph glyph-name="bracketright" unicode="]" horiz-adv-x="279" 
d="M207 751l37 -37v-800l-37 -36h-169v72l37 35h54v659h-55l-37 37v70h170z" />
    <glyph glyph-name="asciicircum" unicode="^" horiz-adv-x="618" 
d="M374 714l211 -436l-102 -43l-160 332h-25l-160 -332l-102 43l211 436h127z" />
    <glyph glyph-name="underscore" unicode="_" horiz-adv-x="569" 
d="M535 -74v-100h-501v100h501z" />
    <glyph glyph-name="grave" unicode="`" horiz-adv-x="245" 
d="M94 770l116 -137l-48 -44l-127 127z" />
    <glyph glyph-name="a" unicode="a" horiz-adv-x="483" 
d="M305 499q21 0 35.5 -6t28.5 -20l42 -42q15 -15 21 -29.5t6 -35.5v-367h-97l-5 28l-31 -15q-29 -13 -60 -13h-75q-21 0 -35.5 6t-28.5 20l-38 38q-15 15 -21 29.5t-6 35.5v52q0 21 6 35.5t21 29.5l43 43q15 14 29.5 20t35.5 6h155v45q0 7 -6 13l-26 26q-5 5 -13 5h-219v67
l30 30zM332 217h-139q-8 0 -13 -5l-26 -26q-6 -6 -6 -13v-39q0 -7 6 -13l21 -21q5 -5 13 -5h57q6 0 12 3l75 35v84z" />
    <glyph glyph-name="b" unicode="b" horiz-adv-x="494" 
d="M162 718v-257l59 27q14 6 26.5 9t27.5 3h51q21 0 35.5 -6t28.5 -20l38 -38q15 -15 21 -29.5t6 -35.5v-242q0 -21 -6 -35.5t-21 -29.5l-38 -38q-14 -14 -28.5 -20t-35.5 -6h-140q-21 0 -35.5 6t-29.5 20l-38 38q-15 15 -21 29.5t-6 35.5v558l30 30zM322 399q-5 5 -13 5
h-30q-6 0 -12 -3l-104 -49v-216q0 -7 6 -13l21 -21q5 -5 13 -5h106q8 0 13 5l21 21q6 6 6 13v229q0 7 -6 13z" />
    <glyph glyph-name="c" unicode="c" horiz-adv-x="444" 
d="M318 499q21 0 35.5 -6t28.5 -21l41 -41l-71 -71l-38 38q-5 5 -13 5h-114q-8 0 -13 -5l-21 -21q-6 -6 -6 -13v-229q0 -7 6 -13l21 -21q5 -5 13 -5h113q8 0 13 5l38 38l72 -72l-41 -41q-14 -14 -28.5 -20t-35.5 -6h-147q-21 0 -35.5 6t-28.5 20l-38 38q-15 15 -21 29.5
t-6 35.5v242q0 21 6 35.5t21 29.5l38 38q14 14 28.5 20t35.5 6z" />
    <glyph glyph-name="d" unicode="d" horiz-adv-x="492" 
d="M408 717l30 -30v-687h-97l-5 28l-31 -15q-29 -13 -59 -13h-75q-21 0 -35.5 6t-29.5 20l-38 38q-15 15 -21 29.5t-6 35.5v237q0 21 6 35.5t21 29.5l43 43q15 14 29.5 20t35.5 6h155v217h77zM331 403h-139q-8 0 -13 -5l-26 -26q-6 -6 -6 -13v-224q0 -7 6 -13l21 -21
q5 -5 13 -5h57q6 0 12 3l75 35v269z" />
    <glyph glyph-name="e" unicode="e" horiz-adv-x="469" 
d="M304 498q21 0 35.5 -6t28.5 -20l38 -38q15 -15 21 -29.5t6 -35.5v-133l-30 -30h-257v-72q0 -7 6 -13l21 -21q5 -5 13 -5h101q8 0 13 5l38 38l72 -71l-41 -41q-14 -14 -28.5 -20t-35.5 -6h-135q-21 0 -35.5 6t-28.5 20l-38 38q-15 15 -21 29.5t-6 35.5v242q0 21 6 35.5
t21 29.5l38 38q14 14 28.5 20t35.5 6zM301 396q-5 5 -13 5h-101q-8 0 -13 -5l-21 -21q-6 -6 -6 -13v-61h181v61q0 7 -6 13z" />
    <glyph glyph-name="f" unicode="f" horiz-adv-x="306" 
d="M265 699l30 -30v-66h-64q-8 0 -13 -5l-21 -21q-6 -6 -6 -13v-65h95v-96h-95v-404h-106v404h-73v67l30 30h43v71q0 21 6 35.5t21 29.5l38 38q14 14 28.5 20t35.5 6z" />
    <glyph glyph-name="g" unicode="g" horiz-adv-x="486" 
d="M312 501q21 0 35.5 -6t28.5 -20l38 -38q15 -15 21 -29.5t6 -35.5v-418q0 -20 -5.5 -33.5t-19.5 -28.5l-44 -44q-16 -16 -30.5 -21t-34.5 -5h-206l-31 29v67h220q8 0 13 6l26 25q5 5 5 13v78l-59 -27q-14 -6 -26.5 -9t-27.5 -3h-51q-21 0 -35.5 6t-28.5 20l-38 38
q-17 17 -22 35t-5 36v237q0 21 6 34.5t21 28.5l38 38q14 14 28.5 20t35.5 6zM308 398q-5 5 -13 5h-106q-8 0 -13 -5l-21 -21q-6 -6 -6 -13v-229q0 -7 6 -13l21 -21q5 -5 13 -5h32q5 0 10 3l105 49v217q0 7 -6 13z" />
    <glyph glyph-name="h" unicode="h" horiz-adv-x="504" 
d="M162 718v-256l59 27q14 6 26.5 9t27.5 3h51q21 0 35.5 -6t28.5 -20l38 -38q15 -15 21 -29.5t6 -35.5v-371h-106v364q0 7 -6 13l-21 21q-5 5 -13 5h-30q-6 0 -12 -3l-104 -49v-352h-106v686l30 30z" />
    <glyph glyph-name="i" unicode="i" horiz-adv-x="213" 
d="M169 670v-117h-119v117h119zM162 500v-500h-106v500h106z" />
    <glyph glyph-name="j" unicode="j" horiz-adv-x="217" 
d="M169 670v-117h-119v117h119zM162 500v-552q0 -20 -5.5 -34t-19.5 -29l-40 -40q-14 -14 -28.5 -20t-35.5 -6h-61v97h44q8 0 13 5l22 22q5 5 5 13v544h106z" />
    <glyph glyph-name="k" unicode="k" horiz-adv-x="490" 
d="M169 717v-371l197 154h50l50 -49l-213 -165l230 -238l-48 -47h-51l-202 216l-13 -33v-183h-106v686l30 30h76z" />
    <glyph glyph-name="l" unicode="l" horiz-adv-x="273" 
d="M160 716v-581q0 -7 5 -12l22 -22q5 -5 13 -5h62v-96h-79q-21 0 -35.5 6t-29.5 20l-33 33q-17 17 -24 32t-7 38v558l30 30z" />
    <glyph glyph-name="m" unicode="m" horiz-adv-x="765" 
d="M311 501q21 0 35.5 -6t28.5 -20l25 -25l84 39q14 6 26.5 9t27.5 3h53q21 0 35.5 -6t28.5 -20l38 -38q15 -15 21 -29.5t6 -35.5v-371h-106v364q0 7 -6 13l-21 21q-5 5 -13 5h-33q-6 0 -12 -3l-90 -42v-359h-106v364q0 7 -6 13l-21 21q-5 5 -13 5h-33q-6 0 -12 -3l-90 -42
v-359h-106v500h96l6 -34l49 23q14 6 26.5 9t27.5 3z" />
    <glyph glyph-name="n" unicode="n" horiz-adv-x="507" 
d="M329 500q21 0 35.5 -6t28.5 -20l38 -38q15 -15 21 -29.5t6 -35.5v-371h-106v364q0 7 -6 13l-21 21q-5 5 -13 5h-33q-6 0 -12 -3l-105 -49v-352h-106v500h95l7 -41l63 30q14 6 26.5 9t27.5 3h54z" />
    <glyph glyph-name="o" unicode="o" horiz-adv-x="487" 
d="M317 500q21 0 35.5 -6t28.5 -20l38 -38q15 -15 21 -29.5t6 -35.5v-242q0 -21 -6 -35.5t-21 -29.5l-38 -38q-14 -14 -28.5 -20t-35.5 -6h-147q-21 0 -35.5 6t-28.5 20l-38 38q-15 15 -21 29.5t-6 35.5v242q0 21 6 35.5t21 29.5l38 38q14 14 28.5 20t35.5 6h147zM314 398
q-5 5 -13 5h-114q-8 0 -13 -5l-21 -21q-6 -6 -6 -13v-229q0 -7 6 -13l21 -21q5 -5 13 -5h114q8 0 13 5l21 21q6 6 6 13v229q0 7 -6 13z" />
    <glyph glyph-name="p" unicode="p" horiz-adv-x="499" 
d="M329 500q21 0 35.5 -6t28.5 -20l38 -38q15 -15 21 -29.5t6 -35.5v-242q0 -21 -6 -35.5t-21 -29.5l-38 -38q-14 -14 -28.5 -20t-35.5 -6h-163v-150l-30 -30h-76v680h95l7 -41l63 29q14 6 26.5 9t27.5 3h50zM327 399q-5 5 -13 5h-30q-6 0 -12 -3l-105 -49v-256h146
q8 0 13 5l21 21q6 6 6 13v229q0 7 -6 13z" />
    <glyph glyph-name="q" unicode="q" horiz-adv-x="494" 
d="M311 501q21 0 35.5 -6t28.5 -20l38 -38q15 -15 21 -29.5t6 -35.5v-520l-30 -30h-76v218l-59 -28q-14 -6 -26.5 -9t-27.5 -3h-51q-21 0 -35.5 6t-28.5 20l-38 38q-15 15 -21 29.5t-6 35.5v242q0 21 6 35.5t21 29.5l38 38q14 14 28.5 20t35.5 6zM308 398q-5 5 -13 5h-106
q-8 0 -13 -5l-21 -21q-6 -6 -6 -13v-229q0 -7 6 -13l21 -21q5 -5 13 -5h30q6 0 12 3l104 49v217q0 7 -6 13z" />
    <glyph glyph-name="r" unicode="r" horiz-adv-x="333" 
d="M316 498v-96h-43q-3 0 -6.5 -0.5t-6.5 -2.5l-104 -76v-324h-106v500h90l11 -60l61 47q14 11 29 12.5t28 1.5z" />
    <glyph glyph-name="s" unicode="s" horiz-adv-x="434" 
d="M343 500l30 -30v-67h-189q-8 0 -13 -5l-21 -22q-6 -6 -6 -13v-12q0 -8 8 -13l183 -93q58 -30 58 -86v-29q0 -20 -7.5 -37t-25.5 -35l-28 -28q-14 -14 -34 -22t-45 -8h-185l-30 30v67h210q8 0 13 5l21 21q6 6 6 13v16q0 8 -8 13l-201 102q-40 21 -40 65v39q0 21 6 35.5
t21 29.5l38 38q14 14 28.5 20t35.5 6h175z" />
    <glyph glyph-name="t" unicode="t" horiz-adv-x="334" 
d="M196 611v-112h104v-96h-104v-269q0 -7 6 -13l21 -21q5 -5 13 -5h64v-67l-31 -29h-51q-21 0 -35.5 6t-28.5 20l-38 38q-15 15 -21 29.5t-6 35.5v275h-73v67l30 30h43v112z" />
    <glyph glyph-name="u" unicode="u" horiz-adv-x="502" 
d="M452 500v-500h-95l-7 41l-63 -30q-14 -6 -26.5 -9t-27.5 -3h-53q-21 0 -35.5 6t-28.5 20l-38 38q-15 15 -21 29.5t-6 35.5v371h106v-364q0 -7 6 -13l21 -21q5 -5 13 -5h33q6 0 12 3l104 49v352h106z" />
    <glyph glyph-name="v" unicode="v" horiz-adv-x="523" 
d="M462 500l48 -22l-164 -478h-166l-165 478l48 22h56l132 -404h23l132 404h56z" />
    <glyph glyph-name="w" unicode="w" horiz-adv-x="777" 
d="M713 500l52 -24l-131 -476h-144l-100 369h-7l-98 -369h-144l-131 476l52 24h53l95 -392h9l102 392h137l101 -392h9l95 392h50z" />
    <glyph glyph-name="x" unicode="x" horiz-adv-x="488" 
d="M468 475l-159 -225l166 -225l-54 -25h-56l-120 164l-120 -164h-56l-53 25l165 225l-166 225l53 25h56l120 -163l115 163h56z" />
    <glyph glyph-name="y" unicode="y" horiz-adv-x="491" 
d="M430 500l48 -22l-166 -483q-7 -19 -20 -47t-37 -55t-61 -48.5t-91 -26.5l-15 86q27 3 44.5 9t29 15.5t19 22t14.5 29.5l7 20h-24l-165 478l48 22h56l123 -389h8l126 389h56z" />
    <glyph glyph-name="z" unicode="z" horiz-adv-x="478" 
d="M398 500l30 -30v-97l-282 -274v-3h291v-67l-30 -30h-336l-30 30v104l282 267v3h-267v67l30 30h312z" />
    <glyph glyph-name="braceleft" unicode="{" horiz-adv-x="358" 
d="M242 778l80 -80l-80 -79q-6 -6 -6 -13v-229l-64 -46l64 -46v-230q0 -7 6 -13l79 -79l-80 -82l-93 95q-14 14 -20.5 28.5t-6.5 35.5v195l-84 59v70l84 59v196q0 21 6 35.5t21 29.5z" />
    <glyph glyph-name="bar" unicode="|" horiz-adv-x="191" 
d="M154 745v-880h-117v880h117z" />
    <glyph glyph-name="braceright" unicode="}" horiz-adv-x="358" 
d="M119 773l93 -92q15 -15 21 -29.5t6 -35.5v-196l84 -59v-70l-84 -59v-195q0 -21 -6.5 -35.5t-20.5 -28.5l-93 -95l-80 82l79 79q6 6 6 13v230l64 46l-64 46v229q0 7 -6 13l-80 79z" />
    <glyph glyph-name="asciitilde" unicode="~" horiz-adv-x="581" 
d="M35 267q19 29 37 54.5t37 44.5t39.5 30.5t44.5 13.5q5 1 10 1h10q27 0 50 -10.5t61 -40.5q23 -18 38.5 -27.5t29.5 -9.5q19 0 38 18.5t49 58.5l67 -44q-29 -77 -71 -113t-89 -36q-45 0 -91 32q-41 29 -60 41.5t-35 12.5q-4 0 -14 -2t-31 -16t-51 -60z" />
    <glyph glyph-name="exclamdown" unicode="&#xa1;" horiz-adv-x="205" 
d="M168 537v-128h-131v128h131zM152 363l9 -318v-209h-117v209l9 318h99z" />
    <glyph glyph-name="cent" unicode="&#xa2;" horiz-adv-x="464" 
d="M428 64l-43 -43q-15 -15 -30 -21.5t-37 -6.5h-35v-47h-80v47h-35q-22 0 -37 6.5t-30 21.5l-39 39q-15 15 -21 30t-6 36v246q0 21 6 36t21 30l39 39q15 15 30 21t37 6h35v48h80v-48h35q22 0 37 -6t30 -21l43 -43l-75 -75l-40 40q-5 5 -13 5h-17v-309h17q8 0 13 5l40 40z
M203 95v309h-17q-8 0 -13 -5l-21 -21q-6 -6 -6 -13v-232q0 -7 6 -13l21 -21q5 -5 13 -5z" />
    <glyph glyph-name="sterling" unicode="&#xa3;" horiz-adv-x="551" 
d="M353 675q21 0 35.5 -6t29.5 -21l84 -84l-79 -79l-80 80q-5 5 -13 5h-25q-8 0 -13 -5l-63 -63q-6 -6 -6 -13v-85h180v-69l-36 -36h-144v-121q0 -27 -11 -45l-8 -9q-1 -1 -1 -3q0 -3 3 -3l29 -7q8 -2 20.5 -3t26.5 -1h235v-105h-330q-21 0 -35.5 6t-29.5 21l-84 84l65 65
q6 6 6 13v107h-63v105h63v99q0 21 6 35.5t21 29.5l80 79q15 15 29.5 21t35.5 6z" />
    <glyph glyph-name="currency" unicode="&#xa4;" horiz-adv-x="727" 
 />
    <glyph glyph-name="yen" unicode="&#xa5;" horiz-adv-x="623" 
d="M526 699l62 -29l-114 -261h49v-105h-95l-24 -56h-35v-43h154v-105h-154v-100h-114v100h-154v105h154v43h-35l-24 56h-95v105h49l-114 261l62 29h49l151 -359h27l151 359h50z" />
    <glyph glyph-name="brokenbar" unicode="&#xa6;" horiz-adv-x="191" 
d="M154 745v-363h-117v363h117zM154 228v-363h-117v363h117z" />
    <glyph glyph-name="section" unicode="&#xa7;" horiz-adv-x="424" 
d="M338 590l30 -30v-67h-189q-8 0 -13 -5l-21 -22q-6 -6 -6 -13v-12q0 -8 8 -13l183 -93q58 -30 58 -86v-29q0 -20 -7.5 -37t-25.5 -35l-9 -9q-3 -2 -5.5 -4.5t-6.5 -5.5l15 -9q38 -28 38 -73v-29q0 -20 -7.5 -37t-25.5 -35l-28 -29q-14 -14 -34 -22t-45 -8h-185l-30 29v68
h210q8 0 13 5l21 21q6 6 6 14v16q0 8 -8 13l-201 102q-40 21 -40 65v39q0 21 6 35.5t21 29.5l19 19q6 8 10 9l-15 8q-40 21 -40 65v39q0 21 6 35.5t21 29.5l38 38q14 14 28.5 20t35.5 6zM191 296h-4q-12 0 -19 -7l-16 -16q-8 -8 -8 -18v-14q0 -5 3.5 -11t9.5 -9l79 -38
q12 0 19 7l16 16q8 8 8 18v16q0 13 -13 20z" />
    <glyph glyph-name="dieresis" unicode="&#xa8;" horiz-adv-x="335" 
d="M129 722v-79h-86v79h86zM293 722v-79h-86v79h86z" />
    <glyph glyph-name="copyright" unicode="&#xa9;" horiz-adv-x="713" 
d="M357 673q66 0 124.5 -25.5t102 -69t69 -103t25.5 -126.5q0 -68 -25.5 -127t-69 -102.5t-102 -69t-124.5 -25.5t-124.5 25.5t-102 69t-69 102.5t-25.5 127q0 67 25.5 126.5t69 103t102 69t124.5 25.5zM357 597q-50 0 -94.5 -19.5t-78 -53t-53 -79t-19.5 -96.5t19.5 -96.5
t53 -79t78 -53t94.5 -19.5t94.5 19.5t78 53t53 79t19.5 96.5t-19.5 96.5t-53 79t-78 53t-94.5 19.5zM400 551q23 0 41 -18l53 -53l-54 -54l-46 45q-2 2 -6 2h-68q-4 0 -6 -2l-27 -27q-2 -2 -2 -7v-170q0 -5 2 -7l27 -27q3 -3 6 -3h68q4 0 6 2l46 45l54 -54l-53 -53
q-18 -18 -41 -18h-92q-23 0 -41 18l-43 43q-17 17 -17 42v189q0 12 4.5 23t12.5 19l43 43q18 18 41 18z" />
    <glyph glyph-name="ordfeminine" unicode="&#xaa;" horiz-adv-x="326" 
d="M207 725q26 0 45 -19l27 -27q18 -18 18 -44v-237h-72l-3 15l-13 -6q-20 -9 -40 -9h-48q-26 0 -45 19l-24 24q-18 18 -18 44v33q0 26 18 44l27 27q19 19 45 19h93v21q0 5 -4 9l-13 13q-3 3 -9 3h-142v49l22 22h136zM217 536h-79q-6 0 -9 -3l-13 -13q-4 -4 -4 -9v-20
q0 -5 4 -9l10 -10q3 -3 9 -3h32q3 0 9 2l43 20z" />
    <glyph glyph-name="guillemotleft" unicode="&#xab;" horiz-adv-x="573" 
d="M229 499l66 -66l-141 -171l141 -171l-66 -66l-194 181v113zM473 498l66 -66l-141 -171l141 -171l-66 -66l-194 181v113z" />
    <glyph glyph-name="logicalnot" unicode="&#xac;" horiz-adv-x="727" 
 />
    <glyph glyph-name="registered" unicode="&#xae;" horiz-adv-x="713" 
d="M357 673q66 0 124.5 -25.5t102 -69t69 -103t25.5 -126.5q0 -68 -25.5 -127t-69 -102.5t-102 -69t-124.5 -25.5t-124.5 25.5t-102 69t-69 102.5t-25.5 127q0 67 25.5 126.5t69 103t102 69t124.5 25.5zM357 597q-50 0 -94.5 -19.5t-78 -53t-53 -79t-19.5 -96.5t19.5 -96.5
t53 -79t78 -53t94.5 -19.5t94.5 19.5t78 53t53 79t19.5 96.5t-19.5 96.5t-53 79t-78 53t-94.5 19.5zM411 545q23 0 41 -18l21 -21q8 -8 12.5 -19t4.5 -23v-75q0 -25 -17 -42l-21 -21q-4 -4 -6 -5l-4 -1l56 -115l-34 -34h-38l-62 136h-60v-136h-77v348l25 25zM405 463
q-3 3 -6 3h-95v-80h95q4 0 7 3l6 6q3 3 3 7v48q0 4 -3 7z" />
    <glyph glyph-name="macron" unicode="&#xaf;" horiz-adv-x="347" 
d="M304 748v-73h-260v73h260z" />
    <glyph glyph-name="degree" unicode="&#xb0;" horiz-adv-x="368" 
d="M185 809q32 0 60 -12t48.5 -32.5t32.5 -48.5t12 -60t-12 -60t-32.5 -48.5t-48.5 -32.5t-60 -12t-60 12t-48.5 32.5t-32.5 48.5t-12 60t12 60t32.5 48.5t48.5 32.5t60 12zM185 731q-15 0 -28 -6t-23.5 -16.5t-16.5 -23.5t-6 -28t6 -28t16.5 -23.5t23.5 -16.5t28 -6t28 6
t23.5 16.5t16.5 23.5t6 28t-6 28t-16.5 23.5t-23.5 16.5t-28 6z" />
    <glyph glyph-name="plusminus" unicode="&#xb1;" horiz-adv-x="532" 
d="M324 571v-149h175v-109h-175v-149h-115v149h-174v109h174v149h115zM499 104v-108h-464v108h464z" />
    <glyph glyph-name="uni00B2" unicode="&#xb2;" horiz-adv-x="359" 
d="M328 319v-48l-24 -23h-271v131q0 23 12 41.5t36 30.5l148 75q1 1 3 1v3v39q0 4 -3 7l-21 21q-2 2 -4 3.5t-3 2.5q-2 1 -2 2h-64q-6 0 -9 -3l-39 -41l-54 54l39 39q22 22 53 22h80q31 0 53 -22l30 -30q22 -22 22 -53v-43q0 -20 -8.5 -35.5t-25.5 -23.5l-162 -82
q-1 -1 -3 -1v-3v-63z" />
    <glyph glyph-name="uni00B3" unicode="&#xb3;" horiz-adv-x="339" 
d="M215 677q26 0 45 -19l24 -24q18 -18 18 -44v-43q0 -25 -19 -44l-17 -17l20 -20q18 -18 18 -44v-87q0 -26 -18 -44l-24 -24q-19 -19 -45 -19h-116q-26 0 -45 19l-30 30l53 53l26 -26q3 -3 9 -3h89q6 0 9 3l10 10q4 4 4 9v74q0 5 -4 9l-25 25q-3 3 -9 3h-108v71h114
q6 0 9 3l17 17q4 4 4 9v30q0 5 -4 9l-10 10q-3 3 -9 3h-83q-6 0 -9 -3l-26 -26l-53 53l30 30q19 19 45 19z" />
    <glyph glyph-name="acute" unicode="&#xb4;" horiz-adv-x="245" 
d="M152 770l59 -54l-127 -127l-48 44z" />
    <glyph glyph-name="paragraph" unicode="&#xb6;" horiz-adv-x="513" 
d="M440 702l37 -37v-772h-115v702h-53v-702h-115v407h-27q-22 0 -37 6t-30 21l-39 39q-15 15 -21 29.5t-6 35.5v138q0 21 6 35.5t21 29.5l39 39q15 15 30 21t37 6z" />
    <glyph glyph-name="periodcentered" unicode="&#xb7;" horiz-adv-x="205" 
d="M168 356v-128h-131v128h131z" />
    <glyph glyph-name="cedilla" unicode="&#xb8;" horiz-adv-x="263" 
d="M170 19l-18 -33l12 -2t11 -2q28 -10 42.5 -30.5t14.5 -46.5q0 -16 -6 -31t-18 -27t-29 -19t-39 -7h-69v66h62q8 0 14 6t6 15q0 8 -6 13.5t-14 5.5h-3q-8 0 -17 -3.5t-27 -12.5l-40 39l33 69h91z" />
    <glyph glyph-name="uni00B9" unicode="&#xb9;" horiz-adv-x="240" 
d="M183 677l26 -26v-403h-78v343l-84 -31l-17 48l15 33l100 37z" />
    <glyph glyph-name="ordmasculine" unicode="&#xba;" horiz-adv-x="333" 
d="M213 725q26 0 45 -19l24 -24q18 -18 18 -44v-153q0 -26 -18 -44l-24 -24q-19 -19 -45 -19h-93q-26 0 -45 19l-24 24q-18 18 -18 44v153q0 26 18 44l24 24q19 19 45 19h93zM208 651q-3 3 -9 3h-66q-6 0 -9 -3l-10 -10q-4 -4 -4 -9v-140q0 -5 4 -9l10 -10q3 -3 9 -3h66
q6 0 9 3l10 10q4 4 4 9v140q0 5 -4 9z" />
    <glyph glyph-name="guillemotright" unicode="&#xbb;" horiz-adv-x="573" 
d="M101 500l194 -181v-113l-194 -181l-66 66l140 171l-140 171zM345 501l194 -181v-113l-194 -181l-66 66l141 171l-141 171z" />
    <glyph glyph-name="onequarter" unicode="&#xbc;" horiz-adv-x="753" 
d="M566 700h98l-476 -716h-98zM192 674l26 -26v-403h-78v343l-84 -31l-17 48l15 33l100 37zM635 429l26 -26v-240h53v-45l-26 -26h-27v-92h-78v92h-144l-26 26v33l143 278h79zM582 307l-75 -144h75v144z" />
    <glyph glyph-name="onehalf" unicode="&#xbd;" horiz-adv-x="826" 
d="M567 700h98l-476 -716h-98zM193 675l26 -26v-403h-78v343l-84 -31l-17 48l15 32l100 37h38zM664 428q31 0 53 -22l30 -30q22 -22 22 -53v-43q0 -20 -8.5 -35.5t-25.5 -23.5l-158 -80q-7 -3 -7 -10v-59h216v-48l-24 -23h-271v131q0 23 12 41.5t36 30.5l144 73q7 3 7 10v33
q0 6 -4 10l-22 22q-6 6 -11 6h-56q-7 0 -12 -5l-38 -39l-54 54l39 39q22 22 53 22z" />
    <glyph glyph-name="threequarters" unicode="&#xbe;" horiz-adv-x="804" 
d="M621 700h98l-476 -716h-98zM223 673q26 0 45 -19l24 -24q18 -18 18 -44v-43q0 -25 -19 -44l-17 -17l20 -20q18 -18 18 -44v-87q0 -26 -18 -44l-24 -24q-19 -19 -45 -19h-116q-26 0 -45 19l-30 30l53 53l26 -26q3 -3 9 -3h89q6 0 9 3l10 10q4 4 4 9v74q0 5 -4 9l-25 25
q-3 3 -9 3h-108v71h114q6 0 9 3l17 17q4 4 4 9v30q0 5 -4 9l-10 10q-3 3 -9 3h-83q-6 0 -9 -3l-26 -26l-53 53l30 30q19 19 45 19zM685 428l26 -26v-240h53v-45l-26 -26h-27v-92h-78v92h-144l-26 26v33l143 278h79zM632 306l-75 -144h75v144z" />
    <glyph glyph-name="questiondown" unicode="&#xbf;" horiz-adv-x="485" 
d="M320 537v-128h-131v128h131zM313 363v-132q0 -72 -73 -110l-79 -41q-12 -5 -12 -16v-60q0 -9 7 -16l40 -40q6 -8 18 -8h84q12 0 18 8l58 58l77 -76l-57 -57q-20 -20 -37 -27.5t-43 -7.5h-115q-26 0 -43.5 7.5t-37.5 27.5l-49 48q-18 19 -25.5 36.5t-7.5 45.5v74
q0 29 9 51t33 34l109 55q12 6 12 18v128h114z" />
    <glyph glyph-name="Agrave" unicode="&#xc0;" horiz-adv-x="629" 
d="M286 957l116 -137l-48 -44l-127 127zM396 699l216 -672l-61 -28h-50l-68 216h-236l-68 -216h-50l-61 28l216 672h162zM318 579h-7l-81 -259h170z" />
    <glyph glyph-name="Aacute" unicode="&#xc1;" horiz-adv-x="629" 
d="M344 958l59 -54l-127 -127l-48 44zM396 700l216 -672l-61 -28h-50l-68 216h-236l-68 -216h-50l-61 28l216 672h162zM318 580h-7l-81 -259h170z" />
    <glyph glyph-name="Acircumflex" unicode="&#xc2;" horiz-adv-x="629" 
d="M353 954l112 -133l-48 -44l-101 101l-101 -101l-48 44l112 133h74zM398 700l216 -672l-61 -28h-50l-68 216h-236l-68 -216h-50l-61 28l216 672h162zM320 580h-7l-81 -259h170z" />
    <glyph glyph-name="Atilde" unicode="&#xc3;" horiz-adv-x="629" 
d="M143 860q6 8 15.5 23t22.5 30.5t29.5 27t36.5 13.5h12q18 0 33.5 -7.5t41.5 -27.5q16 -12 26.5 -18.5t19.5 -6.5q13 0 25.5 13t33.5 42l47 -31q-20 -50 -47 -73t-58 -23t-61 21q-15 11 -24.5 18.5t-15.5 12t-10.5 6.5t-8.5 2q-2 0 -12 -2t-24 -15.5t-31 -41.5zM396 701
l216 -672l-61 -28h-50l-68 216h-236l-68 -216h-50l-61 28l216 672h162zM318 581h-7l-81 -259h170z" />
    <glyph glyph-name="Adieresis" unicode="&#xc4;" horiz-adv-x="629" 
d="M276 910v-79h-86v79h86zM440 910v-79h-86v79h86zM396 700l216 -672l-61 -28h-50l-68 216h-236l-68 -216h-50l-61 28l216 672h162zM318 580h-7l-81 -259h170z" />
    <glyph glyph-name="Aring" unicode="&#xc5;" horiz-adv-x="629" 
d="M315 985q42 0 70 -28t28 -70t-28 -70t-70 -28t-70 28t-28 70t28 70t70 28zM315 918q-13 0 -21.5 -9t-8.5 -22t8.5 -22t21.5 -9t21.5 9t8.5 22t-8.5 22t-21.5 9zM396 700l216 -672l-61 -28h-50l-68 216h-236l-68 -216h-50l-61 28l216 672h162zM318 580h-7l-81 -259h170z
" />
    <glyph glyph-name="AE" unicode="&#xc6;" horiz-adv-x="783" 
d="M232 700h478l37 -37v-69h-317v-191h264v-106h-264v-152q0 -7 6 -13l22 -22q5 -5 13 -5h277v-69l-37 -36h-263q-21 0 -35.5 6t-29.5 21l-39 39q-15 15 -21 29.5t-6 35.5v84h-120l-68 -215h-51l-61 29zM315 594l-86 -273h86v273z" />
    <glyph glyph-name="Ccedilla" unicode="&#xc7;" horiz-adv-x="586" 
d="M406 701q21 0 35.5 -6t29.5 -21l84 -83l-79 -79l-80 80q-5 5 -13 5h-126q-8 0 -13 -5l-63 -63q-6 -6 -6 -13v-329q0 -7 6 -13l63 -63q5 -5 13 -5h126q8 0 13 5l80 80l79 -79l-84 -84q-15 -15 -29.5 -21t-35.5 -6h-69l-11 -21q6 0 12 -1t11 -2q28 -10 42.5 -30.5
t14.5 -46.5q0 -16 -6 -31t-18 -27t-29 -19t-39 -7h-69v66h62q8 0 14 6t6 15q0 8 -6 13.5t-14 5.5h-3q-8 0 -17 -3.5t-27 -12.5l-40 39l27 56h-13q-21 0 -35.5 6t-29.5 21l-80 79q-15 15 -21 29.5t-6 35.5v357q0 21 6 35.5t21 29.5l80 79q15 15 29.5 21t35.5 6z" />
    <glyph glyph-name="Egrave" unicode="&#xc8;" horiz-adv-x="540" 
d="M274 957l116 -137l-48 -44l-127 127zM467 700l36 -36v-69h-276q-8 0 -13 -5l-22 -22q-6 -6 -6 -13v-153h264v-105h-264v-153q0 -7 6 -13l22 -22q5 -5 13 -5h276v-69l-36 -36h-263q-21 0 -35.5 6t-29.5 21l-39 39q-15 15 -21 29.5t-6 35.5v438q0 21 6 35.5t21 29.5l39 39
q15 15 29.5 21t35.5 6z" />
    <glyph glyph-name="Eacute" unicode="&#xc9;" horiz-adv-x="540" 
d="M332 958l59 -54l-127 -127l-48 44zM468 701l36 -36v-69h-276q-8 0 -13 -5l-22 -22q-6 -6 -6 -13v-153h264v-105h-264v-153q0 -7 6 -13l22 -22q5 -5 13 -5h276v-69l-36 -36h-263q-21 0 -35.5 6t-29.5 21l-39 39q-15 15 -21 29.5t-6 35.5v438q0 21 6 35.5t21 29.5l39 39
q15 15 29.5 21t35.5 6z" />
    <glyph glyph-name="Ecircumflex" unicode="&#xca;" horiz-adv-x="540" 
d="M341 954l112 -133l-48 -44l-101 101l-101 -101l-48 44l112 133h74zM469 701l36 -36v-69h-276q-8 0 -13 -5l-22 -22q-6 -6 -6 -13v-153h264v-105h-264v-153q0 -7 6 -13l22 -22q5 -5 13 -5h276v-69l-36 -36h-263q-21 0 -35.5 6t-29.5 21l-39 39q-15 15 -21 29.5t-6 35.5
v438q0 21 6 35.5t21 29.5l39 39q15 15 29.5 21t35.5 6z" />
    <glyph glyph-name="Edieresis" unicode="&#xcb;" horiz-adv-x="540" 
d="M264 910v-79h-86v79h86zM428 910v-79h-86v79h86zM468 701l36 -36v-69h-276q-8 0 -13 -5l-22 -22q-6 -6 -6 -13v-153h264v-105h-264v-153q0 -7 6 -13l22 -22q5 -5 13 -5h276v-69l-36 -36h-263q-21 0 -35.5 6t-29.5 21l-39 39q-15 15 -21 29.5t-6 35.5v438q0 21 6 35.5
t21 29.5l39 39q15 15 29.5 21t35.5 6z" />
    <glyph glyph-name="Igrave" unicode="&#xcc;" horiz-adv-x="251" 
d="M97 957l116 -137l-48 -44l-127 127zM183 699v-700h-114v664l36 36h78z" />
    <glyph glyph-name="Iacute" unicode="&#xcd;" horiz-adv-x="251" 
d="M155 958l59 -54l-127 -127l-48 44zM183 700v-700h-114v664l36 36h78z" />
    <glyph glyph-name="Icircumflex" unicode="&#xce;" horiz-adv-x="251" 
d="M163 954l112 -133l-48 -44l-101 101l-101 -101l-48 44l113 133h73zM184 700v-700h-114v664l36 36h78z" />
    <glyph glyph-name="Idieresis" unicode="&#xcf;" horiz-adv-x="251" 
d="M87 910v-79h-86v79h86zM251 910v-79h-86v79h86zM183 700v-700h-114v664l36 36h78z" />
    <glyph glyph-name="Eth" unicode="&#xd0;" horiz-adv-x="659" 
d="M427 697q22 0 36.5 -6t29.5 -21l80 -79q15 -15 21 -29.5t6 -35.5v-356q0 -21 -6 -35.5t-21 -29.5l-80 -79q-15 -15 -29.5 -21t-36.5 -6h-321v296h-79v109h79v259l37 37zM417 585q-5 5 -13 5h-184v-190h149v-109h-149v-190h184q8 0 13 5l63 63q6 6 6 13v328q0 7 -6 13z
" />
    <glyph glyph-name="Ntilde" unicode="&#xd1;" horiz-adv-x="667" 
d="M162 860q6 8 15.5 23t22.5 30.5t29.5 27t36.5 13.5h12q18 0 33.5 -7.5t41.5 -27.5q16 -12 26.5 -18.5t19.5 -6.5q13 0 25.5 13t33.5 42l47 -31q-20 -50 -47 -73t-58 -23t-61 21q-15 11 -24.5 18.5t-15.5 12t-10.5 6.5t-8.5 2q-2 0 -12 -2t-24 -15.5t-31 -41.5zM593 701
v-664l-36 -36h-137l-224 562h-6v-562h-114v664l36 36h140l222 -562h5v562h114z" />
    <glyph glyph-name="Ograve" unicode="&#xd2;" 
d="M303 957l116 -137l-48 -44l-127 127zM430 699q21 0 35.5 -6t29.5 -21l80 -79q15 -15 21 -29.5t6 -35.5v-357q0 -21 -6 -35.5t-21 -29.5l-80 -79q-15 -15 -29.5 -21t-35.5 -6h-196q-21 0 -35.5 6t-29.5 21l-80 79q-15 15 -21 29.5t-6 35.5v357q0 21 6 35.5t21 29.5l80 79
q15 15 29.5 21t35.5 6h196zM421 589q-5 5 -13 5h-150q-8 0 -13 -5l-63 -63q-6 -6 -6 -13v-329q0 -7 6 -13l63 -63q5 -5 13 -5h150q8 0 13 5l63 63q6 6 6 13v329q0 7 -6 13z" />
    <glyph glyph-name="Oacute" unicode="&#xd3;" 
d="M361 958l59 -54l-127 -127l-48 44zM430 700q21 0 35.5 -6t29.5 -21l80 -79q15 -15 21 -29.5t6 -35.5v-357q0 -21 -6 -35.5t-21 -29.5l-80 -79q-15 -15 -29.5 -21t-35.5 -6h-196q-21 0 -35.5 6t-29.5 21l-80 79q-15 15 -21 29.5t-6 35.5v357q0 21 6 35.5t21 29.5l80 79
q15 15 29.5 21t35.5 6h196zM421 590q-5 5 -13 5h-150q-8 0 -13 -5l-63 -63q-6 -6 -6 -13v-329q0 -7 6 -13l63 -63q5 -5 13 -5h150q8 0 13 5l63 63q6 6 6 13v329q0 7 -6 13z" />
    <glyph glyph-name="Ocircumflex" unicode="&#xd4;" 
d="M370 954l112 -133l-48 -44l-101 101l-101 -101l-48 44l112 133h74zM432 700q21 0 35.5 -6t29.5 -21l80 -79q15 -15 21 -29.5t6 -35.5v-357q0 -21 -6 -35.5t-21 -29.5l-80 -79q-15 -15 -29.5 -21t-35.5 -6h-196q-21 0 -35.5 6t-29.5 21l-80 79q-15 15 -21 29.5t-6 35.5
v357q0 21 6 35.5t21 29.5l80 79q15 15 29.5 21t35.5 6h196zM423 590q-5 5 -13 5h-150q-8 0 -13 -5l-63 -63q-6 -6 -6 -13v-329q0 -7 6 -13l63 -63q5 -5 13 -5h150q8 0 13 5l63 63q6 6 6 13v329q0 7 -6 13z" />
    <glyph glyph-name="Otilde" unicode="&#xd5;" 
d="M160 860q6 8 15.5 23t22.5 30.5t29.5 27t36.5 13.5h12q18 0 33.5 -7.5t41.5 -27.5q16 -12 26.5 -18.5t19.5 -6.5q13 0 25.5 13t33.5 42l47 -31q-20 -50 -47 -73t-58 -23t-61 21q-15 11 -24.5 18.5t-15.5 12t-10.5 6.5t-8.5 2q-2 0 -12 -2t-24 -15.5t-31 -41.5zM430 701
q21 0 35.5 -6t29.5 -21l80 -79q15 -15 21 -29.5t6 -35.5v-357q0 -21 -6 -35.5t-21 -29.5l-80 -79q-15 -15 -29.5 -21t-35.5 -6h-196q-21 0 -35.5 6t-29.5 21l-80 79q-15 15 -21 29.5t-6 35.5v357q0 21 6 35.5t21 29.5l80 79q15 15 29.5 21t35.5 6h196zM421 591q-5 5 -13 5
h-150q-8 0 -13 -5l-63 -63q-6 -6 -6 -13v-329q0 -7 6 -13l63 -63q5 -5 13 -5h150q8 0 13 5l63 63q6 6 6 13v329q0 7 -6 13z" />
    <glyph glyph-name="Odieresis" unicode="&#xd6;" 
d="M293 910v-79h-86v79h86zM457 910v-79h-86v79h86zM430 700q21 0 35.5 -6t29.5 -21l80 -79q15 -15 21 -29.5t6 -35.5v-357q0 -21 -6 -35.5t-21 -29.5l-80 -79q-15 -15 -29.5 -21t-35.5 -6h-196q-21 0 -35.5 6t-29.5 21l-80 79q-15 15 -21 29.5t-6 35.5v357q0 21 6 35.5
t21 29.5l80 79q15 15 29.5 21t35.5 6h196zM421 590q-5 5 -13 5h-150q-8 0 -13 -5l-63 -63q-6 -6 -6 -13v-329q0 -7 6 -13l63 -63q5 -5 13 -5h150q8 0 13 5l63 63q6 6 6 13v329q0 7 -6 13z" />
    <glyph glyph-name="multiply" unicode="&#xd7;" horiz-adv-x="478" 
d="M364 495l77 -77l-125 -125l125 -125l-77 -77l-125 125l-125 -125l-77 77l125 125l-125 125l77 77l125 -125z" />
    <glyph glyph-name="Oslash" unicode="&#xd8;" 
d="M517 750l-25 -76q5 -5 12 -11.5t12 -11.5l59 -58q15 -15 21 -29.5t6 -35.5v-356q0 -21 -6 -35.5t-21 -29.5l-80 -79q-15 -15 -29.5 -21t-36.5 -6h-159l-16 -50h-108l25 75q-5 5 -9 8.5t-9 9.5l-64 64q-15 15 -21 29.5t-6 35.5v356q0 21 6 35.5t21 29.5l80 79
q15 15 29.5 21t36.5 6h159l16 50h107zM359 596h-102q-8 0 -13 -5l-63 -63q-6 -6 -6 -13v-328q0 -7 6 -13l23 -23l6 -6zM465 546q-2 2 -5 4.5t-5 4.5l-148 -449h101q8 0 13 5l63 63q6 6 6 13v328q0 7 -6 13z" />
    <glyph glyph-name="Ugrave" unicode="&#xd9;" horiz-adv-x="655" 
d="M299 957l116 -137l-48 -44l-127 127zM503 699h77v-569q0 -21 -6 -35.5t-21 -29.5l-39 -39q-15 -15 -29.5 -21t-35.5 -6h-238q-21 0 -35.5 6t-29.5 21l-39 39q-15 15 -21 29.5t-6 35.5v533l36 36h77v-555q0 -7 6 -13l22 -22q5 -5 13 -5h192q8 0 13 5l22 22q6 6 6 13v519z
" />
    <glyph glyph-name="Uacute" unicode="&#xda;" horiz-adv-x="655" 
d="M357 958l59 -54l-127 -127l-48 44zM503 700h77v-569q0 -21 -6 -35.5t-21 -29.5l-39 -39q-15 -15 -29.5 -21t-35.5 -6h-238q-21 0 -35.5 6t-29.5 21l-39 39q-15 15 -21 29.5t-6 35.5v533l36 36h77v-555q0 -7 6 -13l22 -22q5 -5 13 -5h192q8 0 13 5l22 22q6 6 6 13v519z
" />
    <glyph glyph-name="Ucircumflex" unicode="&#xdb;" horiz-adv-x="655" 
d="M366 954l112 -133l-48 -44l-101 101l-101 -101l-48 44l112 133h74zM505 700h77v-569q0 -21 -6 -35.5t-21 -29.5l-39 -39q-15 -15 -29.5 -21t-35.5 -6h-238q-21 0 -35.5 6t-29.5 21l-39 39q-15 15 -21 29.5t-6 35.5v533l36 36h77v-555q0 -7 6 -13l22 -22q5 -5 13 -5h192
q8 0 13 5l22 22q6 6 6 13v519z" />
    <glyph glyph-name="Udieresis" unicode="&#xdc;" horiz-adv-x="655" 
d="M289 910v-79h-86v79h86zM453 910v-79h-86v79h86zM503 700h77v-569q0 -21 -6 -35.5t-21 -29.5l-39 -39q-15 -15 -29.5 -21t-35.5 -6h-238q-21 0 -35.5 6t-29.5 21l-39 39q-15 15 -21 29.5t-6 35.5v533l36 36h77v-555q0 -7 6 -13l22 -22q5 -5 13 -5h192q8 0 13 5l22 22
q6 6 6 13v519z" />
    <glyph glyph-name="Yacute" unicode="&#xdd;" horiz-adv-x="583" 
d="M321 958l59 -54l-127 -127l-48 44zM507 700l62 -29l-190 -437h-29v-234h-114v234h-29l-190 437l62 29h49l151 -361h27l151 361h50z" />
    <glyph glyph-name="Thorn" unicode="&#xde;" horiz-adv-x="600" 
d="M194 698v-112h213q22 0 37 -6t30 -21l39 -39q15 -15 21 -30t6 -36v-156q0 -21 -6 -36t-21 -30l-39 -39q-15 -15 -30 -21t-37 -6h-213v-166h-117v700zM396 474q-4 4 -10 4h-191v-205h191q6 0 10 4l23 23q5 5 5 10v130q0 5 -5 10z" />
    <glyph glyph-name="germandbls" unicode="&#xdf;" horiz-adv-x="600" 
d="M361 698q22 0 37 -6t30 -21l39 -39q15 -15 21 -30t6 -36v-106q0 -21 -6 -36t-21 -30l-13 -13l18 -18q15 -15 21 -30t6 -36v-165q0 -21 -6 -36t-21 -30l-39 -39q-15 -15 -30 -21t-37 -6h-133v101h115q8 0 13 5l21 21q6 6 6 13v150q0 7 -6 13l-21 21q-5 5 -13 5h-115v101
h111q8 0 13 5l21 21q6 6 6 13v92q0 7 -6 13l-21 21q-5 5 -13 5h-115q-8 0 -13 -5l-21 -21q-6 -6 -6 -13v-560h-112v567q0 21 6 36t21 30l39 39q15 15 30 21t37 6z" />
    <glyph glyph-name="agrave" unicode="&#xe0;" horiz-adv-x="483" 
d="M217 758l116 -137l-48 -44l-127 127zM305 499q21 0 35.5 -6t28.5 -20l42 -42q15 -15 21 -29.5t6 -35.5v-367h-97l-5 28l-31 -15q-29 -13 -60 -13h-75q-21 0 -35.5 6t-28.5 20l-38 38q-15 15 -21 29.5t-6 35.5v52q0 21 6 35.5t21 29.5l43 43q15 14 29.5 20t35.5 6h155v45
q0 7 -6 13l-26 26q-5 5 -13 5h-219v67l30 30zM332 217h-139q-8 0 -13 -5l-26 -26q-6 -6 -6 -13v-39q0 -7 6 -13l21 -21q5 -5 13 -5h57q6 0 12 3l75 35v84z" />
    <glyph glyph-name="aacute" unicode="&#xe1;" horiz-adv-x="483" 
d="M274 758l59 -54l-127 -127l-48 44zM305 499q21 0 35.5 -6t28.5 -20l42 -42q15 -15 21 -29.5t6 -35.5v-367h-97l-5 28l-31 -15q-29 -13 -60 -13h-75q-21 0 -35.5 6t-28.5 20l-38 38q-15 15 -21 29.5t-6 35.5v52q0 21 6 35.5t21 29.5l43 43q15 14 29.5 20t35.5 6h155v45
q0 7 -6 13l-26 26q-5 5 -13 5h-219v67l30 30zM332 217h-139q-8 0 -13 -5l-26 -26q-6 -6 -6 -13v-39q0 -7 6 -13l21 -21q5 -5 13 -5h57q6 0 12 3l75 35v84z" />
    <glyph glyph-name="acircumflex" unicode="&#xe2;" horiz-adv-x="483" 
d="M283 754l112 -133l-48 -44l-101 101l-101 -101l-48 44l112 133h74zM306 499q21 0 35.5 -6t28.5 -20l42 -42q15 -15 21 -29.5t6 -35.5v-367h-97l-5 28l-31 -15q-29 -13 -60 -13h-75q-21 0 -35.5 6t-28.5 20l-38 38q-15 15 -21 29.5t-6 35.5v52q0 21 6 35.5t21 29.5l43 43
q15 14 29.5 20t35.5 6h155v45q0 7 -6 13l-26 26q-5 5 -13 5h-219v67l30 30zM333 217h-139q-8 0 -13 -5l-26 -26q-6 -6 -6 -13v-39q0 -7 6 -13l21 -21q5 -5 13 -5h57q6 0 12 3l75 35v84z" />
    <glyph glyph-name="atilde" unicode="&#xe3;" horiz-adv-x="483" 
d="M73 661q6 8 15.5 23t22.5 30.5t29.5 27t36.5 13.5h12q18 0 34 -7.5t42 -27.5q16 -12 26.5 -18.5t19.5 -6.5q13 0 25.5 13t33.5 42l47 -31q-20 -50 -47 -73t-58 -23t-61 21q-15 11 -24.5 18.5t-15.5 12t-10.5 6.5t-8.5 2q-2 0 -12 -2t-24 -15.5t-31 -41.5zM305 501
q21 0 35.5 -6t28.5 -20l42 -42q15 -15 21 -29.5t6 -35.5v-367h-97l-5 28l-31 -15q-29 -13 -60 -13h-75q-21 0 -35.5 6t-28.5 20l-38 38q-15 15 -21 29.5t-6 35.5v52q0 21 6 35.5t21 29.5l43 43q15 14 29.5 20t35.5 6h155v45q0 7 -6 13l-26 26q-5 5 -13 5h-219v67l30 30z
M332 219h-139q-8 0 -13 -5l-26 -26q-6 -6 -6 -13v-39q0 -7 6 -13l21 -21q5 -5 13 -5h57q6 0 12 3l75 35v84z" />
    <glyph glyph-name="adieresis" unicode="&#xe4;" horiz-adv-x="483" 
d="M207 710v-79h-86v79h86zM371 710v-79h-86v79h86zM306 499q21 0 35.5 -6t28.5 -20l42 -42q15 -15 21 -29.5t6 -35.5v-367h-97l-5 28l-31 -15q-29 -13 -60 -13h-75q-21 0 -35.5 6t-28.5 20l-38 38q-15 15 -21 29.5t-6 35.5v52q0 21 6 35.5t21 29.5l43 43q15 14 29.5 20
t35.5 6h155v45q0 7 -6 13l-26 26q-5 5 -13 5h-219v67l30 30zM333 217h-139q-8 0 -13 -5l-26 -26q-6 -6 -6 -13v-39q0 -7 6 -13l21 -21q5 -5 13 -5h57q6 0 12 3l75 35v84z" />
    <glyph glyph-name="aring" unicode="&#xe5;" horiz-adv-x="483" 
d="M245 786q42 0 70 -28t28 -70t-28 -70t-70 -28t-70 28t-28 70t28 70t70 28zM245 719q-13 0 -21.5 -9t-8.5 -22t8.5 -22t21.5 -9t21.5 9t8.5 22t-8.5 22t-21.5 9zM305 499q21 0 35.5 -6t28.5 -20l42 -42q15 -15 21 -29.5t6 -35.5v-367h-97l-5 28l-31 -15q-29 -13 -60 -13
h-75q-21 0 -35.5 6t-28.5 20l-38 38q-15 15 -21 29.5t-6 35.5v52q0 21 6 35.5t21 29.5l43 43q15 14 29.5 20t35.5 6h155v45q0 7 -6 13l-26 26q-5 5 -13 5h-219v67l30 30zM332 217h-139q-8 0 -13 -5l-26 -26q-6 -6 -6 -13v-39q0 -7 6 -13l21 -21q5 -5 13 -5h57q6 0 12 3
l75 35v84z" />
    <glyph glyph-name="ae" unicode="&#xe6;" horiz-adv-x="810" 
d="M605 498q21 0 35.5 -6t28.5 -20l38 -38q15 -15 21 -29.5t6 -35.5v-133l-30 -30h-257v-72q0 -7 6 -13l21 -21q5 -5 13 -5h101q8 0 13 5l38 38l72 -71l-41 -41q-14 -14 -28.5 -20t-35.5 -6h-130q-15 0 -27 9l-9 8v-18h-97l-5 28l-31 -15q-29 -13 -60 -13h-75q-21 0 -35.5 6
t-28.5 20l-38 38q-15 15 -21 29.5t-6 35.5v52q0 21 6 35.5t21 29.5l43 43q15 14 29.5 20t35.5 6h155v45q0 7 -6 13l-26 26q-5 5 -13 5h-219v67l30 30h206q21 0 35.5 -6t28.5 -20l15 -15q2 -2 3 -2t3 2l15 15q14 14 28.5 20t35.5 6zM602 396q-5 5 -13 5h-101q-8 0 -13 -5
l-21 -21q-6 -6 -6 -13v-61h181v61q0 7 -6 13zM332 216h-139q-8 0 -13 -5l-26 -26q-6 -6 -6 -13v-39q0 -7 6 -13l21 -21q5 -5 13 -5h57q6 0 12 3l75 35v84z" />
    <glyph glyph-name="ccedilla" unicode="&#xe7;" horiz-adv-x="444" 
d="M319 499q21 0 35.5 -6t28.5 -21l41 -41l-71 -71l-38 38q-5 5 -13 5h-114q-8 0 -13 -5l-21 -21q-6 -6 -6 -13v-229q0 -7 6 -13l21 -21q5 -5 13 -5h113q8 0 13 5l38 38l72 -72l-41 -41q-14 -14 -28.5 -20t-35.5 -6h-66l-9 -17q6 0 12 -1t11 -3q28 -9 42.5 -29.5t14.5 -46.5
q0 -16 -6 -31t-18 -27t-29 -19t-39 -7h-69v66h62q8 0 14 6t6 14t-6 14t-14 6h-3q-8 0 -17 -3.5t-27 -12.5l-40 38l25 54h-5q-16 2 -27.5 7.5t-23.5 17.5l-38 38q-15 15 -21 29.5t-6 35.5v242q0 21 6 35.5t21 29.5l38 38q14 14 28.5 20t35.5 6z" />
    <glyph glyph-name="egrave" unicode="&#xe8;" horiz-adv-x="469" 
d="M206 758l116 -137l-48 -44l-127 127zM303 498q21 0 35.5 -6t28.5 -20l38 -38q15 -15 21 -29.5t6 -35.5v-133l-30 -30h-257v-72q0 -7 6 -13l21 -21q5 -5 13 -5h101q8 0 13 5l38 38l72 -71l-41 -41q-14 -14 -28.5 -20t-35.5 -6h-135q-21 0 -35.5 6t-28.5 20l-38 38
q-15 15 -21 29.5t-6 35.5v242q0 21 6 35.5t21 29.5l38 38q14 14 28.5 20t35.5 6zM300 396q-5 5 -13 5h-101q-8 0 -13 -5l-21 -21q-6 -6 -6 -13v-61h181v61q0 7 -6 13z" />
    <glyph glyph-name="eacute" unicode="&#xe9;" horiz-adv-x="469" 
d="M264 758l59 -54l-127 -127l-48 44zM304 498q21 0 35.5 -6t28.5 -20l38 -38q15 -15 21 -29.5t6 -35.5v-133l-30 -30h-257v-72q0 -7 6 -13l21 -21q5 -5 13 -5h101q8 0 13 5l38 38l72 -71l-41 -41q-14 -14 -28.5 -20t-35.5 -6h-135q-21 0 -35.5 6t-28.5 20l-38 38
q-15 15 -21 29.5t-6 35.5v242q0 21 6 35.5t21 29.5l38 38q14 14 28.5 20t35.5 6zM301 396q-5 5 -13 5h-101q-8 0 -13 -5l-21 -21q-6 -6 -6 -13v-61h181v61q0 7 -6 13z" />
    <glyph glyph-name="ecircumflex" unicode="&#xea;" horiz-adv-x="469" 
d="M273 754l112 -133l-48 -44l-101 101l-101 -101l-48 44l112 133h74zM305 498q21 0 35.5 -6t28.5 -20l38 -38q15 -15 21 -29.5t6 -35.5v-133l-30 -30h-257v-72q0 -7 6 -13l21 -21q5 -5 13 -5h101q8 0 13 5l38 38l72 -71l-41 -41q-14 -14 -28.5 -20t-35.5 -6h-135
q-21 0 -35.5 6t-28.5 20l-38 38q-15 15 -21 29.5t-6 35.5v242q0 21 6 35.5t21 29.5l38 38q14 14 28.5 20t35.5 6zM302 396q-5 5 -13 5h-101q-8 0 -13 -5l-21 -21q-6 -6 -6 -13v-61h181v61q0 7 -6 13z" />
    <glyph glyph-name="edieresis" unicode="&#xeb;" horiz-adv-x="469" 
d="M196 710v-79h-86v79h86zM360 710v-79h-86v79h86zM304 498q21 0 35.5 -6t28.5 -20l38 -38q15 -15 21 -29.5t6 -35.5v-133l-30 -30h-257v-72q0 -7 6 -13l21 -21q5 -5 13 -5h101q8 0 13 5l38 38l72 -71l-41 -41q-14 -14 -28.5 -20t-35.5 -6h-135q-21 0 -35.5 6t-28.5 20
l-38 38q-15 15 -21 29.5t-6 35.5v242q0 21 6 35.5t21 29.5l38 38q14 14 28.5 20t35.5 6zM301 396q-5 5 -13 5h-101q-8 0 -13 -5l-21 -21q-6 -6 -6 -13v-61h181v61q0 7 -6 13z" />
    <glyph glyph-name="igrave" unicode="&#xec;" horiz-adv-x="197" 
d="M72 753l116 -137l-48 -44l-127 127zM155 500v-500h-106v500h106z" />
    <glyph glyph-name="iacute" unicode="&#xed;" horiz-adv-x="197" 
d="M130 753l59 -54l-127 -127l-48 44zM156 500v-500h-106v500h106z" />
    <glyph glyph-name="icircumflex" unicode="&#xee;" horiz-adv-x="197" 
d="M138 749l112 -133l-48 -44l-101 101l-101 -101l-48 44l113 133h73zM156 500v-500h-106v500h106z" />
    <glyph glyph-name="idieresis" unicode="&#xef;" horiz-adv-x="197" 
d="M62 705v-79h-86v79h86zM226 705v-79h-86v79h86zM155 500v-500h-106v500h106z" />
    <glyph glyph-name="eth" unicode="&#xf0;" horiz-adv-x="530" 
d="M311 699q22 0 37 -6t30 -21l16 -16q4 -3 10 -9t8 -9l49 38l35 -43l-54 -41q3 -11 3 -24v-431q0 -23 -6.5 -39t-21.5 -31l-39 -39q-17 -17 -31.5 -23t-35.5 -6h-142q-21 0 -35.5 6t-31.5 23l-39 39q-15 15 -21.5 31t-6.5 39v171q0 23 6.5 39t21.5 31l39 39q16 16 30.5 22
t35.5 6h51q28 0 55 -13l57 -27v104l-44 -34l-33 42l72 55q-2 3 -4 5.5t-5 5.5l-12 12q-5 5 -13 5h-125q-8 0 -13 -5l-40 -40l-75 75l43 43q15 15 30 21t37 6zM227 340q-6 2 -11 2h-31q-8 0 -13 -5l-20 -20q-6 -6 -6 -12v-167q0 -6 6 -12l20 -20q5 -5 13 -5h109q8 0 13 5
l20 20q6 6 6 12v152z" />
    <glyph glyph-name="ntilde" unicode="&#xf1;" horiz-adv-x="507" 
d="M75 653q6 8 15.5 23t22.5 30.5t29.5 27t36.5 13.5h12q18 0 33.5 -7.5t41.5 -27.5q16 -12 26.5 -18.5t19.5 -6.5q13 0 25.5 13t33.5 42l47 -31q-20 -50 -47 -73t-58 -23t-61 21q-15 11 -24.5 18.5t-15.5 12t-10.5 6.5t-8.5 2q-2 0 -12 -2t-24 -15.5t-31 -41.5zM329 502
q21 0 35.5 -6t28.5 -20l38 -38q15 -15 21 -29.5t6 -35.5v-371h-106v364q0 7 -6 13l-21 21q-5 5 -13 5h-33q-6 0 -12 -3l-105 -49v-352h-106v500h95l7 -41l63 30q14 6 26.5 9t27.5 3h54z" />
    <glyph glyph-name="ograve" unicode="&#xf2;" horiz-adv-x="487" 
d="M215 758l116 -137l-48 -44l-127 127zM317 500q21 0 35.5 -6t28.5 -20l38 -38q15 -15 21 -29.5t6 -35.5v-242q0 -21 -6 -35.5t-21 -29.5l-38 -38q-14 -14 -28.5 -20t-35.5 -6h-147q-21 0 -35.5 6t-28.5 20l-38 38q-15 15 -21 29.5t-6 35.5v242q0 21 6 35.5t21 29.5l38 38
q14 14 28.5 20t35.5 6h147zM314 398q-5 5 -13 5h-114q-8 0 -13 -5l-21 -21q-6 -6 -6 -13v-229q0 -7 6 -13l21 -21q5 -5 13 -5h114q8 0 13 5l21 21q6 6 6 13v229q0 7 -6 13z" />
    <glyph glyph-name="oacute" unicode="&#xf3;" horiz-adv-x="487" 
d="M273 758l59 -54l-127 -127l-48 44zM318 500q21 0 35.5 -6t28.5 -20l38 -38q15 -15 21 -29.5t6 -35.5v-242q0 -21 -6 -35.5t-21 -29.5l-38 -38q-14 -14 -28.5 -20t-35.5 -6h-147q-21 0 -35.5 6t-28.5 20l-38 38q-15 15 -21 29.5t-6 35.5v242q0 21 6 35.5t21 29.5l38 38
q14 14 28.5 20t35.5 6h147zM315 398q-5 5 -13 5h-114q-8 0 -13 -5l-21 -21q-6 -6 -6 -13v-229q0 -7 6 -13l21 -21q5 -5 13 -5h114q8 0 13 5l21 21q6 6 6 13v229q0 7 -6 13z" />
    <glyph glyph-name="ocircumflex" unicode="&#xf4;" horiz-adv-x="487" 
d="M282 754l112 -133l-48 -44l-101 101l-101 -101l-48 44l112 133h74zM319 500q21 0 35.5 -6t28.5 -20l38 -38q15 -15 21 -29.5t6 -35.5v-242q0 -21 -6 -35.5t-21 -29.5l-38 -38q-14 -14 -28.5 -20t-35.5 -6h-147q-21 0 -35.5 6t-28.5 20l-38 38q-15 15 -21 29.5t-6 35.5
v242q0 21 6 35.5t21 29.5l38 38q14 14 28.5 20t35.5 6h147zM316 398q-5 5 -13 5h-114q-8 0 -13 -5l-21 -21q-6 -6 -6 -13v-229q0 -7 6 -13l21 -21q5 -5 13 -5h114q8 0 13 5l21 21q6 6 6 13v229q0 7 -6 13z" />
    <glyph glyph-name="otilde" unicode="&#xf5;" horiz-adv-x="487" 
d="M72 661q6 8 15.5 23t22.5 30.5t29.5 27t36.5 13.5h12q18 0 33.5 -7.5t41.5 -27.5q16 -12 26.5 -18.5t19.5 -6.5q13 0 25.5 13t33.5 42l47 -31q-20 -50 -47 -73t-58 -23t-61 21q-15 11 -24.5 18.5t-15.5 12t-10.5 6.5t-8.5 2q-2 0 -12 -2t-24 -15.5t-31 -41.5zM317 502
q21 0 35.5 -6t28.5 -20l38 -38q15 -15 21 -29.5t6 -35.5v-242q0 -21 -6 -35.5t-21 -29.5l-38 -38q-14 -14 -28.5 -20t-35.5 -6h-147q-21 0 -35.5 6t-28.5 20l-38 38q-15 15 -21 29.5t-6 35.5v242q0 21 6 35.5t21 29.5l38 38q14 14 28.5 20t35.5 6h147zM314 400q-5 5 -13 5
h-114q-8 0 -13 -5l-21 -21q-6 -6 -6 -13v-229q0 -7 6 -13l21 -21q5 -5 13 -5h114q8 0 13 5l21 21q6 6 6 13v229q0 7 -6 13z" />
    <glyph glyph-name="odieresis" unicode="&#xf6;" horiz-adv-x="487" 
d="M205 710v-79h-86v79h86zM369 710v-79h-86v79h86zM317 500q21 0 35.5 -6t28.5 -20l38 -38q15 -15 21 -29.5t6 -35.5v-242q0 -21 -6 -35.5t-21 -29.5l-38 -38q-14 -14 -28.5 -20t-35.5 -6h-147q-21 0 -35.5 6t-28.5 20l-38 38q-15 15 -21 29.5t-6 35.5v242q0 21 6 35.5
t21 29.5l38 38q14 14 28.5 20t35.5 6h147zM314 398q-5 5 -13 5h-114q-8 0 -13 -5l-21 -21q-6 -6 -6 -13v-229q0 -7 6 -13l21 -21q5 -5 13 -5h114q8 0 13 5l21 21q6 6 6 13v229q0 7 -6 13z" />
    <glyph glyph-name="divide" unicode="&#xf7;" horiz-adv-x="532" 
d="M332 528v-128h-131v128h131zM499 346v-109h-464v109h464zM332 185v-128h-131v128h131z" />
    <glyph glyph-name="oslash" unicode="&#xf8;" horiz-adv-x="487" 
d="M385 553l-21 -64q5 -3 8.5 -6.5l8.5 -8.5l38 -38q15 -15 21 -29.5t6 -35.5v-242q0 -21 -6 -35.5t-21 -29.5l-38 -38q-14 -14 -28.5 -20t-35.5 -6h-112l-17 -51h-88l21 64q-4 3 -7.5 6t-7.5 7l-38 38q-15 15 -21 29.5t-6 35.5v242q0 21 6 35.5t21 29.5l38 38
q14 14 28.5 20t35.5 6h111l17 51zM248 406h-63q-8 0 -13 -5l-21 -21q-6 -6 -6 -13v-229q0 -7 6 -13l4 -4zM329 383l-94 -285h64q8 0 13 5l21 21q6 6 6 13v229q0 7 -6 13z" />
    <glyph glyph-name="ugrave" unicode="&#xf9;" horiz-adv-x="502" 
d="M222 758l116 -137l-48 -44l-127 127zM452 500v-500h-95l-7 41l-63 -30q-14 -6 -26.5 -9t-27.5 -3h-53q-21 0 -35.5 6t-28.5 20l-38 38q-15 15 -21 29.5t-6 35.5v371h106v-364q0 -7 6 -13l21 -21q5 -5 13 -5h33q6 0 12 3l104 49v352h106z" />
    <glyph glyph-name="uacute" unicode="&#xfa;" horiz-adv-x="502" 
d="M280 758l59 -54l-127 -127l-48 44zM452 500v-500h-95l-7 41l-63 -30q-14 -6 -26.5 -9t-27.5 -3h-53q-21 0 -35.5 6t-28.5 20l-38 38q-15 15 -21 29.5t-6 35.5v371h106v-364q0 -7 6 -13l21 -21q5 -5 13 -5h33q6 0 12 3l104 49v352h106z" />
    <glyph glyph-name="ucircumflex" unicode="&#xfb;" horiz-adv-x="502" 
d="M289 754l112 -133l-48 -44l-101 101l-101 -101l-48 44l112 133h74zM453 500v-500h-95l-7 41l-63 -30q-14 -6 -26.5 -9t-27.5 -3h-53q-21 0 -35.5 6t-28.5 20l-38 38q-15 15 -21 29.5t-6 35.5v371h106v-364q0 -7 6 -13l21 -21q5 -5 13 -5h33q6 0 12 3l104 49v352h106z" />
    <glyph glyph-name="udieresis" unicode="&#xfc;" horiz-adv-x="502" 
d="M212 710v-79h-86v79h86zM376 710v-79h-86v79h86zM452 500v-500h-95l-7 41l-63 -30q-14 -6 -26.5 -9t-27.5 -3h-53q-21 0 -35.5 6t-28.5 20l-38 38q-15 15 -21 29.5t-6 35.5v371h106v-364q0 -7 6 -13l21 -21q5 -5 13 -5h33q6 0 12 3l104 49v352h106z" />
    <glyph glyph-name="yacute" unicode="&#xfd;" horiz-adv-x="491" 
d="M275 760l59 -54l-127 -127l-48 44zM431 500l48 -22l-166 -483q-7 -19 -20 -47t-37 -55t-61 -48.5t-91 -26.5l-15 86q27 3 44.5 9t29 15.5t19 22t14.5 29.5l7 20h-24l-165 478l48 22h56l123 -389h8l126 389h56z" />
    <glyph glyph-name="thorn" unicode="&#xfe;" horiz-adv-x="519" 
d="M166 701v-238l59 27q14 6 26.5 9t27.5 3h51q21 0 35.5 -6t28.5 -20l38 -38q15 -15 21 -29.5t6 -35.5v-244q0 -21 -6 -35.5t-21 -29.5l-38 -38q-14 -14 -28.5 -20t-35.5 -6h-163v-149l-30 -30h-76v879zM326 401q-5 5 -13 5h-31q-7 0 -11 -2l-104 -49v-258h146q8 0 13 5
l21 21q6 6 6 13v231q0 7 -6 13z" />
    <glyph glyph-name="ydieresis" unicode="&#xff;" horiz-adv-x="491" 
d="M207 712v-79h-86v79h86zM371 712v-79h-86v79h86zM430 500l48 -22l-166 -483q-7 -19 -20 -47t-37 -55t-61 -48.5t-91 -26.5l-15 86q27 3 44.5 9t29 15.5t19 22t14.5 29.5l7 20h-24l-165 478l48 22h56l123 -389h8l126 389h56z" />
    <glyph glyph-name="Amacron" unicode="&#x100;" horiz-adv-x="629" 
d="M445 933v-73h-260v73h260zM396 700l216 -672l-61 -28h-50l-68 216h-236l-68 -216h-50l-61 28l216 672h162zM318 580h-7l-81 -259h170z" />
    <glyph glyph-name="amacron" unicode="&#x101;" horiz-adv-x="483" 
d="M376 733v-73h-260v73h260zM306 499q21 0 35.5 -6t28.5 -20l42 -42q15 -15 21 -29.5t6 -35.5v-367h-97l-5 28l-31 -15q-29 -13 -60 -13h-75q-21 0 -35.5 6t-28.5 20l-38 38q-15 15 -21 29.5t-6 35.5v52q0 21 6 35.5t21 29.5l43 43q15 14 29.5 20t35.5 6h155v45q0 7 -6 13
l-26 26q-5 5 -13 5h-219v67l30 30zM333 217h-139q-8 0 -13 -5l-26 -26q-6 -6 -6 -13v-39q0 -7 6 -13l21 -21q5 -5 13 -5h57q6 0 12 3l75 35v84z" />
    <glyph glyph-name="Abreve" unicode="&#x102;" horiz-adv-x="629" 
d="M226 948q10 -29 33 -45t55 -16t55 16t33 45l62 -29q-16 -45 -56.5 -74.5t-92.5 -29.5t-92.5 29.5t-56.5 74.5zM394 700l216 -672l-61 -28h-50l-68 216h-236l-68 -216h-50l-61 28l216 672h162zM316 580h-7l-81 -259h170z" />
    <glyph glyph-name="abreve" unicode="&#x103;" horiz-adv-x="483" 
d="M156 749q10 -29 33 -45t55 -16t55 16t33 45l62 -29q-16 -45 -56.5 -74.5t-92.5 -29.5t-92.5 29.5t-56.5 74.5zM303 499q21 0 35.5 -6t28.5 -20l42 -42q15 -15 21 -29.5t6 -35.5v-367h-97l-5 28l-31 -15q-29 -13 -60 -13h-75q-21 0 -35.5 6t-28.5 20l-38 38
q-15 15 -21 29.5t-6 35.5v52q0 21 6 35.5t21 29.5l43 43q15 14 29.5 20t35.5 6h155v45q0 7 -6 13l-26 26q-5 5 -13 5h-219v67l30 30zM330 217h-139q-8 0 -13 -5l-26 -26q-6 -6 -6 -13v-39q0 -7 6 -13l21 -21q5 -5 13 -5h57q6 0 12 3l75 35v84z" />
    <glyph glyph-name="Aogonek" unicode="&#x104;" horiz-adv-x="629" 
d="M603 -112v-72h-72q-46 0 -71 27t-25 61q0 38 21 61t45 35l-68 216h-236l-68 -216h-50l-61 28l216 672h161l216 -672l-58 -28q-24 -23 -35 -45t-11 -37q0 -8 3 -12q5 -11 13.5 -14.5t19.5 -3.5h60zM318 580h-7l-81 -259h170z" />
    <glyph glyph-name="aogonek" unicode="&#x105;" horiz-adv-x="483" 
d="M302 500q21 0 35.5 -6t28.5 -20l42 -42q15 -15 21 -29.5t6 -35.5v-367h-36q-20 -21 -29.5 -41.5t-9.5 -34.5q0 -8 3 -12q5 -11 13.5 -14.5t19.5 -3.5h60v-72h-72q-46 0 -71 27t-25 62q0 33 16 54t38 34l-6 28l-31 -15q-29 -13 -60 -13h-75q-21 0 -35.5 6t-28.5 20l-38 38
q-15 15 -21 29.5t-6 35.5v52q0 21 6 35.5t21 29.5l43 43q15 14 29.5 20t35.5 6h155v45q0 7 -6 13l-26 26q-5 5 -13 5h-219v67l30 30h205zM329 218h-139q-8 0 -13 -5l-26 -26q-6 -6 -6 -13v-39q0 -7 6 -13l21 -21q5 -5 13 -5h57q6 0 12 3l75 35v84z" />
    <glyph glyph-name="Cacute" unicode="&#x106;" horiz-adv-x="586" 
d="M323 933l59 -54l-127 -127l-48 44zM404 701q21 0 35.5 -6t29.5 -21l84 -83l-79 -79l-80 80q-5 5 -13 5h-126q-8 0 -13 -5l-63 -63q-6 -6 -6 -13v-329q0 -7 6 -13l63 -63q5 -5 13 -5h126q8 0 13 5l80 80l79 -79l-84 -84q-15 -15 -29.5 -21t-35.5 -6h-171q-21 0 -35.5 6
t-29.5 21l-80 79q-15 15 -21 29.5t-6 35.5v357q0 21 6 35.5t21 29.5l80 79q15 15 29.5 21t35.5 6z" />
    <glyph glyph-name="cacute" unicode="&#x107;" horiz-adv-x="444" 
d="M253 735l59 -54l-127 -127l-48 44zM318 499q21 0 35.5 -6t28.5 -21l41 -41l-71 -71l-38 38q-5 5 -13 5h-114q-8 0 -13 -5l-21 -21q-6 -6 -6 -13v-229q0 -7 6 -13l21 -21q5 -5 13 -5h113q8 0 13 5l38 38l72 -72l-41 -41q-14 -14 -28.5 -20t-35.5 -6h-147q-21 0 -35.5 6
t-28.5 20l-38 38q-15 15 -21 29.5t-6 35.5v242q0 21 6 35.5t21 29.5l38 38q14 14 28.5 20t35.5 6z" />
    <glyph glyph-name="Cdotaccent" unicode="&#x10a;" horiz-adv-x="586" 
d="M338 885v-79h-86v79h86zM405 701q21 0 35.5 -6t29.5 -21l84 -83l-79 -79l-80 80q-5 5 -13 5h-126q-8 0 -13 -5l-63 -63q-6 -6 -6 -13v-329q0 -7 6 -13l63 -63q5 -5 13 -5h126q8 0 13 5l80 80l79 -79l-84 -84q-15 -15 -29.5 -21t-35.5 -6h-171q-21 0 -35.5 6t-29.5 21
l-80 79q-15 15 -21 29.5t-6 35.5v357q0 21 6 35.5t21 29.5l80 79q15 15 29.5 21t35.5 6z" />
    <glyph glyph-name="cdotaccent" unicode="&#x10b;" horiz-adv-x="444" 
d="M267 687v-79h-86v79h86zM318 499q21 0 35.5 -6t28.5 -21l41 -41l-71 -71l-38 38q-5 5 -13 5h-114q-8 0 -13 -5l-21 -21q-6 -6 -6 -13v-229q0 -7 6 -13l21 -21q5 -5 13 -5h113q8 0 13 5l38 38l72 -72l-41 -41q-14 -14 -28.5 -20t-35.5 -6h-147q-21 0 -35.5 6t-28.5 20
l-38 38q-15 15 -21 29.5t-6 35.5v242q0 21 6 35.5t21 29.5l38 38q14 14 28.5 20t35.5 6z" />
    <glyph glyph-name="Ccaron" unicode="&#x10c;" horiz-adv-x="586" 
d="M395 933l48 -44l-112 -133h-73l-112 133l48 44l101 -101zM404 701q21 0 35.5 -6t29.5 -21l84 -83l-79 -79l-80 80q-5 5 -13 5h-126q-8 0 -13 -5l-63 -63q-6 -6 -6 -13v-329q0 -7 6 -13l63 -63q5 -5 13 -5h126q8 0 13 5l80 80l79 -79l-84 -84q-15 -15 -29.5 -21t-35.5 -6
h-171q-21 0 -35.5 6t-29.5 21l-80 79q-15 15 -21 29.5t-6 35.5v357q0 21 6 35.5t21 29.5l80 79q15 15 29.5 21t35.5 6z" />
    <glyph glyph-name="ccaron" unicode="&#x10d;" horiz-adv-x="444" 
d="M324 735l48 -44l-112 -133h-73l-112 133l48 44l101 -101zM317 499q21 0 35.5 -6t28.5 -21l41 -41l-71 -71l-38 38q-5 5 -13 5h-114q-8 0 -13 -5l-21 -21q-6 -6 -6 -13v-229q0 -7 6 -13l21 -21q5 -5 13 -5h113q8 0 13 5l38 38l72 -72l-41 -41q-14 -14 -28.5 -20t-35.5 -6
h-147q-21 0 -35.5 6t-28.5 20l-38 38q-15 15 -21 29.5t-6 35.5v242q0 21 6 35.5t21 29.5l38 38q14 14 28.5 20t35.5 6z" />
    <glyph glyph-name="Dcaron" unicode="&#x10e;" horiz-adv-x="633" 
d="M417 953l48 -44l-112 -133h-73l-112 133l48 44l101 -101zM400 700q21 0 35.5 -6t29.5 -21l80 -79q15 -15 21 -29.5t6 -35.5v-357q0 -21 -6 -35.5t-21 -29.5l-80 -79q-15 -15 -29.5 -21t-35.5 -6h-321v664l36 36zM391 589q-5 5 -13 5h-185v-490h185q8 0 13 5l63 63
q6 6 6 13v329q0 7 -6 13z" />
    <glyph glyph-name="dcaron" unicode="&#x10f;" horiz-adv-x="641" 
d="M624 717v-81q0 -33 -13 -60l-30 -63h-101l39 85h-27v119h132zM408 716l30 -30v-687h-97l-5 28l-31 -15q-29 -13 -59 -13h-75q-21 0 -35.5 6t-29.5 20l-38 38q-15 15 -21 29.5t-6 35.5v237q0 21 6 35.5t21 29.5l43 43q15 14 29.5 20t35.5 6h155v217h77zM331 402h-139
q-8 0 -13 -5l-26 -26q-6 -6 -6 -13v-224q0 -7 6 -13l21 -21q5 -5 13 -5h57q6 0 12 3l75 35v269z" />
    <glyph glyph-name="Dcroat" unicode="&#x110;" horiz-adv-x="654" 
d="M569 593q15 -15 21 -29.5t6 -35.5v-357q0 -21 -6 -35.5t-21 -29.5l-80 -79q-15 -15 -29.5 -21t-35.5 -6h-321v314h-79v73h79v277l36 36h285q21 0 35.5 -6t29.5 -21zM483 514q0 7 -6 13l-63 63q-5 5 -13 5h-185v-209h67v-73h-67v-209h185q8 0 13 5l63 63q6 6 6 13v329z
" />
    <glyph glyph-name="dcroat" unicode="&#x111;" horiz-adv-x="513" 
d="M496 558h-59v-558h-97l-5 28l-31 -15q-29 -13 -59 -13h-75q-21 0 -35.5 6t-29.5 20l-38 38q-15 15 -21 29.5t-6 35.5v237q0 21 6 35.5t21 29.5l43 43q15 14 29.5 20t35.5 6h155v59h-94v71h94v87h77l30 -30v-57h59v-72zM330 402h-139q-8 0 -13 -5l-26 -26q-6 -6 -6 -13
v-224q0 -7 6 -13l21 -21q5 -5 13 -5h57q6 0 12 3l75 35v269z" />
    <glyph glyph-name="Emacron" unicode="&#x112;" horiz-adv-x="540" 
d="M433 933v-73h-260v73h260zM468 701l36 -36v-69h-276q-8 0 -13 -5l-22 -22q-6 -6 -6 -13v-153h264v-105h-264v-153q0 -7 6 -13l22 -22q5 -5 13 -5h276v-69l-36 -36h-263q-21 0 -35.5 6t-29.5 21l-39 39q-15 15 -21 29.5t-6 35.5v438q0 21 6 35.5t21 29.5l39 39
q15 15 29.5 21t35.5 6z" />
    <glyph glyph-name="emacron" unicode="&#x113;" horiz-adv-x="469" 
d="M365 733v-73h-260v73h260zM304 498q21 0 35.5 -6t28.5 -20l38 -38q15 -15 21 -29.5t6 -35.5v-133l-30 -30h-257v-72q0 -7 6 -13l21 -21q5 -5 13 -5h101q8 0 13 5l38 38l72 -71l-41 -41q-14 -14 -28.5 -20t-35.5 -6h-135q-21 0 -35.5 6t-28.5 20l-38 38q-15 15 -21 29.5
t-6 35.5v242q0 21 6 35.5t21 29.5l38 38q14 14 28.5 20t35.5 6zM301 396q-5 5 -13 5h-101q-8 0 -13 -5l-21 -21q-6 -6 -6 -13v-61h181v61q0 7 -6 13z" />
    <glyph glyph-name="Edotaccent" unicode="&#x116;" horiz-adv-x="540" 
d="M346 910v-79h-86v79h86zM468 701l36 -36v-69h-276q-8 0 -13 -5l-22 -22q-6 -6 -6 -13v-153h264v-105h-264v-153q0 -7 6 -13l22 -22q5 -5 13 -5h276v-69l-36 -36h-263q-21 0 -35.5 6t-29.5 21l-39 39q-15 15 -21 29.5t-6 35.5v438q0 21 6 35.5t21 29.5l39 39
q15 15 29.5 21t35.5 6z" />
    <glyph glyph-name="edotaccent" unicode="&#x117;" horiz-adv-x="469" 
d="M278 710v-79h-86v79h86zM304 498q21 0 35.5 -6t28.5 -20l38 -38q15 -15 21 -29.5t6 -35.5v-133l-30 -30h-257v-72q0 -7 6 -13l21 -21q5 -5 13 -5h101q8 0 13 5l38 38l72 -71l-41 -41q-14 -14 -28.5 -20t-35.5 -6h-135q-21 0 -35.5 6t-28.5 20l-38 38q-15 15 -21 29.5
t-6 35.5v242q0 21 6 35.5t21 29.5l38 38q14 14 28.5 20t35.5 6zM301 396q-5 5 -13 5h-101q-8 0 -13 -5l-21 -21q-6 -6 -6 -13v-61h181v61q0 7 -6 13z" />
    <glyph glyph-name="Eogonek" unicode="&#x118;" horiz-adv-x="540" 
d="M465 701l36 -36v-69h-276q-8 0 -13 -5l-22 -22q-6 -6 -6 -13v-153h264v-105h-264v-153q0 -7 6 -13l22 -22q5 -5 13 -5h276v-69l-36 -36h-62q-17 -19 -24.5 -36.5t-7.5 -30.5q0 -8 3 -12q5 -11 13.5 -14.5t19.5 -3.5h60v-71h-72q-46 0 -71 27t-25 61q0 29 12 48t29 32
h-136q-21 0 -35.5 6t-29.5 21l-39 39q-15 15 -21 29.5t-6 35.5v438q0 21 6 35.5t21 29.5l39 39q15 15 29.5 21t35.5 6z" />
    <glyph glyph-name="eogonek" unicode="&#x119;" horiz-adv-x="469" 
d="M303 498q21 0 35.5 -6t28.5 -20l38 -38q15 -15 21 -29.5t6 -35.5v-133l-30 -30h-257v-72q0 -7 6 -13l21 -21q5 -5 13 -5h101q8 0 13 5l38 38l72 -71l-41 -41q-14 -14 -28.5 -20t-35.5 -6h-7q-17 -19 -24.5 -36.5t-7.5 -30.5q0 -8 3 -12q5 -11 13.5 -14.5t19.5 -3.5h60
v-72h-72q-46 0 -71 27t-25 61q0 29 12 48.5t29 32.5h-64q-21 0 -35.5 6t-28.5 20l-38 38q-15 15 -21 29.5t-6 35.5v242q0 21 6 35.5t21 29.5l38 38q14 14 28.5 20t35.5 6zM300 396q-5 5 -13 5h-101q-8 0 -13 -5l-21 -21q-6 -6 -6 -13v-61h181v61q0 7 -6 13z" />
    <glyph glyph-name="Ecaron" unicode="&#x11a;" horiz-adv-x="540" 
d="M403 958l48 -44l-112 -133h-73l-112 133l48 44l101 -101zM467 702l36 -36v-69h-276q-8 0 -13 -5l-22 -22q-6 -6 -6 -13v-153h264v-105h-264v-153q0 -7 6 -13l22 -22q5 -5 13 -5h276v-69l-36 -36h-263q-21 0 -35.5 6t-29.5 21l-39 39q-15 15 -21 29.5t-6 35.5v438
q0 21 6 35.5t21 29.5l39 39q15 15 29.5 21t35.5 6z" />
    <glyph glyph-name="ecaron" unicode="&#x11b;" horiz-adv-x="469" 
d="M335 758l48 -44l-112 -133h-73l-112 133l48 44l101 -101zM303 498q21 0 35.5 -6t28.5 -20l38 -38q15 -15 21 -29.5t6 -35.5v-133l-30 -30h-257v-72q0 -7 6 -13l21 -21q5 -5 13 -5h101q8 0 13 5l38 38l72 -71l-41 -41q-14 -14 -28.5 -20t-35.5 -6h-135q-21 0 -35.5 6
t-28.5 20l-38 38q-15 15 -21 29.5t-6 35.5v242q0 21 6 35.5t21 29.5l38 38q14 14 28.5 20t35.5 6zM300 396q-5 5 -13 5h-101q-8 0 -13 -5l-21 -21q-6 -6 -6 -13v-61h181v61q0 7 -6 13z" />
    <glyph glyph-name="Gbreve" unicode="&#x11e;" horiz-adv-x="611" 
d="M217 944q10 -29 33 -45t55 -16t55 16t33 45l62 -29q-16 -45 -56.5 -74.5t-92.5 -29.5t-92.5 29.5t-56.5 74.5zM401 703q21 0 35.5 -6t29.5 -21l84 -84l-79 -79l-81 80q-6 6 -15 6h-122q-8 0 -13 -5l-63 -63q-6 -6 -6 -13v-330q0 -7 6 -13l65 -64q6 -6 15 -6h121q8 0 13 5
l63 63q6 6 6 13v108h-153v69l36 36h230v-227q0 -21 -6 -35.5t-21 -29.5l-80 -79q-10 -10 -25 -18.5t-33 -7.5h-177q-21 0 -35.5 6t-29.5 21l-80 79q-15 15 -21 29.5t-6 35.5v358q0 21 6 35.5t21 29.5l80 79q10 10 25 18.5t33 7.5z" />
    <glyph glyph-name="gbreve" unicode="&#x11f;" horiz-adv-x="486" 
d="M155 744q10 -29 33 -45t55 -16t55 16t33 45l62 -29q-16 -45 -56.5 -74.5t-92.5 -29.5t-92.5 29.5t-56.5 74.5zM310 501q21 0 35.5 -6t28.5 -20l38 -38q15 -15 21 -29.5t6 -35.5v-418q0 -20 -5.5 -33.5t-19.5 -28.5l-44 -44q-16 -16 -30.5 -21t-34.5 -5h-206l-31 29v67
h220q8 0 13 6l26 25q5 5 5 13v78l-59 -27q-14 -6 -26.5 -9t-27.5 -3h-51q-21 0 -35.5 6t-28.5 20l-38 38q-17 17 -22 35t-5 36v237q0 21 6 34.5t21 28.5l38 38q14 14 28.5 20t35.5 6zM306 398q-5 5 -13 5h-106q-8 0 -13 -5l-21 -21q-6 -6 -6 -13v-229q0 -7 6 -13l21 -21
q5 -5 13 -5h32q5 0 10 3l105 49v217q0 7 -6 13z" />
    <glyph glyph-name="Gdotaccent" unicode="&#x120;" horiz-adv-x="611" 
d="M349 905v-79h-86v79h86zM403 702q21 0 35.5 -6t29.5 -21l84 -84l-79 -79l-81 80q-6 6 -15 6h-122q-8 0 -13 -5l-63 -63q-6 -6 -6 -13v-330q0 -7 6 -13l65 -64q6 -6 15 -6h121q8 0 13 5l63 63q6 6 6 13v108h-153v69l36 36h230v-227q0 -21 -6 -35.5t-21 -29.5l-80 -79
q-10 -10 -25 -18.5t-33 -7.5h-177q-21 0 -35.5 6t-29.5 21l-80 79q-15 15 -21 29.5t-6 35.5v358q0 21 6 35.5t21 29.5l80 79q10 10 25 18.5t33 7.5z" />
    <glyph glyph-name="gdotaccent" unicode="&#x121;" horiz-adv-x="486" 
d="M287 705v-79h-86v79h86zM312 501q21 0 35.5 -6t28.5 -20l38 -38q15 -15 21 -29.5t6 -35.5v-418q0 -20 -5.5 -33.5t-19.5 -28.5l-44 -44q-16 -16 -30.5 -21t-34.5 -5h-206l-31 29v67h220q8 0 13 6l26 25q5 5 5 13v78l-59 -27q-14 -6 -26.5 -9t-27.5 -3h-51q-21 0 -35.5 6
t-28.5 20l-38 38q-17 17 -22 35t-5 36v237q0 21 6 34.5t21 28.5l38 38q14 14 28.5 20t35.5 6zM308 398q-5 5 -13 5h-106q-8 0 -13 -5l-21 -21q-6 -6 -6 -13v-229q0 -7 6 -13l21 -21q5 -5 13 -5h32q5 0 10 3l105 49v217q0 7 -6 13z" />
    <glyph glyph-name="uni0122" unicode="&#x122;" horiz-adv-x="611" 
d="M403 702q21 0 35.5 -6t29.5 -21l84 -84l-79 -79l-81 80q-6 6 -15 6h-122q-8 0 -13 -5l-63 -63q-6 -6 -6 -13v-330q0 -7 6 -13l65 -64q6 -6 15 -6h121q8 0 13 5l63 63q6 6 6 13v108h-153v69l36 36h230v-227q0 -21 -6 -35.5t-21 -29.5l-80 -79q-10 -10 -25 -18.5t-33 -7.5
h-177q-21 0 -35.5 6t-29.5 21l-80 79q-15 15 -21 29.5t-6 35.5v358q0 21 6 35.5t21 29.5l80 79q10 10 25 18.5t33 7.5zM362 -35v-64q0 -27 -11 -48l-24 -52h-78l32 69h-22v95h103z" />
    <glyph glyph-name="uni0123" unicode="&#x123;" horiz-adv-x="486" 
d="M296 750l-32 -69h22v-94h-103v64q0 26 11 48l24 51h78zM311 501q21 0 35.5 -6t28.5 -20l38 -38q15 -15 21 -29.5t6 -35.5v-418q0 -20 -5.5 -33.5t-19.5 -28.5l-44 -44q-16 -16 -30.5 -21t-34.5 -5h-206l-31 29v67h220q8 0 13 6l26 25q5 5 5 13v78l-59 -27
q-14 -6 -26.5 -9t-27.5 -3h-51q-21 0 -35.5 6t-28.5 20l-38 38q-17 17 -22 35t-5 36v237q0 21 6 34.5t21 28.5l38 38q14 14 28.5 20t35.5 6zM307 398q-5 5 -13 5h-106q-8 0 -13 -5l-21 -21q-6 -6 -6 -13v-229q0 -7 6 -13l21 -21q5 -5 13 -5h32q5 0 10 3l105 49v217
q0 7 -6 13z" />
    <glyph glyph-name="Hbar" unicode="&#x126;" horiz-adv-x="721" 
d="M701 505h-79v-504h-114v309h-290v-309h-114v504h-81v105h81v55l36 36h77v-92h290v55l36 36h77v-92h79zM508 505h-290v-90h290v90z" />
    <glyph glyph-name="hbar" unicode="&#x127;" horiz-adv-x="541" 
d="M467 436q15 -15 21 -29.5t6 -35.5v-371h-106v364q0 7 -6 13l-21 21q-5 5 -13 5h-30q-6 0 -12 -3l-104 -49v-352h-106v552h-80v96h80v39l30 30h76v-69h136v-96h-136v-91l59 27q14 6 26.5 9t27.5 3h51q21 0 35.5 -6t28.5 -20z" />
    <glyph glyph-name="Itilde" unicode="&#x128;" horiz-adv-x="251" 
d="M-46 860q6 8 15.5 23t22.5 30.5t29.5 27t36.5 13.5h12q18 0 33.5 -7.5t41.5 -27.5q16 -12 26.5 -18.5t19.5 -6.5q13 0 25.5 13t33.5 42l47 -31q-20 -50 -47 -73t-58 -23t-61 21q-15 11 -24.5 18.5t-15.5 12t-10.5 6.5t-8.5 2q-2 0 -12 -2t-24 -15.5t-31 -41.5zM183 701
v-700h-114v664l36 36h78z" />
    <glyph glyph-name="itilde" unicode="&#x129;" horiz-adv-x="197" 
d="M-71 656q6 8 15.5 23t22.5 30.5t29.5 27t36.5 13.5h12q18 0 33.5 -7.5t41.5 -27.5q16 -12 26.5 -18.5t19.5 -6.5q13 0 25.5 13t33.5 42l47 -31q-20 -50 -47 -73t-58 -23t-61 21q-15 11 -24.5 18.5t-15.5 12t-10.5 6.5t-8.5 2q-2 0 -12 -2t-24 -15.5t-30 -41.5zM155 502
v-500h-106v500h106z" />
    <glyph glyph-name="Imacron" unicode="&#x12a;" horiz-adv-x="251" 
d="M256 933v-73h-260v73h260zM183 700v-700h-114v664l36 36h78z" />
    <glyph glyph-name="imacron" unicode="&#x12b;" horiz-adv-x="197" 
d="M231 728v-73h-260v73h260zM155 500v-500h-106v500h106z" />
    <glyph glyph-name="Iogonek" unicode="&#x12e;" horiz-adv-x="251" 
d="M182 700v-700h-59q-24 -22 -35.5 -44.5t-11.5 -37.5q0 -6 2 -12q5 -11 13.5 -14.5t19.5 -3.5h60v-72h-72q-46 0 -71 27t-25 61q0 38 20.5 61t45.5 35v664l36 36h77z" />
    <glyph glyph-name="iogonek" unicode="&#x12f;" horiz-adv-x="197" 
d="M144 705v-79h-86v79h86zM154 499v-500h-53q-24 -22 -35 -44t-11 -37q0 -8 3 -12q5 -11 13.5 -14.5t19.5 -3.5h60v-72h-72q-46 0 -70.5 27t-24.5 61q0 38 20 61t45 35v500z" />
    <glyph glyph-name="Idotaccent" unicode="&#x130;" horiz-adv-x="251" 
d="M169 910v-79h-86v79h86zM183 700v-700h-114v664l36 36h78z" />
    <glyph glyph-name="dotlessi" unicode="&#x131;" horiz-adv-x="197" 
d="M155 500v-500h-106v500h106z" />
    <glyph glyph-name="IJ" unicode="&#x132;" horiz-adv-x="567" 
d="M183 700v-700h-114v664l36 36h78zM497 692v-683q0 -22 -6.5 -35.5t-20.5 -28.5l-39 -39q-14 -14 -28.5 -21t-36.5 -7h-106v105h84q8 0 13 6l21 20q5 7 5 13v566h-124v69l36 36z" />
    <glyph glyph-name="ij" unicode="&#x133;" horiz-adv-x="430" 
d="M382 670v-117h-119v117h119zM168 670v-117h-119v117h119zM376 500v-552q0 -20 -5.5 -34t-19.5 -29l-40 -40q-14 -14 -28.5 -20t-35.5 -6h-61v97h43q8 0 13 5l22 22q5 5 5 13v544h107zM162 500v-500h-106v500h106z" />
    <glyph glyph-name="uni0136" unicode="&#x136;" horiz-adv-x="590" 
d="M195 701v-286l252 286h48l50 -50l-246 -284l275 -317l-50 -50h-48l-250 283l-31 -36v-247h-114v664l36 36zM352 -36v-64q0 -27 -11 -48l-24 -52h-78l32 69h-22v95h103z" />
    <glyph glyph-name="uni0137" unicode="&#x137;" horiz-adv-x="490" 
d="M169 717v-371l197 154h50l50 -49l-213 -165l230 -238l-48 -47h-51l-202 216l-13 -33v-183h-106v686l30 30h76zM301 -37v-64q0 -27 -11 -48l-24 -52h-78l32 69h-22v95h103z" />
    <glyph glyph-name="Lacute" unicode="&#x139;" horiz-adv-x="507" 
d="M283 953l59 -54l-127 -127l-48 44zM191 700v-595h298v-105h-375l-36 36v628l36 36h77z" />
    <glyph glyph-name="lacute" unicode="&#x13a;" horiz-adv-x="273" 
d="M165 930l59 -54l-127 -127l-48 44zM159 715v-581q0 -7 5 -12l22 -22q5 -5 13 -5h62v-96h-79q-21 0 -35.5 6t-29.5 20l-33 33q-17 17 -24 32t-7 38v558l30 30z" />
    <glyph glyph-name="uni013B" unicode="&#x13b;" horiz-adv-x="507" 
d="M191 700v-595h298v-105h-375l-36 36v628l36 36h77zM310 -37v-64q0 -27 -11 -48l-24 -52h-78l32 69h-22v95h103z" />
    <glyph glyph-name="uni013C" unicode="&#x13c;" horiz-adv-x="273" 
d="M160 716v-581q0 -7 5 -12l22 -22q5 -5 13 -5h62v-96h-79q-21 0 -35.5 6t-29.5 20l-33 33q-17 17 -24 32t-7 38v558l30 30zM193 -38v-64q0 -27 -11 -48l-24 -52h-78l32 69h-22v95h103z" />
    <glyph glyph-name="Lcaron" unicode="&#x13d;" horiz-adv-x="507" 
d="M191 700v-595h298v-105h-375l-36 36v628l36 36h77zM432 700v-81q0 -33 -13 -60l-30 -63h-101l39 85h-27v119h132z" />
    <glyph glyph-name="lcaron" unicode="&#x13e;" horiz-adv-x="362" 
d="M348 717v-81q0 -33 -13 -60l-30 -63h-101l39 85h-27v119h132zM160 716v-581q0 -7 5 -12l22 -22q5 -5 13 -5h62v-96h-79q-21 0 -35.5 6t-29.5 20l-33 33q-17 17 -24 32t-7 38v558l30 30z" />
    <glyph glyph-name="Ldot" unicode="&#x13f;" horiz-adv-x="507" 
d="M191 700v-595h298v-105h-375l-36 36v628l36 36h77zM419 372v-128h-131v128h131z" />
    <glyph glyph-name="ldot" unicode="&#x140;" horiz-adv-x="345" 
d="M160 716v-581q0 -7 5 -12l22 -22q5 -5 13 -5h62v-96h-79q-21 0 -35.5 6t-29.5 20l-33 33q-17 17 -24 32t-7 38v558l30 30zM329 371v-128h-131v128h131z" />
    <glyph glyph-name="Lslash" unicode="&#x141;" horiz-adv-x="523" 
d="M505 108v-108h-378l-37 37v228l-92 -52v125l92 52v272l37 37h80v-243l134 76v-125l-134 -76v-223h298z" />
    <glyph glyph-name="lslash" unicode="&#x142;" horiz-adv-x="366" 
d="M215 316v-181q0 -7 5 -12l21 -21q5 -5 13 -5h61v-96h-78q-21 0 -35.5 6t-28.5 20l-32 32q-17 17 -24 31.5t-7 36.5v127l-90 -51v119l90 51v314l30 30h76v-284l131 75v-119z" />
    <glyph glyph-name="Nacute" unicode="&#x143;" horiz-adv-x="667" 
d="M363 958l59 -54l-127 -127l-48 44zM593 700v-664l-36 -36h-137l-224 562h-6v-562h-114v664l36 36h140l222 -562h5v562h114z" />
    <glyph glyph-name="nacute" unicode="&#x144;" horiz-adv-x="507" 
d="M283 753l59 -54l-127 -127l-48 44zM329 500q21 0 35.5 -6t28.5 -20l38 -38q15 -15 21 -29.5t6 -35.5v-371h-106v364q0 7 -6 13l-21 21q-5 5 -13 5h-33q-6 0 -12 -3l-105 -49v-352h-106v500h95l7 -41l63 30q14 6 26.5 9t27.5 3h54z" />
    <glyph glyph-name="uni0145" unicode="&#x145;" horiz-adv-x="667" 
d="M593 700v-664l-36 -36h-137l-224 562h-6v-562h-114v664l36 36h140l222 -562h5v562h114zM391 -35v-65q0 -26 -11 -48l-24 -50h-78l32 69h-22v94h103z" />
    <glyph glyph-name="uni0146" unicode="&#x146;" horiz-adv-x="507" 
d="M329 500q21 0 35.5 -6t28.5 -20l38 -38q15 -15 21 -29.5t6 -35.5v-371h-106v364q0 7 -6 13l-21 21q-5 5 -13 5h-33q-6 0 -12 -3l-105 -49v-352h-106v500h95l7 -41l63 30q14 6 26.5 9t27.5 3h54zM311 -37v-64q0 -27 -11 -48l-24 -52h-78l32 69h-22v95h103z" />
    <glyph glyph-name="Ncaron" unicode="&#x147;" horiz-adv-x="667" 
d="M434 958l48 -44l-112 -133h-73l-112 133l48 44l101 -101zM592 701v-664l-36 -36h-137l-224 562h-6v-562h-114v664l36 36h140l222 -562h5v562h114z" />
    <glyph glyph-name="ncaron" unicode="&#x148;" horiz-adv-x="507" 
d="M354 753l48 -44l-112 -133h-73l-112 133l48 44l101 -101zM328 500q21 0 35.5 -6t28.5 -20l38 -38q15 -15 21 -29.5t6 -35.5v-371h-106v364q0 7 -6 13l-21 21q-5 5 -13 5h-33q-6 0 -12 -3l-105 -49v-352h-106v500h95l7 -41l63 30q14 6 26.5 9t27.5 3h54z" />
    <glyph glyph-name="Eng" unicode="&#x14a;" horiz-adv-x="666" 
d="M593 700v-738q0 -23 -6.5 -36.5t-20.5 -27.5l-39 -39q-14 -15 -28.5 -22t-36.5 -7h-106v106h84q9 0 13 5l21 21q5 7 5 12v26h-59l-224 562h-6v-562h-114v664l36 36h140l222 -562h5v562h114z" />
    <glyph glyph-name="eng" unicode="&#x14b;" horiz-adv-x="506" 
d="M330 499q21 0 35.5 -6t28.5 -20l38 -38q15 -15 21 -29.5t6 -35.5v-423q0 -20 -5.5 -34t-19.5 -29l-40 -40q-14 -14 -28.5 -20t-35.5 -6h-61v97h43q8 0 13 5l22 22q5 5 5 13v409q0 7 -6 13l-21 21q-5 5 -13 5h-33q-6 0 -12 -3l-105 -49v-352h-106v500h95l7 -41l63 30
q14 6 26.5 9t27.5 3z" />
    <glyph glyph-name="Omacron" unicode="&#x14c;" 
d="M462 933v-73h-260v73h260zM430 700q21 0 35.5 -6t29.5 -21l80 -79q15 -15 21 -29.5t6 -35.5v-357q0 -21 -6 -35.5t-21 -29.5l-80 -79q-15 -15 -29.5 -21t-35.5 -6h-196q-21 0 -35.5 6t-29.5 21l-80 79q-15 15 -21 29.5t-6 35.5v357q0 21 6 35.5t21 29.5l80 79
q15 15 29.5 21t35.5 6h196zM421 590q-5 5 -13 5h-150q-8 0 -13 -5l-63 -63q-6 -6 -6 -13v-329q0 -7 6 -13l63 -63q5 -5 13 -5h150q8 0 13 5l63 63q6 6 6 13v329q0 7 -6 13z" />
    <glyph glyph-name="omacron" unicode="&#x14d;" horiz-adv-x="487" 
d="M374 733v-73h-260v73h260zM317 500q21 0 35.5 -6t28.5 -20l38 -38q15 -15 21 -29.5t6 -35.5v-242q0 -21 -6 -35.5t-21 -29.5l-38 -38q-14 -14 -28.5 -20t-35.5 -6h-147q-21 0 -35.5 6t-28.5 20l-38 38q-15 15 -21 29.5t-6 35.5v242q0 21 6 35.5t21 29.5l38 38
q14 14 28.5 20t35.5 6h147zM314 398q-5 5 -13 5h-114q-8 0 -13 -5l-21 -21q-6 -6 -6 -13v-229q0 -7 6 -13l21 -21q5 -5 13 -5h114q8 0 13 5l21 21q6 6 6 13v229q0 7 -6 13z" />
    <glyph glyph-name="Ohungarumlaut" unicode="&#x150;" 
d="M287 958l59 -54l-127 -127l-48 44zM435 958l59 -54l-127 -127l-48 44zM430 700q21 0 35.5 -6t29.5 -21l80 -79q15 -15 21 -29.5t6 -35.5v-357q0 -21 -6 -35.5t-21 -29.5l-80 -79q-15 -15 -29.5 -21t-35.5 -6h-196q-21 0 -35.5 6t-29.5 21l-80 79q-15 15 -21 29.5t-6 35.5
v357q0 21 6 35.5t21 29.5l80 79q15 15 29.5 21t35.5 6h196zM421 590q-5 5 -13 5h-150q-8 0 -13 -5l-63 -63q-6 -6 -6 -13v-329q0 -7 6 -13l63 -63q5 -5 13 -5h150q8 0 13 5l63 63q6 6 6 13v329q0 7 -6 13z" />
    <glyph glyph-name="ohungarumlaut" unicode="&#x151;" horiz-adv-x="487" 
d="M199 758l59 -54l-127 -127l-48 44zM347 758l59 -54l-127 -127l-48 44zM317 500q21 0 35.5 -6t28.5 -20l38 -38q15 -15 21 -29.5t6 -35.5v-242q0 -21 -6 -35.5t-21 -29.5l-38 -38q-14 -14 -28.5 -20t-35.5 -6h-147q-21 0 -35.5 6t-28.5 20l-38 38q-15 15 -21 29.5t-6 35.5
v242q0 21 6 35.5t21 29.5l38 38q14 14 28.5 20t35.5 6h147zM314 398q-5 5 -13 5h-114q-8 0 -13 -5l-21 -21q-6 -6 -6 -13v-229q0 -7 6 -13l21 -21q5 -5 13 -5h114q8 0 13 5l21 21q6 6 6 13v229q0 7 -6 13z" />
    <glyph glyph-name="OE" unicode="&#x152;" horiz-adv-x="955" 
d="M883 701l37 -37v-69h-277q-8 0 -13 -5l-22 -22q-6 -6 -6 -13v-152h264v-106h-264v-152q0 -7 6 -13l22 -22q5 -5 13 -5h277v-69l-37 -36h-263q-21 0 -35.5 6t-29.5 21l-22 22q-5 5 -9 7l-28 -28q-15 -15 -29.5 -21t-36.5 -6h-196q-22 0 -36.5 6t-29.5 21l-80 79
q-15 15 -21 29.5t-6 35.5v356q0 21 6 35.5t21 29.5l80 79q15 15 29.5 21t36.5 6h196q22 0 36.5 -6t29.5 -21l28 -28q4 2 9 7l22 22q15 15 29.5 21t35.5 6zM420 592q-5 5 -13 5h-150q-8 0 -13 -5l-63 -63q-6 -6 -6 -13v-328q0 -7 6 -13l63 -63q5 -5 13 -5h150q8 0 13 5l63 63
q5 5 5 11v330q0 6 -5 11z" />
    <glyph glyph-name="oe" unicode="&#x153;" horiz-adv-x="767" 
d="M604 498q21 0 35.5 -6t28.5 -20l38 -38q15 -15 21 -29.5t6 -35.5v-133l-30 -30h-257v-72q0 -7 6 -13l21 -21q5 -5 13 -5h101q8 0 13 5l38 38l72 -71l-41 -41q-14 -14 -28.5 -20t-35.5 -6h-135q-21 0 -35.5 6t-28.5 20l-12 12l-12 -12q-14 -14 -28.5 -20t-35.5 -6h-147
q-21 0 -35.5 6t-28.5 20l-38 38q-15 15 -21 29.5t-6 35.5v242q0 21 6 35.5t21 29.5l38 38q14 14 28.5 20t35.5 6h147q21 0 35.5 -6t28.5 -20l12 -12l12 12q14 14 28.5 20t35.5 6zM313 397q-5 5 -13 5h-114q-8 0 -13 -5l-21 -21q-6 -6 -6 -13v-229q0 -7 6 -13l21 -21
q5 -5 13 -5h114q8 0 13 5l21 21q5 5 5 11v232q0 6 -5 11zM601 397q-5 5 -13 5h-101q-8 0 -13 -5l-21 -21q-6 -6 -6 -13v-61h181v61q0 7 -6 13z" />
    <glyph glyph-name="Racute" unicode="&#x154;" horiz-adv-x="605" 
d="M332 953l59 -54l-127 -127l-48 44zM409 699q21 0 35.5 -6t29.5 -21l39 -39q15 -15 21 -29.5t6 -35.5v-141q0 -21 -6 -35.5t-21 -29.5l-39 -39q-9 -9 -18 -13l-10 -1l125 -262l-47 -47h-55l-141 298h-133v-298h-114v664l36 36zM399 589q-5 5 -13 5h-192v-193h192q8 0 13 5
l22 22q6 6 6 13v113q0 7 -6 13z" />
    <glyph glyph-name="racute" unicode="&#x155;" horiz-adv-x="333" 
d="M196 753l59 -54l-127 -127l-48 44zM317 498v-96h-43q-3 0 -6.5 -0.5t-6.5 -2.5l-104 -76v-324h-106v500h90l11 -60l61 47q14 11 29 12.5t28 1.5z" />
    <glyph glyph-name="uni0156" unicode="&#x156;" horiz-adv-x="605" 
d="M409 699q21 0 35.5 -6t29.5 -21l39 -39q15 -15 21 -29.5t6 -35.5v-141q0 -21 -6 -35.5t-21 -29.5l-39 -39q-9 -9 -18 -13l-10 -1l125 -262l-47 -47h-55l-141 298h-133v-298h-114v664l36 36zM399 589q-5 5 -13 5h-192v-193h192q8 0 13 5l22 22q6 6 6 13v113q0 7 -6 13z
M359 -38v-64q0 -27 -11 -48l-24 -52h-78l32 69h-22v95h103z" />
    <glyph glyph-name="uni0157" unicode="&#x157;" horiz-adv-x="333" 
d="M316 498v-96h-43q-3 0 -6.5 -0.5t-6.5 -2.5l-104 -76v-324h-106v500h90l11 -60l61 47q14 11 29 12.5t28 1.5zM156 -39v-64q0 -27 -11 -48l-24 -52h-78l32 69h-22v95h103z" />
    <glyph glyph-name="Rcaron" unicode="&#x158;" horiz-adv-x="605" 
d="M403 953l48 -44l-112 -133h-73l-112 133l48 44l101 -101zM408 700q21 0 35.5 -6t29.5 -21l39 -39q15 -15 21 -29.5t6 -35.5v-141q0 -21 -6 -35.5t-21 -29.5l-39 -39q-9 -9 -18 -13l-10 -1l125 -262l-47 -47h-55l-141 298h-133v-298h-114v664l36 36zM398 590q-5 5 -13 5
h-192v-193h192q8 0 13 5l22 22q6 6 6 13v113q0 7 -6 13z" />
    <glyph glyph-name="rcaron" unicode="&#x159;" horiz-adv-x="333" 
d="M267 753l48 -44l-112 -133h-73l-112 133l48 44l101 -101zM316 498v-96h-43q-3 0 -6.5 -0.5t-6.5 -2.5l-104 -76v-324h-106v500h90l11 -60l61 47q14 11 29 12.5t28 1.5z" />
    <glyph glyph-name="Sacute" unicode="&#x15a;" horiz-adv-x="547" 
d="M303 958l59 -54l-127 -127l-48 44zM448 700l33 -32v-73h-258q-13 0 -20 -7l-40 -41q-8 -9 -8 -18v-37q0 -9 10 -14l273 -138q73 -37 73 -108v-60q0 -27 -9.5 -48.5t-32.5 -44.5l-41 -41q-18 -18 -43 -28t-57 -10h-255l-33 32v73h288q13 0 20 7l41 41q8 8 8 17v57
q0 11 -12 18l-297 152q-25 13 -36 31.5t-11 47.5v57q0 27 7 44.5t25 35.5l54 54q19 19 35.5 26t42.5 7h243z" />
    <glyph glyph-name="sacute" unicode="&#x15b;" horiz-adv-x="434" 
d="M246 758l59 -54l-127 -127l-48 44zM344 500l30 -30v-67h-189q-8 0 -13 -5l-21 -22q-6 -6 -6 -13v-12q0 -8 8 -13l183 -93q58 -30 58 -86v-29q0 -20 -7.5 -37t-25.5 -35l-28 -28q-14 -14 -34 -22t-45 -8h-185l-30 30v67h210q8 0 13 5l21 21q6 6 6 13v16q0 8 -8 13
l-201 102q-40 21 -40 65v39q0 21 6 35.5t21 29.5l38 38q14 14 28.5 20t35.5 6h175z" />
    <glyph glyph-name="Scedilla" unicode="&#x15e;" horiz-adv-x="547" 
d="M449 700l33 -32v-73h-258q-13 0 -20 -7l-40 -41q-8 -9 -8 -18v-37q0 -9 10 -14l273 -138q73 -37 73 -108v-60q0 -27 -9.5 -48.5t-32.5 -44.5l-41 -41q-18 -18 -43 -28t-57 -10h-25l-9 -18q6 -1 12 -1.5t11 -1.5q28 -10 42.5 -30.5t14.5 -46.5q0 -16 -6 -31t-18 -27
t-29 -19t-39 -7h-69v66h62q8 0 14 6t6 15q0 8 -6 13.5t-14 5.5h-3q-8 0 -17 -3.5t-27 -12.5l-40 39l25 53h-141l-33 32v73h288q13 0 20 7l41 41q8 8 8 17v57q0 11 -12 18l-297 152q-25 13 -36 31.5t-11 47.5v57q0 27 7 44.5t25 35.5l54 54q19 19 35.5 26t42.5 7h244z" />
    <glyph glyph-name="scedilla" unicode="&#x15f;" horiz-adv-x="434" 
d="M343 500l30 -30v-67h-189q-8 0 -13 -5l-21 -22q-6 -6 -6 -13v-12q0 -8 8 -13l183 -93q58 -30 58 -86v-29q0 -20 -7.5 -37t-25.5 -35l-28 -28q-14 -14 -34 -22t-45 -8h-26l-6 -12q6 -1 12 -1.5t11 -2.5q28 -9 42.5 -29.5t14.5 -46.5q0 -16 -6 -31t-18 -27t-29 -19t-39 -7
h-69v65h62q8 0 14 6.5t6 14.5t-6 14t-14 6t-17.5 -2.5t-30.5 -13.5l-40 39l23 47h-69l-30 30v67h210q8 0 13 5l21 21q6 6 6 13v16q0 8 -8 13l-201 102q-40 21 -40 65v39q0 21 6 35.5t21 29.5l38 38q14 14 28.5 20t35.5 6h175z" />
    <glyph glyph-name="Scaron" unicode="&#x160;" horiz-adv-x="547" 
d="M374 958l48 -44l-112 -133h-73l-112 133l48 44l101 -101zM447 701l33 -32v-73h-258q-13 0 -20 -7l-40 -41q-8 -9 -8 -18v-37q0 -9 10 -14l273 -138q73 -37 73 -108v-60q0 -27 -9.5 -48.5t-32.5 -44.5l-41 -41q-18 -18 -43 -28t-57 -10h-255l-33 32v73h288q13 0 20 7
l41 41q8 8 8 17v57q0 11 -12 18l-297 152q-25 13 -36 31.5t-11 47.5v57q0 27 7 44.5t25 35.5l54 54q19 19 35.5 26t42.5 7h243z" />
    <glyph glyph-name="scaron" unicode="&#x161;" horiz-adv-x="434" 
d="M317 758l48 -44l-112 -133h-73l-112 133l48 44l101 -101zM342 500l30 -30v-67h-189q-8 0 -13 -5l-21 -22q-6 -6 -6 -13v-12q0 -8 8 -13l183 -93q58 -30 58 -86v-29q0 -20 -7.5 -37t-25.5 -35l-28 -28q-14 -14 -34 -22t-45 -8h-185l-30 30v67h210q8 0 13 5l21 21q6 6 6 13
v16q0 8 -8 13l-201 102q-40 21 -40 65v39q0 21 6 35.5t21 29.5l38 38q14 14 28.5 20t35.5 6h175z" />
    <glyph glyph-name="uni0162" unicode="&#x162;" horiz-adv-x="552" 
d="M499 700l36 -36v-69h-199v-595h-26l-8 -16q12 0 23 -3q28 -10 42.5 -30.5t14.5 -46.5q0 -16 -6 -31t-18 -27t-29 -19t-39 -7h-69v66h62q8 0 14 6t6 15q0 8 -6 13.5t-14 5.5h-6q-8 0 -16.5 -3t-25.5 -12l-40 38l25 51v595h-199v69l36 36h442z" />
    <glyph glyph-name="uni0163" unicode="&#x163;" horiz-adv-x="334" 
d="M198 611v-112h104v-96h-104v-269q0 -7 6 -13l21 -21q5 -5 13 -5h64v-67l-31 -29h-51q-9 0 -17 4l-5 3l-8 -17q6 -1 12 -1.5t11 -2.5q28 -9 42.5 -29.5t14.5 -46.5q0 -16 -6 -31.5t-18 -27.5t-29 -19t-39 -7h-69v66h62q8 0 14 6.5t6 14.5t-6 14t-14 6t-17.5 -2.5
t-30.5 -13.5l-40 38l46 97l-13 13q-15 15 -21 29.5t-6 35.5v275h-73v67l30 30h43v112z" />
    <glyph glyph-name="Tcaron" unicode="&#x164;" horiz-adv-x="552" 
d="M376 953l48 -44l-112 -133h-73l-112 133l48 44l101 -101zM496 701l36 -36v-69h-199v-595h-114v595h-199v69l36 36h440z" />
    <glyph glyph-name="tcaron" unicode="&#x165;" horiz-adv-x="408" 
d="M389 740v-81q0 -33 -13 -60l-30 -63h-101l39 85h-27v119h132zM196 612v-112h104v-96h-104v-269q0 -7 6 -13l21 -21q5 -5 13 -5h64v-67l-31 -29h-51q-21 0 -35.5 6t-28.5 20l-38 38q-15 15 -21 29.5t-6 35.5v275h-73v67l30 30h43v112z" />
    <glyph glyph-name="Tbar" unicode="&#x166;" horiz-adv-x="552" 
d="M406 928v-73h-260v73h260zM497 700l36 -36v-69h-199v-595h-114v595h-199v69l36 36h440z" />
    <glyph glyph-name="tbar" unicode="&#x167;" horiz-adv-x="334" 
d="M304 748v-73h-260v73h260zM196 611v-112h104v-96h-104v-269q0 -7 6 -13l21 -21q5 -5 13 -5h64v-67l-31 -29h-51q-21 0 -35.5 6t-28.5 20l-38 38q-15 15 -21 29.5t-6 35.5v275h-73v67l30 30h43v112z" />
    <glyph glyph-name="Utilde" unicode="&#x168;" horiz-adv-x="655" 
d="M157 860q6 8 15.5 23t22.5 30.5t29.5 27t36.5 13.5h12q18 0 33.5 -7.5t41.5 -27.5q16 -12 26.5 -18.5t19.5 -6.5q13 0 25.5 13t33.5 42l47 -31q-20 -50 -47 -73t-58 -23t-61 21q-15 11 -24.5 18.5t-15.5 12t-10.5 6.5t-8.5 2q-2 0 -12 -2t-24 -15.5t-31 -41.5zM504 701
h77v-569q0 -21 -6 -35.5t-21 -29.5l-39 -39q-15 -15 -29.5 -21t-35.5 -6h-238q-21 0 -35.5 6t-29.5 21l-39 39q-15 15 -21 29.5t-6 35.5v533l36 36h77v-555q0 -7 6 -13l22 -22q5 -5 13 -5h192q8 0 13 5l22 22q6 6 6 13v519z" />
    <glyph glyph-name="utilde" unicode="&#x169;" horiz-adv-x="502" 
d="M79 661q6 8 15.5 23t22.5 30.5t29.5 27t36.5 13.5h12q18 0 33.5 -7.5t41.5 -27.5q16 -12 26.5 -18.5t19.5 -6.5q13 0 25.5 13t33.5 42l47 -31q-20 -50 -47 -73t-58 -23t-61 21q-15 11 -24.5 18.5t-15.5 12t-10.5 6.5t-8.5 2q-2 0 -12 -2t-24 -15.5t-31 -41.5zM452 502
v-500h-95l-7 41l-63 -30q-14 -6 -26.5 -9t-27.5 -3h-53q-21 0 -35.5 6t-28.5 20l-38 38q-15 15 -21 29.5t-6 35.5v371h106v-364q0 -7 6 -13l21 -21q5 -5 13 -5h33q6 0 12 3l104 49v352h106z" />
    <glyph glyph-name="Umacron" unicode="&#x16a;" horiz-adv-x="655" 
d="M458 933v-73h-260v73h260zM503 700h77v-569q0 -21 -6 -35.5t-21 -29.5l-39 -39q-15 -15 -29.5 -21t-35.5 -6h-238q-21 0 -35.5 6t-29.5 21l-39 39q-15 15 -21 29.5t-6 35.5v533l36 36h77v-555q0 -7 6 -13l22 -22q5 -5 13 -5h192q8 0 13 5l22 22q6 6 6 13v519z" />
    <glyph glyph-name="umacron" unicode="&#x16b;" horiz-adv-x="502" 
d="M381 733v-73h-260v73h260zM452 500v-500h-95l-7 41l-63 -30q-14 -6 -26.5 -9t-27.5 -3h-53q-21 0 -35.5 6t-28.5 20l-38 38q-15 15 -21 29.5t-6 35.5v371h106v-364q0 -7 6 -13l21 -21q5 -5 13 -5h33q6 0 12 3l104 49v352h106z" />
    <glyph glyph-name="Uring" unicode="&#x16e;" horiz-adv-x="655" 
d="M328 985q42 0 70 -28t28 -70t-28 -70t-70 -28t-70 28t-28 70t28 70t70 28zM328 918q-13 0 -21.5 -9t-8.5 -22t8.5 -22t21.5 -9t21.5 9t8.5 22t-8.5 22t-21.5 9zM503 699h77v-569q0 -21 -6 -35.5t-21 -29.5l-39 -39q-15 -15 -29.5 -21t-35.5 -6h-238q-21 0 -35.5 6
t-29.5 21l-39 39q-15 15 -21 29.5t-6 35.5v533l36 36h77v-555q0 -7 6 -13l22 -22q5 -5 13 -5h192q8 0 13 5l22 22q6 6 6 13v519z" />
    <glyph glyph-name="uring" unicode="&#x16f;" horiz-adv-x="502" 
d="M251 786q42 0 70 -28t28 -70t-28 -70t-70 -28t-70 28t-28 70t28 70t70 28zM251 719q-13 0 -21.5 -9t-8.5 -22t8.5 -22t21.5 -9t21.5 9t8.5 22t-8.5 22t-21.5 9zM452 500v-500h-95l-7 41l-63 -30q-14 -6 -26.5 -9t-27.5 -3h-53q-21 0 -35.5 6t-28.5 20l-38 38
q-15 15 -21 29.5t-6 35.5v371h106v-364q0 -7 6 -13l21 -21q5 -5 13 -5h33q6 0 12 3l104 49v352h106z" />
    <glyph glyph-name="Uhungarumlaut" unicode="&#x170;" horiz-adv-x="655" 
d="M431 958l59 -54l-127 -127l-48 44zM283 958l59 -54l-127 -127l-48 44zM503 700h77v-569q0 -21 -6 -35.5t-21 -29.5l-39 -39q-15 -15 -29.5 -21t-35.5 -6h-238q-21 0 -35.5 6t-29.5 21l-39 39q-15 15 -21 29.5t-6 35.5v533l36 36h77v-555q0 -7 6 -13l22 -22q5 -5 13 -5
h192q8 0 13 5l22 22q6 6 6 13v519z" />
    <glyph glyph-name="uhungarumlaut" unicode="&#x171;" horiz-adv-x="502" 
d="M206 758l59 -54l-127 -127l-48 44zM354 758l59 -54l-127 -127l-48 44zM452 500v-500h-95l-7 41l-63 -30q-14 -6 -26.5 -9t-27.5 -3h-53q-21 0 -35.5 6t-28.5 20l-38 38q-15 15 -21 29.5t-6 35.5v371h106v-364q0 -7 6 -13l21 -21q5 -5 13 -5h33q6 0 12 3l104 49v352h106z
" />
    <glyph glyph-name="Uogonek" unicode="&#x172;" horiz-adv-x="655" 
d="M578 699v-569q0 -21 -6 -35.5t-21 -29.5l-39 -39q-15 -15 -29.5 -21t-35.5 -6h-9q-17 -19 -25 -36.5t-8 -30.5q0 -8 3 -12q5 -11 13.5 -14.5t19.5 -3.5h60v-71h-72q-46 0 -71 27t-25 61q0 29 12 48.5t30 32.5h-164q-21 0 -35.5 6t-29.5 21l-39 39q-15 15 -21 29.5
t-6 35.5v533l36 36h77v-555q0 -7 6 -13l22 -22q5 -5 13 -5h192q8 0 13 5l22 22q6 6 6 13v519l36 36z" />
    <glyph glyph-name="uogonek" unicode="&#x173;" horiz-adv-x="502" 
d="M478 -174h-72q-46 0 -71 27t-25 61q0 32 13.5 52t33.5 33l-7 41l-63 -30q-14 -6 -26.5 -9t-27.5 -3h-53q-21 0 -35.5 6t-28.5 20l-38 38q-15 15 -21 29.5t-6 35.5v371h106v-364q0 -7 6 -13l21 -21q5 -5 13 -5h33q6 0 12 3l104 49v352h106v-500h-35q-18 -20 -26.5 -38
t-8.5 -31q0 -8 3 -12q5 -11 13.5 -14.5t19.5 -3.5h60v-74z" />
    <glyph glyph-name="Wcircumflex" unicode="&#x174;" horiz-adv-x="960" 
d="M518 949l112 -133l-48 -44l-101 101l-101 -101l-48 44l112 133h74zM884 700l60 -28l-170 -672h-160l-128 562h-9l-129 -562h-160l-170 672l60 28h51l128 -562h20l122 562h164l121 -562h20l130 562h50z" />
    <glyph glyph-name="wcircumflex" unicode="&#x175;" horiz-adv-x="777" 
d="M427 749l112 -133l-48 -44l-101 101l-101 -101l-48 44l112 133h74zM715 500l52 -24l-131 -476h-144l-100 369h-7l-98 -369h-144l-131 476l52 24h53l95 -392h9l102 392h137l101 -392h9l95 392h50z" />
    <glyph glyph-name="Ycircumflex" unicode="&#x176;" horiz-adv-x="583" 
d="M330 954l112 -133l-48 -44l-101 101l-101 -101l-48 44l112 133h74zM508 700l62 -29l-190 -437h-29v-234h-114v234h-29l-190 437l62 29h49l151 -361h27l151 361h50z" />
    <glyph glyph-name="ycircumflex" unicode="&#x177;" horiz-adv-x="491" 
d="M284 756l112 -133l-48 -44l-101 101l-101 -101l-48 44l112 133h74zM432 500l48 -22l-166 -483q-7 -19 -20 -47t-37 -55t-61 -48.5t-91 -26.5l-15 86q27 3 44.5 9t29 15.5t19 22t14.5 29.5l7 20h-24l-165 478l48 22h56l123 -389h8l126 389h56z" />
    <glyph glyph-name="Ydieresis" unicode="&#x178;" horiz-adv-x="583" 
d="M253 910v-79h-86v79h86zM417 910v-79h-86v79h86zM507 700l62 -29l-190 -437h-29v-234h-114v234h-29l-190 437l62 29h49l151 -361h27l151 361h50z" />
    <glyph glyph-name="Zacute" unicode="&#x179;" horiz-adv-x="573" 
d="M316 958l59 -54l-127 -127l-48 44zM484 701l36 -36v-114l-365 -437v-8h379v-69l-36 -36h-420l-37 36v112l365 436v10h-346v69l36 36z" />
    <glyph glyph-name="zacute" unicode="&#x17a;" horiz-adv-x="478" 
d="M268 758l59 -54l-127 -127l-48 44zM398 500l30 -30v-97l-282 -274v-3h291v-67l-30 -30h-336l-30 30v104l282 267v3h-267v67l30 30h312z" />
    <glyph glyph-name="Zdotaccent" unicode="&#x17b;" horiz-adv-x="573" 
d="M330 910v-79h-86v79h86zM484 701l36 -36v-114l-365 -437v-8h379v-69l-36 -36h-420l-37 36v112l365 436v10h-346v69l36 36z" />
    <glyph glyph-name="zdotaccent" unicode="&#x17c;" horiz-adv-x="478" 
d="M282 710v-79h-86v79h86zM398 500l30 -30v-97l-282 -274v-3h291v-67l-30 -30h-336l-30 30v104l282 267v3h-267v67l30 30h312z" />
    <glyph glyph-name="Zcaron" unicode="&#x17d;" horiz-adv-x="573" 
d="M387 958l48 -44l-112 -133h-73l-112 133l48 44l101 -101zM483 702l36 -36v-114l-365 -437v-8h379v-69l-36 -36h-420l-37 36v112l365 436v10h-346v69l36 36z" />
    <glyph glyph-name="zcaron" unicode="&#x17e;" horiz-adv-x="478" 
d="M339 758l48 -44l-112 -133h-73l-112 133l48 44l101 -101zM397 500l30 -30v-97l-282 -274v-3h291v-67l-30 -30h-336l-30 30v104l282 267v3h-267v67l30 30h312z" />
    <glyph glyph-name="florin" unicode="&#x192;" horiz-adv-x="373" 
d="M308 710l32 -31v-70h-67q-8 0 -13 -5l-21 -21q-6 -6 -6 -13v-133h97v-101h-97v-358q0 -22 -6 -36t-20 -30l-40 -39q-15 -15 -30 -22t-37 -7h-64v101h45q8 0 13 5l22 22q5 7 5 13v351h-75v70l32 31h43v140q0 21 6 36t21 30l39 39q15 15 30 21t37 6z" />
    <glyph glyph-name="uni01CD" unicode="&#x1cd;" horiz-adv-x="629" 
d="M415 958l48 -44l-112 -133h-73l-112 133l48 44l101 -101zM395 701l216 -672l-61 -28h-50l-68 216h-236l-68 -216h-50l-61 28l216 672h162zM317 581h-7l-81 -259h170z" />
    <glyph glyph-name="uni01CE" unicode="&#x1ce;" horiz-adv-x="483" 
d="M345 758l48 -44l-112 -133h-73l-112 133l48 44l101 -101zM304 499q21 0 35.5 -6t28.5 -20l42 -42q15 -15 21 -29.5t6 -35.5v-367h-97l-5 28l-31 -15q-29 -13 -60 -13h-75q-21 0 -35.5 6t-28.5 20l-38 38q-15 15 -21 29.5t-6 35.5v52q0 21 6 35.5t21 29.5l43 43
q15 14 29.5 20t35.5 6h155v45q0 7 -6 13l-26 26q-5 5 -13 5h-219v67l30 30zM331 217h-139q-8 0 -13 -5l-26 -26q-6 -6 -6 -13v-39q0 -7 6 -13l21 -21q5 -5 13 -5h57q6 0 12 3l75 35v84z" />
    <glyph glyph-name="uni01CF" unicode="&#x1cf;" horiz-adv-x="251" 
d="M227 958l48 -44l-112 -133h-73l-113 133l48 44l101 -101zM183 701v-700h-114v664l36 36h78z" />
    <glyph glyph-name="uni01D0" unicode="&#x1d0;" horiz-adv-x="197" 
d="M202 756l48 -44l-112 -133h-73l-113 133l48 44l101 -101zM155 500v-500h-106v500h106z" />
    <glyph glyph-name="uni01D1" unicode="&#x1d1;" 
d="M432 958l48 -44l-112 -133h-73l-112 133l48 44l101 -101zM429 701q21 0 35.5 -6t29.5 -21l80 -79q15 -15 21 -29.5t6 -35.5v-357q0 -21 -6 -35.5t-21 -29.5l-80 -79q-15 -15 -29.5 -21t-35.5 -6h-196q-21 0 -35.5 6t-29.5 21l-80 79q-15 15 -21 29.5t-6 35.5v357
q0 21 6 35.5t21 29.5l80 79q15 15 29.5 21t35.5 6h196zM420 591q-5 5 -13 5h-150q-8 0 -13 -5l-63 -63q-6 -6 -6 -13v-329q0 -7 6 -13l63 -63q5 -5 13 -5h150q8 0 13 5l63 63q6 6 6 13v329q0 7 -6 13z" />
    <glyph glyph-name="uni01D2" unicode="&#x1d2;" horiz-adv-x="487" 
d="M344 758l48 -44l-112 -133h-73l-112 133l48 44l101 -101zM316 500q21 0 35.5 -6t28.5 -20l38 -38q15 -15 21 -29.5t6 -35.5v-242q0 -21 -6 -35.5t-21 -29.5l-38 -38q-14 -14 -28.5 -20t-35.5 -6h-147q-21 0 -35.5 6t-28.5 20l-38 38q-15 15 -21 29.5t-6 35.5v242
q0 21 6 35.5t21 29.5l38 38q14 14 28.5 20t35.5 6h147zM313 398q-5 5 -13 5h-114q-8 0 -13 -5l-21 -21q-6 -6 -6 -13v-229q0 -7 6 -13l21 -21q5 -5 13 -5h114q8 0 13 5l21 21q6 6 6 13v229q0 7 -6 13z" />
    <glyph glyph-name="uni01D3" unicode="&#x1d3;" horiz-adv-x="655" 
d="M428 958l48 -44l-112 -133h-73l-112 133l48 44l101 -101zM502 701h77v-569q0 -21 -6 -35.5t-21 -29.5l-39 -39q-15 -15 -29.5 -21t-35.5 -6h-238q-21 0 -35.5 6t-29.5 21l-39 39q-15 15 -21 29.5t-6 35.5v533l36 36h77v-555q0 -7 6 -13l22 -22q5 -5 13 -5h192q8 0 13 5
l22 22q6 6 6 13v519z" />
    <glyph glyph-name="uni01D4" unicode="&#x1d4;" horiz-adv-x="502" 
d="M351 758l48 -44l-112 -133h-73l-112 133l48 44l101 -101zM451 500v-500h-95l-7 41l-63 -30q-14 -6 -26.5 -9t-27.5 -3h-53q-21 0 -35.5 6t-28.5 20l-38 38q-15 15 -21 29.5t-6 35.5v371h106v-364q0 -7 6 -13l21 -21q5 -5 13 -5h33q6 0 12 3l104 49v352h106z" />
    <glyph glyph-name="uni01D5" unicode="&#x1d5;" horiz-adv-x="655" 
d="M459 959v-73h-260v73h260zM289 829v-79h-86v79h86zM453 829v-79h-86v79h86zM503 699h77v-569q0 -21 -6 -35.5t-21 -29.5l-39 -39q-15 -15 -29.5 -21t-35.5 -6h-238q-21 0 -35.5 6t-29.5 21l-39 39q-15 15 -21 29.5t-6 35.5v533l36 36h77v-555q0 -7 6 -13l22 -22
q5 -5 13 -5h192q8 0 13 5l22 22q6 6 6 13v519z" />
    <glyph glyph-name="uni01D6" unicode="&#x1d6;" horiz-adv-x="502" 
d="M381 797v-73h-260v73h260zM213 700v-79h-86v79h86zM377 700v-79h-86v79h86zM453 500v-500h-95l-7 41l-63 -30q-14 -6 -26.5 -9t-27.5 -3h-53q-21 0 -35.5 6t-28.5 20l-38 38q-15 15 -21 29.5t-6 35.5v371h106v-364q0 -7 6 -13l21 -21q5 -5 13 -5h33q6 0 12 3l104 49v352
h106z" />
    <glyph glyph-name="uni01D7" unicode="&#x1d7;" horiz-adv-x="655" 
d="M372 1050l59 -54l-127 -127l-48 44zM289 829v-79h-86v79h86zM453 829v-79h-86v79h86zM503 699h77v-569q0 -21 -6 -35.5t-21 -29.5l-39 -39q-15 -15 -29.5 -21t-35.5 -6h-238q-21 0 -35.5 6t-29.5 21l-39 39q-15 15 -21 29.5t-6 35.5v533l36 36h77v-555q0 -7 6 -13l22 -22
q5 -5 13 -5h192q8 0 13 5l22 22q6 6 6 13v519z" />
    <glyph glyph-name="uni01D8" unicode="&#x1d8;" horiz-adv-x="502" 
d="M286 901l59 -54l-127 -127l-48 44zM212 699v-79h-86v79h86zM376 699v-79h-86v79h86zM452 499v-500h-95l-7 41l-63 -30q-14 -6 -26.5 -9t-27.5 -3h-53q-21 0 -35.5 6t-28.5 20l-38 38q-15 15 -21 29.5t-6 35.5v371h106v-364q0 -7 6 -13l21 -21q5 -5 13 -5h33q6 0 12 3
l104 49v352h106z" />
    <glyph glyph-name="uni01D9" unicode="&#x1d9;" horiz-adv-x="655" 
d="M429 1047l48 -44l-112 -133h-73l-112 133l48 44l101 -101zM289 830v-79h-86v79h86zM453 830v-79h-86v79h86zM503 700h77v-569q0 -21 -6 -35.5t-21 -29.5l-39 -39q-15 -15 -29.5 -21t-35.5 -6h-238q-21 0 -35.5 6t-29.5 21l-39 39q-15 15 -21 29.5t-6 35.5v533l36 36h77
v-555q0 -7 6 -13l22 -22q5 -5 13 -5h192q8 0 13 5l22 22q6 6 6 13v519z" />
    <glyph glyph-name="uni01DA" unicode="&#x1da;" horiz-adv-x="502" 
d="M352 898l48 -44l-112 -133h-73l-112 133l48 44l101 -101zM211 700v-79h-86v79h86zM375 700v-79h-86v79h86zM451 500v-500h-95l-7 41l-63 -30q-14 -6 -26.5 -9t-27.5 -3h-53q-21 0 -35.5 6t-28.5 20l-38 38q-15 15 -21 29.5t-6 35.5v371h106v-364q0 -7 6 -13l21 -21
q5 -5 13 -5h33q6 0 12 3l104 49v352h106z" />
    <glyph glyph-name="uni01DB" unicode="&#x1db;" horiz-adv-x="655" 
d="M296 1050l116 -137l-48 -44l-127 127zM289 829v-79h-86v79h86zM453 829v-79h-86v79h86zM503 699h77v-569q0 -21 -6 -35.5t-21 -29.5l-39 -39q-15 -15 -29.5 -21t-35.5 -6h-238q-21 0 -35.5 6t-29.5 21l-39 39q-15 15 -21 29.5t-6 35.5v533l36 36h77v-555q0 -7 6 -13
l22 -22q5 -5 13 -5h192q8 0 13 5l22 22q6 6 6 13v519z" />
    <glyph glyph-name="uni01DC" unicode="&#x1dc;" horiz-adv-x="502" 
d="M216 904l116 -137l-48 -44l-127 127zM212 700v-79h-86v79h86zM376 700v-79h-86v79h86zM452 500v-500h-95l-7 41l-63 -30q-14 -6 -26.5 -9t-27.5 -3h-53q-21 0 -35.5 6t-28.5 20l-38 38q-15 15 -21 29.5t-6 35.5v371h106v-364q0 -7 6 -13l21 -21q5 -5 13 -5h33q6 0 12 3
l104 49v352h106z" />
    <glyph glyph-name="uni01DE" unicode="&#x1de;" horiz-adv-x="629" 
d="M447 946v-73h-260v73h260zM277 829v-79h-86v79h86zM441 829v-79h-86v79h86zM397 700l216 -672l-61 -28h-50l-68 216h-236l-68 -216h-50l-61 28l216 672h162zM319 580h-7l-81 -259h170z" />
    <glyph glyph-name="uni01DF" unicode="&#x1df;" horiz-adv-x="483" 
d="M376 809v-73h-260v73h260zM207 701v-79h-86v79h86zM371 701v-79h-86v79h86zM306 498q21 0 35.5 -6t28.5 -20l42 -42q15 -15 21 -29.5t6 -35.5v-367h-97l-5 28l-31 -15q-29 -13 -60 -13h-75q-21 0 -35.5 6t-28.5 20l-38 38q-15 15 -21 29.5t-6 35.5v52q0 21 6 35.5
t21 29.5l43 43q15 14 29.5 20t35.5 6h155v45q0 7 -6 13l-26 26q-5 5 -13 5h-219v67l30 30zM333 216h-139q-8 0 -13 -5l-26 -26q-6 -6 -6 -13v-39q0 -7 6 -13l21 -21q5 -5 13 -5h57q6 0 12 3l75 35v84z" />
    <glyph glyph-name="Gcaron" unicode="&#x1e6;" horiz-adv-x="611" 
d="M406 953l48 -44l-112 -133h-73l-112 133l48 44l101 -101zM402 703q21 0 35.5 -6t29.5 -21l84 -84l-79 -79l-81 80q-6 6 -15 6h-122q-8 0 -13 -5l-63 -63q-6 -6 -6 -13v-330q0 -7 6 -13l65 -64q6 -6 15 -6h121q8 0 13 5l63 63q6 6 6 13v108h-153v69l36 36h230v-227
q0 -21 -6 -35.5t-21 -29.5l-80 -79q-10 -10 -25 -18.5t-33 -7.5h-177q-21 0 -35.5 6t-29.5 21l-80 79q-15 15 -21 29.5t-6 35.5v358q0 21 6 35.5t21 29.5l80 79q10 10 25 18.5t33 7.5z" />
    <glyph glyph-name="gcaron" unicode="&#x1e7;" horiz-adv-x="486" 
d="M344 753l48 -44l-112 -133h-73l-112 133l48 44l101 -101zM311 502q21 0 35.5 -6t28.5 -20l38 -38q15 -15 21 -29.5t6 -35.5v-418q0 -20 -5.5 -33.5t-19.5 -28.5l-44 -44q-16 -16 -30.5 -21t-34.5 -5h-206l-31 29v67h220q8 0 13 6l26 25q5 5 5 13v78l-59 -27
q-14 -6 -26.5 -9t-27.5 -3h-51q-21 0 -35.5 6t-28.5 20l-38 38q-17 17 -22 35t-5 36v237q0 21 6 34.5t21 28.5l38 38q14 14 28.5 20t35.5 6zM307 399q-5 5 -13 5h-106q-8 0 -13 -5l-21 -21q-6 -6 -6 -13v-229q0 -7 6 -13l21 -21q5 -5 13 -5h32q5 0 10 3l105 49v217
q0 7 -6 13z" />
    <glyph glyph-name="Oslashacute" unicode="&#x1fe;" 
d="M361 953l59 -54l-127 -127l-48 44zM517 750l-25 -76q5 -5 12 -11.5t12 -11.5l59 -58q15 -15 21 -29.5t6 -35.5v-356q0 -21 -6 -35.5t-21 -29.5l-80 -79q-15 -15 -29.5 -21t-36.5 -6h-159l-16 -50h-108l25 75q-5 5 -9 8.5t-9 9.5l-64 64q-15 15 -21 29.5t-6 35.5v356
q0 21 6 35.5t21 29.5l80 79q15 15 29.5 21t36.5 6h159l16 50h107zM359 596h-102q-8 0 -13 -5l-63 -63q-6 -6 -6 -13v-328q0 -7 6 -13l23 -23l6 -6zM465 546q-2 2 -5 4.5t-5 4.5l-148 -449h101q8 0 13 5l63 63q6 6 6 13v328q0 7 -6 13z" />
    <glyph glyph-name="oslashacute" unicode="&#x1ff;" horiz-adv-x="487" 
d="M273 753l59 -54l-127 -127l-48 44zM386 553l-21 -64q5 -3 8.5 -6.5l8.5 -8.5l38 -38q15 -15 21 -29.5t6 -35.5v-242q0 -21 -6 -35.5t-21 -29.5l-38 -38q-14 -14 -28.5 -20t-35.5 -6h-112l-17 -51h-88l21 64q-4 3 -7.5 6t-7.5 7l-38 38q-15 15 -21 29.5t-6 35.5v242
q0 21 6 35.5t21 29.5l38 38q14 14 28.5 20t35.5 6h111l17 51zM249 406h-63q-8 0 -13 -5l-21 -21q-6 -6 -6 -13v-229q0 -7 6 -13l4 -4zM330 383l-94 -285h64q8 0 13 5l21 21q6 6 6 13v229q0 7 -6 13z" />
    <glyph glyph-name="uni0218" unicode="&#x218;" horiz-adv-x="547" 
d="M448 700l33 -32v-73h-258q-13 0 -20 -7l-40 -41q-8 -9 -8 -18v-37q0 -9 10 -14l273 -138q73 -37 73 -108v-60q0 -27 -9.5 -48.5t-32.5 -44.5l-41 -41q-18 -18 -43 -28t-57 -10h-255l-33 32v73h288q13 0 20 7l41 41q8 8 8 17v57q0 11 -12 18l-297 152q-25 13 -36 31.5
t-11 47.5v57q0 27 7 44.5t25 35.5l54 54q19 19 35.5 26t42.5 7h243zM332 -42v-64q0 -27 -11 -48l-24 -52h-78l32 69h-22v95h103z" />
    <glyph glyph-name="uni0219" unicode="&#x219;" horiz-adv-x="434" 
d="M343 500l30 -30v-67h-189q-8 0 -13 -5l-21 -22q-6 -6 -6 -13v-12q0 -8 8 -13l183 -93q58 -30 58 -86v-29q0 -20 -7.5 -37t-25.5 -35l-28 -28q-14 -14 -34 -22t-45 -8h-185l-30 30v67h210q8 0 13 5l21 21q6 6 6 13v16q0 8 -8 13l-201 102q-40 21 -40 65v39q0 21 6 35.5
t21 29.5l38 38q14 14 28.5 20t35.5 6h175zM273 -42v-64q0 -27 -11 -48l-24 -52h-78l32 69h-22v95h103z" />
    <glyph glyph-name="uni021A" unicode="&#x21a;" horiz-adv-x="552" 
d="M497 700l36 -36v-69h-199v-595h-114v595h-199v69l36 36h440zM334 -37v-64q0 -27 -11 -48l-24 -52h-78l32 69h-22v95h103z" />
    <glyph glyph-name="uni021B" unicode="&#x21b;" horiz-adv-x="334" 
d="M196 611v-112h104v-96h-104v-269q0 -7 6 -13l21 -21q5 -5 13 -5h64v-67l-31 -29h-51q-21 0 -35.5 6t-28.5 20l-38 38q-15 15 -21 29.5t-6 35.5v275h-73v67l30 30h43v112zM225 -38v-64q0 -27 -11 -48l-24 -52h-78l32 69h-22v95h103z" />
    <glyph glyph-name="uni0228" unicode="&#x228;" horiz-adv-x="540" 
d="M467 701l36 -36v-69h-276q-8 0 -13 -5l-22 -22q-6 -6 -6 -13v-153h264v-105h-264v-153q0 -7 6 -13l22 -22q5 -5 13 -5h276v-69l-36 -36h-140l-8 -16q6 0 12 -1t11 -2q28 -10 42.5 -30.5t14.5 -46.5q0 -16 -6 -31t-18 -27t-29 -19t-39 -7h-69v66h62q8 0 14 6t6 15
q0 8 -6 13.5t-14 5.5h-3q-8 0 -17 -3.5t-27 -12.5l-40 39l24 51h-33q-21 0 -35.5 6t-29.5 21l-39 39q-15 15 -21 29.5t-6 35.5v438q0 21 6 35.5t21 29.5l39 39q15 15 29.5 21t35.5 6z" />
    <glyph glyph-name="uni0229" unicode="&#x229;" horiz-adv-x="469" 
d="M306 498q21 0 35.5 -6t28.5 -20l38 -38q15 -15 21 -29.5t6 -35.5v-133l-30 -30h-257v-72q0 -7 6 -13l21 -21q5 -5 13 -5h101q8 0 13 5l38 38l72 -71l-41 -41q-14 -14 -28.5 -20t-35.5 -6h-36l-9 -17q6 -1 12 -1.5t11 -2.5q28 -10 42.5 -30t14.5 -46q0 -16 -6 -31.5
t-18 -27.5t-29 -19t-39 -7h-69v66h62q8 0 14 6.5t6 14.5t-6 13.5t-14 6.5q-8 0 -17.5 -2.5t-30.5 -13.5l-40 38l25 53h-10q-21 0 -35.5 6t-28.5 20l-38 38q-15 15 -21 29.5t-6 35.5v242q0 21 6 35.5t21 29.5l38 38q14 14 28.5 20t35.5 6zM303 396q-5 5 -13 5h-101
q-8 0 -13 -5l-21 -21q-6 -6 -6 -13v-61h181v61q0 7 -6 13z" />
    <glyph glyph-name="uni022A" unicode="&#x22a;" 
d="M462 959v-73h-260v73h260zM293 837v-79h-86v79h86zM457 837v-79h-86v79h86zM430 699q21 0 35.5 -6t29.5 -21l80 -79q15 -15 21 -29.5t6 -35.5v-357q0 -21 -6 -35.5t-21 -29.5l-80 -79q-15 -15 -29.5 -21t-35.5 -6h-196q-21 0 -35.5 6t-29.5 21l-80 79q-15 15 -21 29.5
t-6 35.5v357q0 21 6 35.5t21 29.5l80 79q15 15 29.5 21t35.5 6h196zM421 589q-5 5 -13 5h-150q-8 0 -13 -5l-63 -63q-6 -6 -6 -13v-329q0 -7 6 -13l63 -63q5 -5 13 -5h150q8 0 13 5l63 63q6 6 6 13v329q0 7 -6 13z" />
    <glyph glyph-name="uni022B" unicode="&#x22b;" horiz-adv-x="487" 
d="M374 813v-73h-260v73h260zM205 702v-79h-86v79h86zM369 702v-79h-86v79h86zM317 500q21 0 35.5 -6t28.5 -20l38 -38q15 -15 21 -29.5t6 -35.5v-242q0 -21 -6 -35.5t-21 -29.5l-38 -38q-14 -14 -28.5 -20t-35.5 -6h-147q-21 0 -35.5 6t-28.5 20l-38 38q-15 15 -21 29.5
t-6 35.5v242q0 21 6 35.5t21 29.5l38 38q14 14 28.5 20t35.5 6h147zM314 398q-5 5 -13 5h-114q-8 0 -13 -5l-21 -21q-6 -6 -6 -13v-229q0 -7 6 -13l21 -21q5 -5 13 -5h114q8 0 13 5l21 21q6 6 6 13v229q0 7 -6 13z" />
    <glyph glyph-name="circumflex" unicode="&#x2c6;" horiz-adv-x="381" 
d="M228 765l112 -133l-48 -44l-101 101l-101 -101l-48 44l112 133h74z" />
    <glyph glyph-name="caron" unicode="&#x2c7;" horiz-adv-x="381" 
d="M291 771l48 -44l-112 -133h-73l-112 133l48 44l101 -101z" />
    <glyph glyph-name="breve" unicode="&#x2d8;" horiz-adv-x="385" 
d="M104 763q10 -29 33 -45t55 -16t55 16t33 45l62 -29q-16 -45 -56.5 -74.5t-92.5 -29.5t-92.5 29.5t-56.5 74.5z" />
    <glyph glyph-name="dotaccent" unicode="&#x2d9;" horiz-adv-x="154" 
d="M120 722v-79h-86v79h86z" />
    <glyph glyph-name="ring" unicode="&#x2da;" horiz-adv-x="277" 
d="M139 800q42 0 70 -28t28 -70t-28 -70t-70 -28t-70 28t-28 70t28 70t70 28zM139 733q-13 0 -21.5 -9t-8.5 -22t8.5 -22t21.5 -9t21.5 9t8.5 22t-8.5 22t-21.5 9z" />
    <glyph glyph-name="ogonek" unicode="&#x2db;" horiz-adv-x="230" 
d="M149 11q-24 -23 -35 -45t-11 -37q0 -8 3 -12q5 -11 13.5 -14.5t19.5 -3.5h60v-72h-72q-46 0 -71 27.5t-25 61.5q0 38 20.5 60.5t45.5 34.5h52z" />
    <glyph glyph-name="tilde" unicode="&#x2dc;" horiz-adv-x="433" 
d="M44 675q6 8 15.5 23t22.5 30.5t29.5 27t36.5 13.5h12q18 0 34 -7.5t42 -27.5q16 -12 26.5 -18.5t19.5 -6.5q13 0 25.5 13t33.5 42l47 -31q-20 -50 -47 -73t-58 -23t-61 21q-15 11 -24.5 18.5t-15.5 12t-10.5 6.5t-8.5 2q-2 0 -12 -2t-24 -15.5t-31 -41.5z" />
    <glyph glyph-name="hungarumlaut" unicode="&#x2dd;" horiz-adv-x="409" 
d="M160 770l59 -54l-127 -127l-48 44zM308 770l59 -54l-127 -127l-48 44z" />
    <glyph glyph-name="dotbelowcomb" unicode="&#x323;" horiz-adv-x="0" 
d="M145 -81v-80h-86v80h86z" />
    <glyph glyph-name="uni0326" unicode="&#x326;" horiz-adv-x="0" 
d="M149 -37v-64q0 -27 -11 -48l-24 -52h-78l32 69h-22v95h103z" />
    <glyph glyph-name="uni032D" unicode="&#x32d;" horiz-adv-x="0" 
d="M228 -30l112 -134l-48 -43l-101 100l-101 -100l-48 43l112 134h74z" />
    <glyph glyph-name="uni0331" unicode="&#x331;" horiz-adv-x="0" 
d="M302 -87v-73h-260v73h260z" />
    <glyph glyph-name="uni0394" unicode="&#x394;" horiz-adv-x="600" 
 />
    <glyph glyph-name="uni03A9" unicode="&#x3a9;" horiz-adv-x="600" 
 />
    <glyph glyph-name="uni03BC" unicode="&#x3bc;" horiz-adv-x="600" 
 />
    <glyph glyph-name="pi" unicode="&#x3c0;" horiz-adv-x="600" 
 />
    <glyph glyph-name="uni1E04" unicode="&#x1e04;" horiz-adv-x="600" 
d="M399 699q21 0 35.5 -6t29.5 -21l39 -39q15 -15 21 -29.5t6 -35.5v-139q0 -17 -4.5 -30.5t-10.5 -21.5l-7 -7q-1 -1 -1 -3q0 -1 2 -3l25 -25q15 -15 21 -29.5t6 -35.5v-143q0 -21 -6 -35.5t-21 -29.5l-39 -39q-15 -15 -29.5 -21t-35.5 -6h-350v664l36 36zM389 589
q-5 5 -13 5h-182v-191h182q8 0 13 5l22 22q6 6 6 13v111q0 7 -6 13zM420 292q-5 5 -13 5h-214v-194h214q8 0 13 5l22 22q6 6 6 13v115q0 7 -6 13zM338 -83v-80h-86v80h86z" />
    <glyph glyph-name="uni1E05" unicode="&#x1e05;" horiz-adv-x="494" 
d="M162 718v-257l59 27q14 6 26.5 9t27.5 3h51q21 0 35.5 -6t28.5 -20l38 -38q15 -15 21 -29.5t6 -35.5v-242q0 -21 -6 -35.5t-21 -29.5l-38 -38q-14 -14 -28.5 -20t-35.5 -6h-140q-21 0 -35.5 6t-29.5 20l-38 38q-15 15 -21 29.5t-6 35.5v558l30 30zM322 399q-5 5 -13 5
h-30q-6 0 -12 -3l-104 -49v-216q0 -7 6 -13l21 -21q5 -5 13 -5h106q8 0 13 5l21 21q6 6 6 13v229q0 7 -6 13zM283 -80v-80h-86v80h86z" />
    <glyph glyph-name="uni1E0C" unicode="&#x1e0c;" horiz-adv-x="633" 
d="M401 699q21 0 35.5 -6t29.5 -21l80 -79q15 -15 21 -29.5t6 -35.5v-357q0 -21 -6 -35.5t-21 -29.5l-80 -79q-15 -15 -29.5 -21t-35.5 -6h-321v664l36 36zM392 588q-5 5 -13 5h-185v-490h185q8 0 13 5l63 63q6 6 6 13v329q0 7 -6 13zM335 -83v-80h-86v80h86z" />
    <glyph glyph-name="uni1E0D" unicode="&#x1e0d;" horiz-adv-x="492" 
d="M408 717l30 -30v-687h-97l-5 28l-31 -15q-29 -13 -59 -13h-75q-21 0 -35.5 6t-29.5 20l-38 38q-15 15 -21 29.5t-6 35.5v237q0 21 6 35.5t21 29.5l43 43q15 14 29.5 20t35.5 6h155v217h77zM331 403h-139q-8 0 -13 -5l-26 -26q-6 -6 -6 -13v-224q0 -7 6 -13l21 -21
q5 -5 13 -5h57q6 0 12 3l75 35v269zM282 -82v-80h-86v80h86z" />
    <glyph glyph-name="uni1E0E" unicode="&#x1e0e;" horiz-adv-x="633" 
d="M401 699q21 0 35.5 -6t29.5 -21l80 -79q15 -15 21 -29.5t6 -35.5v-357q0 -21 -6 -35.5t-21 -29.5l-80 -79q-15 -15 -29.5 -21t-35.5 -6h-321v664l36 36zM392 588q-5 5 -13 5h-185v-490h185q8 0 13 5l63 63q6 6 6 13v329q0 7 -6 13zM420 -89v-73h-260v73h260z" />
    <glyph glyph-name="uni1E0F" unicode="&#x1e0f;" horiz-adv-x="492" 
d="M408 717l30 -30v-687h-97l-5 28l-31 -15q-29 -13 -59 -13h-75q-21 0 -35.5 6t-29.5 20l-38 38q-15 15 -21 29.5t-6 35.5v237q0 21 6 35.5t21 29.5l43 43q15 14 29.5 20t35.5 6h155v217h77zM331 403h-139q-8 0 -13 -5l-26 -26q-6 -6 -6 -13v-224q0 -7 6 -13l21 -21
q5 -5 13 -5h57q6 0 12 3l75 35v269zM362 -88v-73h-260v73h260z" />
    <glyph glyph-name="uni1E12" unicode="&#x1e12;" horiz-adv-x="633" 
d="M401 699q21 0 35.5 -6t29.5 -21l80 -79q15 -15 21 -29.5t6 -35.5v-357q0 -21 -6 -35.5t-21 -29.5l-80 -79q-15 -15 -29.5 -21t-35.5 -6h-321v664l36 36zM392 588q-5 5 -13 5h-185v-490h185q8 0 13 5l63 63q6 6 6 13v329q0 7 -6 13zM329 -32l112 -134l-48 -43l-101 100
l-101 -100l-48 43l112 134h74z" />
    <glyph glyph-name="uni1E13" unicode="&#x1e13;" horiz-adv-x="492" 
d="M408 717l30 -30v-687h-97l-5 28l-31 -15q-29 -13 -59 -13h-75q-21 0 -35.5 6t-29.5 20l-38 38q-15 15 -21 29.5t-6 35.5v237q0 21 6 35.5t21 29.5l43 43q15 14 29.5 20t35.5 6h155v217h77zM331 403h-139q-8 0 -13 -5l-26 -26q-6 -6 -6 -13v-224q0 -7 6 -13l21 -21
q5 -5 13 -5h57q6 0 12 3l75 35v269zM271 -31l112 -134l-48 -43l-101 100l-101 -100l-48 43l112 134h74z" />
    <glyph glyph-name="uni1E24" unicode="&#x1e24;" horiz-adv-x="678" 
d="M600 700v-700h-114v309h-290v-309h-114v664l36 36h77v-286h290v250l36 36h79zM384 -81v-80h-86v80h86z" />
    <glyph glyph-name="uni1E25" unicode="&#x1e25;" horiz-adv-x="504" 
d="M162 718v-256l59 27q14 6 26.5 9t27.5 3h51q21 0 35.5 -6t28.5 -20l38 -38q15 -15 21 -29.5t6 -35.5v-371h-106v364q0 7 -6 13l-21 21q-5 5 -13 5h-30q-6 0 -12 -3l-104 -49v-352h-106v686l30 30zM294 -79v-80h-86v80h86z" />
    <glyph glyph-name="uni1E2E" unicode="&#x1e2e;" horiz-adv-x="251" 
d="M155 1056l59 -54l-127 -127l-48 44zM87 830v-79h-86v79h86zM251 830v-79h-86v79h86zM183 701v-700h-114v664l36 36h78z" />
    <glyph glyph-name="uni1E2F" unicode="&#x1e2f;" horiz-adv-x="197" 
d="M130 897l59 -54l-127 -127l-48 44zM62 696v-79h-86v79h86zM226 696v-79h-86v79h86zM155 500v-500h-106v500h106z" />
    <glyph glyph-name="uni1E36" unicode="&#x1e36;" horiz-adv-x="507" 
d="M191 700v-595h298v-105h-375l-36 36v628l36 36h77zM320 -81v-80h-86v80h86z" />
    <glyph glyph-name="uni1E37" unicode="&#x1e37;" horiz-adv-x="273" 
d="M160 716v-581q0 -7 5 -12l22 -22q5 -5 13 -5h62v-96h-79q-21 0 -35.5 6t-29.5 20l-33 33q-17 17 -24 32t-7 38v558l30 30zM201 -82v-80h-86v80h86z" />
    <glyph glyph-name="uni1E3C" unicode="&#x1e3c;" horiz-adv-x="507" 
d="M191 700v-595h298v-105h-375l-36 36v628l36 36h77zM290 -30l112 -134l-48 -43l-101 100l-101 -100l-48 43l112 134h74z" />
    <glyph glyph-name="uni1E3D" unicode="&#x1e3d;" horiz-adv-x="273" 
d="M160 716v-581q0 -7 5 -12l22 -22q5 -5 13 -5h62v-96h-79q-21 0 -35.5 6t-29.5 20l-33 33q-17 17 -24 32t-7 38v558l30 30zM174 -31l112 -134l-48 -43l-101 100l-101 -100l-48 43l112 134h74z" />
    <glyph glyph-name="uni1E3E" unicode="&#x1e3e;" horiz-adv-x="877" 
d="M472 957l59 -54l-127 -127l-48 44zM770 700l36 -36v-664h-114v562h-12l-169 -562h-141l-168 562h-13v-562h-114v664l36 36h160l161 -576h15l160 576h163z" />
    <glyph glyph-name="uni1E3F" unicode="&#x1e3f;" horiz-adv-x="765" 
d="M429 768l59 -54l-127 -127l-48 44zM310 501q21 0 35.5 -6t28.5 -20l25 -25l84 39q14 6 26.5 9t27.5 3h53q21 0 35.5 -6t28.5 -20l38 -38q15 -15 21 -29.5t6 -35.5v-371h-106v364q0 7 -6 13l-21 21q-5 5 -13 5h-33q-6 0 -12 -3l-90 -42v-359h-106v364q0 7 -6 13l-21 21
q-5 5 -13 5h-33q-6 0 -12 -3l-90 -42v-359h-106v500h96l6 -34l49 23q14 6 26.5 9t27.5 3z" />
    <glyph glyph-name="uni1E44" unicode="&#x1e44;" horiz-adv-x="667" 
d="M377 910v-79h-86v79h86zM593 700v-664l-36 -36h-137l-224 562h-6v-562h-114v664l36 36h140l222 -562h5v562h114z" />
    <glyph glyph-name="uni1E45" unicode="&#x1e45;" horiz-adv-x="507" 
d="M297 705v-79h-86v79h86zM329 500q21 0 35.5 -6t28.5 -20l38 -38q15 -15 21 -29.5t6 -35.5v-371h-106v364q0 7 -6 13l-21 21q-5 5 -13 5h-33q-6 0 -12 -3l-105 -49v-352h-106v500h95l7 -41l63 30q14 6 26.5 9t27.5 3h54z" />
    <glyph glyph-name="uni1E46" unicode="&#x1e46;" horiz-adv-x="667" 
d="M593 700v-664l-36 -36h-137l-224 562h-6v-562h-114v664l36 36h140l222 -562h5v562h114zM374 -81v-80h-86v80h86z" />
    <glyph glyph-name="uni1E47" unicode="&#x1e47;" horiz-adv-x="507" 
d="M329 500q21 0 35.5 -6t28.5 -20l38 -38q15 -15 21 -29.5t6 -35.5v-371h-106v364q0 7 -6 13l-21 21q-5 5 -13 5h-33q-6 0 -12 -3l-105 -49v-352h-106v500h95l7 -41l63 30q14 6 26.5 9t27.5 3h54zM297 -81v-80h-86v80h86z" />
    <glyph glyph-name="uni1E4A" unicode="&#x1e4a;" horiz-adv-x="667" 
d="M593 700v-664l-36 -36h-137l-224 562h-6v-562h-114v664l36 36h140l222 -562h5v562h114zM372 -35l112 -133l-48 -44l-101 100l-101 -100l-48 44l112 133h74z" />
    <glyph glyph-name="uni1E4B" unicode="&#x1e4b;" horiz-adv-x="507" 
d="M329 500q21 0 35.5 -6t28.5 -20l38 -38q15 -15 21 -29.5t6 -35.5v-371h-106v364q0 7 -6 13l-21 21q-5 5 -13 5h-33q-6 0 -12 -3l-105 -49v-352h-106v500h95l7 -41l63 30q14 6 26.5 9t27.5 3h54zM292 -30l112 -134l-48 -43l-101 100l-101 -100l-48 43l112 134h74z" />
    <glyph glyph-name="uni1E4C" unicode="&#x1e4c;" 
d="M361 1069l59 -54l-127 -127l-48 44zM161 776q6 8 15.5 23t22.5 30.5t29.5 27t36.5 13.5h12q18 0 33.5 -7.5t41.5 -27.5q16 -12 26.5 -18.5t19.5 -6.5q13 0 25.5 13t33.5 42l47 -31q-20 -50 -47 -73t-58 -23t-61 21q-15 11 -24.5 18.5t-15.5 12t-10.5 6.5t-8.5 2
q-2 0 -12 -2t-24 -15.5t-31 -41.5zM431 702q21 0 35.5 -6t29.5 -21l80 -79q15 -15 21 -29.5t6 -35.5v-357q0 -21 -6 -35.5t-21 -29.5l-80 -79q-15 -15 -29.5 -21t-35.5 -6h-196q-21 0 -35.5 6t-29.5 21l-80 79q-15 15 -21 29.5t-6 35.5v357q0 21 6 35.5t21 29.5l80 79
q15 15 29.5 21t35.5 6h196zM422 592q-5 5 -13 5h-150q-8 0 -13 -5l-63 -63q-6 -6 -6 -13v-329q0 -7 6 -13l63 -63q5 -5 13 -5h150q8 0 13 5l63 63q6 6 6 13v329q0 7 -6 13z" />
    <glyph glyph-name="uni1E4D" unicode="&#x1e4d;" horiz-adv-x="487" 
d="M273 912l59 -54l-127 -127l-48 44zM73 616q6 8 15.5 23t22.5 30.5t29.5 27t36.5 13.5h12q18 0 33.5 -7.5t41.5 -27.5q16 -12 26.5 -18.5t19.5 -6.5q13 0 25.5 13t33.5 42l47 -31q-20 -50 -47 -73t-58 -23t-61 21q-15 11 -24.5 18.5t-15.5 12t-10.5 6.5t-8.5 2
q-2 0 -12 -2t-24 -15.5t-31 -41.5zM318 502q21 0 35.5 -6t28.5 -20l38 -38q15 -15 21 -29.5t6 -35.5v-242q0 -21 -6 -35.5t-21 -29.5l-38 -38q-14 -14 -28.5 -20t-35.5 -6h-147q-21 0 -35.5 6t-28.5 20l-38 38q-15 15 -21 29.5t-6 35.5v242q0 21 6 35.5t21 29.5l38 38
q14 14 28.5 20t35.5 6h147zM315 400q-5 5 -13 5h-114q-8 0 -13 -5l-21 -21q-6 -6 -6 -13v-229q0 -7 6 -13l21 -21q5 -5 13 -5h114q8 0 13 5l21 21q6 6 6 13v229q0 7 -6 13z" />
    <glyph glyph-name="uni1E50" unicode="&#x1e50;" 
d="M303 1043l116 -137l-48 -44l-127 127zM462 829v-73h-260v73h260zM430 699q21 0 35.5 -6t29.5 -21l80 -79q15 -15 21 -29.5t6 -35.5v-357q0 -21 -6 -35.5t-21 -29.5l-80 -79q-15 -15 -29.5 -21t-35.5 -6h-196q-21 0 -35.5 6t-29.5 21l-80 79q-15 15 -21 29.5t-6 35.5v357
q0 21 6 35.5t21 29.5l80 79q15 15 29.5 21t35.5 6h196zM421 589q-5 5 -13 5h-150q-8 0 -13 -5l-63 -63q-6 -6 -6 -13v-329q0 -7 6 -13l63 -63q5 -5 13 -5h150q8 0 13 5l63 63q6 6 6 13v329q0 7 -6 13z" />
    <glyph glyph-name="uni1E51" unicode="&#x1e51;" horiz-adv-x="487" 
d="M215 909l116 -137l-48 -44l-127 127zM374 699v-73h-260v73h260zM317 499q21 0 35.5 -6t28.5 -20l38 -38q15 -15 21 -29.5t6 -35.5v-242q0 -21 -6 -35.5t-21 -29.5l-38 -38q-14 -14 -28.5 -20t-35.5 -6h-147q-21 0 -35.5 6t-28.5 20l-38 38q-15 15 -21 29.5t-6 35.5v242
q0 21 6 35.5t21 29.5l38 38q14 14 28.5 20t35.5 6h147zM314 397q-5 5 -13 5h-114q-8 0 -13 -5l-21 -21q-6 -6 -6 -13v-229q0 -7 6 -13l21 -21q5 -5 13 -5h114q8 0 13 5l21 21q6 6 6 13v229q0 7 -6 13z" />
    <glyph glyph-name="uni1E52" unicode="&#x1e52;" 
d="M361 1044l59 -54l-127 -127l-48 44zM462 830v-73h-260v73h260zM430 700q21 0 35.5 -6t29.5 -21l80 -79q15 -15 21 -29.5t6 -35.5v-357q0 -21 -6 -35.5t-21 -29.5l-80 -79q-15 -15 -29.5 -21t-35.5 -6h-196q-21 0 -35.5 6t-29.5 21l-80 79q-15 15 -21 29.5t-6 35.5v357
q0 21 6 35.5t21 29.5l80 79q15 15 29.5 21t35.5 6h196zM421 590q-5 5 -13 5h-150q-8 0 -13 -5l-63 -63q-6 -6 -6 -13v-329q0 -7 6 -13l63 -63q5 -5 13 -5h150q8 0 13 5l63 63q6 6 6 13v329q0 7 -6 13z" />
    <glyph glyph-name="uni1E53" unicode="&#x1e53;" horiz-adv-x="487" 
d="M273 907l59 -54l-127 -127l-48 44zM374 700v-73h-260v73h260zM317 500q21 0 35.5 -6t28.5 -20l38 -38q15 -15 21 -29.5t6 -35.5v-242q0 -21 -6 -35.5t-21 -29.5l-38 -38q-14 -14 -28.5 -20t-35.5 -6h-147q-21 0 -35.5 6t-28.5 20l-38 38q-15 15 -21 29.5t-6 35.5v242
q0 21 6 35.5t21 29.5l38 38q14 14 28.5 20t35.5 6h147zM314 398q-5 5 -13 5h-114q-8 0 -13 -5l-21 -21q-6 -6 -6 -13v-229q0 -7 6 -13l21 -21q5 -5 13 -5h114q8 0 13 5l21 21q6 6 6 13v229q0 7 -6 13z" />
    <glyph glyph-name="uni1E62" unicode="&#x1e62;" horiz-adv-x="547" 
d="M448 700l33 -32v-73h-258q-13 0 -20 -7l-40 -41q-8 -9 -8 -18v-37q0 -9 10 -14l273 -138q73 -37 73 -108v-60q0 -27 -9.5 -48.5t-32.5 -44.5l-41 -41q-18 -18 -43 -28t-57 -10h-255l-33 32v73h288q13 0 20 7l41 41q8 8 8 17v57q0 11 -12 18l-297 152q-25 13 -36 31.5
t-11 47.5v57q0 27 7 44.5t25 35.5l54 54q19 19 35.5 26t42.5 7h243zM319 -81v-80h-86v80h86z" />
    <glyph glyph-name="uni1E63" unicode="&#x1e63;" horiz-adv-x="434" 
d="M343 500l30 -30v-67h-189q-8 0 -13 -5l-21 -22q-6 -6 -6 -13v-12q0 -8 8 -13l183 -93q58 -30 58 -86v-29q0 -20 -7.5 -37t-25.5 -35l-28 -28q-14 -14 -34 -22t-45 -8h-185l-30 30v67h210q8 0 13 5l21 21q6 6 6 13v16q0 8 -8 13l-201 102q-40 21 -40 65v39q0 21 6 35.5
t21 29.5l38 38q14 14 28.5 20t35.5 6h175zM264 -81v-80h-86v80h86z" />
    <glyph glyph-name="uni1E6C" unicode="&#x1e6c;" horiz-adv-x="552" 
d="M497 700l36 -36v-69h-199v-595h-114v595h-199v69l36 36h440zM321 -81v-80h-86v80h86z" />
    <glyph glyph-name="uni1E6D" unicode="&#x1e6d;" horiz-adv-x="334" 
d="M196 611v-112h104v-96h-104v-269q0 -7 6 -13l21 -21q5 -5 13 -5h64v-67l-31 -29h-51q-21 0 -35.5 6t-28.5 20l-38 38q-15 15 -21 29.5t-6 35.5v275h-73v67l30 30h43v112zM201 -82v-80h-86v80h86z" />
    <glyph glyph-name="uni1E6E" unicode="&#x1e6e;" horiz-adv-x="552" 
d="M497 700l36 -36v-69h-199v-595h-114v595h-199v69l36 36h440zM405 -87v-73h-260v73h260z" />
    <glyph glyph-name="uni1E6F" unicode="&#x1e6f;" horiz-adv-x="334" 
d="M196 611v-112h104v-96h-104v-269q0 -7 6 -13l21 -21q5 -5 13 -5h64v-67l-31 -29h-51q-21 0 -35.5 6t-28.5 20l-38 38q-15 15 -21 29.5t-6 35.5v275h-73v67l30 30h43v112zM297 -88v-73h-260v73h260z" />
    <glyph glyph-name="uni1E70" unicode="&#x1e70;" horiz-adv-x="552" 
d="M497 700l36 -36v-69h-199v-595h-114v595h-199v69l36 36h440zM314 -30l112 -134l-48 -43l-101 100l-101 -100l-48 43l112 134h74z" />
    <glyph glyph-name="uni1E71" unicode="&#x1e71;" horiz-adv-x="334" 
d="M196 611v-112h104v-96h-104v-269q0 -7 6 -13l21 -21q5 -5 13 -5h64v-67l-31 -29h-51q-21 0 -35.5 6t-28.5 20l-38 38q-15 15 -21 29.5t-6 35.5v275h-73v67l30 30h43v112zM206 -31l112 -134l-48 -43l-101 100l-101 -100l-48 43l112 134h74z" />
    <glyph glyph-name="Wgrave" unicode="&#x1e80;" horiz-adv-x="960" 
d="M452 953l116 -137l-48 -44l-127 127zM883 700l60 -28l-170 -672h-160l-128 562h-9l-129 -562h-160l-170 672l60 28h51l128 -562h20l122 562h164l121 -562h20l130 562h50z" />
    <glyph glyph-name="wgrave" unicode="&#x1e81;" horiz-adv-x="777" 
d="M360 753l116 -137l-48 -44l-127 127zM713 500l52 -24l-131 -476h-144l-100 369h-7l-98 -369h-144l-131 476l52 24h53l95 -392h9l102 392h137l101 -392h9l95 392h50z" />
    <glyph glyph-name="Wacute" unicode="&#x1e82;" horiz-adv-x="960" 
d="M509 953l59 -54l-127 -127l-48 44zM883 700l60 -28l-170 -672h-160l-128 562h-9l-129 -562h-160l-170 672l60 28h51l128 -562h20l122 562h164l121 -562h20l130 562h50z" />
    <glyph glyph-name="wacute" unicode="&#x1e83;" horiz-adv-x="777" 
d="M418 753l59 -54l-127 -127l-48 44zM713 500l52 -24l-131 -476h-144l-100 369h-7l-98 -369h-144l-131 476l52 24h53l95 -392h9l102 392h137l101 -392h9l95 392h50z" />
    <glyph glyph-name="Wdieresis" unicode="&#x1e84;" horiz-adv-x="960" 
d="M441 905v-79h-86v79h86zM605 905v-79h-86v79h86zM883 700l60 -28l-170 -672h-160l-128 562h-9l-129 -562h-160l-170 672l60 28h51l128 -562h20l122 562h164l121 -562h20l130 562h50z" />
    <glyph glyph-name="wdieresis" unicode="&#x1e85;" horiz-adv-x="777" 
d="M350 705v-79h-86v79h86zM514 705v-79h-86v79h86zM713 500l52 -24l-131 -476h-144l-100 369h-7l-98 -369h-144l-131 476l52 24h53l95 -392h9l102 392h137l101 -392h9l95 392h50z" />
    <glyph glyph-name="uni1E92" unicode="&#x1e92;" horiz-adv-x="573" 
d="M484 701l36 -36v-114l-365 -437v-8h379v-69l-36 -36h-420l-37 36v112l365 436v10h-346v69l36 36zM331 -80v-80h-86v80h86z" />
    <glyph glyph-name="uni1E93" unicode="&#x1e93;" horiz-adv-x="478" 
d="M398 500l30 -30v-97l-282 -274v-3h291v-67l-30 -30h-336l-30 30v104l282 267v3h-267v67l30 30h312zM282 -81v-80h-86v80h86z" />
    <glyph glyph-name="uni1EA1" unicode="&#x1ea1;" horiz-adv-x="483" 
d="M305 499q21 0 35.5 -6t28.5 -20l42 -42q15 -15 21 -29.5t6 -35.5v-367h-97l-5 28l-31 -15q-29 -13 -60 -13h-75q-21 0 -35.5 6t-28.5 20l-38 38q-15 15 -21 29.5t-6 35.5v52q0 21 6 35.5t21 29.5l43 43q15 14 29.5 20t35.5 6h155v45q0 7 -6 13l-26 26q-5 5 -13 5h-219v67
l30 30zM332 217h-139q-8 0 -13 -5l-26 -26q-6 -6 -6 -13v-39q0 -7 6 -13l21 -21q5 -5 13 -5h57q6 0 12 3l75 35v84zM283 -83v-80h-86v80h86z" />
    <glyph glyph-name="uni1EAC" unicode="&#x1eac;" horiz-adv-x="629" 
d="M353 954l112 -133l-48 -44l-101 101l-101 -101l-48 44l112 133h74zM398 700l216 -672l-61 -28h-50l-68 216h-236l-68 -216h-50l-61 28l216 672h162zM320 580h-7l-81 -259h170zM358 -81v-80h-86v80h86z" />
    <glyph glyph-name="uni1EAD" unicode="&#x1ead;" horiz-adv-x="483" 
d="M283 754l112 -133l-48 -44l-101 101l-101 -101l-48 44l112 133h74zM306 499q21 0 35.5 -6t28.5 -20l42 -42q15 -15 21 -29.5t6 -35.5v-367h-97l-5 28l-31 -15q-29 -13 -60 -13h-75q-21 0 -35.5 6t-28.5 20l-38 38q-15 15 -21 29.5t-6 35.5v52q0 21 6 35.5t21 29.5l43 43
q15 14 29.5 20t35.5 6h155v45q0 7 -6 13l-26 26q-5 5 -13 5h-219v67l30 30zM333 217h-139q-8 0 -13 -5l-26 -26q-6 -6 -6 -13v-39q0 -7 6 -13l21 -21q5 -5 13 -5h57q6 0 12 3l75 35v84zM284 -83v-80h-86v80h86z" />
    <glyph glyph-name="uni1EB8" unicode="&#x1eb8;" horiz-adv-x="540" 
d="M467 701l36 -36v-69h-276q-8 0 -13 -5l-22 -22q-6 -6 -6 -13v-153h264v-105h-264v-153q0 -7 6 -13l22 -22q5 -5 13 -5h276v-69l-36 -36h-263q-21 0 -35.5 6t-29.5 21l-39 39q-15 15 -21 29.5t-6 35.5v438q0 21 6 35.5t21 29.5l39 39q15 15 29.5 21t35.5 6zM343 -84v-82
h-88v82h88z" />
    <glyph glyph-name="uni1EB9" unicode="&#x1eb9;" horiz-adv-x="469" 
d="M304 498q21 0 35.5 -6t28.5 -20l38 -38q15 -15 21 -29.5t6 -35.5v-133l-30 -30h-257v-72q0 -7 6 -13l21 -21q5 -5 13 -5h101q8 0 13 5l38 38l72 -71l-41 -41q-14 -14 -28.5 -20t-35.5 -6h-135q-21 0 -35.5 6t-28.5 20l-38 38q-15 15 -21 29.5t-6 35.5v242q0 21 6 35.5
t21 29.5l38 38q14 14 28.5 20t35.5 6zM301 396q-5 5 -13 5h-101q-8 0 -13 -5l-21 -21q-6 -6 -6 -13v-61h181v61q0 7 -6 13zM281 -84v-80h-86v80h86z" />
    <glyph glyph-name="uni1EBC" unicode="&#x1ebc;" horiz-adv-x="540" 
d="M131 860q6 8 15.5 23t22.5 30.5t29.5 27t36.5 13.5h12q18 0 33.5 -7.5t41.5 -27.5q16 -12 26.5 -18.5t19.5 -6.5q13 0 25.5 13t33.5 42l47 -31q-20 -50 -47 -73t-58 -23t-61 21q-15 11 -24.5 18.5t-15.5 12t-10.5 6.5t-8.5 2q-2 0 -12 -2t-24 -15.5t-31 -41.5zM467 702
l36 -36v-69h-276q-8 0 -13 -5l-22 -22q-6 -6 -6 -13v-153h264v-105h-264v-153q0 -7 6 -13l22 -22q5 -5 13 -5h276v-69l-36 -36h-263q-21 0 -35.5 6t-29.5 21l-39 39q-15 15 -21 29.5t-6 35.5v438q0 21 6 35.5t21 29.5l39 39q15 15 29.5 21t35.5 6z" />
    <glyph glyph-name="uni1EBD" unicode="&#x1ebd;" horiz-adv-x="469" 
d="M64 661q6 8 15.5 23t22.5 30.5t29.5 27t36.5 13.5h12q18 0 33.5 -7.5t41.5 -27.5q16 -12 26.5 -18.5t19.5 -6.5q13 0 25.5 13t33.5 42l47 -31q-20 -50 -47 -73t-58 -23t-61 21q-15 11 -24.5 18.5t-15.5 12t-10.5 6.5t-8.5 2q-2 0 -12 -2t-24 -15.5t-31 -41.5zM305 500
q21 0 35.5 -6t28.5 -20l38 -38q15 -15 21 -29.5t6 -35.5v-133l-30 -30h-257v-72q0 -7 6 -13l21 -21q5 -5 13 -5h101q8 0 13 5l38 38l72 -71l-41 -41q-14 -14 -28.5 -20t-35.5 -6h-135q-21 0 -35.5 6t-28.5 20l-38 38q-15 15 -21 29.5t-6 35.5v242q0 21 6 35.5t21 29.5l38 38
q14 14 28.5 20t35.5 6zM302 398q-5 5 -13 5h-101q-8 0 -13 -5l-21 -21q-6 -6 -6 -13v-61h181v61q0 7 -6 13z" />
    <glyph glyph-name="uni1EC6" unicode="&#x1ec6;" horiz-adv-x="540" 
d="M341 954l112 -133l-48 -44l-101 101l-101 -101l-48 44l112 133h74zM469 701l36 -36v-69h-276q-8 0 -13 -5l-22 -22q-6 -6 -6 -13v-153h264v-105h-264v-153q0 -7 6 -13l22 -22q5 -5 13 -5h276v-69l-36 -36h-263q-21 0 -35.5 6t-29.5 21l-39 39q-15 15 -21 29.5t-6 35.5
v438q0 21 6 35.5t21 29.5l39 39q15 15 29.5 21t35.5 6zM349 -80v-80h-86v80h86z" />
    <glyph glyph-name="uni1EC7" unicode="&#x1ec7;" horiz-adv-x="469" 
d="M273 754l112 -133l-48 -44l-101 101l-101 -101l-48 44l112 133h74zM305 498q21 0 35.5 -6t28.5 -20l38 -38q15 -15 21 -29.5t6 -35.5v-133l-30 -30h-257v-72q0 -7 6 -13l21 -21q5 -5 13 -5h101q8 0 13 5l38 38l72 -71l-41 -41q-14 -14 -28.5 -20t-35.5 -6h-135
q-21 0 -35.5 6t-28.5 20l-38 38q-15 15 -21 29.5t-6 35.5v242q0 21 6 35.5t21 29.5l38 38q14 14 28.5 20t35.5 6zM302 396q-5 5 -13 5h-101q-8 0 -13 -5l-21 -21q-6 -6 -6 -13v-61h181v61q0 7 -6 13zM282 -84v-80h-86v80h86z" />
    <glyph glyph-name="uni1ECA" unicode="&#x1eca;" horiz-adv-x="251" 
d="M183 700v-700h-114v664l36 36h78zM169 -81v-80h-86v80h86z" />
    <glyph glyph-name="uni1ECB" unicode="&#x1ecb;" horiz-adv-x="213" 
d="M169 670v-117h-119v117h119zM162 500v-500h-106v500h106zM152 -81v-80h-86v80h86z" />
    <glyph glyph-name="uni1ECC" unicode="&#x1ecc;" 
d="M430 700q21 0 35.5 -6t29.5 -21l80 -79q15 -15 21 -29.5t6 -35.5v-357q0 -21 -6 -35.5t-21 -29.5l-80 -79q-15 -15 -29.5 -21t-35.5 -6h-196q-21 0 -35.5 6t-29.5 21l-80 79q-15 15 -21 29.5t-6 35.5v357q0 21 6 35.5t21 29.5l80 79q15 15 29.5 21t35.5 6h196zM421 590
q-5 5 -13 5h-150q-8 0 -13 -5l-63 -63q-6 -6 -6 -13v-329q0 -7 6 -13l63 -63q5 -5 13 -5h150q8 0 13 5l63 63q6 6 6 13v329q0 7 -6 13zM376 -81v-80h-86v80h86z" />
    <glyph glyph-name="uni1ECD" unicode="&#x1ecd;" horiz-adv-x="487" 
d="M317 500q21 0 35.5 -6t28.5 -20l38 -38q15 -15 21 -29.5t6 -35.5v-242q0 -21 -6 -35.5t-21 -29.5l-38 -38q-14 -14 -28.5 -20t-35.5 -6h-147q-21 0 -35.5 6t-28.5 20l-38 38q-15 15 -21 29.5t-6 35.5v242q0 21 6 35.5t21 29.5l38 38q14 14 28.5 20t35.5 6h147zM314 398
q-5 5 -13 5h-114q-8 0 -13 -5l-21 -21q-6 -6 -6 -13v-229q0 -7 6 -13l21 -21q5 -5 13 -5h114q8 0 13 5l21 21q6 6 6 13v229q0 7 -6 13zM286 -82v-80h-86v80h86z" />
    <glyph glyph-name="uni1ED8" unicode="&#x1ed8;" 
d="M370 954l112 -133l-48 -44l-101 101l-101 -101l-48 44l112 133h74zM432 700q21 0 35.5 -6t29.5 -21l80 -79q15 -15 21 -29.5t6 -35.5v-357q0 -21 -6 -35.5t-21 -29.5l-80 -79q-15 -15 -29.5 -21t-35.5 -6h-196q-21 0 -35.5 6t-29.5 21l-80 79q-15 15 -21 29.5t-6 35.5
v357q0 21 6 35.5t21 29.5l80 79q15 15 29.5 21t35.5 6h196zM423 590q-5 5 -13 5h-150q-8 0 -13 -5l-63 -63q-6 -6 -6 -13v-329q0 -7 6 -13l63 -63q5 -5 13 -5h150q8 0 13 5l63 63q6 6 6 13v329q0 7 -6 13zM378 -81v-80h-86v80h86z" />
    <glyph glyph-name="uni1ED9" unicode="&#x1ed9;" horiz-adv-x="487" 
d="M282 754l112 -133l-48 -44l-101 101l-101 -101l-48 44l112 133h74zM319 500q21 0 35.5 -6t28.5 -20l38 -38q15 -15 21 -29.5t6 -35.5v-242q0 -21 -6 -35.5t-21 -29.5l-38 -38q-14 -14 -28.5 -20t-35.5 -6h-147q-21 0 -35.5 6t-28.5 20l-38 38q-15 15 -21 29.5t-6 35.5
v242q0 21 6 35.5t21 29.5l38 38q14 14 28.5 20t35.5 6h147zM316 398q-5 5 -13 5h-114q-8 0 -13 -5l-21 -21q-6 -6 -6 -13v-229q0 -7 6 -13l21 -21q5 -5 13 -5h114q8 0 13 5l21 21q6 6 6 13v229q0 7 -6 13zM288 -82v-80h-86v80h86z" />
    <glyph glyph-name="uni1EE4" unicode="&#x1ee4;" horiz-adv-x="655" 
d="M503 700h77v-569q0 -21 -6 -35.5t-21 -29.5l-39 -39q-15 -15 -29.5 -21t-35.5 -6h-238q-21 0 -35.5 6t-29.5 21l-39 39q-15 15 -21 29.5t-6 35.5v533l36 36h77v-555q0 -7 6 -13l22 -22q5 -5 13 -5h192q8 0 13 5l22 22q6 6 6 13v519zM373 -81v-80h-86v80h86z" />
    <glyph glyph-name="uni1EE5" unicode="&#x1ee5;" horiz-adv-x="502" 
d="M452 500v-500h-95l-7 41l-63 -30q-14 -6 -26.5 -9t-27.5 -3h-53q-21 0 -35.5 6t-28.5 20l-38 38q-15 15 -21 29.5t-6 35.5v371h106v-364q0 -7 6 -13l21 -21q5 -5 13 -5h33q6 0 12 3l104 49v352h106zM292 -81v-80h-86v80h86z" />
    <glyph glyph-name="Ygrave" unicode="&#x1ef2;" horiz-adv-x="583" 
d="M263 957l116 -137l-48 -44l-127 127zM506 699l62 -29l-190 -437h-29v-234h-114v234h-29l-190 437l62 29h49l151 -361h27l151 361h50z" />
    <glyph glyph-name="ygrave" unicode="&#x1ef3;" horiz-adv-x="491" 
d="M217 759l116 -137l-48 -44l-127 127zM430 499l48 -22l-166 -483q-7 -19 -20 -47t-37 -55t-61 -48.5t-91 -26.5l-15 86q27 3 44.5 9t29 15.5t19 22t14.5 29.5l7 20h-24l-165 478l48 22h56l123 -389h8l126 389h56z" />
    <glyph glyph-name="endash" unicode="&#x2013;" horiz-adv-x="478" 
d="M445 348v-109h-409v109h409z" />
    <glyph glyph-name="emdash" unicode="&#x2014;" horiz-adv-x="649" 
d="M615 348v-109h-581v109h581z" />
    <glyph glyph-name="quoteleft" unicode="&#x2018;" horiz-adv-x="229" 
d="M180 777l-39 -85h27v-119h-131v81q0 33 13 60l30 63h100z" />
    <glyph glyph-name="quoteright" unicode="&#x2019;" horiz-adv-x="229" 
d="M193 777v-81q0 -33 -13 -60l-30 -63h-101l39 85h-27v119h132z" />
    <glyph glyph-name="quotesinglbase" unicode="&#x201a;" horiz-adv-x="229" 
d="M194 112v-81q0 -33 -13 -60l-30 -63h-101l39 84h-27v120h132z" />
    <glyph glyph-name="quotedblleft" unicode="&#x201c;" horiz-adv-x="396" 
d="M349 777l-39 -85h26v-119h-131v81q0 33 13 60l30 63h101zM180 777l-39 -85h26v-119h-131v81q0 33 13 60l30 63h101z" />
    <glyph glyph-name="quotedblright" unicode="&#x201d;" horiz-adv-x="394" 
d="M192 777v-81q0 -33 -13 -60l-30 -63h-101l39 85h-26v119h131zM361 777v-81q0 -33 -13 -60l-30 -63h-101l39 85h-26v119h131z" />
    <glyph glyph-name="quotedblbase" unicode="&#x201e;" horiz-adv-x="395" 
d="M193 112v-81q0 -33 -13 -60l-30 -63h-101l39 84h-27v120h132zM362 112v-81q0 -33 -13 -60l-30 -63h-101l39 84h-27v120h132z" />
    <glyph glyph-name="dagger" unicode="&#x2020;" horiz-adv-x="493" 
d="M306 713l-7 -235l161 9v-118l-161 5l7 -501h-128l7 501l-151 -5v118l151 -9l-7 235h128z" />
    <glyph glyph-name="daggerdbl" unicode="&#x2021;" horiz-adv-x="489" 
d="M307 713l-7 -235l156 9v-118l-156 5v-162l156 5v-118l-156 9l7 -235h-129l7 235l-151 -9v118l151 -5v162l-151 -5v118l151 -9l-7 235h129z" />
    <glyph glyph-name="bullet" unicode="&#x2022;" horiz-adv-x="271" 
d="M235 385v-195h-199v195h199z" />
    <glyph glyph-name="ellipsis" unicode="&#x2026;" horiz-adv-x="557" 
d="M166 91v-128h-131v128h131zM344 91v-128h-131v128h131zM522 91v-128h-131v128h131z" />
    <glyph glyph-name="perthousand" unicode="&#x2030;" horiz-adv-x="935" 
d="M491 716h88l-420 -732h-88zM196 671q23 0 38 -15l22 -22q15 -15 15 -36v-140q0 -21 -15 -36l-22 -22q-15 -15 -38 -15h-85q-23 0 -38 15l-22 22q-15 15 -15 36v140q0 21 15 36l22 22q15 15 38 15h85zM190 608q-4 4 -7 4h-60q-4 0 -7 -3l-9 -9q-3 -3 -3 -7v-129q0 -4 3 -7
l9 -9q3 -3 7 -3h60q4 0 7 3l9 9q3 3 3 7v129q0 4 -3 7zM536 310q23 0 38 -15l22 -22q15 -15 15 -36v-140q0 -21 -15 -36l-22 -22q-15 -15 -38 -15h-85q-23 0 -38 15l-22 22q-15 15 -15 36v140q0 21 15 36l22 22q15 15 38 15h85zM826 310q23 0 38 -15l22 -22q15 -15 15 -36
v-140q0 -21 -15 -36l-22 -22q-15 -15 -38 -15h-85q-23 0 -38 15l-22 22q-15 15 -15 36v140q0 21 15 36l22 22q15 15 38 15h85zM530 247q-4 4 -7 4h-60q-4 0 -7 -3l-9 -9q-3 -3 -3 -7v-129q0 -4 3 -7l9 -9q3 -3 7 -3h60q4 0 7 3l9 9q3 3 3 7v129q0 4 -3 7zM821 246q-4 4 -7 4
h-60q-4 0 -7 -3l-9 -9q-3 -3 -3 -7v-129q0 -4 3 -7l9 -9q3 -3 7 -3h60q4 0 7 3l9 9q3 3 3 7v129q0 4 -3 7z" />
    <glyph glyph-name="guilsinglleft" unicode="&#x2039;" horiz-adv-x="332" 
d="M230 499l66 -66l-141 -171l141 -171l-66 -66l-194 181v113z" />
    <glyph glyph-name="guilsinglright" unicode="&#x203a;" horiz-adv-x="332" 
d="M103 500l194 -181v-113l-194 -181l-66 66l141 171l-141 171z" />
    <glyph glyph-name="fraction" unicode="&#x2044;" horiz-adv-x="628" 
d="M504 700h98l-476 -716h-98z" />
    <glyph glyph-name="Euro" unicode="&#x20ac;" horiz-adv-x="565" 
d="M218 541q-6 -6 -6 -13v-62h224v-69l-36 -36h-188v-48h199v-69l-36 -36h-162v-63q0 -7 6 -13l22 -22q5 -5 13 -5h276v-69l-36 -36h-263q-21 0 -35.5 6t-29.5 21l-39 39q-15 15 -21 29.5t-6 35.5v77h-65v105h65v48h-65v105h65v76q0 21 6 35.5t21 29.5l39 39q15 15 29.5 21
t35.5 6h263l36 -36v-69h-276q-8 0 -13 -5z" />
    <glyph glyph-name="trademark" unicode="&#x2122;" horiz-adv-x="873" 
d="M326 700l25 -25v-48h-121v-359h-78v359h-120v48l25 25h269zM815 700l25 -25v-406h-78v321h-12l-93 -321h-87l-92 321h-12v-321h-78v406l25 25h101l97 -333h6l97 333h101z" />
    <glyph glyph-name="partialdiff" unicode="&#x2202;" horiz-adv-x="727" 
 />
    <glyph glyph-name="emptyset" unicode="&#x2205;" horiz-adv-x="727" 
 />
    <glyph glyph-name="product" unicode="&#x220f;" horiz-adv-x="727" 
 />
    <glyph glyph-name="summation" unicode="&#x2211;" horiz-adv-x="727" 
 />
    <glyph glyph-name="minus" unicode="&#x2212;" horiz-adv-x="532" 
d="M499 347v-109h-464v109h464z" />
    <glyph glyph-name="radical" unicode="&#x221a;" horiz-adv-x="727" 
 />
    <glyph glyph-name="infinity" unicode="&#x221e;" horiz-adv-x="727" 
 />
    <glyph glyph-name="integral" unicode="&#x222b;" horiz-adv-x="727" 
 />
    <glyph glyph-name="approxequal" unicode="&#x2248;" horiz-adv-x="581" 
d="M35 368q19 29 37 54.5t37 44.5t39.5 30.5t44.5 13.5q5 1 10 1h10q27 0 50 -10.5t61 -40.5q23 -18 38.5 -27.5t29.5 -9.5q19 0 38 18.5t49 58.5l67 -44q-29 -77 -71 -113t-89 -36q-45 0 -91 32q-41 29 -60 41.5t-35 12.5q-4 0 -14 -2t-31 -16t-51 -60zM34 150
q19 29 37 54.5t37 44.5t39.5 30.5t44.5 13.5q5 1 10 1h10q27 0 50 -10.5t61 -40.5q23 -18 38.5 -27.5t29.5 -9.5q19 0 38 18.5t49 58.5l67 -44q-29 -77 -71 -113t-89 -36q-45 0 -91 32q-41 29 -60 41.5t-35 12.5q-4 0 -14 -2t-31 -16t-51 -60z" />
    <glyph glyph-name="notequal" unicode="&#x2260;" horiz-adv-x="532" 
d="M498 148h-218l-51 -155h-122l51 155h-123v109h159l23 70h-182v109h218l50 151h122l-50 -151h124v-109h-159l-23 -70h182z" />
    <glyph glyph-name="lessequal" unicode="&#x2264;" horiz-adv-x="550" 
d="M473 696l41 -98l-345 -166v-18l345 -166l-41 -98l-442 214v118zM508 107v-109h-464v109h464z" />
    <glyph glyph-name="greaterequal" unicode="&#x2265;" horiz-adv-x="550" 
d="M76 697l442 -214v-118l-442 -214l-41 98l345 166v18l-345 166zM506 108v-109h-464v109h464z" />
    <glyph glyph-name="lozenge" unicode="&#x25ca;" horiz-adv-x="727" 
 />
    <glyph glyph-name="uniFB01" unicode="&#xfb01;" horiz-adv-x="504" 
d="M265 702l30 -30v-66h-64q-8 0 -13 -5l-21 -21q-6 -6 -6 -13v-68h95v-96h-95v-406h-106v406h-73v67l30 30h43v74q0 21 6 35.5t21 29.5l38 38q14 14 28.5 20t35.5 6zM460 669v-117h-119v117h119zM453 499v-500h-106v500h106z" />
    <glyph glyph-name="uniFB02" unicode="&#xfb02;" horiz-adv-x="579" 
d="M466 716v-581q0 -7 5 -12l22 -22q5 -5 13 -5h62v-96h-79q-21 0 -35.5 6t-29.5 20l-33 33q-17 17 -24 32t-7 38v558l30 30zM265 701l30 -30v-66h-64q-8 0 -13 -5l-21 -21q-6 -6 -6 -13v-68h95v-96h-95v-406h-106v406h-73v67l30 30h43v74q0 21 6 35.5t21 29.5l38 38
q14 14 28.5 20t35.5 6z" />
    </font>
</defs>
</svg>
