<svg xmlns="http://www.w3.org/2000/svg" width="600" height="95" viewBox="0 0 600 95"><path d="M95.9 13h7.3L120 85.9l-3.6-.2-15.8-68.5h-2.2L82.6 85.6h-3.5L95.9 13zm-5.4 48.8h18l5.5 23.8h-3.5l-4.7-20.3-12.5-.1-4.6 20.2-3.7.2 5.5-23.8zm9-39.1l8.5 36.8H91l8.5-36.8zm4.1 33.3l-4.1-17.8-4 17.7 8.1.1zM124 12.9h3.4V82h28v3.5H124V12.9zm5.8 0h3.4v63.4h22.2v3.5h-25.6V12.9zm28.1.1h40.8v3.5h-40.8V13zm0 5.7h19.3v66.9h-3.5V22.3H158v-3.6zm21.5 0h19.3v3.6H183v63.3h-3.5V18.7zM204 13h29.9v3.5h-26.4v65.7h26.4v3.5H204V13zm5.8 5.7h24.1v3.6h-20.6v22.3h20.6v3.6h-24.1V18.7zm0 31.7h24.1V54h-20.6v22.3h20.6v3.5h-24.1V50.4zM240.4 13h15c12.2 0 18.3 6.9 18.3 20.7 0 6.6-1.4 11.7-4.3 15.3-.2.2-.3.4-.4.5-.3.3-.5.5-.6.5 3.6 3.6 5.4 8.3 5.4 14.2v21.5h-3.5V64.1c0-4.9-1.4-8.7-4.2-11.6-1.2-1.1-2.5-2-4.1-2.6 5.5-2.1 8.2-7.5 8.2-16.3 0-5.9-1.2-10.2-3.6-13-2.4-2.8-6.2-4.2-11.3-4.2h-15V13zm0 5.7h3.4v66.9h-3.4V18.7zm5.8 0h9.2c4.4 0 7.6 1.2 9.6 3.5s2.9 6.1 2.9 11.4c0 5.3-1 9.2-2.9 11.5-1.9 2.3-5.1 3.5-9.6 3.5h-9.2V18.7zm0 32.3h9.2c4.1 0 7.2 1.1 9.4 3.4s3.3 5.5 3.3 9.7v21.5h-3.5V64.1c0-6.4-3.1-9.6-9.2-9.6h-5.7v31h-3.4V51zm9.1-5.8c2.5 0 4.3-.3 5.2-.9.8-.5 1.4-1 1.8-1.4 1.4-1.8 2.2-4.9 2.2-9.2 0-4.6-.7-7.7-2.2-9.4-1.3-1.3-3.6-2-6.9-2h-5.7v22.9h5.6zM281.2 13h29.9v3.5h-26.4v65.7h26.4v3.5h-29.9V13zm5.8 5.7h24.1v3.6h-20.6v22.3h20.6v3.6H287V18.7zm0 31.7h24.1V54h-20.6v22.3h20.6v3.5H287V50.4zm30.6-16.9c0-6.5 1.4-11.6 4.3-15.2 2.9-3.6 7.2-5.4 12.8-5.4 5.6 0 9.9 1.8 12.9 5.4 2.9 3.6 4.4 8.7 4.4 15.2v4.6h-3.4v-4.6c0-11.4-4.6-17.1-13.8-17.1-4.5 0-7.9 1.5-10.2 4.4-2.3 2.9-3.4 7.1-3.4 12.7v31.3c0 5.7 1.2 10 3.5 12.9 2.3 2.9 5.7 4.4 10.2 4.4 4.6 0 8-1.5 10.3-4.4 2.3-2.9 3.5-7.2 3.5-12.9V53.5h-17V50h20.5v14.8c0 6.5-1.4 11.5-4.2 15-3 3.8-7.3 5.7-13.1 5.7-5.6 0-9.9-1.9-12.9-5.7-2.8-3.4-4.2-8.4-4.2-15V33.5zm5.8 0c0-5.1.9-8.8 2.8-11.2 1.9-2.4 4.7-3.6 8.5-3.6s6.7 1.2 8.6 3.6c1.9 2.4 2.9 6.1 2.9 11.2v4.6h-3.5v-4.6c0-4.7-.8-7.8-2.4-9.6-1.2-1.1-3-1.7-5.5-1.7s-4.2.6-5.4 1.7c-1.7 1.7-2.5 4.9-2.5 9.6v31.3c0 5 1 8.3 2.9 10 1.1 1 2.8 1.4 5 1.4 2.3 0 4-.5 5.1-1.4 1.9-1.7 2.8-5 2.8-10v-5.5h-11.1v-3.4h14.7v9c0 5.2-1 9-2.9 11.3-1.8 2.4-4.6 3.6-8.6 3.6-3.8 0-6.6-1.2-8.4-3.6-1.9-2.3-2.9-6.1-2.9-11.3V33.5zm34.6-.1c0-6.4 1.4-11.3 4.1-14.9 2.9-3.8 7.3-5.7 13-5.7 5.8 0 10.1 1.9 13 5.7 2.7 3.6 4.1 8.6 4.1 14.9v31.3c0 6.4-1.4 11.4-4.1 14.9-1.5 1.8-3 3-4.6 3.9-2.4 1.3-5.2 2-8.5 2-5.6 0-10-1.9-13-5.8-2.7-3.5-4.1-8.5-4.1-14.9V33.4zm6.9 44.1c2.3 3 5.7 4.4 10.2 4.4 4.4 0 7.8-1.5 10.2-4.5 2.4-3 3.5-7.2 3.5-12.8V33.4c0-5.6-1.2-9.8-3.5-12.8-2.3-2.9-5.7-4.4-10.2-4.4-4.5 0-7.9 1.5-10.2 4.4-2.3 2.9-3.5 7.2-3.5 12.8v31.3c0 5.6 1.2 9.9 3.5 12.8zm-1.2-44.1c0-5.2 1-8.9 2.9-11.3 1.8-2.4 4.6-3.6 8.4-3.6 3.9 0 6.7 1.2 8.5 3.6 1.9 2.3 2.9 6.1 2.9 11.3v31.3c0 9.9-3.8 14.9-11.4 14.9-7.6 0-11.3-5-11.3-14.9V33.4zm6.4 41.3c1.1 1 2.8 1.4 5 1.4s3.9-.5 5-1.4c1.9-1.6 2.9-5 2.9-10V33.4c0-5-1-8.3-2.9-10-1.1-.9-2.8-1.4-5-1.4s-3.9.5-5 1.4c-1.9 1.6-2.9 5-2.9 10v31.3c0 5 1 8.3 2.9 10zm27.5-42.1c0-6 1.2-10.7 3.6-13.9 2.8-3.7 6.6-5.5 11.6-5.5 4.5 0 8.1 1.7 10.9 5 2.8 3.5 4.3 8 4.4 13.5h.1v.9h-.1c-.1 4.2-.9 7.9-2.5 11.2-1 2.2-2.8 5-5.3 8.4-1.3 1.7-2.5 3.3-3.5 4.9-.4.6-1 1.6-1.9 2.9-.9 1.3-1.5 2.3-1.9 2.9-.4.6-.9 1.4-1.4 2.3s-1 1.7-1.4 2.4c-1.6 3.2-2.6 6.2-3 9h21V80h-24.9c.1-4.1 1.1-8.2 3-12.4 1.2-2.7 3.7-6.8 7.5-12.4l1.9-2.7c.9-1.2 1.5-2 1.8-2.5 2.5-3.3 4.1-5.9 5-7.7 1.4-2.9 2.2-6.1 2.2-9.7v-.9c-.2-4.4-1.2-8-3.3-10.8-2-2.8-4.9-4.2-8.6-4.2-3.9 0-6.8 1.3-8.8 4-2 2.7-3 6.6-3 11.8v4.6h-3.4v-4.5zm0 48.6c0-5.5 1.1-10.6 3.2-15.4 1.7-3.8 4.4-8.4 8.2-13.9.4-.6 1.1-1.5 1.9-2.7.8-1.2 1.4-2.1 1.9-2.7 2.1-2.8 3.6-5 4.4-6.7 1.1-2.1 1.6-4.7 1.6-7.6 0-2-.3-3.9-1-5.7-1.1-2.6-2.8-3.9-5.1-3.9-1.7 0-2.9.4-3.8 1.2-1.5 1.5-2.2 4.5-2.2 8.9v4.6h-3.4v-4.6c0-9 3.2-13.6 9.5-13.6 2.9 0 5.2 1.2 7 3.6 1.7 2.4 2.6 5.6 2.6 9.6 0 3.3-.7 6.4-2 9-1.2 2.5-2.8 4.9-4.7 7.3-.8 1.1-1.4 1.9-1.9 2.6-.4.5-1 1.4-2 2.6-.2.2-.4.6-.7 1-3.6 5.6-6 9.7-7.2 12.3-2 4.4-3 9.1-3 14.1v1.2h27.2v3.5h-30.6v-4.7zm46.8-68h8.9v72.6h-3.4V15.9H447l-11.2 16.4-2.9-2.5 11.5-16.6zm3.1 5.9v66.7h-3.4V30.1l-4.1 5.6-2.5-2 10-14.6zm12.2 13.5c0-6 1.2-10.7 3.6-13.9 2.8-3.7 6.6-5.5 11.6-5.5 4.5 0 8.1 1.7 10.9 5 2.8 3.5 4.3 8 4.4 13.5h.1v.9h-.1c-.1 4.2-.9 7.9-2.5 11.2-1 2.2-2.8 5-5.3 8.4-1.3 1.7-2.5 3.3-3.5 4.9-.4.6-1 1.6-1.9 2.9-.9 1.3-1.5 2.3-1.9 2.9-.4.6-.9 1.4-1.4 2.3-.5.9-1 1.7-1.4 2.4-1.6 3.2-2.6 6.2-3 9h21V80h-24.9c.1-4.1 1.1-8.2 3-12.4 1.2-2.7 3.7-6.8 7.5-12.4l1.9-2.7c.9-1.2 1.4-2 1.8-2.5 2.5-3.3 4.1-5.9 5-7.7 1.4-2.9 2.2-6.1 2.2-9.7v-.9c-.2-4.4-1.3-8-3.3-10.8-2-2.8-4.9-4.2-8.6-4.2-3.9 0-6.8 1.3-8.8 4-2 2.7-3 6.6-3 11.8v4.6h-3.4v-4.5zm0 48.6c0-5.5 1.1-10.6 3.3-15.4 1.7-3.8 4.4-8.4 8.2-13.9.4-.6 1.1-1.5 1.9-2.7.8-1.2 1.4-2.1 1.9-2.7 2.1-2.8 3.6-5 4.4-6.7 1.1-2.1 1.6-4.7 1.6-7.6 0-2-.3-3.9-1-5.7-1.1-2.6-2.8-3.9-5.1-3.9-1.7 0-2.9.4-3.8 1.2-1.5 1.5-2.2 4.5-2.2 8.9v4.6h-3.4v-4.6c0-9 3.2-13.6 9.5-13.6 2.9 0 5.2 1.2 7 3.6 1.7 2.4 2.6 5.6 2.6 9.6 0 3.3-.7 6.4-2 9-1.2 2.5-2.8 4.9-4.7 7.3-.8 1.1-1.5 1.9-1.9 2.6-.4.5-1 1.4-2 2.6-.2.2-.4.6-.7 1-3.6 5.6-6 9.7-7.2 12.3-2 4.4-3 9.1-3 14.1v1.2h27.2v3.5h-30.6v-4.7zm46.8-68h8.9v72.6H512V15.9h-2.9l-11.2 16.4-2.9-2.5 11.5-16.6zm3.1 5.9v66.7h-3.4V30.1l-4.1 5.6-2.5-2 10-14.6z"/><path fill="none" d="M0 0h600v95H0z"/></svg>