<svg xmlns="http://www.w3.org/2000/svg" width="600" height="95" viewBox="0 0 600 95"><path d="M0 82.1h13.9c4.9 0 8.5-1.4 10.8-4.1 2.3-2.7 3.4-7 3.4-12.8 0-5.7-1.1-10-3.3-12.8-1.1-1.3-2.5-2.4-4.2-3.2 5-2.1 7.6-7.4 7.6-15.8 0-5.8-1.1-10-3.4-12.8-2.3-2.7-5.9-4.1-10.8-4.1H0V13h13.9c6 0 10.4 1.7 13.3 5.2 2.9 3.5 4.4 8.6 4.4 15.2 0 6.5-1.4 11.5-4.3 15-.4.5-.6.8-.8 1 .4.4.7.7.8.9 2.8 3.5 4.3 8.5 4.3 15 0 13.6-5.9 20.4-17.7 20.4H0v-3.6zm0-63.4h3.4v61H0v-61zm5.8 0h8.1c4.2 0 7.3 1.2 9.2 3.5s2.8 6 2.8 11.2c0 5.2-.9 8.9-2.8 11.3-1.9 2.3-4.9 3.5-9.1 3.5H5.8V18.7zm0 31.7h8.1c4.2 0 7.2 1.2 9.1 3.5 1.9 2.3 2.8 6.1 2.8 11.3 0 5.1-.9 8.8-2.8 11.1s-4.9 3.5-9.2 3.5h-8V50.4zm8.1-5.8c2.2 0 3.7-.2 4.5-.7 1-.5 1.6-1 1.9-1.5 1.4-1.7 2.1-4.7 2.1-9.1 0-4.7-.8-7.8-2.3-9.4-1.2-1.1-3.2-1.7-6.1-1.7H9.2v22.3h4.7zm0 31.7c2.9 0 4.9-.5 6.1-1.6 1.6-1.6 2.3-4.7 2.3-9.5 0-4.7-.8-7.8-2.4-9.6-1.1-1.1-3.1-1.6-6-1.6H9.2v22.3h4.7zM54.5 13h7.3l16.8 72.9-3.6-.3-15.8-68.5H57L41.3 85.6h-3.5L54.5 13zm-5.4 48.8h18l5.5 23.8h-3.5l-4.7-20.3-12.5-.1-4.6 20.2-3.6.2 5.4-23.8zm9-39.1l8.5 36.8h-17l8.5-36.8zM62.2 56l-4.1-17.8-4 17.7 8.1.1zm20.5-43h15c12.2 0 18.3 6.9 18.3 20.7 0 6.6-1.4 11.7-4.3 15.3-.2.2-.3.4-.4.5-.3.3-.5.5-.6.5 3.6 3.6 5.4 8.3 5.4 14.2v21.5h-3.5V64.1c0-4.9-1.4-8.7-4.2-11.6-1.2-1.1-2.5-2-4.1-2.6 5.5-2.1 8.2-7.5 8.2-16.3 0-5.9-1.2-10.2-3.6-13-2.4-2.8-6.2-4.2-11.3-4.2h-15V13zm0 5.7h3.4v66.9h-3.4V18.7zm5.8 0h9.2c4.4 0 7.6 1.2 9.6 3.5s2.9 6.1 2.9 11.4c0 5.3-1 9.2-2.9 11.5-1.9 2.3-5.1 3.5-9.6 3.5h-9.2V18.7zm0 32.3h9.2c4.1 0 7.2 1.1 9.4 3.4s3.3 5.5 3.3 9.7v21.5h-3.5V64.1c0-6.4-3.1-9.6-9.2-9.6H92v31h-3.4V51zm9.2-5.8c2.5 0 4.3-.3 5.2-.9.8-.5 1.4-1 1.8-1.4 1.4-1.8 2.2-4.9 2.2-9.2 0-4.6-.7-7.7-2.2-9.4-1.3-1.3-3.6-2-6.9-2h-5.7v22.9h5.6zm25.8-11.8c0-6.4 1.4-11.3 4.1-14.9 2.9-3.8 7.3-5.7 13-5.7 5.8 0 10.1 1.9 13 5.7 2.7 3.6 4.1 8.6 4.1 14.9v31.3c0 6.4-1.4 11.4-4.1 14.9-1.5 1.8-3 3-4.6 3.9-2.4 1.3-5.2 2-8.5 2-5.6 0-10-1.9-13-5.8-2.7-3.5-4.1-8.5-4.1-14.9V33.4zm7 44.1c2.3 3 5.7 4.4 10.2 4.4 4.4 0 7.8-1.5 10.2-4.5 2.4-3 3.5-7.2 3.5-12.8V33.4c0-5.6-1.2-9.8-3.5-12.8-2.3-2.9-5.7-4.4-10.2-4.4-4.5 0-7.9 1.5-10.2 4.4-2.3 2.9-3.5 7.2-3.5 12.8v31.3c0 5.6 1.1 9.9 3.5 12.8zm-1.2-44.1c0-5.2 1-8.9 2.9-11.3 1.8-2.4 4.6-3.6 8.4-3.6 3.9 0 6.7 1.2 8.5 3.6 1.9 2.3 2.9 6.1 2.9 11.3v31.3c0 9.9-3.8 14.9-11.4 14.9-7.6 0-11.3-5-11.3-14.9V33.4zm6.4 41.3c1.1 1 2.8 1.4 5 1.4s3.9-.5 5-1.4c1.9-1.6 2.9-5 2.9-10V33.4c0-5-1-8.3-2.9-10-1.1-.9-2.8-1.4-5-1.4s-3.9.5-5 1.4c-1.9 1.6-2.9 5-2.9 10v31.3c0 5 .9 8.3 2.9 10zm27.5-61.9h7.7l17.6 44v-44h3.5v62l-23.4-58.5h-2.1v69.1h-3.4V12.8zm5.7 10.6l23.4 58.4h2v-69h3.5v72.6H190l-17.6-44v44H169v-62zm39.3-10.9l17.2 69.2h1.9L244.4 13l3.6-.3-18.2 73h-7.1l-18-72.7 3.5-.5zm6.1.8l12 48.6 12.3-49 3.4-.2L226.3 76l-15.7-63 3.7.3zm35.6 20.1c0-6.4 1.4-11.3 4.1-14.9 2.9-3.8 7.3-5.7 13-5.7 5.8 0 10.1 1.9 13 5.7 2.7 3.6 4.1 8.6 4.1 14.9v31.3c0 6.4-1.4 11.4-4.1 14.9-1.5 1.8-3 3-4.6 3.9-2.4 1.3-5.2 2-8.5 2-5.6 0-10-1.9-13-5.8-2.7-3.5-4.1-8.5-4.1-14.9V33.4zm6.9 44.1c2.3 3 5.7 4.4 10.2 4.4 4.4 0 7.8-1.5 10.2-4.5 2.4-3 3.5-7.2 3.5-12.8V33.4c0-5.6-1.2-9.8-3.5-12.8-2.3-2.9-5.7-4.4-10.2-4.4-4.5 0-7.9 1.5-10.2 4.4-2.3 2.9-3.5 7.2-3.5 12.8v31.3c0 5.6 1.2 9.9 3.5 12.8zm-1.2-44.1c0-5.2 1-8.9 2.9-11.3 1.8-2.4 4.6-3.6 8.4-3.6 3.9 0 6.7 1.2 8.5 3.6 1.9 2.3 2.9 6.1 2.9 11.3v31.3c0 9.9-3.8 14.9-11.4 14.9-7.6 0-11.3-5-11.3-14.9V33.4zm6.4 41.3c1.1 1 2.8 1.4 5 1.4s3.9-.5 5-1.4c1.9-1.6 2.9-5 2.9-10V33.4c0-5-1-8.3-2.9-10-1.1-.9-2.8-1.4-5-1.4s-3.9.5-5 1.4c-1.9 1.6-2.9 5-2.9 10v31.3c0 5 1 8.3 2.9 10zm27.5-61.9h7.7l17.6 44v-44h3.5v62L295 16.3h-2.1v69.1h-3.4V12.8zm5.8 10.6l23.4 58.4h2v-69h3.5v72.6h-7.8l-17.6-44v44h-3.4v-62zm35.8 58.7H345c4.9 0 8.5-1.4 10.8-4.1 2.3-2.7 3.4-7 3.4-12.8 0-5.7-1.1-10-3.3-12.8-1.1-1.3-2.6-2.4-4.2-3.2 5-2.1 7.6-7.4 7.6-15.8 0-5.8-1.1-10-3.4-12.8-2.3-2.7-5.9-4.1-10.8-4.1h-13.9V13H345c6 0 10.4 1.7 13.3 5.2 2.9 3.5 4.4 8.6 4.4 15.2 0 6.5-1.4 11.5-4.3 15-.4.5-.6.8-.8 1 .4.4.7.7.8.9 2.8 3.5 4.3 8.5 4.3 15 0 13.6-5.9 20.4-17.7 20.4h-13.9v-3.6zm0-63.4h3.4v61h-3.4v-61zm5.8 0h8.1c4.2 0 7.3 1.2 9.2 3.5s2.8 6 2.8 11.2c0 5.2-.9 8.9-2.8 11.3-1.9 2.3-4.9 3.5-9.1 3.5H337V18.7zm0 31.7h8.1c4.2 0 7.2 1.2 9.1 3.5 1.9 2.3 2.8 6.1 2.8 11.3 0 5.1-.9 8.8-2.8 11.1s-4.9 3.5-9.2 3.5h-8.1V50.4zm8.1-5.8c2.2 0 3.7-.2 4.5-.7 1-.5 1.6-1 1.9-1.5 1.4-1.7 2.1-4.7 2.1-9.1 0-4.7-.8-7.8-2.3-9.4-1.2-1.1-3.2-1.7-6.1-1.7h-4.7v22.3h4.6zm0 31.7c2.9 0 4.9-.5 6.1-1.6 1.6-1.6 2.3-4.7 2.3-9.5 0-4.7-.8-7.8-2.4-9.6-1.1-1.1-3.1-1.6-6-1.6h-4.7v22.3h4.7zm22.9-42.9c0-6.4 1.4-11.3 4.1-14.9 2.9-3.8 7.3-5.7 13-5.7 5.8 0 10.1 1.9 13 5.7 2.7 3.6 4.1 8.6 4.1 14.9v31.3c0 6.4-1.4 11.4-4.1 14.9-1.5 1.8-3 3-4.6 3.9-2.4 1.3-5.2 2-8.5 2-5.6 0-10-1.9-13-5.8-2.7-3.5-4.1-8.5-4.1-14.9V33.4zm6.9 44.1c2.3 3 5.7 4.4 10.2 4.4 4.4 0 7.8-1.5 10.2-4.5 2.4-3 3.5-7.2 3.5-12.8V33.4c0-5.6-1.2-9.8-3.5-12.8-2.3-2.9-5.7-4.4-10.2-4.4-4.5 0-7.9 1.5-10.2 4.4-2.3 2.9-3.5 7.2-3.5 12.8v31.3c0 5.6 1.2 9.9 3.5 12.8zm-1.1-44.1c0-5.2 1-8.9 2.9-11.3 1.8-2.4 4.6-3.6 8.4-3.6 3.9 0 6.7 1.2 8.5 3.6 1.9 2.3 2.9 6.1 2.9 11.3v31.3c0 9.9-3.8 14.9-11.4 14.9-7.6 0-11.3-5-11.3-14.9V33.4zm6.3 41.3c1.1 1 2.8 1.4 5 1.4s3.9-.5 5-1.4c1.9-1.6 2.9-5 2.9-10V33.4c0-5-1-8.3-2.9-10-1.1-.9-2.8-1.4-5-1.4s-3.9.5-5 1.4c-1.9 1.6-2.9 5-2.9 10v31.3c0 5 1 8.3 2.9 10zm27.5 7.4h13.9c4.9 0 8.5-1.4 10.8-4.1 2.3-2.7 3.4-7 3.4-12.8 0-5.7-1.1-10-3.3-12.8-1.1-1.3-2.5-2.4-4.2-3.2 5-2.1 7.6-7.4 7.6-15.8 0-5.8-1.1-10-3.4-12.8-2.3-2.7-5.9-4.1-10.8-4.1h-13.9V13h13.9c6 0 10.4 1.7 13.3 5.2 2.9 3.5 4.4 8.6 4.4 15.2 0 6.5-1.4 11.5-4.3 15-.4.5-.6.8-.8 1 .4.4.7.7.8.9 2.8 3.5 4.3 8.5 4.3 15 0 13.6-5.9 20.4-17.7 20.4h-13.9v-3.6zm0-63.4h3.4v61h-3.4v-61zm5.8 0h8.1c4.2 0 7.3 1.2 9.2 3.5s2.8 6 2.8 11.2c0 5.2-.9 8.9-2.8 11.3-1.9 2.3-4.9 3.5-9.1 3.5h-8.1V18.7zm0 31.7h8.1c4.2 0 7.2 1.2 9.1 3.5 1.9 2.3 2.8 6.1 2.8 11.3 0 5.1-.9 8.8-2.8 11.1s-4.9 3.5-9.2 3.5h-8.1V50.4zm8.1-5.8c2.2 0 3.7-.2 4.5-.7 1-.5 1.6-1 1.9-1.5 1.4-1.7 2.1-4.7 2.1-9.1 0-4.7-.8-7.8-2.3-9.4-1.2-1.1-3.2-1.7-6.1-1.7h-4.7v22.3h4.6zm0 31.7c2.9 0 4.9-.5 6.1-1.6 1.6-1.6 2.3-4.7 2.3-9.5 0-4.7-.8-7.8-2.4-9.6-1.1-1.1-3.1-1.6-6-1.6h-4.7v22.3h4.7zm22.9-63.5h7.7l17.6 44v-44h3.5v62l-23.4-58.5h-2.1v69.1h-3.4V12.8zm5.8 10.6l23.4 58.4h2v-69h3.5v72.6h-7.8l-17.6-44v44h-3.4v-62zM485.9 13h29.9v3.5h-26.4v65.7h26.4v3.5h-29.9V13zm5.8 5.7h24.1v3.6h-20.7v22.3h20.7v3.6h-24.1V18.7zm0 31.7h24.1V54h-20.7v22.3h20.7v3.5h-24.1V50.4zm35.4-31.7c3.2-3.8 7.3-5.7 12.4-5.7 5.8 0 10.1 1.9 13 5.7 2.8 3.6 4.2 8.7 4.2 15.1v4.6h-3.5v-4.6c0-11.5-4.6-17.3-13.7-17.3-4.3 0-7.7 1.6-10.1 4.8-2.4 3.2-3.6 7.4-3.6 12.5 0 5 1.6 9 4.9 12 1.8 1.8 4.4 3.4 7.6 4.7l1.7.8c3 1.2 5.3 2.5 6.7 3.9 2.9 2.7 4.3 6.1 4.3 10.3 0 4.5-1 8-3 10.5s-4.8 3.8-8.4 3.8c-3.9 0-6.8-1.2-8.6-3.6-1.9-2.4-2.8-6.1-2.8-11.2v-4.6h3.4V65c0 4.2.7 7.3 2.2 9.1.3.4.8.9 1.7 1.4.9.5 2.3.8 4 .8 3 0 5.3-1.3 6.7-3.9.8-1.6 1.2-3.9 1.2-6.9 0-3-.9-5.5-2.8-7.4-1.3-1.3-3.3-2.4-6-3.6l-1.8-.8c-3.7-1.5-6.6-3.3-8.7-5.4-3.9-3.9-5.9-8.7-5.9-14.6.1-6.3 1.7-11.4 4.9-15zm-4.8 41.7h3.4V65c0 11.4 4.6 17.1 13.8 17.1 4.5 0 8-1.6 10.3-4.9 2.3-2.9 3.4-6.8 3.4-11.7 0-4.9-1.6-8.9-4.9-11.9-1.8-1.7-4.4-3.1-7.6-4.4l-1.6-.7c-3-1.2-5.3-2.7-6.9-4.3-2.8-2.7-4.2-6.1-4.2-10.3 0-4.1.8-7.5 2.5-10.1 2.2-3.3 5.1-5 8.9-5 7.6 0 11.5 5 11.5 15v4.6h-3.5v-4.6c0-5.1-1-8.4-2.9-10.1-1.1-.9-2.8-1.4-5-1.4-3.2 0-5.4 1.5-6.7 4.6-.8 1.8-1.2 4-1.2 6.8 0 3 .9 5.5 2.8 7.5 1.6 1.7 3.6 3 6.3 3.9l1.6.7.6.2c.4.2.6.3.7.3.1 0 .3.2.7.3.4.2.7.3.9.4.2.1.5.2.9.4s.7.4 1 .5c.2.2.5.4.9.6.4.2.7.5 1 .7.3.2.6.5.9.7.3.3.7.6 1 .9 4 3.8 6.1 8.6 6.1 14.5 0 5.8-1.5 10.6-4.6 14.4-3.1 3.8-7.3 5.7-12.6 5.7-5.7 0-10-1.8-12.9-5.4-2.9-3.6-4.3-8.7-4.3-15.2v-4.4zm43.6-41.7c3.2-3.8 7.3-5.7 12.4-5.7 5.8 0 10.1 1.9 13 5.7 2.8 3.6 4.2 8.7 4.2 15.1v4.6H592v-4.6c0-11.5-4.6-17.3-13.7-17.3-4.3 0-7.7 1.6-10.1 4.8-2.4 3.2-3.6 7.4-3.6 12.5 0 5 1.6 9 4.9 12 1.8 1.8 4.4 3.4 7.6 4.7l1.7.8c3 1.2 5.3 2.5 6.7 3.9 2.9 2.7 4.3 6.1 4.3 10.3 0 4.5-1 8-3 10.5s-4.8 3.8-8.4 3.8c-3.9 0-6.8-1.2-8.6-3.6-1.9-2.4-2.8-6.1-2.8-11.2v-4.6h3.4V65c0 4.2.7 7.3 2.2 9.1.3.4.8.9 1.7 1.4.9.5 2.3.8 4 .8 3 0 5.3-1.3 6.7-3.9.8-1.6 1.2-3.9 1.2-6.9 0-3-.9-5.5-2.8-7.4-1.3-1.3-3.3-2.4-6-3.6l-1.8-.8c-3.7-1.5-6.6-3.3-8.7-5.4-3.9-3.9-5.9-8.7-5.9-14.6.1-6.3 1.7-11.4 4.9-15zm-4.8 41.7h3.4V65c0 11.4 4.6 17.1 13.8 17.1 4.5 0 8-1.6 10.3-4.9 2.3-2.9 3.4-6.8 3.4-11.7 0-4.9-1.6-8.9-4.9-11.9-1.8-1.7-4.4-3.1-7.6-4.4l-1.6-.7c-3-1.2-5.3-2.7-6.9-4.3-2.8-2.7-4.2-6.1-4.2-10.3 0-4.1.8-7.5 2.5-10.1 2.2-3.3 5.1-5 8.9-5 7.6 0 11.5 5 11.5 15v4.6h-3.5v-4.6c0-5.1-1-8.4-2.9-10.1-1.1-.9-2.8-1.4-5-1.4-3.2 0-5.4 1.5-6.7 4.6-.8 1.8-1.2 4-1.2 6.8 0 3 .9 5.5 2.8 7.5 1.6 1.7 3.6 3 6.3 3.9l1.6.7.6.2c.4.2.6.3.7.3.1 0 .3.2.7.3.4.2.7.3.9.4.2.1.5.2.9.4s.7.4 1 .5c.2.2.5.4.9.6.4.2.7.5 1 .7.3.2.6.5.9.7.3.3.7.6 1 .9 4 3.8 6.1 8.6 6.1 14.5 0 5.8-1.5 10.6-4.6 14.4-3.1 3.8-7.3 5.7-12.6 5.7-5.7 0-10-1.8-12.9-5.4-2.9-3.6-4.3-8.7-4.3-15.2v-4.4z"/><path fill="none" d="M0 0h600v95H0z"/></svg>