<svg xmlns="http://www.w3.org/2000/svg" width="600" height="95" viewBox="0 0 600 95"><path d="M154.6 82.1h13.9c4.9 0 8.5-1.4 10.8-4.1 2.3-2.7 3.4-7 3.4-12.8 0-5.7-1.1-10-3.3-12.8-1.1-1.3-2.5-2.4-4.2-3.2 5-2.1 7.6-7.4 7.6-15.8 0-5.8-1.1-10-3.4-12.8-2.3-2.7-5.9-4.1-10.8-4.1h-13.9V13h13.9c6 0 10.4 1.7 13.3 5.2 2.9 3.5 4.4 8.6 4.4 15.2 0 6.5-1.4 11.5-4.3 15-.4.5-.6.8-.8 1 .4.4.7.7.8.9 2.8 3.5 4.3 8.5 4.3 15 0 13.6-5.9 20.4-17.7 20.4h-13.9v-3.6zm0-63.4h3.4v61h-3.4v-61zm5.8 0h8.1c4.2 0 7.3 1.2 9.2 3.5s2.8 6 2.8 11.2c0 5.2-.9 8.9-2.8 11.3-1.9 2.3-4.9 3.5-9.1 3.5h-8.1V18.7zm0 31.7h8.1c4.2 0 7.2 1.2 9.1 3.5 1.9 2.3 2.8 6.1 2.8 11.3 0 5.1-.9 8.8-2.8 11.1s-4.9 3.5-9.2 3.5h-8.1V50.4zm8.2-5.8c2.2 0 3.7-.2 4.5-.7 1-.5 1.6-1 1.9-1.5 1.4-1.7 2.1-4.7 2.1-9.1 0-4.7-.8-7.8-2.3-9.4-1.2-1.1-3.2-1.7-6.1-1.7H164v22.3h4.6zm0 31.7c2.9 0 4.9-.5 6.1-1.6 1.6-1.6 2.3-4.7 2.3-9.5 0-4.7-.8-7.8-2.4-9.6-1.1-1.1-3.1-1.6-6-1.6h-4.7v22.3h4.7zM191.5 13h29.9v3.5H195v65.7h26.4v3.5h-29.9V13zm5.7 5.7h24.1v3.6h-20.6v22.3h20.6v3.6h-24.1V18.7zm0 31.7h24.1V54h-20.6v22.3h20.6v3.5h-24.1V50.4zm30.6-37.6h7.7l17.6 44v-44h3.5v62l-23.4-58.5h-2.1v69.1h-3.4V12.8zm5.8 10.6L257 81.9h2V12.8h3.5v72.6h-7.8l-17.6-44v44h-3.4v-62zM269.4 13h29.9v3.5h-26.4v65.7h26.4v3.5h-29.9V13zm5.8 5.7h24.1v3.6h-20.6v22.3h20.6v3.6h-24.1V18.7zm0 31.7h24.1V54h-20.6v22.3h20.6v3.5h-24.1V50.4zm30.6 31.7h14.4c5 0 8.8-1.5 11.4-4.5 2.3-2.9 3.5-7.3 3.5-13V34.1c0-11.7-5-17.6-14.9-17.6h-14.4V13h14.4c6.2 0 10.9 2 14 5.9 2.9 3.5 4.3 8.6 4.3 15.2v30.6c0 6.8-1.5 12-4.6 15.6-3 3.6-7.6 5.4-13.7 5.4h-14.4v-3.6zm0-63.4h3.4v61h-3.4v-61zm5.8 0h8.6c4.4 0 7.6 1.3 9.5 3.8 2 2.4 3 6.3 3 11.6v30.6c0 5.3-1 9.1-3 11.5-1.9 2.4-5.1 3.7-9.5 3.7h-8.6V18.7zm8.6 57.6c3 0 5-.6 6.3-1.7 1.8-1.8 2.7-5.2 2.7-10V34.1c0-4.8-.9-8.1-2.7-10-1.2-1.2-3.3-1.8-6.3-1.8H315v54h5.2zM344.1 13H374v3.5h-26.4v69.1h-3.4V13zm5.8 5.7H374v3.6h-20.7v22.3H374v3.6h-24.1V18.7zm0 31.7H374V54h-20.7v31.6h-3.4V50.4zm33.5-37.5h3.4v72.6h-3.4V12.9zm5.8 0h3.4v72.6h-3.4V12.9zm10.1.1h40.8v3.5h-40.8V13zm0 5.7h19.3v66.9H415V22.3h-15.7v-3.6zm21.5 0h19.3v3.6h-15.8v63.3h-3.5V18.7z"/><path fill="none" d="M0 0h600v95H0z"/></svg>