<svg xmlns="http://www.w3.org/2000/svg" width="600" height="95" viewBox="0 0 600 95"><path fill="none" d="M144.8 22c-2.2 0-3.9.5-5 1.4-1.9 1.6-2.9 5-2.9 10v31.3c-.1 5 .9 8.3 2.9 10 1.1 1 2.8 1.4 5 1.4s3.9-.5 5-1.4c1.9-1.6 2.9-5 2.9-10V33.4c0-5-1-8.3-2.9-10-1.1-.9-2.8-1.4-5-1.4zm305.1 0c-2.2 0-3.9.5-5 1.4-1.9 1.6-2.9 5-2.9 10v31.3c0 5 1 8.3 2.9 10 1.1 1 2.8 1.4 5 1.4s3.9-.5 5-1.4c1.9-1.6 2.9-5 2.9-10V33.4c0-5-1-8.3-2.9-10-1.1-.9-2.8-1.4-5-1.4z"/><path fill="none" d="M144.8 16.2c-4.5 0-7.9 1.5-10.2 4.4-2.3 2.9-3.5 7.2-3.5 12.8v31.3c0 5.6 1.1 9.9 3.5 12.8 2.3 3 5.7 4.4 10.2 4.4 4.4 0 7.8-1.5 10.2-4.5 2.4-3 3.5-7.2 3.5-12.8V33.4c0-5.6-1.2-9.8-3.5-12.8-2.3-2.9-5.7-4.4-10.2-4.4zm11.3 48.5c0 9.9-3.8 14.9-11.4 14.9-7.6 0-11.3-5-11.3-14.9V33.4c0-5.2 1-8.9 2.9-11.3 1.8-2.4 4.6-3.6 8.4-3.6 3.9 0 6.7 1.2 8.5 3.6 1.9 2.3 2.9 6.1 2.9 11.3v31.3zM374 55.9l8.2.1-4.2-17.8zM105 34.3c-2.2 0-3.9.5-5 1.4-1.9 1.6-2.9 4.9-2.9 9.9v19.1c0 5 1 8.3 2.9 9.9 1.1 1 2.8 1.4 5 1.4s3.9-.5 5-1.4c1.9-1.6 2.9-4.9 2.9-9.9V45.6c0-5-1-8.3-2.9-9.9-1.1-.9-2.7-1.4-5-1.4z"/><path fill="none" d="M105 28.5c-4.5 0-7.9 1.5-10.2 4.4-2.3 2.9-3.5 7.2-3.5 12.7v19.1c0 5.6 1.2 9.8 3.5 12.7 2.3 2.9 5.7 4.4 10.2 4.4 4.4 0 7.8-1.5 10.2-4.4 2.4-3 3.5-7.2 3.5-12.7V45.6c0-5.6-1.2-9.8-3.5-12.7-2.3-2.9-5.7-4.4-10.2-4.4zm11.4 26v10.2c0 9.9-3.8 14.8-11.4 14.8-7.6 0-11.3-4.9-11.3-14.8V45.6c0-5.1 1-8.9 2.9-11.2 1.8-2.4 4.6-3.5 8.4-3.5 3.9 0 6.7 1.2 8.5 3.5 1.9 2.3 2.9 6.1 2.9 11.2v8.9zm372.6-26c-4.5 0-7.9 1.5-10.2 4.4-2.3 2.9-3.5 7.2-3.5 12.7v19.1c0 5.6 1.2 9.8 3.5 12.7 2.3 2.9 5.7 4.4 10.2 4.4 4.4 0 7.8-1.5 10.2-4.4 2.4-3 3.5-7.2 3.5-12.7V45.6c0-5.6-1.2-9.8-3.5-12.7-2.3-2.9-5.7-4.4-10.2-4.4zm11.4 26v10.2c0 9.9-3.8 14.8-11.4 14.8-7.6 0-11.3-4.9-11.3-14.8V45.6c0-5.1 1-8.9 2.9-11.2 1.8-2.4 4.6-3.5 8.4-3.5 3.9 0 6.7 1.2 8.5 3.5 1.9 2.3 2.9 6.1 2.9 11.2v8.9zm-50.5-38.3c-4.5 0-7.9 1.5-10.2 4.4-2.3 2.9-3.5 7.2-3.5 12.8v31.3c0 5.6 1.2 9.9 3.5 12.8 2.3 3 5.7 4.4 10.2 4.4 4.4 0 7.8-1.5 10.2-4.5s3.5-7.2 3.5-12.8V33.4c0-5.6-1.2-9.8-3.5-12.8-2.3-2.9-5.7-4.4-10.2-4.4zm11.4 48.5c0 9.9-3.8 14.9-11.4 14.9-7.6 0-11.3-5-11.3-14.9V33.4c0-5.2 1-8.9 2.9-11.3 1.8-2.4 4.6-3.6 8.4-3.6 3.9 0 6.7 1.2 8.5 3.6 1.9 2.3 2.9 6.1 2.9 11.3v31.3zM220.7 34.1c0-4.8-.9-8.1-2.7-10-1.2-1.2-3.3-1.8-6.3-1.8h-5.2v54h5.2c3 0 5.1-.6 6.3-1.7 1.8-1.8 2.7-5.2 2.7-10V34.1z"/><path fill="none" d="M489 34.3c-2.2 0-3.9.5-5 1.4-1.9 1.6-2.9 4.9-2.9 9.9v19.1c0 5 1 8.3 2.9 9.9 1.1 1 2.8 1.4 5 1.4s3.9-.5 5-1.4c1.9-1.6 2.9-4.9 2.9-9.9V45.6c0-5-1-8.3-2.9-9.9-1.1-.9-2.7-1.4-5-1.4z"/><path d="M144.7 12.8c-5.7 0-10.1 1.9-13 5.7-2.7 3.6-4.1 8.5-4.1 14.9h-.1v31.4c0 6.4 1.4 11.4 4.1 14.9 3 3.9 7.4 5.8 13 5.8 3.3 0 6.1-.7 8.5-2 1.6-.9 3.1-2.1 4.6-3.9 2.7-3.5 4.1-8.5 4.1-14.9V33.4c0-6.3-1.4-11.3-4.1-14.9-2.9-3.8-7.2-5.7-13-5.7zm13.8 51.8c0 5.6-1.1 9.8-3.5 12.8s-5.8 4.5-10.2 4.5c-4.5 0-7.9-1.4-10.2-4.4-2.4-2.9-3.5-7.2-3.5-12.8V33.4c0-5.6 1.2-9.9 3.5-12.8 2.3-2.9 5.7-4.4 10.2-4.4s7.9 1.5 10.2 4.4c2.3 3 3.5 7.2 3.5 12.8v31.2z"/><path d="M144.7 18.5c-3.8 0-6.6 1.2-8.4 3.6-1.9 2.4-2.9 6.1-2.9 11.3v31.3c0 9.9 3.7 14.9 11.3 14.9 7.6 0 11.4-5 11.4-14.9V33.4c0-5.2-1-9-2.9-11.3-1.8-2.4-4.6-3.6-8.5-3.6zm8 46.2c0 5-1 8.4-2.9 10-1.1.9-2.8 1.4-5 1.4s-3.9-.4-5-1.4c-2-1.7-3-5-2.9-10V33.4c0-5 1-8.4 2.9-10 1.1-.9 2.8-1.4 5-1.4s3.9.5 5 1.4c1.9 1.7 2.9 5 2.9 10v31.3zM211.8 13h-14.4v3.5h14.4c9.9 0 14.9 5.9 14.9 17.6v30.5c0 5.7-1.2 10.1-3.5 13-2.6 3-6.4 4.5-11.4 4.5h-14.4v3.6h14.4c6.1 0 10.7-1.8 13.7-5.4 3.1-3.6 4.6-8.8 4.6-15.6V34.1c0-6.6-1.4-11.7-4.3-15.2-3.1-3.9-7.8-5.9-14-5.9z"/><path d="M197.4 18.7h3.4v61h-3.4zm23.8 57.5c2-2.4 3-6.2 3-11.5V34.1c0-5.3-1-9.2-3-11.6-1.9-2.5-5.1-3.8-9.5-3.8h-8.6v61.2h8.6c4.4 0 7.6-1.3 9.5-3.7zm-9.5.1h-5.2v-54h5.2c3 0 5.1.6 6.3 1.8 1.8 1.9 2.7 5.2 2.7 10v30.5c0 4.8-.9 8.2-2.7 10-1.2 1.1-3.3 1.7-6.3 1.7zm24 9.4h29.9v-3.5h-26.4V16.5h26.4V13h-29.9z"/><path d="M241.5 48.2h24.1v-3.6H245V22.3h20.6v-3.6h-24.1zm0 31.6h24.1v-3.5H245V54h20.6v-3.6h-24.1zm61.4-14.9c0 6.5-1.5 11.2-4.5 14-2.3 2.1-5.3 3.2-9.1 3.2s-6.9-1-9.2-3.2c-3-2.8-4.5-7.5-4.5-14V33.7c0-5.6 1.1-9.9 3.4-12.9 2.4-2.9 5.8-4.3 10.3-4.3s7.9 1.4 10.2 4.3c2.3 2.9 3.4 7.2 3.4 12.9v4.6h3.5v-4.6c0-6.4-1.4-11.4-4.2-14.9-3-3.9-7.4-5.8-13-5.8-3.1 0-5.9.6-8.3 1.9-1.8 1-3.3 2.3-4.7 3.9-2.7 3.5-4.1 8.4-4.1 14.9v31.1c0 6.4 1.4 11.4 4.1 14.9 1.4 1.8 3 3 4.7 3.9 2.3 1.3 5.1 2 8.3 2 5.7 0 10-1.9 13-5.8 2.8-3.6 4.2-8.5 4.2-14.9v-4.7h-3.5v4.7z"/><path d="M289.1 79.8c7.6 0 11.4-5 11.4-14.9v-4.7H297v4.7c0 4.2-.8 7.3-2.2 9.1-1.1 1.5-3 2.3-5.7 2.3-2.8 0-4.7-.8-5.6-2.3-1.5-1.8-2.2-4.9-2.2-9.1V33.7c0-5 1-8.4 2.9-10 1.1-.9 2.8-1.4 5-1.4s3.9.5 5 1.4c1.9 1.7 2.8 5 2.8 10v4.6h3.5v-4.6c0-9.9-3.8-14.9-11.4-14.9-7.5 0-11.3 5-11.3 14.9v31.2c0 9.9 3.7 14.9 11.3 14.9zM312.2 59l-.1.2h.1v26.3h3.4V12.9h-3.4zm29.7-46.1l-20.5 31.7V12.9H318v43.4l27.9-43.4zM318 60.7v24.9h3.5V61.8l3.8-6 16.4 29.8h3.9l-20-36.6zm30.6-47.8l-21.7 33.9 21.5 38.8h3.9L331 46.9l21.9-34zm25.9.1l-16.8 72.7h3.5L377 17.2h2.2L395 85.7l3.6.2L381.8 13z"/><path d="M369.1 61.8l-5.4 23.8 3.6-.2 4.6-20.2 12.5.1 4.7 20.3h3.5l-5.5-23.8zm.5-2.3h17l-8.5-36.8-8.5 36.8zm4.4-3.6l4-17.7 4.2 17.8-8.2-.1zm75.9-43.1c-5.7 0-10.1 1.9-13 5.7-2.7 3.6-4.1 8.5-4.1 14.9h-.1v31.4c0 6.4 1.4 11.4 4.1 14.9 3 3.9 7.4 5.8 13 5.8 3.3 0 6.1-.7 8.5-2 1.6-.9 3.1-2.1 4.6-3.9 2.7-3.5 4.1-8.5 4.1-14.9V33.4c0-6.3-1.4-11.3-4.1-14.9-2.9-3.8-7.2-5.7-13-5.7zm13.7 51.8c0 5.6-1.1 9.8-3.5 12.8s-5.8 4.5-10.2 4.5c-4.5 0-7.9-1.4-10.2-4.4-2.3-2.9-3.5-7.2-3.5-12.8V33.4c0-5.6 1.2-9.9 3.5-12.8 2.3-2.9 5.7-4.4 10.2-4.4s7.9 1.5 10.2 4.4c2.3 3 3.5 7.2 3.5 12.8v31.2z"/><path d="M449.9 18.5c-3.8 0-6.6 1.2-8.4 3.6-1.9 2.4-2.9 6.1-2.9 11.3v31.3c0 9.9 3.7 14.9 11.3 14.9 7.6 0 11.4-5 11.4-14.9V33.4c0-5.2-1-9-2.9-11.3-1.8-2.4-4.6-3.6-8.5-3.6zm7.9 46.2c0 5-1 8.4-2.9 10-1.1.9-2.8 1.4-5 1.4s-3.9-.4-5-1.4c-1.9-1.7-2.9-5-2.9-10V33.4c0-5 1-8.4 2.9-10 1.1-.9 2.8-1.4 5-1.4s3.9.5 5 1.4c1.9 1.7 2.9 5 2.9 10v31.3zM105 25.1c-5.7 0-10.1 1.9-13 5.6-2.7 3.6-4.1 8.5-4.1 14.8v19.1c0 6.4 1.4 11.3 4.1 14.8 3 3.9 7.4 5.8 13 5.8 3.3 0 6.1-.7 8.5-2 1.6-.8 3.1-2.1 4.6-3.8 2.7-3.5 4.1-8.4 4.1-14.8V45.5c0-6.3-1.4-11.3-4.1-14.8-2.9-3.7-7.3-5.6-13.1-5.6zm13.8 29.4v10.2c0 5.5-1.2 9.8-3.5 12.7-2.4 3-5.8 4.4-10.2 4.4-4.4 0-7.8-1.5-10.2-4.4-2.3-2.9-3.5-7.2-3.5-12.7V45.6c0-5.6 1.2-9.8 3.5-12.7 2.3-2.9 5.7-4.4 10.2-4.4 4.5 0 7.9 1.5 10.2 4.4 2.3 2.9 3.5 7.2 3.5 12.7v8.9z"/><path d="M105 30.8c-3.8 0-6.6 1.2-8.4 3.5-1.9 2.3-2.9 6.1-2.9 11.2v19.1c0 9.9 3.8 14.8 11.3 14.8 7.6 0 11.4-4.9 11.4-14.8V45.5c0-5.1-1-8.9-2.9-11.2-1.8-2.3-4.6-3.5-8.5-3.5zm8 23.7v10.2c0 5-1 8.3-2.9 9.9-1.1 1-2.8 1.4-5 1.4s-3.8-.5-5-1.4c-1.9-1.6-2.9-4.9-2.9-9.9V45.6c0-5 1-8.3 2.9-9.9 1.1-.9 2.8-1.4 5-1.4s3.9.5 5 1.4c1.9 1.6 2.9 4.9 2.9 9.9v8.9zm389.1-23.8c-2.9-3.8-7.3-5.6-13.1-5.6-5.7 0-10.1 1.9-13 5.6-2.7 3.6-4.1 8.5-4.1 14.8v19.1c0 6.4 1.4 11.3 4.1 14.8 3 3.9 7.4 5.8 13 5.8 3.3 0 6.1-.7 8.5-2 1.6-.8 3.1-2.1 4.6-3.8 2.7-3.5 4.1-8.4 4.1-14.8V45.5c0-6.2-1.4-11.2-4.1-14.8zm.7 23.8v10.2c0 5.5-1.2 9.8-3.5 12.7-2.4 3-5.8 4.4-10.2 4.4-4.4 0-7.8-1.5-10.2-4.4-2.3-2.9-3.5-7.2-3.5-12.7V45.6c0-5.6 1.2-9.8 3.5-12.7 2.3-2.9 5.7-4.4 10.2-4.4 4.5 0 7.9 1.5 10.2 4.4 2.3 2.9 3.5 7.2 3.5 12.7v8.9z"/><path d="M489 30.8c-3.8 0-6.6 1.2-8.4 3.5-1.9 2.3-2.9 6.1-2.9 11.2v19.1c0 9.9 3.8 14.8 11.3 14.8 7.6 0 11.4-4.9 11.4-14.8V45.5c0-5.1-1-8.9-2.9-11.2-1.8-2.3-4.6-3.5-8.5-3.5zm8 23.7v10.2c0 5-1 8.3-2.9 9.9-1.1 1-2.8 1.4-5 1.4s-3.8-.5-5-1.4c-1.9-1.6-2.9-4.9-2.9-9.9V45.6c0-5 1-8.3 2.9-9.9 1.1-.9 2.8-1.4 5-1.4s3.9.5 5 1.4c1.9 1.6 2.9 4.9 2.9 9.9v8.9z"/></svg>