<svg xmlns="http://www.w3.org/2000/svg" width="600" height="95" viewBox="0 0 600 95"><path d="M88 33.4c0-6.4 1.4-11.3 4.1-14.9 2.9-3.8 7.3-5.7 13-5.7 5.8 0 10.1 1.9 13 5.7 2.7 3.6 4.1 8.6 4.1 14.9v31.3c0 6.4-1.4 11.4-4.1 14.9-1.5 1.8-3 3-4.6 3.9-2.4 1.3-5.2 2-8.5 2-5.6 0-10-1.9-13-5.8-2.7-3.5-4.1-8.5-4.1-14.9V33.4zm6.9 44.1c2.3 3 5.7 4.4 10.2 4.4 4.4 0 7.8-1.5 10.2-4.5 2.4-3 3.5-7.2 3.5-12.8V33.4c0-5.6-1.2-9.8-3.5-12.8-2.3-2.9-5.7-4.4-10.2-4.4-4.5 0-7.9 1.5-10.2 4.4-2.3 2.9-3.5 7.2-3.5 12.8v31.3c0 5.6 1.2 9.9 3.5 12.8zm-1.1-44.1c0-5.2 1-8.9 2.9-11.3 1.8-2.4 4.6-3.6 8.4-3.6 3.9 0 6.7 1.2 8.5 3.6 1.9 2.3 2.9 6.1 2.9 11.3v31.3c0 9.9-3.8 14.9-11.4 14.9-7.6 0-11.3-5-11.3-14.9V33.4zm6.3 41.3c1.1 1 2.8 1.4 5 1.4s3.9-.5 5-1.4c1.9-1.6 2.9-5 2.9-10V33.4c0-5-1-8.3-2.9-10-1.1-.9-2.8-1.4-5-1.4s-3.9.5-5 1.4c-1.9 1.6-2.9 5-2.9 10v31.3c0 5 1 8.3 2.9 10zm27.5-41.3c0-6.4 1.4-11.3 4.1-14.9 2.9-3.8 7.3-5.7 13-5.7 5.8 0 10.1 1.9 13 5.7 2.7 3.6 4.1 8.6 4.1 14.9v31.3c0 6.4-1.4 11.4-4.1 14.9-1.5 1.8-3 3-4.6 3.9-2.4 1.3-5.2 2-8.5 2-5.6 0-10-1.9-13-5.8-2.7-3.5-4.1-8.5-4.1-14.9V33.4zm7 44.1c2.3 3 5.7 4.4 10.2 4.4 4.4 0 7.8-1.5 10.2-4.5 2.4-3 3.5-7.2 3.5-12.8V33.4c0-5.6-1.2-9.8-3.5-12.8-2.3-2.9-5.7-4.4-10.2-4.4-4.5 0-7.9 1.5-10.2 4.4-2.3 2.9-3.5 7.2-3.5 12.8v31.3c0 5.6 1.1 9.9 3.5 12.8zm-1.2-44.1c0-5.2 1-8.9 2.9-11.3 1.8-2.4 4.6-3.6 8.4-3.6 3.9 0 6.7 1.2 8.5 3.6 1.9 2.3 2.9 6.1 2.9 11.3v31.3c0 9.9-3.8 14.9-11.4 14.9-7.6 0-11.3-5-11.3-14.9V33.4zm6.4 41.3c1.1 1 2.8 1.4 5 1.4s3.9-.5 5-1.4c1.9-1.6 2.9-5 2.9-10V33.4c0-5-1-8.3-2.9-10-1.1-.9-2.8-1.4-5-1.4s-3.9.5-5 1.4c-1.9 1.6-2.9 5-2.9 10v31.3c-.1 5 .9 8.3 2.9 10zm57.6 7.4h14.4c5 0 8.8-1.5 11.4-4.5 2.3-2.9 3.5-7.3 3.5-13V34.1c0-11.7-5-17.6-14.9-17.6h-14.4V13h14.4c6.2 0 10.9 2 14 5.9 2.9 3.5 4.3 8.6 4.3 15.2v30.6c0 6.8-1.5 12-4.6 15.6-3 3.6-7.6 5.4-13.7 5.4h-14.4v-3.6zm0-63.4h3.4v61h-3.4v-61zm5.7 0h8.6c4.4 0 7.6 1.3 9.5 3.8 2 2.4 3 6.3 3 11.6v30.6c0 5.3-1 9.1-3 11.5-1.9 2.4-5.1 3.7-9.5 3.7h-8.6V18.7zm8.6 57.6c3 0 5.1-.6 6.3-1.7 1.8-1.8 2.7-5.2 2.7-10V34.1c0-4.8-.9-8.1-2.7-10-1.2-1.2-3.3-1.8-6.3-1.8h-5.2v54h5.2zm24-63.3h29.9v3.5h-26.4v65.7h26.4v3.5h-29.9V13zm5.8 5.7h24.1v3.6H245v22.3h20.6v3.6h-24.1V18.7zm0 31.7h24.1V54H245v22.3h20.6v3.5h-24.1V50.4zm30.6-16.7c0-6.5 1.4-11.4 4.1-14.9 1.4-1.6 2.9-2.9 4.7-3.9 2.4-1.3 5.2-1.9 8.3-1.9 5.6 0 10 1.9 13 5.8 2.8 3.5 4.2 8.5 4.2 14.9v4.6h-3.5v-4.6c0-5.7-1.1-10-3.4-12.9s-5.7-4.3-10.2-4.3c-4.5 0-7.9 1.4-10.3 4.3-2.3 3-3.4 7.3-3.4 12.9v31.2c0 6.5 1.5 11.2 4.5 14 2.3 2.2 5.4 3.2 9.2 3.2 3.8 0 6.8-1.1 9.1-3.2 3-2.8 4.5-7.5 4.5-14v-4.7h3.5v4.7c0 6.4-1.4 11.3-4.2 14.9-3 3.9-7.3 5.8-13 5.8-3.2 0-6-.7-8.3-2-1.7-.9-3.3-2.1-4.7-3.9-2.7-3.5-4.1-8.5-4.1-14.9V33.7zm5.7 0c0-9.9 3.8-14.9 11.3-14.9 7.6 0 11.4 5 11.4 14.9v4.6H297v-4.6c0-5-.9-8.3-2.8-10-1.1-.9-2.8-1.4-5-1.4s-3.9.5-5 1.4c-1.9 1.6-2.9 5-2.9 10v31.2c0 4.2.7 7.3 2.2 9.1.9 1.5 2.8 2.3 5.6 2.3 2.7 0 4.6-.8 5.7-2.3 1.4-1.8 2.2-4.9 2.2-9.1v-4.7h3.5v4.7c0 9.9-3.8 14.9-11.4 14.9-7.6 0-11.3-5-11.3-14.9V33.7zM312.2 59V12.9h3.4v72.6h-3.4V59.2h-.1l.1-.2zm5.8-46.1h3.4v31.7l20.5-31.7h4L318 56.3V12.9zm0 47.8l7.6-11.7 20 36.6h-3.9l-16.4-29.8-3.8 6v23.8H318V60.7zm30.6-47.8h4.3l-21.9 34 21.3 38.7h-3.9l-21.5-38.8 21.7-33.9zm25.9.1h7.3l16.8 72.9-3.6-.2-15.8-68.5H377l-15.8 68.5h-3.5L374.5 13zm-5.4 48.8h18l5.5 23.8h-3.5l-4.7-20.3-12.5-.1-4.6 20.2-3.6.2 5.4-23.8zm9-39.1l8.5 36.8h-17l8.5-36.8zm4.1 33.3L378 38.2l-4 17.7 8.2.1zm50.6-22.6c0-6.4 1.4-11.3 4.1-14.9 2.9-3.8 7.3-5.7 13-5.7 5.8 0 10.1 1.9 13 5.7 2.7 3.6 4.1 8.6 4.1 14.9v31.3c0 6.4-1.4 11.4-4.1 14.9-1.5 1.8-3 3-4.6 3.9-2.4 1.3-5.2 2-8.5 2-5.6 0-10-1.9-13-5.8-2.7-3.5-4.1-8.5-4.1-14.9V33.4zm6.9 44.1c2.3 3 5.7 4.4 10.2 4.4 4.4 0 7.8-1.5 10.2-4.5 2.4-3 3.5-7.2 3.5-12.8V33.4c0-5.6-1.2-9.8-3.5-12.8-2.3-2.9-5.7-4.4-10.2-4.4-4.5 0-7.9 1.5-10.2 4.4-2.3 2.9-3.5 7.2-3.5 12.8v31.3c0 5.6 1.2 9.9 3.5 12.8zm-1.1-44.1c0-5.2 1-8.9 2.9-11.3 1.8-2.4 4.6-3.6 8.4-3.6 3.9 0 6.7 1.2 8.5 3.6 1.9 2.3 2.9 6.1 2.9 11.3v31.3c0 9.9-3.8 14.9-11.4 14.9-7.6 0-11.3-5-11.3-14.9V33.4zm6.3 41.3c1.1 1 2.8 1.4 5 1.4s3.9-.5 5-1.4c1.9-1.6 2.9-5 2.9-10V33.4c0-5-1-8.3-2.9-10-1.1-.9-2.8-1.4-5-1.4s-3.9.5-5 1.4c-1.9 1.6-2.9 5-2.9 10v31.3c0 5 1 8.3 2.9 10zm27.5-41.3c0-6.4 1.4-11.3 4.1-14.9 2.9-3.8 7.3-5.7 13-5.7 5.8 0 10.1 1.9 13 5.7 2.7 3.6 4.1 8.6 4.1 14.9v31.3c0 6.4-1.4 11.4-4.1 14.9-1.5 1.8-3 3-4.6 3.9-2.4 1.3-5.2 2-8.5 2-5.6 0-10-1.9-13-5.8-2.7-3.5-4.1-8.5-4.1-14.9V33.4zm7 44.1c2.3 3 5.7 4.4 10.2 4.4 4.4 0 7.8-1.5 10.2-4.5 2.4-3 3.5-7.2 3.5-12.8V33.4c0-5.6-1.2-9.8-3.5-12.8-2.3-2.9-5.7-4.4-10.2-4.4-4.5 0-7.9 1.5-10.2 4.4-2.3 2.9-3.5 7.2-3.5 12.8v31.3c-.1 5.6 1.1 9.9 3.5 12.8zm-1.2-44.1c0-5.2 1-8.9 2.9-11.3 1.8-2.4 4.6-3.6 8.4-3.6 3.9 0 6.7 1.2 8.5 3.6 1.9 2.3 2.9 6.1 2.9 11.3v31.3c0 9.9-3.8 14.9-11.4 14.9-7.6 0-11.3-5-11.3-14.9V33.4zm6.3 41.3c1.1 1 2.8 1.4 5 1.4s3.9-.5 5-1.4c1.9-1.6 2.9-5 2.9-10V33.4c0-5-1-8.3-2.9-10-1.1-.9-2.8-1.4-5-1.4s-3.9.5-5 1.4c-1.9 1.6-2.9 5-2.9 10v31.3c0 5 1 8.3 2.9 10z"/><path fill="none" d="M0 0h600v95H0z"/></svg>