<svg xmlns="http://www.w3.org/2000/svg" width="600" height="95" viewBox="0 0 600 95"><path d="M65.5 82.1h14.4c5 0 8.8-1.5 11.4-4.5 2.3-2.9 3.5-7.3 3.5-13V34.1c0-11.7-5-17.6-14.9-17.6H65.5V13h14.4c6.2 0 10.9 2 14 5.9 2.9 3.5 4.3 8.6 4.3 15.2v30.6c0 6.8-1.5 12-4.6 15.6-3 3.6-7.6 5.4-13.7 5.4H65.5v-3.6zm0-63.4H69v61h-3.4l-.1-61zm5.8 0h8.6c4.4 0 7.6 1.3 9.5 3.8 2 2.4 3 6.3 3 11.6v30.6c0 5.3-1 9.1-3 11.5-1.9 2.4-5.1 3.7-9.5 3.7h-8.6V18.7zm8.6 57.6c3 0 5.1-.6 6.3-1.7 1.8-1.8 2.7-5.2 2.7-10V34.1c0-4.8-.9-8.1-2.7-10-1.2-1.2-3.3-1.8-6.3-1.8h-5.2v54h5.2zm26.9-63.4h3.4v72.6h-3.4V12.9zm5.8 0h3.4v72.6h-3.4V12.9zm28.8.1h7.3l16.8 72.9-3.6-.2L146 17.1h-2.2L128 85.6h-3.5L141.4 13zm-5.5 48.8h18l5.5 23.8h-3.5l-4.7-20.3-12.5-.1-4.6 20.2-3.6.2 5.4-23.8zm9-39.1l8.5 36.8h-17l8.5-36.8zM149 56l-4.1-17.8-4 17.7 8.1.1zm20.5-43.1h8.1L192.2 64l14.5-51.1h8.1v72.6h-3.4V16.4h-2.1l-17.2 60.3L175 16.4h-2v69.1h-3.4V12.9h-.1zm5.8 12.9l16.9 59.4L209 25.8v59.7h-3.4V50.7l-10 34.8h-7l-9.9-34.8v34.8h-3.4V25.8zm46.8 7.6c0-6.4 1.4-11.3 4.1-14.9 2.9-3.8 7.3-5.7 13-5.7 5.8 0 10.1 1.9 13 5.7 2.7 3.6 4.1 8.6 4.1 14.9v31.3c0 6.4-1.4 11.4-4.1 14.9-1.5 1.8-3 3-4.6 3.9-2.4 1.3-5.2 2-8.5 2-5.6 0-10-1.9-13-5.8-2.7-3.5-4.1-8.5-4.1-14.9V33.4h.1zm7 44.1c2.3 3 5.7 4.4 10.2 4.4 4.4 0 7.8-1.5 10.2-4.5s3.5-7.2 3.5-12.8V33.4c0-5.6-1.2-9.8-3.5-12.8-2.3-2.9-5.7-4.4-10.2-4.4s-7.9 1.5-10.2 4.4-3.5 7.2-3.5 12.8v31.3c0 5.6 1.2 9.9 3.5 12.8zm-1.2-44.1c0-5.2 1-8.9 2.9-11.3 1.8-2.4 4.6-3.6 8.4-3.6 3.9 0 6.7 1.2 8.5 3.6 1.9 2.3 2.9 6.1 2.9 11.3v31.3c0 9.9-3.8 14.9-11.4 14.9-7.6 0-11.3-5-11.3-14.9V33.4zm6.4 41.3c1.1 1 2.8 1.4 5 1.4s3.9-.5 5-1.4c1.9-1.6 2.9-5 2.9-10V33.4c0-5-1-8.3-2.9-10-1.1-.9-2.8-1.4-5-1.4s-3.9.5-5 1.4c-1.9 1.6-2.9 5-2.9 10v31.3c0 5 .9 8.3 2.9 10zm27.5-61.9h7.7l17.6 44v-44h3.5v62l-23.4-58.5h-2.1v69.1h-3.4l.1-72.6zm5.7 10.6l23.4 58.4h2v-69h3.5v72.6h-7.8l-17.6-44v44h-3.4v-62h-.1zm35.9 58.7h14.4c5 0 8.8-1.5 11.4-4.5 2.3-2.9 3.5-7.3 3.5-13V34.1c0-11.7-5-17.6-14.9-17.6h-14.4V13h14.4c6.2 0 10.9 2 14 5.9 2.9 3.5 4.3 8.6 4.3 15.2v30.6c0 6.8-1.5 12-4.6 15.6-3 3.6-7.6 5.4-13.7 5.4h-14.4v-3.6zm0-63.4h3.4v61h-3.4v-61zm5.7 0h8.6c4.4 0 7.6 1.3 9.5 3.8 2 2.4 3 6.3 3 11.6v30.6c0 5.3-1 9.1-3 11.5-1.9 2.4-5.1 3.7-9.5 3.7h-8.6V18.7zm8.6 57.6c3 0 5-.6 6.3-1.7 1.8-1.8 2.7-5.2 2.7-10V34.1c0-4.8-.9-8.1-2.7-10-1.2-1.2-3.3-1.8-6.3-1.8h-5.2v54h5.2zm54.1 5.8h14.4c5 0 8.8-1.5 11.4-4.5 2.3-2.9 3.5-7.3 3.5-13V34.1c0-11.7-5-17.6-14.9-17.6h-14.4V13h14.4c6.2 0 10.8 2 14 5.9 2.9 3.5 4.3 8.6 4.3 15.2v30.6c0 6.8-1.5 12-4.6 15.6s-7.6 5.4-13.7 5.4h-14.4v-3.6zm0-63.4h3.4v61h-3.4v-61zm5.8 0h8.6c4.4 0 7.6 1.3 9.5 3.8 2 2.4 3 6.3 3 11.6v30.6c0 5.3-1 9.1-3 11.5-1.9 2.4-5.1 3.7-9.5 3.7h-8.6V18.7zm8.6 57.6c3 0 5-.6 6.3-1.7 1.8-1.8 2.7-5.2 2.7-10V34.1c0-4.8-.9-8.1-2.7-10-1.2-1.2-3.3-1.8-6.3-1.8H381v54h5.2zM410.1 13h3.4v53.3c0 5.2 1.1 9.1 3.3 11.8 2.2 2.7 5.3 4 9.5 4 4.3 0 7.4-1.4 9.5-4.1 2.1-2.6 3.2-6.5 3.2-11.7V13h3.4v53.3c0 6-1.3 10.6-3.9 13.9-2.7 3.6-6.8 5.4-12.2 5.4-5.5 0-9.6-1.8-12.2-5.4-2.6-3.2-3.9-7.9-3.9-13.9l-.1-53.3zm5.8 0h3.4v53.3c0 4.5.8 7.4 2.5 8.8 1 .8 2.4 1.3 4.4 1.3s3.4-.4 4.4-1.3c1.7-1.4 2.5-4.3 2.5-8.8V13h3.4v53.3c0 4.7-.8 8.1-2.5 10.2s-4.3 3.2-7.8 3.2-6.1-1.1-7.8-3.2c-1.7-2.2-2.6-5.6-2.6-10.2V13h.1zm33.9 20.7c0-6.5 1.4-11.4 4.1-14.9 1.4-1.6 2.9-2.9 4.7-3.9 2.4-1.3 5.2-1.9 8.3-1.9 5.6 0 10 1.9 13 5.8 2.8 3.5 4.2 8.5 4.2 14.9v4.6h-3.5v-4.6c0-5.7-1.1-10-3.4-12.9s-5.7-4.3-10.2-4.3-7.9 1.4-10.3 4.3c-2.3 3-3.4 7.3-3.4 12.9v31.2c0 6.5 1.5 11.2 4.5 14 2.3 2.2 5.4 3.2 9.2 3.2 3.8 0 6.8-1.1 9.1-3.2 3-2.8 4.5-7.5 4.5-14v-4.7h3.5v4.7c0 6.4-1.4 11.3-4.2 14.9-3 3.9-7.3 5.8-13 5.8-3.2 0-6-.7-8.3-2-1.7-.9-3.2-2.1-4.7-3.9-2.7-3.5-4.1-8.5-4.1-14.9V33.7zm5.7 0c0-9.9 3.8-14.9 11.3-14.9 7.6 0 11.4 5 11.4 14.9v4.6h-3.5v-4.6c0-5-.9-8.3-2.8-10-1.1-.9-2.8-1.4-5-1.4s-3.9.5-5 1.4c-1.9 1.6-2.9 5-2.9 10v31.2c0 4.2.7 7.3 2.2 9.1.9 1.5 2.8 2.3 5.6 2.3 2.7 0 4.6-.8 5.7-2.3 1.4-1.8 2.2-4.9 2.2-9.1v-4.7h3.5v4.7c0 9.9-3.8 14.9-11.4 14.9s-11.3-5-11.3-14.9V33.7zM489.9 59V12.9h3.4v72.6h-3.4V59.2h-.1l.1-.2zm5.8-46.1h3.4v31.7l20.5-31.7h4l-27.9 43.5V12.9zm0 47.8l7.6-11.7 20 36.6h-3.9L503 55.8l-3.8 6v23.8h-3.4V60.7h-.1zm30.6-47.8h4.3l-21.9 34L530 85.6h-4l-21.5-38.8 21.8-33.9z"/><path fill="none" d="M0 0h600v95H0z"/></svg>