<svg xmlns="http://www.w3.org/2000/svg" width="600" height="95" viewBox="0 0 600 95"><path d="M126.3 33.5c0-6.5 1.4-11.6 4.3-15.2 2.9-3.6 7.2-5.4 12.8-5.4 5.6 0 9.9 1.8 12.9 5.4 2.9 3.6 4.4 8.7 4.4 15.2v4.6h-3.4v-4.6c0-11.4-4.6-17.1-13.8-17.1-4.5 0-7.9 1.5-10.2 4.4-2.3 2.9-3.4 7.1-3.4 12.7v31.3c0 5.7 1.2 10 3.5 12.9 2.3 2.9 5.7 4.4 10.2 4.4 4.6 0 8-1.5 10.3-4.4 2.3-2.9 3.5-7.2 3.5-12.9V53.5h-17V50h20.5v14.8c0 6.5-1.4 11.5-4.2 15-3 3.8-7.3 5.7-13 5.7-5.6 0-9.9-1.9-12.9-5.7-2.8-3.4-4.2-8.4-4.2-15V33.5zm5.7 0c0-5.1.9-8.8 2.8-11.2 1.9-2.4 4.7-3.6 8.5-3.6s6.7 1.2 8.6 3.6c1.9 2.4 2.9 6.1 2.9 11.2v4.6h-3.5v-4.6c0-4.7-.8-7.8-2.4-9.6-1.2-1.1-3-1.7-5.5-1.7s-4.2.6-5.4 1.7c-1.7 1.7-2.5 4.9-2.5 9.6v31.3c0 5 1 8.3 2.9 10 1.1 1 2.8 1.4 5 1.4 2.3 0 4-.5 5.1-1.4 1.9-1.7 2.8-5 2.8-10v-5.5h-11.1v-3.4h14.7v9c0 5.2-1 9-2.9 11.3-1.8 2.4-4.6 3.6-8.6 3.6-3.8 0-6.6-1.2-8.4-3.6-2-2.4-3-6.2-3-11.4V33.5zM184.4 13h7.3l16.8 72.9-3.6-.2-15.8-68.5h-2.2l-15.8 68.5h-3.5L184.4 13zM179 61.8h18l5.5 23.8H199l-4.7-20.3-12.5-.1-4.6 20.2-3.6.2 5.4-23.8zm9-39.1l8.5 36.8h-17l8.5-36.8zm4.1 33.3L188 38.2l-4 17.7 8.1.1zm20.4-43.1h8.1L235.2 64l14.5-51.1h8.1v72.6h-3.4V16.4h-2.1l-17.2 60.3L218 16.4h-2v69.1h-3.4V12.9zm5.8 12.9l16.9 59.4L252 25.8v59.7h-3.4V50.7l-10 34.8h-7l-9.9-34.8v34.8h-3.4V25.8zM265.2 13H295v3.5h-26.4v65.7H295v3.5h-29.9V13zm5.7 5.7H295v3.6h-20.6v22.3H295v3.6h-24.1V18.7zm0 31.7H295V54h-20.6v22.3H295v3.5h-24.1V50.4zM301.5 13h15c12.2 0 18.3 6.9 18.3 20.7 0 6.6-1.4 11.7-4.3 15.3-.2.2-.3.4-.4.5-.3.3-.5.5-.6.5 3.6 3.6 5.4 8.3 5.4 14.2v21.5h-3.5V64.1c0-4.9-1.4-8.7-4.2-11.6-1.2-1.1-2.5-2-4.1-2.6 5.5-2.1 8.2-7.5 8.2-16.3 0-5.9-1.2-10.2-3.6-13-2.4-2.8-6.2-4.2-11.3-4.2h-15V13zm0 5.7h3.4v66.9h-3.4V18.7zm5.8 0h9.2c4.4 0 7.6 1.2 9.6 3.5s2.9 6.1 2.9 11.4c0 5.3-1 9.2-2.9 11.5-1.9 2.3-5.1 3.5-9.6 3.5h-9.2V18.7zm0 32.3h9.2c4.1 0 7.2 1.1 9.4 3.4s3.3 5.5 3.3 9.7v21.5h-3.5V64.1c0-6.4-3.1-9.6-9.2-9.6h-5.7v31h-3.4V51zm9.2-5.8c2.5 0 4.3-.3 5.2-.9.8-.5 1.4-1 1.8-1.4 1.4-1.8 2.2-4.9 2.2-9.2 0-4.6-.8-7.7-2.2-9.4-1.3-1.3-3.6-2-6.9-2h-5.7v22.9h5.6zM341.4 13h40.8v3.5h-40.8V13zm0 5.7h19.3v66.9h-3.5V22.3h-15.7v-3.6zm21.5 0h19.3v3.6h-15.8v63.3h-3.5V18.7zm42.3-5.7h7.3l16.8 72.9-3.6-.2-15.8-68.5h-2.2L392 85.6h-3.5L405.2 13zm-5.4 48.8h18l5.5 23.8h-3.5l-4.7-20.3-12.5-.1-4.6 20.2-3.6.2 5.4-23.8zm9-39.1l8.5 36.8h-17l8.5-36.8zm4.1 33.3l-4.1-17.8-4 17.7 8.1.1zm20.5-22.5c0-6.5 1.5-11.6 4.3-15.2 2.9-3.6 7.2-5.4 12.8-5.4 5.6 0 9.9 1.8 12.9 5.4 2.9 3.6 4.4 8.7 4.4 15.2v4.6h-3.4v-4.6c0-11.4-4.6-17.1-13.8-17.1-4.5 0-7.9 1.5-10.2 4.4-2.3 2.9-3.4 7.1-3.4 12.7v31.3c0 5.7 1.2 10 3.5 12.9 2.3 2.9 5.7 4.4 10.2 4.4 4.6 0 8-1.5 10.3-4.4 2.3-2.9 3.5-7.2 3.5-12.9V53.5h-17V50H468v14.8c0 6.5-1.4 11.5-4.2 15-3 3.8-7.3 5.7-13 5.7-5.6 0-9.9-1.9-12.9-5.7-2.8-3.4-4.2-8.4-4.2-15V33.5zm5.8 0c0-5.1.9-8.8 2.8-11.2 1.9-2.4 4.7-3.6 8.5-3.6s6.7 1.2 8.6 3.6c1.9 2.4 2.9 6.1 2.9 11.2v4.6h-3.5v-4.6c0-4.7-.8-7.8-2.4-9.6-1.2-1.1-3-1.7-5.5-1.7s-4.2.6-5.4 1.7c-1.7 1.7-2.5 4.9-2.5 9.6v31.3c0 5 1 8.3 2.9 10 1.1 1 2.8 1.4 5 1.4 2.3 0 4-.5 5.1-1.4 1.9-1.7 2.8-5 2.8-10v-5.5h-11.1v-3.4H462v9c0 5.2-1 9-2.9 11.3-1.8 2.4-4.6 3.6-8.6 3.6-3.8 0-6.6-1.2-8.4-3.6-1.9-2.3-2.9-6.1-2.9-11.3V33.5z"/><path fill="none" d="M0 0h600v95H0z"/></svg>