<svg xmlns="http://www.w3.org/2000/svg" width="600" height="95" viewBox="0 0 600 95"><path d="M178.7 12.9h3.4v72.6h-3.4V12.9zm5.8 0h3.4v72.6h-3.4V12.9zM195.6 59V12.9h3.4v72.6h-3.4V59.2h-.1l.1-.2zm5.8-46.1h3.4v31.7l20.5-31.7h4l-27.9 43.5V12.9zm0 47.8L209 49l20 36.6h-3.9l-16.4-29.8-3.8 6v23.8h-3.4V60.7zm30.7-47.8h4.3l-21.9 34 21.3 38.7h-3.9l-21.5-38.8 21.7-33.9zm11 0h3.4v72.6h-3.4V12.9zm5.8 0h3.4v72.6h-3.4V12.9zm28.8.1h7.3l16.8 72.9-3.6-.2-15.8-68.5h-2.2l-15.8 68.5h-3.5L277.7 13zm-5.4 48.8h18l5.5 23.8h-3.5l-4.7-20.3-12.5-.1-4.6 20.2-3.6.2 5.4-23.8zm9-39.1l8.5 36.8h-17l8.5-36.8zm4.1 33.3l-4.1-17.8-4 17.7 8.1.1zm20.5-22.5c0-6.5 1.4-11.6 4.3-15.2 2.9-3.6 7.2-5.4 12.8-5.4 5.6 0 9.9 1.8 12.9 5.4 2.9 3.6 4.4 8.7 4.4 15.2v4.6h-3.4v-4.6c0-11.4-4.6-17.1-13.8-17.1-4.5 0-7.9 1.5-10.2 4.4-2.3 2.9-3.4 7.1-3.4 12.7v31.3c0 5.7 1.2 10 3.5 12.9 2.3 2.9 5.7 4.4 10.2 4.4 4.6 0 8-1.5 10.3-4.4 2.3-2.9 3.5-7.2 3.5-12.9V53.5h-17V50h20.5v14.8c0 6.5-1.4 11.5-4.2 15-3 3.8-7.3 5.7-13.1 5.7-5.6 0-9.9-1.9-12.9-5.7-2.8-3.4-4.2-8.4-4.2-15V33.5zm5.7 0c0-5.1.9-8.8 2.8-11.2 1.9-2.4 4.7-3.6 8.5-3.6s6.7 1.2 8.6 3.6c1.9 2.4 2.9 6.1 2.9 11.2v4.6h-3.5v-4.6c0-4.7-.8-7.8-2.4-9.6-1.2-1.1-3-1.7-5.5-1.7s-4.2.6-5.4 1.7c-1.7 1.7-2.5 4.9-2.5 9.6v31.3c0 5 1 8.3 2.9 10 1.1 1 2.8 1.4 5 1.4 2.3 0 4-.5 5.1-1.4 1.9-1.7 2.8-5 2.8-10v-5.5h-11.1v-3.4h14.7v9c0 5.2-1 9-2.9 11.3-1.8 2.4-4.6 3.6-8.6 3.6-3.8 0-6.6-1.2-8.4-3.6-1.9-2.3-2.9-6.1-2.9-11.3V33.5zM346.3 13h29.9v3.5h-26.4v65.7h26.4v3.5h-29.9V13zm5.7 5.7h24.1v3.6h-20.6v22.3h20.6v3.6H352V18.7zm0 31.7h24.1V54h-20.6v22.3h20.6v3.5H352V50.4zm30.6-37.6h7.7l17.6 44v-44h3.5v62L388 16.3h-2.1v69.1h-3.4V12.8zm5.8 10.6l23.4 58.4h2v-69h3.5v72.6h-7.8l-17.6-44v44h-3.4v-62z"/><path fill="none" d="M0 0h600v95H0z"/></svg>