<svg xmlns="http://www.w3.org/2000/svg" width="600" height="95" viewBox="0 0 600 95"><path d="M76 12.9h3.4V82h28v3.5H76V12.9zm5.8 0h3.4v63.4h22.2v3.5H81.8V12.9zm29.1.1h29.9v3.5h-26.4v65.7h26.4v3.5h-29.9V13zm5.7 5.7h24.1v3.6h-20.6v22.3h20.6v3.6h-24.1V18.7zm0 31.7h24.1V54h-20.6v22.3h20.6v3.5h-24.1V50.4zM147.2 13h29.9v3.5h-26.4v65.7h26.4v3.5h-29.9V13zm5.8 5.7h24.1v3.6h-20.6v22.3h20.6v3.6H153V18.7zm0 31.7h24.1V54h-20.6v22.3h20.6v3.5H153V50.4zm30.6 31.7H198c5 0 8.8-1.5 11.4-4.5 2.3-2.9 3.5-7.3 3.5-13V34.1c0-11.7-5-17.6-14.9-17.6h-14.4V13H198c6.2 0 10.9 2 14 5.9 2.9 3.5 4.3 8.6 4.3 15.2v30.6c0 6.8-1.5 12-4.6 15.6-3 3.6-7.6 5.4-13.7 5.4h-14.4v-3.6zm0-63.4h3.4v61h-3.4v-61zm5.8 0h8.6c4.4 0 7.6 1.3 9.5 3.8 2 2.4 3 6.3 3 11.6v30.6c0 5.3-1 9.1-3 11.5-1.9 2.4-5.1 3.7-9.5 3.7h-8.6V18.7zm8.6 57.6c3 0 5.1-.6 6.3-1.7 1.8-1.8 2.7-5.2 2.7-10V34.1c0-4.8-.9-8.1-2.7-10-1.2-1.2-3.3-1.8-6.3-1.8h-5.2v54h5.2zm28.7-57.6c3.2-3.8 7.3-5.7 12.4-5.7 5.8 0 10.1 1.9 13 5.7 2.8 3.6 4.2 8.7 4.2 15.1v4.6h-3.5v-4.6c0-11.5-4.6-17.3-13.7-17.3-4.3 0-7.7 1.6-10.1 4.8-2.4 3.2-3.6 7.4-3.6 12.5 0 5 1.6 9 4.9 12 1.8 1.8 4.4 3.4 7.6 4.7l1.7.8c3 1.2 5.3 2.5 6.7 3.9 2.9 2.7 4.3 6.1 4.3 10.3 0 4.5-1 8-3 10.5s-4.8 3.8-8.4 3.8c-3.9 0-6.8-1.2-8.6-3.6s-2.8-6.1-2.8-11.2v-4.6h3.4V65c0 4.2.7 7.3 2.2 9.1.3.4.8.9 1.7 1.4.9.5 2.3.8 4 .8 3 0 5.3-1.3 6.7-3.9.8-1.6 1.2-3.9 1.2-6.9 0-3-.9-5.5-2.8-7.4-1.3-1.3-3.3-2.4-6-3.6l-1.8-.8c-3.7-1.5-6.6-3.3-8.7-5.4-3.9-3.9-5.9-8.7-5.9-14.6.1-6.3 1.7-11.4 4.9-15zm-4.8 41.7h3.4V65c0 11.4 4.6 17.1 13.8 17.1 4.5 0 8-1.6 10.3-4.9 2.3-2.9 3.4-6.8 3.4-11.7 0-4.9-1.6-8.9-4.9-11.9-1.8-1.7-4.4-3.1-7.6-4.4l-1.6-.7c-3-1.2-5.3-2.7-6.9-4.3-2.8-2.7-4.2-6.1-4.2-10.3 0-4.1.8-7.5 2.5-10.1 2.2-3.3 5.1-5 8.9-5 7.6 0 11.5 5 11.5 15v4.6H247v-4.6c0-5.1-1-8.4-2.9-10.1-1.1-.9-2.8-1.4-5-1.4-3.2 0-5.4 1.5-6.7 4.6-.8 1.8-1.2 4-1.2 6.8 0 3 .9 5.5 2.8 7.5 1.6 1.7 3.6 3 6.3 3.9l1.6.7.6.2c.4.2.6.3.7.3.1 0 .3.2.7.3.4.2.7.3.9.4.2.1.5.2.9.4s.7.4 1 .5c.2.2.5.4.9.6.4.2.7.5 1 .7.3.2.6.5.9.7.3.3.7.6 1 .9 4 3.8 6.1 8.6 6.1 14.5 0 5.8-1.5 10.6-4.6 14.4-3.1 3.8-7.3 5.7-12.6 5.7-5.7 0-10-1.8-12.9-5.4-2.9-3.6-4.3-8.7-4.3-15.2v-4.4zm38.9-47.6h7.7l17.6 44v-44h3.5v62l-23.4-58.5h-2.1v69.1h-3.4V12.8zm5.8 10.6L290 81.9h2V12.8h3.5v72.6h-7.8l-17.6-44v44h-3.4v-62zm38.7-10.5h3.4v72.6h-3.4V12.9zm5.8 0h3.4v72.6h-3.4V12.9zm11-.1h7.7l17.6 44v-44h3.5v62l-23.4-58.5h-2.1v69.1H322V12.8zm5.8 10.6l23.4 58.4h2v-69h3.5v72.6H349l-17.6-44v44H328v-62zm35.8 38.1h3.4v4.7c0 5.3 1.1 9.2 3.2 11.9 2.2 2.6 5.3 4 9.5 4 8.5 0 12.7-5.3 12.7-15.8V12.9h3.4v53.3c0 6.1-1.3 10.7-3.9 14-2.7 3.6-6.8 5.3-12.2 5.3-5.3 0-9.4-1.8-12.2-5.3-2.6-3.2-3.9-7.9-3.9-14v-4.7zm5.8 0h3.4v4.7c0 4.5.8 7.4 2.5 8.8 1 .8 2.4 1.3 4.4 1.3 1.7 0 2.9-.2 3.5-.7.8-.4 1.3-.8 1.5-1.2 1.2-1.6 1.9-4.4 1.9-8.2V12.9h3.4v53.3c0 4.7-.8 8.1-2.5 10.2-1.7 2.2-4.3 3.2-7.8 3.2s-6.1-1.1-7.8-3.2c-1.7-2.2-2.6-5.6-2.6-10.2v-4.7zM421.1 13h7.3l16.8 72.9-3.6-.2-15.8-68.5h-2.2l-15.8 68.5h-3.5L421.1 13zm-5.4 48.8h18l5.5 23.8h-3.5L431 65.3l-12.5-.1-4.6 20.2-3.6.2 5.4-23.8zm9-39.1l8.5 36.8h-17l8.5-36.8zm4.1 33.3l-4.1-17.8-4 17.7 8.1.1zm20.4-21.9c0-6.4 1.3-11.5 3.8-15.3 2.5-3.8 6.4-5.6 11.4-5.6 5.3 0 9.2 2.1 11.9 6.2 2.4 3.6 3.5 8.5 3.5 14.7V65c0 6.5-1.3 11.6-3.9 15.3-2.6 3.7-6.4 5.6-11.5 5.6s-8.9-1.9-11.4-5.6c-2.5-3.8-3.8-8.8-3.8-15.3V34.1zm6.4 43.7c2 3 4.9 4.5 8.8 4.5 3.9 0 6.8-1.5 8.8-4.5 2-3 3-7.3 3-12.9V34.1c0-5.6-1-9.9-3-12.9s-4.9-4.5-8.9-4.5-7 1.6-8.9 4.7c-1.9 2.8-2.9 7.1-2.9 12.7V65c.2 5.5 1.2 9.8 3.1 12.8zm-.6-43.7c0-10 3.2-15.1 9.5-15.1s9.5 5 9.5 15.1V65c0 10-3.2 15.1-9.5 15.1s-9.5-5-9.5-15.1V34.1zm4.2 37.5c.8 2.8 2.1 4.4 3.7 4.7.2 0 .4.1.8.1.3.1.6.1.8.1 1.6 0 2.8-.5 3.6-1.5.7-.7 1.3-1.9 1.8-3.5.4-1.5.7-3.7.7-6.7V34.1c0-3-.2-5.2-.7-6.7-.9-2.8-2.1-4.3-3.7-4.7-.9-.1-1.5-.2-1.7-.2-1.5 0-2.7.5-3.6 1.5-.6.6-1.1 1.7-1.7 3.4-.5 1.7-.8 3.9-.8 6.7V65c.1 2.7.3 4.9.8 6.6zm30.6-21c.5-.6.8-1 .9-1.1l-.9-1.2c-2.5-3.3-3.7-8.2-3.7-14.7 0-13.7 5.4-20.5 16.3-20.5 5.4 0 9.5 1.8 12.2 5.4 2.7 3.6 4.1 8.6 4.1 15.1 0 6.3-1.2 11.2-3.7 14.7l-.9 1.2.9 1.1c2.5 3.5 3.7 8.5 3.7 14.8 0 6.5-1.3 11.5-4 15.1-2.7 3.5-6.8 5.3-12.3 5.3-10.9 0-16.3-6.8-16.3-20.4-.1-6.4 1.2-11.3 3.7-14.8zm2.8 27.6c2.1 2.8 5.3 4.1 9.8 4.1 4.4 0 7.6-1.4 9.7-4.1 2.1-2.8 3.1-7 3.1-12.8 0-5.9-1-10.1-3-12.7-1.1-1.4-2.3-2.5-3.8-3.2 4.6-2.1 6.8-7.3 6.8-15.8 0-5.8-1-10.1-3.1-12.9-2.1-2.7-5.3-4.1-9.7-4.1-4.5 0-7.7 1.4-9.8 4.1-2.1 2.7-3.1 7-3.1 12.9 0 8.4 2.3 13.7 6.8 15.8-1.5.7-2.8 1.7-3.8 3.2-2 2.6-3 6.8-3 12.7 0 5.8 1 10 3.1 12.8zm9.8-59.2c3.7 0 6.4 1.2 8.1 3.5 1.7 2.3 2.5 6.1 2.5 11.2s-.8 8.9-2.5 11.2c-1.7 2.3-4.3 3.5-8.1 3.5s-6.4-1.2-8.1-3.5c-1.7-2.3-2.5-6.1-2.5-11.2s.8-8.9 2.5-11.2c1.7-2.3 4.4-3.5 8.1-3.5zm-8.1 35.1c1.7-2.3 4.3-3.5 8.1-3.5s6.4 1.2 8.1 3.5c1.7 2.3 2.5 6.1 2.5 11.3 0 5.1-.8 8.8-2.5 11.1-1.7 2.3-4.3 3.4-8.1 3.4s-6.4-1.1-8.1-3.4c-1.7-2.3-2.5-6-2.5-11.1 0-5.2.9-9 2.5-11.3zm3.4-10.8c1 1 2.5 1.5 4.7 1.5s3.7-.5 4.7-1.5c1.6-1.6 2.3-4.8 2.3-9.6 0-4.9-.8-8.2-2.3-9.8-.9-.9-2.5-1.4-4.7-1.4s-3.8.5-4.7 1.4c-1.6 1.6-2.4 4.9-2.4 9.8 0 4.8.8 8 2.4 9.6zm0 31.8c1 1 2.5 1.5 4.7 1.5s3.7-.5 4.7-1.5c1.6-1.6 2.3-4.8 2.3-9.7 0-2.7-.2-4.8-.6-6.3-.4-1.3-.8-2.3-1.1-2.9-.4-.6-.9-1.1-1.7-1.4-.7-.4-1.9-.6-3.6-.6s-3 .2-3.6.6c-.8.4-1.3.9-1.7 1.4-.4.6-.7 1.5-1.1 2.9-.4 1.4-.7 3.5-.7 6.3 0 4.8.8 8 2.4 9.7z"/><path fill="none" d="M0 0h600v95H0z"/></svg>