<svg xmlns="http://www.w3.org/2000/svg" width="600" height="95" viewBox="0 0 600 95"><path d="M174.6 12.9h8.1L197.3 64l14.5-51.1h8.1v72.6h-3.4V16.4h-2.1l-17.2 60.3L180 16.4h-2v69.1h-3.4V12.9zm5.8 12.9l16.9 59.4 16.8-59.4v59.7h-3.4V50.7l-10 34.8h-7l-9.9-34.8v34.8h-3.4V25.8zm46.8 56.3h13.9c4.9 0 8.5-1.4 10.8-4.1 2.3-2.7 3.4-7 3.4-12.8 0-5.7-1.1-10-3.3-12.8-1.1-1.3-2.5-2.4-4.2-3.2 5-2.1 7.6-7.4 7.6-15.8 0-5.8-1.1-10-3.4-12.8-2.3-2.7-5.9-4.1-10.8-4.1h-13.9V13h13.9c6 0 10.4 1.7 13.3 5.2 2.9 3.5 4.4 8.6 4.4 15.2 0 6.5-1.4 11.5-4.3 15-.4.5-.6.8-.8 1 .4.4.7.7.8.9 2.8 3.5 4.3 8.5 4.3 15 0 13.6-5.9 20.4-17.7 20.4h-13.9v-3.6zm0-63.4h3.4v61h-3.4v-61zm5.8 0h8.1c4.2 0 7.3 1.2 9.2 3.5s2.8 6 2.8 11.2c0 5.2-.9 8.9-2.8 11.3-1.9 2.3-4.9 3.5-9.1 3.5H233V18.7zm0 31.7h8.1c4.2 0 7.2 1.2 9.1 3.5 1.9 2.3 2.8 6.1 2.8 11.3 0 5.1-.9 8.8-2.8 11.1s-4.9 3.5-9.2 3.5h-8V50.4zm8.1-5.8c2.2 0 3.7-.2 4.5-.7 1-.5 1.6-1 1.9-1.5 1.4-1.7 2.1-4.7 2.1-9.1 0-4.7-.8-7.8-2.3-9.4-1.2-1.1-3.2-1.7-6.1-1.7h-4.7v22.3h4.6zm0 31.7c2.9 0 4.9-.5 6.1-1.6 1.6-1.6 2.3-4.7 2.3-9.5 0-4.7-.8-7.8-2.4-9.6-1.1-1.1-3.1-1.6-6-1.6h-4.7v22.3h4.7zM264 13h29.9v3.5h-26.4v65.7h26.4v3.5H264V13zm5.8 5.7h24.1v3.6h-20.6v22.3h20.6v3.6h-24.1V18.7zm0 31.7h24.1V54h-20.6v22.3h20.6v3.5h-24.1V50.4zM318.1 13h7.3l16.8 72.9-3.6-.2-15.8-68.5h-2.2l-15.8 68.5h-3.5L318.1 13zm-5.4 48.8h18l5.5 23.8h-3.5L328 65.4l-12.5-.1-4.6 20.2-3.6.2 5.4-23.9zm9-39.1l8.5 36.8h-17l8.5-36.8zm4.1 33.3l-4.1-17.8-4 17.7 8.1.1zm20.5-43h15c12.2 0 18.3 6.9 18.3 20.7 0 6.6-1.4 11.7-4.3 15.3-.2.2-.3.4-.4.5-.3.3-.5.5-.6.5 3.6 3.6 5.4 8.3 5.4 14.2v21.5h-3.5V64.1c0-4.9-1.4-8.7-4.2-11.6-1.2-1.1-2.5-2-4.1-2.6 5.5-2.1 8.2-7.5 8.2-16.3 0-5.9-1.2-10.2-3.6-13-2.4-2.8-6.2-4.2-11.3-4.2h-15V13zm0 5.7h3.4v66.9h-3.4V18.7zm5.8 0h9.2c4.4 0 7.6 1.2 9.6 3.5s2.9 6.1 2.9 11.4c0 5.3-1 9.2-2.9 11.5-1.9 2.3-5.1 3.5-9.6 3.5h-9.2V18.7zm0 32.3h9.2c4.1 0 7.2 1.1 9.4 3.4s3.3 5.5 3.3 9.7v21.5h-3.5V64.1c0-6.4-3.1-9.6-9.2-9.6h-5.7v31h-3.4V51zm9.1-5.8c2.5 0 4.3-.3 5.2-.9.8-.5 1.4-1 1.8-1.4 1.4-1.8 2.2-4.9 2.2-9.2 0-4.6-.7-7.7-2.2-9.4-1.3-1.3-3.6-2-6.9-2h-5.7v22.9h5.6zm25.9 36.9h14.4c5 0 8.8-1.5 11.4-4.5 2.3-2.9 3.5-7.3 3.5-13V34.1c0-11.7-5-17.6-14.9-17.6h-14.4V13h14.4c6.2 0 10.9 2 14 5.9 2.9 3.5 4.3 8.6 4.3 15.2v30.6c0 6.8-1.5 12-4.6 15.6-3 3.6-7.6 5.4-13.7 5.4h-14.4v-3.6zm0-63.4h3.4v61h-3.4v-61zm5.8 0h8.6c4.4 0 7.6 1.3 9.5 3.8 2 2.4 3 6.3 3 11.6v30.6c0 5.3-1 9.1-3 11.5-1.9 2.4-5.1 3.7-9.5 3.7h-8.6V18.7zm8.6 57.6c3 0 5.1-.6 6.3-1.7 1.8-1.8 2.7-5.2 2.7-10V34.1c0-4.8-.9-8.1-2.7-10-1.2-1.2-3.3-1.8-6.3-1.8h-5.2v54h5.2z"/><path fill="none" d="M0 0h600v95H0z"/></svg>