<svg xmlns="http://www.w3.org/2000/svg" width="600" height="95" viewBox="0 0 600 95"><path d="M106.4 12.9h8.1L129.1 64l14.5-51.1h8.1v72.6h-3.4V16.4h-2.1L129 76.7l-17.2-60.3h-2.1v69.1h-3.4V12.9zm5.8 12.9l16.9 59.4 16.8-59.4v59.7h-3.4V50.7l-10 34.8h-7l-9.9-34.8v34.8h-3.4V25.8zm49.7-12.9h3.4v72.6h-3.4V12.9zm5.8 0h3.4v72.6h-3.4V12.9zm11.1 20.8c0-6.5 1.4-11.4 4.1-14.9 1.4-1.6 2.9-2.9 4.7-3.9 2.4-1.3 5.2-1.9 8.3-1.9 5.6 0 10 1.9 13 5.8 2.8 3.5 4.2 8.5 4.2 14.9v4.6h-3.5v-4.6c0-5.7-1.1-10-3.4-12.9s-5.7-4.3-10.2-4.3c-4.5 0-7.9 1.4-10.3 4.3-2.3 3-3.4 7.3-3.4 12.9v31.2c0 6.5 1.5 11.2 4.5 14 2.3 2.2 5.4 3.2 9.2 3.2 3.8 0 6.8-1.1 9.1-3.2 3-2.8 4.5-7.5 4.5-14v-4.7h3.5v4.7c0 6.4-1.4 11.3-4.2 14.9-3 3.9-7.3 5.8-13 5.8-3.2 0-6-.7-8.3-2-1.7-.9-3.3-2.1-4.7-3.9-2.7-3.5-4.1-8.5-4.1-14.9V33.7zm5.7 0c0-9.9 3.8-14.9 11.3-14.9 7.6 0 11.4 5 11.4 14.9v4.6h-3.5v-4.6c0-5-.9-8.3-2.8-10-1.1-.9-2.8-1.4-5-1.4s-3.9.5-5 1.4c-1.9 1.6-2.9 5-2.9 10v31.2c0 4.2.7 7.3 2.2 9.1.9 1.5 2.8 2.3 5.6 2.3 2.7 0 4.6-.8 5.7-2.3 1.4-1.8 2.2-4.9 2.2-9.1v-4.7h3.5v4.7c0 9.9-3.8 14.9-11.4 14.9-7.6 0-11.3-5-11.3-14.9V33.7zM218.8 13h15c12.2 0 18.3 6.9 18.3 20.7 0 6.6-1.4 11.7-4.3 15.3-.2.2-.3.4-.4.5-.3.3-.5.5-.6.5 3.6 3.6 5.4 8.3 5.4 14.2v21.5h-3.5V64.1c0-4.9-1.4-8.7-4.2-11.6-1.2-1.1-2.5-2-4.1-2.6 5.5-2.1 8.2-7.5 8.2-16.3 0-5.9-1.2-10.2-3.6-13-2.4-2.8-6.2-4.2-11.3-4.2h-15V13zm0 5.7h3.4v66.9h-3.4V18.7zm5.8 0h9.2c4.4 0 7.6 1.2 9.6 3.5s2.9 6.1 2.9 11.4c0 5.3-1 9.2-2.9 11.5-1.9 2.3-5.1 3.5-9.6 3.5h-9.2V18.7zm0 32.3h9.2c4.1 0 7.2 1.1 9.4 3.4s3.3 5.5 3.3 9.7v21.5H243V64.1c0-6.4-3.1-9.6-9.2-9.6H228v31h-3.4V51zm9.1-5.8c2.5 0 4.3-.3 5.2-.9.8-.5 1.4-1 1.8-1.4 1.4-1.8 2.2-4.9 2.2-9.2 0-4.6-.7-7.7-2.2-9.4-1.3-1.3-3.6-2-6.9-2H228v22.9h5.7zm25.9-11.8c0-6.4 1.4-11.3 4.1-14.9 2.9-3.8 7.3-5.7 13-5.7 5.8 0 10.1 1.9 13 5.7 2.7 3.6 4.1 8.6 4.1 14.9v31.3c0 6.4-1.4 11.4-4.1 14.9-1.5 1.8-3 3-4.6 3.9-2.4 1.3-5.2 2-8.5 2-5.6 0-10-1.9-13-5.8-2.7-3.5-4.1-8.5-4.1-14.9V33.4zm6.9 44.1c2.3 3 5.7 4.4 10.2 4.4 4.4 0 7.8-1.5 10.2-4.5 2.4-3 3.5-7.2 3.5-12.8V33.4c0-5.6-1.2-9.8-3.5-12.8-2.3-2.9-5.7-4.4-10.2-4.4-4.5 0-7.9 1.5-10.2 4.4-2.3 2.9-3.5 7.2-3.5 12.8v31.3c0 5.6 1.2 9.9 3.5 12.8zm-1.1-44.1c0-5.2 1-8.9 2.9-11.3 1.8-2.4 4.6-3.6 8.4-3.6 3.9 0 6.7 1.2 8.5 3.6 1.9 2.3 2.9 6.1 2.9 11.3v31.3c0 9.9-3.8 14.9-11.4 14.9-7.6 0-11.3-5-11.3-14.9V33.4zm6.3 41.3c1.1 1 2.8 1.4 5 1.4s3.9-.5 5-1.4c1.9-1.6 2.9-5 2.9-10V33.4c0-5-1-8.3-2.9-10-1.1-.9-2.8-1.4-5-1.4s-3.9.5-5 1.4c-1.9 1.6-2.9 5-2.9 10v31.3c0 5 1 8.3 2.9 10zM298.3 13h40.8v3.5h-40.8V13zm0 5.7h19.3v66.9H314V22.3h-15.7v-3.6zm21.5 0h19.3v3.6h-15.8v63.3h-3.5V18.7zm24.5-5.8h3.4v72.6h-3.4V12.9zm5.8 0h3.4v31.7h13.9V12.9h3.5v35.2h-20.8V12.9zm0 37.5H371v35.1h-3.5V53.9h-13.9v31.6h-3.4V50.4zm23.1-37.5h3.5v72.6h-3.5V12.9zm11.1.1h15c12.2 0 18.3 6.9 18.3 20.7 0 6.6-1.4 11.7-4.3 15.3-.2.2-.3.4-.4.5-.3.3-.5.5-.6.5 3.6 3.6 5.4 8.3 5.4 14.2v21.5h-3.5V64.1c0-4.9-1.4-8.7-4.2-11.6-1.2-1.1-2.6-2-4.1-2.6 5.5-2.1 8.2-7.5 8.2-16.3 0-5.9-1.2-10.2-3.6-13-2.4-2.8-6.2-4.2-11.3-4.2h-15V13zm0 5.7h3.4v66.9h-3.4V18.7zm5.8 0h9.2c4.4 0 7.6 1.2 9.6 3.5s2.9 6.1 2.9 11.4c0 5.3-1 9.2-2.9 11.5-1.9 2.3-5.1 3.5-9.6 3.5h-9.2V18.7zm0 32.3h9.2c4.1 0 7.2 1.1 9.4 3.4s3.3 5.5 3.3 9.7v21.5h-3.5V64.1c0-6.4-3.1-9.6-9.2-9.6h-5.7v31h-3.4V51zm9.2-5.8c2.5 0 4.3-.3 5.2-.9.8-.5 1.4-1 1.8-1.4 1.4-1.8 2.2-4.9 2.2-9.2 0-4.6-.7-7.7-2.2-9.4-1.3-1.3-3.6-2-6.9-2h-5.7v22.9h5.6zm28.8-32.3h3.4v72.6h-3.4V12.9zm5.8 0h3.4v72.6h-3.4V12.9zm28 36.4L445.2 13h3.8l16.9 36.2-17 36.4h-4l17-36.3zm5.3 2.7L483 85.6h-4l-11.9-25.4-12 25.4h-3.7L467.2 52zm-11.7-39l11.7 25.4 12-25.4h3.9l-15.8 33.5L451.6 13h3.9zm30 0h3.8l-17.2 36.3 17 36.3h-3.6l-17-36.4 17-36.2z"/><path fill="none" d="M0 0h600v95H0z"/></svg>