<svg xmlns="http://www.w3.org/2000/svg" width="600" height="95" viewBox="0 0 600 95"><path d="M79.3 12.8h15c6.2 0 10.9 1.8 14 5.4 2.9 3.4 4.4 8.4 4.4 15 0 6.7-1.5 11.8-4.6 15.3-3.1 3.5-7.7 5.2-13.8 5.2h-5.7v31.8h-3.4V50.2h9.2c5.1 0 8.9-1.4 11.3-4.1 2.4-2.8 3.6-7.1 3.6-12.9 0-5.8-1.2-10-3.6-12.8-2.4-2.8-6.2-4.1-11.3-4.1h-15v-3.5zm0 5.8h3.4v66.9h-3.4V18.6zm5.8 0h9.2c4.5 0 7.7 1.1 9.7 3.4 2 2.3 3 6 3 11.2 0 5.2-1 8.9-3 11.2-2 2.3-5.2 3.5-9.7 3.5h-9.2V18.6zm9.2 25.8c2.6 0 4.3-.3 5.2-.9.8-.5 1.4-1 1.8-1.4 1.4-1.6 2.2-4.6 2.2-9s-.7-7.4-2.2-9c-1.4-1.4-3.7-2.1-6.9-2.1h-5.7v22.4h5.6zM116.9 13h3.4v53.3c0 5.2 1.1 9.1 3.3 11.8 2.2 2.7 5.3 4 9.5 4 4.3 0 7.4-1.4 9.5-4.1 2.1-2.6 3.2-6.5 3.2-11.7V13h3.4v53.3c0 6-1.3 10.6-3.9 13.9-2.7 3.6-6.8 5.4-12.2 5.4s-9.6-1.8-12.2-5.4c-2.6-3.2-3.9-7.9-3.9-13.9V13zm5.8 0h3.4v53.3c0 4.5.8 7.4 2.5 8.8 1 .8 2.4 1.3 4.4 1.3 2 0 3.4-.4 4.4-1.3 1.7-1.4 2.5-4.3 2.5-8.8V13h3.4v53.3c0 4.7-.8 8.1-2.5 10.2-1.7 2.2-4.3 3.2-7.8 3.2s-6.1-1.1-7.8-3.2c-1.7-2.2-2.6-5.6-2.6-10.2V13zm33.8 0h15c12.2 0 18.3 6.9 18.3 20.7 0 6.6-1.4 11.7-4.3 15.3-.2.2-.3.4-.4.5-.3.3-.5.5-.6.5 3.6 3.6 5.4 8.3 5.4 14.2v21.5h-3.5V64.1c0-4.9-1.4-8.7-4.2-11.6-1.2-1.1-2.5-2-4.1-2.6 5.5-2.1 8.2-7.5 8.2-16.3 0-5.9-1.2-10.2-3.6-13-2.4-2.8-6.2-4.2-11.3-4.2h-15V13zm0 5.7h3.4v66.9h-3.4V18.7zm5.8 0h9.2c4.4 0 7.6 1.2 9.6 3.5s2.9 6.1 2.9 11.4c0 5.3-1 9.2-2.9 11.5-1.9 2.3-5.1 3.5-9.6 3.5h-9.2V18.7zm0 32.3h9.2c4.1 0 7.2 1.1 9.4 3.4s3.3 5.5 3.3 9.7v21.5h-3.5V64.1c0-6.4-3.1-9.6-9.2-9.6h-5.7v31h-3.4V51zm9.2-5.8c2.5 0 4.3-.3 5.2-.9.8-.5 1.4-1 1.8-1.4 1.4-1.8 2.2-4.9 2.2-9.2 0-4.6-.7-7.7-2.2-9.4-1.3-1.3-3.6-2-6.9-2h-5.7v22.9h5.6zm25.9-32.4h15c6.2 0 10.9 1.8 14 5.4 2.9 3.4 4.4 8.4 4.4 15 0 6.7-1.5 11.8-4.6 15.3-3.1 3.5-7.7 5.2-13.8 5.2h-5.7v31.8h-3.4V50.2h9.2c5.1 0 8.9-1.4 11.3-4.1 2.4-2.8 3.6-7.1 3.6-12.9 0-5.8-1.2-10-3.6-12.8-2.4-2.8-6.2-4.1-11.3-4.1h-15v-3.5zm0 5.8h3.4v66.9h-3.4V18.6zm5.7 0h9.2c4.5 0 7.7 1.1 9.7 3.4 2 2.3 3 6 3 11.2 0 5.2-1 8.9-3 11.2-2 2.3-5.2 3.5-9.7 3.5h-9.2V18.6zm9.2 25.8c2.6 0 4.3-.3 5.2-.9.8-.5 1.4-1 1.8-1.4 1.4-1.6 2.2-4.6 2.2-9s-.7-7.4-2.2-9c-1.4-1.4-3.7-2.1-6.9-2.1h-5.7v22.4h5.6zm22.6-31.5h3.4V82h28v3.5h-31.4V12.9zm5.8 0h3.4v63.4h22.2v3.5h-25.6V12.9zm29.1.1h29.9v3.5h-26.4v65.7h26.4v3.5h-29.9V13zm5.8 5.7h24.1v3.6H279v22.3h20.6v3.6h-24.1V18.7zm0 31.7h24.1V54H279v22.3h20.6v3.5h-24.1V50.4zM336.3 13h15c12.2 0 18.3 6.9 18.3 20.7 0 6.6-1.4 11.7-4.3 15.3-.2.2-.3.4-.4.5-.3.3-.5.5-.6.5 3.6 3.6 5.4 8.3 5.4 14.2v21.5h-3.5V64.1c0-4.9-1.4-8.7-4.2-11.6-1.2-1.1-2.5-2-4.1-2.6 5.5-2.1 8.2-7.5 8.2-16.3 0-5.9-1.2-10.2-3.6-13-2.4-2.8-6.2-4.2-11.3-4.2h-15V13zm0 5.7h3.4v66.9h-3.4V18.7zm5.7 0h9.2c4.4 0 7.6 1.2 9.6 3.5s2.9 6.1 2.9 11.4c0 5.3-1 9.2-2.9 11.5-1.9 2.3-5.1 3.5-9.6 3.5H342V18.7zm0 32.3h9.2c4.1 0 7.2 1.1 9.4 3.4s3.3 5.5 3.3 9.7v21.5h-3.5V64.1c0-6.4-3.1-9.6-9.2-9.6h-5.7v31H342V51zm9.2-5.8c2.5 0 4.3-.3 5.2-.9.8-.5 1.4-1 1.8-1.4 1.4-1.8 2.2-4.9 2.2-9.2 0-4.6-.8-7.7-2.2-9.4-1.3-1.3-3.6-2-6.9-2h-5.7v22.9h5.6zM394.8 13h7.3l16.8 72.9-3.6-.2-15.8-68.5h-2.2l-15.8 68.5H378L394.8 13zm-5.4 48.8h18l5.5 23.8h-3.5l-4.7-20.3-12.5-.1-4.6 20.2-3.6.2 5.4-23.8zm9-39.1l8.5 36.8h-17l8.5-36.8zm4.1 33.3l-4.1-17.8-4 17.7 8.1.1zm23.4-43.1h3.4v72.6h-3.4V12.9zm5.8 0h3.4v72.6h-3.4V12.9zm11-.1h7.7l17.6 44v-44h3.5v62l-23.4-58.5H446v69.1h-3.4V12.8zm5.8 10.6l23.4 58.4h2v-69h3.5v72.6h-7.8l-17.6-44v44h-3.4v-62zM484.3 13h29.9v3.5h-26.4v65.7h26.4v3.5h-29.9V13zm5.8 5.7h24.1v3.6h-20.7v22.3h20.7v3.6h-24.1V18.7zm0 31.7h24.1V54h-20.7v22.3h20.7v3.5h-24.1V50.4z"/><path fill="none" d="M0 0h600v95H0z"/></svg>