<?xml version="1.0" encoding="utf-8"?>
<!-- Generator: Adobe Illustrator 22.1.0, SVG Export Plug-In . SVG Version: 6.00 Build 0)  -->
<!DOCTYPE svg PUBLIC "-//W3C//DTD SVG 1.1//EN" "http://www.w3.org/Graphics/SVG/1.1/DTD/svg11.dtd">
<svg version="1.1" id="Layer_1" xmlns="http://www.w3.org/2000/svg" xmlns:xlink="http://www.w3.org/1999/xlink" x="0px" y="0px"
	 width="600px" height="95px" viewBox="0 0 600 95" enable-background="new 0 0 600 95" xml:space="preserve">
<g>
	<path d="M125.9,13h15c12.2,0,18.3,6.9,18.3,20.7c0,6.6-1.4,11.7-4.3,15.3c-0.2,0.2-0.3,0.4-0.4,0.5c-0.3,0.3-0.5,0.5-0.6,0.5
		c3.6,3.6,5.4,8.3,5.4,14.2v21.5h-3.5V64.1c0-4.9-1.4-8.7-4.2-11.6c-1.2-1.1-2.5-2-4.1-2.6c5.5-2.1,8.2-7.5,8.2-16.3
		c0-5.9-1.2-10.2-3.6-13c-2.4-2.8-6.2-4.2-11.3-4.2h-15V13z M125.9,18.7h3.4v66.9h-3.4V18.7z M131.7,18.7h9.2c4.4,0,7.6,1.2,9.6,3.5
		c2,2.3,2.9,6.1,2.9,11.4c0,5.3-1,9.2-2.9,11.5c-1.9,2.3-5.1,3.5-9.6,3.5h-9.2V18.7z M131.7,51h9.2c4.1,0,7.2,1.1,9.4,3.4
		c2.2,2.3,3.3,5.5,3.3,9.7v21.5h-3.5V64.1c0-6.4-3.1-9.6-9.2-9.6h-5.7v31h-3.4V51z M140.9,45.2c2.5,0,4.3-0.3,5.2-0.9
		c0.8-0.5,1.4-1,1.8-1.4c1.4-1.8,2.2-4.9,2.2-9.2c0-4.6-0.7-7.7-2.2-9.4c-1.3-1.3-3.6-2-6.9-2h-5.7v22.9H140.9z"/>
	<path d="M166.7,13h29.9v3.5h-26.4v65.7h26.4v3.5h-29.9V13z M172.5,18.7h24.1v3.6H176v22.3h20.6v3.6h-24.1V18.7z M172.5,50.4h24.1
		V54H176v22.3h20.6v3.5h-24.1V50.4z"/>
	<path d="M203.1,82.1h14.4c5,0,8.8-1.5,11.4-4.5c2.3-2.9,3.5-7.3,3.5-13V34.1c0-11.7-5-17.6-14.9-17.6h-14.4V13h14.4
		c6.2,0,10.9,2,14,5.9c2.9,3.5,4.3,8.6,4.3,15.2v30.6c0,6.8-1.5,12-4.6,15.6c-3,3.6-7.6,5.4-13.7,5.4h-14.4V82.1z M203.1,18.7h3.4
		v61h-3.4V18.7z M208.9,18.7h8.6c4.4,0,7.6,1.3,9.5,3.8c2,2.4,3,6.3,3,11.6v30.6c0,5.3-1,9.1-3,11.5c-1.9,2.4-5.1,3.7-9.5,3.7h-8.6
		V18.7z M217.5,76.3c3,0,5.1-0.6,6.3-1.7c1.8-1.8,2.7-5.2,2.7-10V34.1c0-4.8-0.9-8.1-2.7-10c-1.2-1.2-3.3-1.8-6.3-1.8h-5.2v54H217.5
		z"/>
	<path d="M271.6,82.1H286c5,0,8.8-1.5,11.4-4.5c2.3-2.9,3.5-7.3,3.5-13V34.1c0-11.7-5-17.6-14.9-17.6h-14.4V13H286
		c6.2,0,10.9,2,14,5.9c2.9,3.5,4.3,8.6,4.3,15.2v30.6c0,6.8-1.5,12-4.6,15.6s-7.6,5.4-13.7,5.4h-14.4V82.1z M271.6,18.7h3.4v61h-3.4
		V18.7z M277.3,18.7h8.6c4.4,0,7.6,1.3,9.5,3.8c2,2.4,3,6.3,3,11.6v30.6c0,5.3-1,9.1-3,11.5c-1.9,2.4-5.1,3.7-9.5,3.7h-8.6V18.7z
		 M286,76.3c3,0,5.1-0.6,6.3-1.7c1.8-1.8,2.7-5.2,2.7-10V34.1c0-4.8-0.9-8.1-2.7-10c-1.2-1.2-3.3-1.8-6.3-1.8h-5.2v54H286z"/>
	<path d="M327.6,13l7.3,0l16.8,72.9l-3.6-0.2l-15.8-68.5l-2.2,0l-15.8,68.5l-3.5,0L327.6,13z M322.2,61.8l18,0l5.5,23.8l-3.5,0
		l-4.7-20.3L325,65.2l-4.6,20.2l-3.6,0.2L322.2,61.8z M331.2,22.7l8.5,36.8l-17,0L331.2,22.7z M335.3,56l-4.1-17.8l-4,17.7L335.3,56
		z"/>
	<path d="M359.2,12.5l17.2,69.2l1.9,0L395.4,13l3.6-0.3l-18.2,73l-7.1,0L355.8,13L359.2,12.5z M365.3,13.3l12,48.6l12.3-49l3.4-0.2
		l-15.7,63.3L361.7,13L365.3,13.3z"/>
	<path d="M400.9,13h29.9v3.5h-26.4v65.7h26.4v3.5h-29.9V13z M406.7,18.7h24.1v3.6h-20.7v22.3h20.7v3.6h-24.1V18.7z M406.7,50.4h24.1
		V54h-20.7v22.3h20.7v3.5h-24.1V50.4z"/>
	<path d="M437.3,34.1c0-6.4,1.3-11.5,3.8-15.3c2.5-3.8,6.4-5.6,11.4-5.6c5.3,0,9.2,2.1,11.9,6.2c2.4,3.6,3.5,8.5,3.5,14.7v30.9
		c0,6.5-1.3,11.6-3.9,15.3c-2.6,3.7-6.4,5.6-11.5,5.6c-5.1,0-8.9-1.9-11.4-5.6s-3.8-8.8-3.8-15.3V34.1z M443.7,77.8
		c2,3,4.9,4.5,8.8,4.5c3.9,0,6.8-1.5,8.8-4.5c2-3,3-7.3,3-12.9V34.1c0-5.6-1-9.9-3-12.9c-2-3-4.9-4.5-8.9-4.5c-4,0-7,1.6-8.9,4.7
		c-1.9,2.8-2.9,7.1-2.9,12.7v30.9C440.7,70.5,441.7,74.8,443.7,77.8z M443.1,34.1c0-10,3.2-15.1,9.5-15.1c6.3,0,9.5,5,9.5,15.1v30.9
		c0,10-3.2,15.1-9.5,15.1c-6.3,0-9.5-5-9.5-15.1V34.1z M447.3,71.6c0.8,2.8,2.1,4.4,3.7,4.7c0.2,0,0.4,0.1,0.8,0.1
		c0.3,0.1,0.6,0.1,0.8,0.1c1.6,0,2.8-0.5,3.6-1.5c0.7-0.7,1.3-1.9,1.8-3.5c0.4-1.5,0.7-3.7,0.7-6.7V34.1c0-3-0.2-5.2-0.7-6.7
		c-0.9-2.8-2.1-4.3-3.7-4.7c-0.9-0.1-1.5-0.2-1.7-0.2c-1.5,0-2.7,0.5-3.6,1.5c-0.6,0.6-1.1,1.7-1.7,3.4c-0.5,1.7-0.8,3.9-0.8,6.7
		v30.9C446.5,67.7,446.8,69.9,447.3,71.6z"/>
</g>
<rect fill="none" width="600" height="95"/>
<g>
</g>
<g>
</g>
<g>
</g>
<g>
</g>
<g>
</g>
<g>
</g>
</svg>
