<svg xmlns="http://www.w3.org/2000/svg" width="600" height="95" viewBox="0 0 600 95"><path d="M125.9 13h15c12.2 0 18.3 6.9 18.3 20.7 0 6.6-1.4 11.7-4.3 15.3-.2.2-.3.4-.4.5-.3.3-.5.5-.6.5 3.6 3.6 5.4 8.3 5.4 14.2v21.5h-3.5V64.1c0-4.9-1.4-8.7-4.2-11.6-1.2-1.1-2.5-2-4.1-2.6 5.5-2.1 8.2-7.5 8.2-16.3 0-5.9-1.2-10.2-3.6-13-2.4-2.8-6.2-4.2-11.3-4.2h-15V13zm0 5.7h3.4v66.9h-3.4V18.7zm5.8 0h9.2c4.4 0 7.6 1.2 9.6 3.5s2.9 6.1 2.9 11.4c0 5.3-1 9.2-2.9 11.5-1.9 2.3-5.1 3.5-9.6 3.5h-9.2V18.7zm0 32.3h9.2c4.1 0 7.2 1.1 9.4 3.4s3.3 5.5 3.3 9.7v21.5h-3.5V64.1c0-6.4-3.1-9.6-9.2-9.6h-5.7v31h-3.4V51zm9.2-5.8c2.5 0 4.3-.3 5.2-.9.8-.5 1.4-1 1.8-1.4 1.4-1.8 2.2-4.9 2.2-9.2 0-4.6-.7-7.7-2.2-9.4-1.3-1.3-3.6-2-6.9-2h-5.7v22.9h5.6zM166.7 13h29.9v3.5h-26.4v65.7h26.4v3.5h-29.9V13zm5.8 5.7h24.1v3.6H176v22.3h20.6v3.6h-24.1V18.7zm0 31.7h24.1V54H176v22.3h20.6v3.5h-24.1V50.4zm30.6 31.7h14.4c5 0 8.8-1.5 11.4-4.5 2.3-2.9 3.5-7.3 3.5-13V34.1c0-11.7-5-17.6-14.9-17.6h-14.4V13h14.4c6.2 0 10.9 2 14 5.9 2.9 3.5 4.3 8.6 4.3 15.2v30.6c0 6.8-1.5 12-4.6 15.6-3 3.6-7.6 5.4-13.7 5.4h-14.4v-3.6zm0-63.4h3.4v61h-3.4v-61zm5.8 0h8.6c4.4 0 7.6 1.3 9.5 3.8 2 2.4 3 6.3 3 11.6v30.6c0 5.3-1 9.1-3 11.5-1.9 2.4-5.1 3.7-9.5 3.7h-8.6V18.7zm8.6 57.6c3 0 5.1-.6 6.3-1.7 1.8-1.8 2.7-5.2 2.7-10V34.1c0-4.8-.9-8.1-2.7-10-1.2-1.2-3.3-1.8-6.3-1.8h-5.2v54h5.2zm54.1 5.8H286c5 0 8.8-1.5 11.4-4.5 2.3-2.9 3.5-7.3 3.5-13V34.1c0-11.7-5-17.6-14.9-17.6h-14.4V13H286c6.2 0 10.9 2 14 5.9 2.9 3.5 4.3 8.6 4.3 15.2v30.6c0 6.8-1.5 12-4.6 15.6s-7.6 5.4-13.7 5.4h-14.4v-3.6zm0-63.4h3.4v61h-3.4v-61zm5.7 0h8.6c4.4 0 7.6 1.3 9.5 3.8 2 2.4 3 6.3 3 11.6v30.6c0 5.3-1 9.1-3 11.5-1.9 2.4-5.1 3.7-9.5 3.7h-8.6V18.7zm8.7 57.6c3 0 5.1-.6 6.3-1.7 1.8-1.8 2.7-5.2 2.7-10V34.1c0-4.8-.9-8.1-2.7-10-1.2-1.2-3.3-1.8-6.3-1.8h-5.2v54h5.2zM327.6 13h7.3l16.8 72.9-3.6-.2-15.8-68.5h-2.2l-15.8 68.5h-3.5L327.6 13zm-5.4 48.8h18l5.5 23.8h-3.5l-4.7-20.3-12.5-.1-4.6 20.2-3.6.2 5.4-23.8zm9-39.1l8.5 36.8h-17l8.5-36.8zm4.1 33.3l-4.1-17.8-4 17.7 8.1.1zm23.9-43.5l17.2 69.2h1.9L395.4 13l3.6-.3-18.2 73h-7.1L355.8 13l3.4-.5zm6.1.8l12 48.6 12.3-49 3.4-.2L377.3 76l-15.6-63 3.6.3zm35.6-.3h29.9v3.5h-26.4v65.7h26.4v3.5h-29.9V13zm5.8 5.7h24.1v3.6h-20.7v22.3h20.7v3.6h-24.1V18.7zm0 31.7h24.1V54h-20.7v22.3h20.7v3.5h-24.1V50.4zm30.6-16.3c0-6.4 1.3-11.5 3.8-15.3 2.5-3.8 6.4-5.6 11.4-5.6 5.3 0 9.2 2.1 11.9 6.2 2.4 3.6 3.5 8.5 3.5 14.7V65c0 6.5-1.3 11.6-3.9 15.3-2.6 3.7-6.4 5.6-11.5 5.6s-8.9-1.9-11.4-5.6-3.8-8.8-3.8-15.3V34.1zm6.4 43.7c2 3 4.9 4.5 8.8 4.5 3.9 0 6.8-1.5 8.8-4.5 2-3 3-7.3 3-12.9V34.1c0-5.6-1-9.9-3-12.9s-4.9-4.5-8.9-4.5-7 1.6-8.9 4.7c-1.9 2.8-2.9 7.1-2.9 12.7V65c.1 5.5 1.1 9.8 3.1 12.8zm-.6-43.7c0-10 3.2-15.1 9.5-15.1s9.5 5 9.5 15.1V65c0 10-3.2 15.1-9.5 15.1s-9.5-5-9.5-15.1V34.1zm4.2 37.5c.8 2.8 2.1 4.4 3.7 4.7.2 0 .4.1.8.1.3.1.6.1.8.1 1.6 0 2.8-.5 3.6-1.5.7-.7 1.3-1.9 1.8-3.5.4-1.5.7-3.7.7-6.7V34.1c0-3-.2-5.2-.7-6.7-.9-2.8-2.1-4.3-3.7-4.7-.9-.1-1.5-.2-1.7-.2-1.5 0-2.7.5-3.6 1.5-.6.6-1.1 1.7-1.7 3.4-.5 1.7-.8 3.9-.8 6.7V65c0 2.7.3 4.9.8 6.6z"/><path fill="none" d="M0 0h600v95H0z"/></svg>