<svg xmlns="http://www.w3.org/2000/svg" width="600" height="95" viewBox="0 0 600 95"><path d="M58.3 18.7c3.2-3.8 7.3-5.7 12.4-5.7 5.8 0 10.1 1.9 13 5.7 2.8 3.6 4.2 8.7 4.2 15.1v4.6h-3.5v-4.6c0-11.5-4.6-17.3-13.7-17.3-4.3 0-7.7 1.6-10.1 4.8-2.4 3.2-3.6 7.4-3.6 12.5 0 5 1.6 9 4.9 12 1.8 1.8 4.4 3.4 7.6 4.7l1.7.8c3 1.2 5.3 2.5 6.7 3.9 2.9 2.7 4.3 6.1 4.3 10.3 0 4.5-1 8-3 10.5s-4.8 3.8-8.4 3.8c-3.9 0-6.8-1.2-8.6-3.6s-2.8-6.1-2.8-11.2v-4.6h3.4V65c0 4.2.7 7.3 2.2 9.1.3.4.8.9 1.7 1.4.9.5 2.3.8 4 .8 3 0 5.3-1.3 6.7-3.9.8-1.6 1.2-3.9 1.2-6.9 0-3-.9-5.5-2.8-7.4-1.3-1.3-3.3-2.4-6-3.6l-1.8-.8c-3.7-1.5-6.6-3.3-8.7-5.4-3.9-3.9-5.9-8.7-5.9-14.6.1-6.3 1.7-11.4 4.9-15zm-4.8 41.7H57V65c0 11.4 4.6 17.1 13.8 17.1 4.5 0 8-1.6 10.3-4.9 2.3-2.9 3.4-6.8 3.4-11.7 0-4.9-1.6-8.9-4.9-11.9-1.8-1.7-4.4-3.1-7.6-4.4l-1.6-.7c-3-1.2-5.3-2.7-6.9-4.3-2.8-2.7-4.2-6.1-4.2-10.3 0-4.1.8-7.5 2.5-10.1 2.2-3.3 5.1-5 8.9-5 7.6 0 11.5 5 11.5 15v4.6h-3.5v-4.6c0-5.1-1-8.4-2.9-10.1-1.1-.9-2.8-1.4-5-1.4-3.2 0-5.4 1.5-6.7 4.6-.8 1.8-1.2 4-1.2 6.8 0 3 .9 5.5 2.8 7.5 1.6 1.7 3.6 3 6.3 3.9l1.6.7.6.2c.4.2.6.3.7.3.1 0 .3.2.7.3.4.2.7.3.9.4.2.1.5.2.9.4s.7.4 1 .5c.2.2.5.4.9.6.4.2.7.5 1 .7.3.2.6.5.9.7.3.3.7.6 1 .9 4 3.8 6.1 8.6 6.1 14.5 0 5.8-1.5 10.6-4.6 14.4-3.1 3.8-7.3 5.7-12.6 5.7-5.7 0-10-1.8-12.9-5.4-2.9-3.6-4.3-8.7-4.3-15.2v-4.4zM92.4 13h3.4v53.3c0 5.2 1.1 9.1 3.3 11.8 2.2 2.7 5.3 4 9.5 4 4.3 0 7.4-1.4 9.5-4.1 2.1-2.6 3.2-6.5 3.2-11.7V13h3.4v53.3c0 6-1.3 10.6-3.9 13.9-2.7 3.6-6.8 5.4-12.2 5.4s-9.6-1.8-12.2-5.4c-2.6-3.2-3.9-7.9-3.9-13.9V13zm5.8 0h3.4v53.3c0 4.5.8 7.4 2.5 8.8 1 .8 2.4 1.3 4.4 1.3 2 0 3.4-.4 4.4-1.3 1.7-1.4 2.5-4.3 2.5-8.8V13h3.4v53.3c0 4.7-.8 8.1-2.5 10.2-1.7 2.2-4.3 3.2-7.8 3.2s-6.1-1.1-7.8-3.2c-1.7-2.2-2.6-5.6-2.6-10.2V13zM132 82.1h13.9c4.9 0 8.5-1.4 10.8-4.1 2.3-2.7 3.4-7 3.4-12.8 0-5.7-1.1-10-3.3-12.8-1.1-1.3-2.5-2.4-4.2-3.2 5-2.1 7.6-7.4 7.6-15.8 0-5.8-1.1-10-3.4-12.8-2.3-2.7-5.9-4.1-10.8-4.1h-14V13h13.9c6 0 10.4 1.7 13.3 5.2 2.9 3.5 4.4 8.6 4.4 15.2 0 6.5-1.4 11.5-4.3 15-.4.5-.6.8-.8 1 .4.4.7.7.8.9 2.8 3.5 4.3 8.5 4.3 15 0 13.6-5.9 20.4-17.7 20.4H132v-3.6zm0-63.4h3.4v61H132v-61zm5.8 0h8.1c4.2 0 7.3 1.2 9.2 3.5s2.8 6 2.8 11.2c0 5.2-.9 8.9-2.8 11.3-1.9 2.3-4.9 3.5-9.1 3.5h-8.1V18.7zm0 31.7h8.1c4.2 0 7.2 1.2 9.1 3.5 1.9 2.3 2.8 6.1 2.8 11.3 0 5.1-.9 8.8-2.8 11.1s-4.9 3.5-9.2 3.5h-8.1V50.4zm8.1-5.8c2.2 0 3.7-.2 4.5-.7 1-.5 1.6-1 1.9-1.5 1.4-1.7 2.1-4.7 2.1-9.1 0-4.7-.8-7.8-2.3-9.4-1.2-1.1-3.2-1.7-6.1-1.7h-4.7v22.3h4.6zm0 31.7c2.9 0 4.9-.5 6.1-1.6 1.6-1.6 2.3-4.7 2.3-9.5 0-4.7-.8-7.8-2.4-9.6-1.1-1.1-3.1-1.6-6-1.6h-4.7v22.3h4.7zm22.9-14.8h3.4v4.7c0 5.3 1.1 9.2 3.2 11.9 2.2 2.6 5.3 4 9.5 4 8.5 0 12.7-5.3 12.7-15.8V12.9h3.4v53.3c0 6.1-1.3 10.7-3.9 14-2.7 3.6-6.8 5.3-12.2 5.3-5.3 0-9.4-1.8-12.2-5.3-2.6-3.2-3.9-7.9-3.9-14v-4.7zm5.8 0h3.4v4.7c0 4.5.8 7.4 2.5 8.8 1 .8 2.4 1.3 4.4 1.3 1.7 0 2.9-.2 3.5-.7.8-.4 1.3-.8 1.5-1.2 1.2-1.6 1.9-4.4 1.9-8.2V12.9h3.4v53.3c0 4.7-.8 8.1-2.5 10.2-1.7 2.2-4.3 3.2-7.8 3.2s-6.1-1.1-7.8-3.2c-1.7-2.2-2.6-5.6-2.6-10.2v-4.7zM208.5 13h29.9v3.5H212v65.7h26.4v3.5h-29.9V13zm5.8 5.7h24.1v3.6h-20.6v22.3h20.6v3.6h-24.1V18.7zm0 31.7h24.1V54h-20.6v22.3h20.6v3.5h-24.1V50.4zm30.5-16.7c0-6.5 1.4-11.4 4.1-14.9 1.4-1.6 2.9-2.9 4.7-3.9 2.4-1.3 5.2-1.9 8.3-1.9 5.6 0 10 1.9 13 5.8 2.8 3.5 4.2 8.5 4.2 14.9v4.6h-3.5v-4.6c0-5.7-1.1-10-3.4-12.9s-5.7-4.3-10.2-4.3c-4.5 0-7.9 1.4-10.3 4.3-2.3 3-3.4 7.3-3.4 12.9v31.2c0 6.5 1.5 11.2 4.5 14 2.3 2.2 5.4 3.2 9.2 3.2 3.8 0 6.8-1.1 9.1-3.2 3-2.8 4.5-7.5 4.5-14v-4.7h3.5v4.7c0 6.4-1.4 11.3-4.2 14.9-3 3.9-7.3 5.8-13 5.8-3.2 0-6-.7-8.3-2-1.7-.9-3.3-2.1-4.7-3.9-2.7-3.5-4.1-8.5-4.1-14.9V33.7zm5.8 0c0-9.9 3.8-14.9 11.3-14.9 7.6 0 11.4 5 11.4 14.9v4.6h-3.5v-4.6c0-5-.9-8.3-2.8-10-1.1-.9-2.8-1.4-5-1.4s-3.9.5-5 1.4c-1.9 1.6-2.9 5-2.9 10v31.2c0 4.2.7 7.3 2.2 9.1.9 1.5 2.8 2.3 5.6 2.3 2.7 0 4.6-.8 5.7-2.3 1.4-1.8 2.2-4.9 2.2-9.1v-4.7h3.5v4.7c0 9.9-3.8 14.9-11.4 14.9-7.6 0-11.3-5-11.3-14.9V33.7zM283.9 13h40.8v3.5h-40.8V13zm0 5.7h19.3v66.9h-3.5V22.3H284v-3.6zm21.5 0h19.3v3.6h-15.8v63.3h-3.5V18.7zm24.6 15c0-6.5 1.4-11.4 4.1-14.9 1.4-1.6 2.9-2.9 4.7-3.9 2.4-1.3 5.2-1.9 8.3-1.9 5.6 0 10 1.9 13 5.8 2.8 3.5 4.2 8.5 4.2 14.9v4.6h-3.5v-4.6c0-5.7-1.1-10-3.4-12.9-2.3-2.9-5.7-4.3-10.2-4.3-4.5 0-7.9 1.4-10.3 4.3-2.3 3-3.4 7.3-3.4 12.9v31.2c0 6.5 1.5 11.2 4.5 14 2.3 2.2 5.4 3.2 9.2 3.2 3.8 0 6.8-1.1 9.1-3.2 3-2.8 4.5-7.5 4.5-14v-4.7h3.5v4.7c0 6.4-1.4 11.3-4.2 14.9-3 3.9-7.3 5.8-13 5.8-3.2 0-6-.7-8.3-2-1.7-.9-3.2-2.1-4.7-3.9-2.7-3.5-4.1-8.5-4.1-14.9V33.7zm5.8 0c0-9.9 3.8-14.9 11.3-14.9 7.6 0 11.4 5 11.4 14.9v4.6H355v-4.6c0-5-.9-8.3-2.8-10-1.1-.9-2.8-1.4-5-1.4s-3.9.5-5 1.4c-1.9 1.6-2.9 5-2.9 10v31.2c0 4.2.7 7.3 2.2 9.1.9 1.5 2.8 2.3 5.6 2.3 2.7 0 4.6-.8 5.7-2.3 1.4-1.8 2.2-4.9 2.2-9.1v-4.7h3.5v4.7c0 9.9-3.8 14.9-11.4 14.9-7.6 0-11.3-5-11.3-14.9V33.7zM387.7 13h7.3l16.8 72.9-3.6-.2-15.8-68.5h-2.2l-15.8 68.5h-3.5L387.7 13zm-5.4 48.8h18l5.5 23.8h-3.5l-4.7-20.3-12.5-.1-4.6 20.2-3.6.2 5.4-23.8zm9-39.1l8.5 36.8h-17l8.5-36.8zm4.1 33.3l-4.1-17.8-4 17.7 8.1.1zm20.5-43.2h7.7l17.6 44v-44h3.5v62l-23.4-58.5h-2.1v69.1h-3.4V12.8zm5.8 10.6L445 81.9h2V12.8h3.5v72.6h-7.8l-17.6-44v44h-3.4v-62zm35.8 58.7h14.4c5 0 8.8-1.5 11.4-4.5 2.3-2.9 3.5-7.3 3.5-13V34.1c0-11.7-5-17.6-14.9-17.6h-14.4V13h14.4c6.2 0 10.9 2 14 5.9 2.9 3.5 4.3 8.6 4.3 15.2v30.6c0 6.8-1.5 12-4.6 15.6-3 3.6-7.6 5.4-13.7 5.4h-14.4v-3.6zm0-63.4h3.4v61h-3.4v-61zm5.7 0h8.6c4.4 0 7.6 1.3 9.5 3.8 2 2.4 3 6.3 3 11.6v30.6c0 5.3-1 9.1-3 11.5-1.9 2.4-5.1 3.7-9.5 3.7h-8.6V18.7zm8.6 57.6c3 0 5-.6 6.3-1.7 1.8-1.8 2.7-5.2 2.7-10V34.1c0-4.8-.9-8.1-2.7-10-1.2-1.2-3.3-1.8-6.3-1.8h-5.2v54h5.2zm24-63.3l20 36.6v36h-3.3V50.5L491.9 13h3.9zm6.6 0L517 39.7 531.7 13h3.7l-18.5 33.9L498.4 13h4zM518 49.6L538.1 13h4.2l-20.7 37.5v35.1H518v-36z"/><path fill="none" d="M0 0h600v95H0z"/></svg>