<svg xmlns="http://www.w3.org/2000/svg" width="600" height="95" viewBox="0 0 600 95"><path d="M168 13.5l15 68.3h2.1L198 23.3l12.8 58.5h2.1l15-68.8 3.6-.3-16 72.9H208l-10.1-46.4-10.2 46.4h-7.4L164.4 13l3.6.5zm5.9-.5l10.2 46.4L194.2 13h7.4l10.1 46.5L221.9 13l3.5-.1-13.7 62.6L199 16.8h-2.1l-12.8 58.6L170.4 13h3.5zm61 0h29.9v3.5h-26.4v65.7h26.4v3.5h-29.9V13zm5.7 5.7h24.1v3.6h-20.6v22.3h20.6v3.6h-24.1V18.7zm0 31.7h24.1V54h-20.6v22.3h20.6v3.5h-24.1V50.4zm30.6-37.5h3.4V82h28v3.5h-31.4V12.9zm5.8 0h3.4v63.4h22.2v3.5H277V12.9zm33.9 5.8c3.2-3.8 7.3-5.7 12.4-5.7 5.8 0 10.1 1.9 13 5.7 2.8 3.6 4.2 8.7 4.2 15.1v4.6H337v-4.6c0-11.5-4.6-17.3-13.7-17.3-4.3 0-7.7 1.6-10.1 4.8-2.4 3.2-3.6 7.4-3.6 12.5 0 5 1.6 9 4.9 12 1.8 1.8 4.4 3.4 7.6 4.7l1.7.8c3 1.2 5.3 2.5 6.7 3.9 2.9 2.7 4.3 6.1 4.3 10.3 0 4.5-1 8-3 10.5s-4.8 3.8-8.4 3.8c-3.9 0-6.8-1.2-8.6-3.6S312 70.1 312 65v-4.6h3.4V65c0 4.2.7 7.3 2.2 9.1.3.4.8.9 1.7 1.4.9.5 2.3.8 4 .8 3 0 5.3-1.3 6.7-3.9.8-1.6 1.2-3.9 1.2-6.9 0-3-.9-5.5-2.8-7.4-1.3-1.3-3.3-2.4-6-3.6l-1.8-.8c-3.7-1.5-6.6-3.3-8.7-5.4-3.9-3.9-5.9-8.7-5.9-14.6.1-6.3 1.7-11.4 4.9-15zm-4.8 41.7h3.4V65c0 11.4 4.6 17.1 13.8 17.1 4.5 0 8-1.6 10.3-4.9 2.3-2.9 3.4-6.8 3.4-11.7 0-4.9-1.6-8.9-4.9-11.9-1.8-1.7-4.4-3.1-7.6-4.4l-1.6-.7c-3-1.2-5.3-2.7-6.9-4.3-2.8-2.7-4.2-6.1-4.2-10.3 0-4.1.8-7.5 2.5-10.1 2.2-3.3 5.1-5 8.9-5 7.6 0 11.5 5 11.5 15v4.6h-3.5v-4.6c0-5.1-1-8.4-2.9-10.1-1.1-.9-2.8-1.4-5-1.4-3.2 0-5.4 1.5-6.7 4.6-.8 1.8-1.2 4-1.2 6.8 0 3 .9 5.5 2.8 7.5 1.6 1.7 3.6 3 6.3 3.9l1.6.7.6.2c.4.2.6.3.7.3.1 0 .3.2.7.3.4.2.7.3.9.4.2.1.5.2.9.4s.7.4 1 .5c.2.2.5.4.9.6.4.2.7.5 1 .7.3.2.6.5.9.7.3.3.7.6 1 .9 4 3.8 6.1 8.6 6.1 14.5 0 5.8-1.5 10.6-4.6 14.4-3.1 3.8-7.3 5.7-12.6 5.7-5.7 0-10-1.8-12.9-5.4-2.9-3.6-4.3-8.7-4.3-15.2v-4.4zm38.8-47.5h3.4v72.6h-3.4V12.9zm5.8 0h3.4v31.7H368V12.9h3.5v35.2h-20.8V12.9zm0 37.5h20.8v35.1H368V53.9h-13.9v31.6h-3.4V50.4zm23.1-37.5h3.5v72.6h-3.5V12.9zm11.1.1l20 36.6v36h-3.3V50.5L381 13h3.9zm6.7 0l14.6 26.7L420.9 13h3.7l-18.5 33.9L387.6 13h4zm15.6 36.6l20-36.6h4.2l-20.6 37.5v35.1h-3.6v-36z"/><path fill="none" d="M0 0h600v95H0z"/></svg>