<?xml version="1.0" encoding="utf-8"?>
<!-- Generator: Adobe Illustrator 20.0.0, SVG Export Plug-In . SVG Version: 6.00 Build 0)  -->
<!DOCTYPE svg PUBLIC "-//W3C//DTD SVG 1.1//EN" "http://www.w3.org/Graphics/SVG/1.1/DTD/svg11.dtd">
<svg version="1.1" id="Layer_1" xmlns="http://www.w3.org/2000/svg" xmlns:xlink="http://www.w3.org/1999/xlink" x="0px" y="0px"
	 width="600px" height="95px" viewBox="0 0 600 95" enable-background="new 0 0 600 95" xml:space="preserve">
<g>
	<path d="M168,13.5l15,68.3l2.1,0l12.9-58.5l12.8,58.5l2.1,0l15-68.8l3.6-0.3l-16,72.9l-7.5,0l-10.1-46.4l-10.2,46.4l-7.4,0
		L164.4,13L168,13.5z M173.9,13l10.2,46.4L194.2,13l7.4,0l10.1,46.5L221.9,13l3.5-0.1l-13.7,62.6L199,16.8l-2.1,0l-12.8,58.6
		L170.4,13L173.9,13z"/>
	<path d="M234.9,13h29.9v3.5h-26.4v65.7h26.4v3.5h-29.9V13z M240.6,18.7h24.1v3.6h-20.6v22.3h20.6v3.6h-24.1V18.7z M240.6,50.4h24.1
		V54h-20.6v22.3h20.6v3.5h-24.1V50.4z"/>
	<path d="M271.2,12.9h3.4V82h28v3.5h-31.4V12.9z M277,12.9h3.4v63.4h22.2v3.5H277V12.9z"/>
	<path d="M310.9,18.7c3.2-3.8,7.3-5.7,12.4-5.7c5.8,0,10.1,1.9,13,5.7c2.8,3.6,4.2,8.7,4.2,15.1v4.6H337v-4.6
		c0-11.5-4.6-17.3-13.7-17.3c-4.3,0-7.7,1.6-10.1,4.8c-2.4,3.2-3.6,7.4-3.6,12.5c0,5,1.6,9,4.9,12c1.8,1.8,4.4,3.4,7.6,4.7l1.7,0.8
		c3,1.2,5.3,2.5,6.7,3.9c2.9,2.7,4.3,6.1,4.3,10.3c0,4.5-1,8-3,10.5c-2,2.5-4.8,3.8-8.4,3.8c-3.9,0-6.8-1.2-8.6-3.6
		s-2.8-6.1-2.8-11.2v-4.6h3.4V65c0,4.2,0.7,7.3,2.2,9.1c0.3,0.4,0.8,0.9,1.7,1.4c0.9,0.5,2.3,0.8,4,0.8c3,0,5.3-1.3,6.7-3.9
		c0.8-1.6,1.2-3.9,1.2-6.9c0-3-0.9-5.5-2.8-7.4c-1.3-1.3-3.3-2.4-6-3.6l-1.8-0.8c-3.7-1.5-6.6-3.3-8.7-5.4
		c-3.9-3.9-5.9-8.7-5.9-14.6C306.1,27.4,307.7,22.3,310.9,18.7z M306.1,60.4h3.4V65c0,11.4,4.6,17.1,13.8,17.1c4.5,0,8-1.6,10.3-4.9
		c2.3-2.9,3.4-6.8,3.4-11.7c0-4.9-1.6-8.9-4.9-11.9c-1.8-1.7-4.4-3.1-7.6-4.4l-1.6-0.7c-3-1.2-5.3-2.7-6.9-4.3
		c-2.8-2.7-4.2-6.1-4.2-10.3c0-4.1,0.8-7.5,2.5-10.1c2.2-3.3,5.1-5,8.9-5c7.6,0,11.5,5,11.5,15v4.6h-3.5v-4.6c0-5.1-1-8.4-2.9-10.1
		c-1.1-0.9-2.8-1.4-5-1.4c-3.2,0-5.4,1.5-6.7,4.6c-0.8,1.8-1.2,4-1.2,6.8c0,3,0.9,5.5,2.8,7.5c1.6,1.7,3.6,3,6.3,3.9l1.6,0.7
		l0.6,0.2c0.4,0.2,0.6,0.3,0.7,0.3c0.1,0,0.3,0.2,0.7,0.3c0.4,0.2,0.7,0.3,0.9,0.4c0.2,0.1,0.5,0.2,0.9,0.4c0.4,0.2,0.7,0.4,1,0.5
		c0.2,0.2,0.5,0.4,0.9,0.6c0.4,0.2,0.7,0.5,1,0.7c0.3,0.2,0.6,0.5,0.9,0.7c0.3,0.3,0.7,0.6,1,0.9c4,3.8,6.1,8.6,6.1,14.5
		c0,5.8-1.5,10.6-4.6,14.4c-3.1,3.8-7.3,5.7-12.6,5.7c-5.7,0-10-1.8-12.9-5.4c-2.9-3.6-4.3-8.7-4.3-15.2V60.4z"/>
	<path d="M344.9,12.9h3.4v72.6h-3.4V12.9z M350.7,12.9h3.4v31.7H368V12.9h3.5v35.2h-20.8V12.9z M350.7,50.4h20.8v35.1H368V53.9
		h-13.9v31.6h-3.4V50.4z M373.8,12.9h3.5v72.6h-3.5V12.9z"/>
	<path d="M384.9,13l20,36.6v36h-3.3V50.5L381,13H384.9z M391.6,13l14.6,26.7L420.9,13h3.7l-18.5,33.9L387.6,13H391.6z M407.2,49.6
		L427.2,13h4.2l-20.6,37.5v35.1h-3.6V49.6z"/>
</g>
<rect fill="none" width="600" height="95"/>
<g>
</g>
<g>
</g>
<g>
</g>
<g>
</g>
<g>
</g>
<g>
</g>
</svg>
