<svg xmlns="http://www.w3.org/2000/svg" width="600" height="95" viewBox="0 0 600 95"><path d="M110.9 13.5l15 68.3h2.1l12.9-58.5 12.8 58.5h2.1l15-68.8 3.6-.3-16 72.9h-7.5l-10.1-46.4-10.2 46.4h-7.4L107.3 13l3.6.5zm5.9-.5L127 59.4 137.1 13h7.4l10.1 46.5L164.8 13l3.5-.1-13.7 62.6-12.8-58.7h-2.1l-12.8 58.6L113.2 13h3.6zm60.9-.1h3.4v72.6h-3.4V12.9zm5.8 0h3.4v31.7h13.9V12.9h3.5v35.2h-20.8V12.9zm0 37.5h20.8v35.1h-3.5V53.9h-13.9v31.6h-3.4V50.4zm23.1-37.5h3.5v72.6h-3.5V12.9zm11.1.1h29.9v3.5h-26.4v65.7h26.4v3.5h-29.9V13zm5.8 5.7h24.1v3.6H227v22.3h20.6v3.6h-24.1V18.7zm0 31.7h24.1V54H227v22.3h20.6v3.5h-24.1V50.4zM271.8 13h7.3l16.8 72.9-3.6-.2-15.8-68.5h-2.2l-15.8 68.5H255L271.8 13zm-5.4 48.8h18l5.5 23.8h-3.5l-4.7-20.3-12.5-.1-4.6 20.2-3.6.2 5.4-23.8zm9-39.1l8.5 36.8h-17l8.5-36.8zm4.1 33.3l-4.1-17.8-4 17.7 8.1.1zM299 13h40.8v3.5H299V13zm0 5.7h19.3v66.9h-3.5V22.3H299v-3.6zm21.5 0h19.3v3.6H324v63.3h-3.5V18.7zm24.6 14.7c0-6.4 1.4-11.3 4.1-14.9 2.9-3.8 7.3-5.7 13-5.7 5.8 0 10.1 1.9 13.1 5.7 2.7 3.6 4.1 8.6 4.1 14.9v31.3c0 6.4-1.4 11.4-4.1 14.9-1.5 1.8-3 3-4.6 3.9-2.4 1.3-5.2 2-8.5 2-5.6 0-10-1.9-13-5.8-2.7-3.5-4.1-8.5-4.1-14.9V33.4zm7 44.1c2.3 3 5.7 4.4 10.2 4.4s7.8-1.5 10.2-4.5c2.4-3 3.5-7.2 3.5-12.8V33.4c0-5.6-1.2-9.8-3.5-12.8-2.3-2.9-5.7-4.4-10.2-4.4-4.5 0-7.9 1.5-10.2 4.4-2.3 2.9-3.5 7.2-3.5 12.8v31.3c-.1 5.6 1.1 9.9 3.5 12.8zm-1.2-44.1c0-5.2 1-8.9 2.9-11.3 1.8-2.4 4.6-3.6 8.4-3.6 3.9 0 6.7 1.2 8.5 3.6 1.9 2.3 2.9 6.1 2.9 11.3v31.3c0 9.9-3.8 14.9-11.4 14.9-7.6 0-11.3-5-11.3-14.9V33.4zm6.3 41.3c1.1 1 2.8 1.4 5 1.4s3.9-.5 5-1.4c1.9-1.6 2.9-5 2.9-10V33.4c0-5-1-8.3-2.9-10-1.1-.9-2.8-1.4-5-1.4s-3.9.5-5 1.4c-1.9 1.6-2.9 5-2.9 10v31.3c0 5 1 8.3 2.9 10zm27.5-11.2h3.4v3.2c0 5 1 8.8 3.1 11.6 2.1 2.7 5 4.1 8.7 4.1 4 0 7-1.8 8.9-5.5 2-3.7 2.9-8.9 2.9-15.8V31.6c0-4.7-1-8.4-3.1-11-2.1-2.6-5-3.9-8.7-3.9-3.6 0-6.5 1.5-8.6 4.6-2.1 3.1-3.2 7.3-3.2 12.5v7.3c0 5.7 1 9.9 2.9 12.6 2 3 4.9 4.6 8.9 4.6 2.1 0 4-.5 5.6-1.6s2.9-2.6 3.9-4.6v9c0 5.4-.6 9.6-1.8 12.7-1.6 4.1-4.1 6.2-7.7 6.2-3.1 0-5.4-1.1-7-3.4-1.6-2.3-2.4-5.6-2.4-9.9v-3.2h3.4v3.2c0 4.2.8 7.1 2.5 8.6.9.9 2.1 1.3 3.5 1.3 2.4 0 4.1-1.8 5.1-5.5.6-2.7 1-6 1-10v-.7c-1.8.9-3.9 1.3-6.1 1.3-5 0-8.8-1.8-11.4-5.5-2.6-3.6-3.8-8.7-3.8-15.1v-7.3c0-5.5 1.1-10.1 3.4-13.8 2.8-4.6 6.8-6.9 11.8-6.9 5 0 8.9 1.8 11.8 5.5 2.4 3.3 3.6 7.7 3.6 12.9V61c0 7-1.1 12.7-3.2 17.1-2.8 5.1-6.8 7.6-12.1 7.6-5.1 0-9-1.9-11.7-5.8-2.4-3.3-3.5-7.7-3.5-13.3v-3.1zm5.8-29.6c0-4.5.8-8.1 2.5-10.8s4-4 7-4c3.2 0 5.5 1.1 7.1 3.2 1.6 2.2 2.4 5.3 2.4 9.4v9.6c0 4.4-.9 8-2.6 10.7-1.7 2.7-4 4.1-7 4.1-6.3 0-9.5-4.9-9.5-14.8v-7.4zm4.1 13.8c.7 2.7 1.9 4.3 3.6 4.6.9.1 1.5.2 1.7.2 2.5 0 4.2-1.7 5.2-5.1.6-2 .9-4.1.9-6.2v-9.6c0-3.8-.8-6.5-2.4-8-.9-.7-2.1-1.1-3.6-1.1-2.5 0-4.2 1.7-5.3 5.2-.5 1.8-.8 3.8-.8 6.1v7.3c.1 3 .3 5.2.7 6.6zm26.1 12.8h3.4v4.6c0 6.6 1.3 11.3 3.9 14 2 2.2 4.6 3.2 7.9 3.2 3.7 0 6.6-1.5 8.7-4.5 2.1-3 3.2-7.1 3.2-12.2 0-5.5-1.7-9.8-5.1-13.1-1.2-1.2-2.6-2.2-4.3-2.9 1.8-.9 3.2-1.9 4.3-3 1.1-1.1 2.3-2.8 3.4-4.8 1.1-2.1 1.7-4.8 1.7-8.3 0-5.1-1.1-9.2-3.2-12.3s-5-4.5-8.7-4.5c-4 0-7 1.6-8.9 4.7-1.9 2.8-2.9 7-2.9 12.6v4.6h-3.4V34c0-6.4 1.3-11.5 3.9-15.2 2.6-3.7 6.4-5.6 11.4-5.6 3.3 0 6.1 1 8.5 2.9 2.4 1.9 4.1 4.4 5.2 7.4 1.1 3 1.6 6.3 1.6 10 0 6.4-2.1 11.6-6.2 15.6l-.2.2-.3.2.5.5c4.1 3.9 6.2 9 6.2 15.5 0 5.5-1.1 10-3.4 13.6-2.8 4.4-6.8 6.6-12 6.6s-9.1-2-11.8-6.1c-2.3-3.6-3.4-8.5-3.4-14.6v-4.5zm5.8-26.5c0-10 3.2-15 9.5-15 2.9 0 5.2 1.3 7 4 1.7 2.6 2.6 6.2 2.6 10.5 0 4.7-1.4 8.4-4.1 11.3-2.4 2.4-5.1 3.7-7.9 3.7H429v-3.6h4.4c.7 0 1.6-.2 2.6-.6 1-.4 1.9-1.1 2.8-1.9 2.1-2.1 3.2-5.1 3.2-8.9 0-.6 0-1.4-.1-2.2-.2-2.9-1.1-5.3-2.5-7.2-.8-1.1-2-1.6-3.4-1.6-1.5 0-2.7.5-3.6 1.4-.6.6-1.2 1.8-1.7 3.5s-.8 3.9-.8 6.6v4.6h-3.4V34zm0 26.5h3.4v4.6c0 2.8.2 4.9.7 6.2.4 1.6.8 2.7 1.2 3.3.8 1.3 2.2 2 4.1 2 2.5 0 4.2-1.6 5.2-4.8.6-1.8.9-3.9.9-6.2 0-3.8-1.1-6.7-3.2-8.9-.8-.8-1.7-1.4-2.7-1.8-1-.4-1.9-.6-2.7-.6H429v-3.6h4.4c2.7 0 5.3 1.2 7.7 3.5 2.9 2.9 4.3 6.7 4.3 11.4 0 4.4-.8 7.9-2.5 10.5-1.7 2.6-4 3.9-7 3.9-6.3 0-9.5-5-9.5-14.9v-4.6zM456 34.1c0-6.4 1.3-11.5 3.8-15.3 2.5-3.8 6.4-5.6 11.4-5.6 5.3 0 9.2 2.1 11.9 6.2 2.4 3.6 3.5 8.5 3.5 14.7V65c0 6.5-1.3 11.6-3.9 15.3-2.6 3.7-6.4 5.6-11.5 5.6s-8.9-1.9-11.4-5.6S456 71.5 456 65V34.1zm6.4 43.7c2 3 4.9 4.5 8.8 4.5 3.9 0 6.8-1.5 8.8-4.5 2-3 3-7.3 3-12.9V34.1c0-5.6-1-9.9-3-12.9s-4.9-4.5-8.9-4.5-7 1.6-8.9 4.7c-1.9 2.8-2.9 7.1-2.9 12.7V65c.1 5.5 1.1 9.8 3.1 12.8zm-.7-43.7c0-10 3.2-15.1 9.5-15.1s9.5 5 9.5 15.1V65c0 10-3.2 15.1-9.5 15.1s-9.5-5-9.5-15.1V34.1zm4.2 37.5c.8 2.8 2.1 4.4 3.7 4.7.2 0 .4.1.8.1.3.1.6.1.8.1 1.6 0 2.8-.5 3.6-1.5.7-.7 1.3-1.9 1.8-3.5.4-1.5.7-3.7.7-6.7V34.1c0-3-.2-5.2-.7-6.7-.9-2.8-2.1-4.3-3.7-4.7-.9-.1-1.5-.2-1.7-.2-1.5 0-2.7.5-3.6 1.5-.6.6-1.1 1.7-1.7 3.4-.5 1.7-.8 3.9-.8 6.7V65c.1 2.7.3 4.9.8 6.6z"/><path fill="none" d="M0 0h600v95H0z"/></svg>