<svg xmlns="http://www.w3.org/2000/svg" width="600" height="95" viewBox="0 0 600 95"><path d="M34.3 13.5l15 68.3h2.1l12.9-58.5L77 81.8h2.1l15-68.8 3.6-.3-16 72.9h-7.5l-10-46.4L54 85.6h-7.4L30.7 13l3.6.5zm5.9-.5l10.2 46.4L60.5 13h7.4L78 59.5 88.2 13l3.5-.1L78 75.5 65.2 16.8h-2.1L50.3 75.4 36.6 13h3.6zm63.8-.1h3.4v72.6H104V12.9zm5.8 0h3.4v72.6h-3.4V12.9zm10.1.1h40.8v3.5h-40.8V13zm0 5.7h19.3v66.9h-3.5V22.3H120v-3.6zm21.5 0h19.3v3.6h-15.8v63.3h-3.5V18.7zM165 13h40.8v3.5H165V13zm0 5.7h19.3v66.9h-3.5V22.3H165v-3.6zm21.5 0h19.3v3.6H190v63.3h-3.5V18.7zm24.6 14.8c0-6.5 1.4-11.6 4.3-15.2 2.9-3.6 7.2-5.4 12.8-5.4 5.6 0 9.9 1.8 12.9 5.4 2.9 3.6 4.4 8.7 4.4 15.2v4.6H242v-4.6c0-11.4-4.6-17.1-13.8-17.1-4.5 0-7.9 1.5-10.2 4.4-2.3 2.9-3.4 7.1-3.4 12.7v31.3c0 5.7 1.2 10 3.5 12.9 2.3 2.9 5.7 4.4 10.2 4.4 4.6 0 8-1.5 10.3-4.4 2.3-2.9 3.5-7.2 3.5-12.9V53.5h-17V50h20.5v14.8c0 6.5-1.4 11.5-4.2 15-3 3.8-7.3 5.7-13 5.7-5.6 0-9.9-1.9-12.9-5.7-2.8-3.4-4.2-8.4-4.2-15V33.5zm5.8 0c0-5.1.9-8.8 2.8-11.2 1.9-2.4 4.7-3.6 8.5-3.6s6.7 1.2 8.6 3.6c1.9 2.4 2.9 6.1 2.9 11.2v4.6h-3.5v-4.6c0-4.7-.8-7.8-2.4-9.6-1.2-1.1-3-1.7-5.5-1.7s-4.2.6-5.4 1.7c-1.7 1.7-2.5 4.9-2.5 9.6v31.3c0 5 1 8.3 2.9 10 1.1 1 2.8 1.4 5 1.4 2.3 0 4-.5 5.1-1.4 1.9-1.7 2.8-5 2.8-10v-5.5H225v-3.4h14.7v9c0 5.2-1 9-2.9 11.3-1.8 2.4-4.6 3.6-8.6 3.6-3.8 0-6.6-1.2-8.4-3.6-1.9-2.3-2.9-6.1-2.9-11.3V33.5zM251.5 13h29.9v3.5H255v65.7h26.4v3.5h-29.9V13zm5.8 5.7h24.1v3.6h-20.6v22.3h20.6v3.6h-24.1V18.7zm0 31.7h24.1V54h-20.6v22.3h20.6v3.5h-24.1V50.4zm30.6-37.6h7.7l17.6 44v-44h3.5v62l-23.4-58.5h-2.1v69.1h-3.4V12.8zm5.7 10.6L317 81.9h2V12.8h3.5v72.6h-7.8l-17.6-44v44h-3.4v-62zm40.6-4.7c3.2-3.8 7.3-5.7 12.4-5.7 5.8 0 10.1 1.9 13 5.7 2.8 3.6 4.2 8.7 4.2 15.1v4.6h-3.5v-4.6c0-11.5-4.6-17.3-13.7-17.3-4.3 0-7.7 1.6-10.1 4.8-2.4 3.2-3.6 7.4-3.6 12.5 0 5 1.6 9 4.9 12 1.8 1.8 4.4 3.4 7.6 4.7l1.7.8c3 1.2 5.3 2.5 6.7 3.9 2.9 2.7 4.3 6.1 4.3 10.3 0 4.5-1 8-3 10.5s-4.8 3.8-8.4 3.8c-3.9 0-6.8-1.2-8.6-3.6-1.9-2.4-2.8-6.1-2.8-11.2v-4.6h3.4V65c0 4.2.7 7.3 2.2 9.1.3.4.8.9 1.7 1.4.9.5 2.3.8 4 .8 3 0 5.3-1.3 6.7-3.9.8-1.6 1.2-3.9 1.2-6.9 0-3-.9-5.5-2.8-7.4-1.3-1.3-3.3-2.4-6-3.6l-1.8-.8c-3.7-1.5-6.6-3.3-8.7-5.4-3.9-3.9-5.9-8.7-5.9-14.6.2-6.3 1.7-11.4 4.9-15zm-4.7 41.7h3.4V65c0 11.4 4.6 17.1 13.8 17.1 4.5 0 8-1.6 10.3-4.9 2.3-2.9 3.4-6.8 3.4-11.7 0-4.9-1.6-8.9-4.9-11.9-1.8-1.7-4.4-3.1-7.6-4.4l-1.6-.7c-3-1.2-5.3-2.7-6.9-4.3-2.8-2.7-4.2-6.1-4.2-10.3 0-4.1.8-7.5 2.5-10.1 2.2-3.3 5.1-5 8.9-5 7.6 0 11.5 5 11.5 15v4.6h-3.5v-4.6c0-5.1-1-8.4-2.9-10.1-1.1-.9-2.8-1.4-5-1.4-3.2 0-5.4 1.5-6.7 4.6-.8 1.8-1.2 4-1.2 6.8 0 3 .9 5.5 2.8 7.5 1.6 1.7 3.6 3 6.3 3.9l1.6.7.6.2c.4.2.6.3.7.3.1 0 .3.2.7.3.4.2.7.3.9.4.2.1.5.2.9.4s.7.4 1 .5c.2.2.5.4.9.6s.7.5 1 .7c.3.2.6.5.9.7.3.3.7.6 1 .9 4 3.8 6.1 8.6 6.1 14.5 0 5.8-1.5 10.6-4.6 14.4-3.1 3.8-7.3 5.7-12.6 5.7-5.7 0-10-1.8-12.9-5.4-2.9-3.6-4.3-8.7-4.3-15.2v-4.4zM367.4 13h40.8v3.5h-40.8V13zm0 5.7h19.3v66.9h-3.5V22.3h-15.7v-3.6zm21.5 0h19.3v3.6h-15.8v63.3h-3.5V18.7zm24.5 14.7c0-6.4 1.4-11.3 4.1-14.9 2.9-3.8 7.3-5.7 13-5.7 5.8 0 10.1 1.9 13.1 5.7 2.7 3.6 4.1 8.6 4.1 14.9v31.3c0 6.4-1.4 11.4-4.1 14.9-1.5 1.8-3 3-4.6 3.9-2.4 1.3-5.2 2-8.5 2-5.6 0-10-1.9-13-5.8-2.7-3.5-4.1-8.5-4.1-14.9V33.4zm7 44.1c2.3 3 5.7 4.4 10.2 4.4s7.8-1.5 10.2-4.5c2.4-3 3.5-7.2 3.5-12.8V33.4c0-5.6-1.2-9.8-3.5-12.8-2.3-2.9-5.7-4.4-10.2-4.4-4.5 0-7.9 1.5-10.2 4.4-2.3 2.9-3.5 7.2-3.5 12.8v31.3c0 5.6 1.1 9.9 3.5 12.8zm-1.2-44.1c0-5.2 1-8.9 2.9-11.3 1.8-2.4 4.6-3.6 8.4-3.6 3.9 0 6.7 1.2 8.5 3.6 1.9 2.3 2.9 6.1 2.9 11.3v31.3c0 9.9-3.8 14.9-11.4 14.9-7.6 0-11.3-5-11.3-14.9V33.4zm6.4 41.3c1.1 1 2.8 1.4 5 1.4s3.9-.5 5-1.4c1.9-1.6 2.9-5 2.9-10V33.4c0-5-1-8.3-2.9-10-1.1-.9-2.8-1.4-5-1.4s-3.9.5-5 1.4c-1.9 1.6-2.9 5-2.9 10v31.3c0 5 .9 8.3 2.9 10zm27.5-61.9h7.7l17.6 44v-44h3.5v62l-23.4-58.5h-2.1v69.1H453V12.8zm5.7 10.6l23.4 58.4h2v-69h3.5v72.6h-7.8l-17.6-44v44h-3.4v-62zM494.6 13h29.9v3.5h-26.4v65.7h26.4v3.5h-29.9V13zm5.8 5.7h24.1v3.6h-20.7v22.3h20.7v3.6h-24.1V18.7zm0 31.7h24.1V54h-20.7v22.3h20.7v3.5h-24.1V50.4zM531 82.1h14.4c5 0 8.8-1.5 11.4-4.5 2.3-2.9 3.5-7.3 3.5-13V34.1c0-11.7-5-17.6-14.9-17.6H531V13h14.4c6.2 0 10.9 2 14 5.9 2.9 3.5 4.3 8.6 4.3 15.2v30.6c0 6.8-1.5 12-4.6 15.6-3 3.6-7.6 5.4-13.7 5.4H531v-3.6zm0-63.4h3.4v61H531v-61zm5.8 0h8.6c4.4 0 7.6 1.3 9.5 3.8 2 2.4 3 6.3 3 11.6v30.6c0 5.3-1 9.1-3 11.5-1.9 2.4-5.1 3.7-9.5 3.7h-8.6V18.7zm8.6 57.6c3 0 5-.6 6.3-1.7 1.8-1.8 2.7-5.2 2.7-10V34.1c0-4.8-.9-8.1-2.7-10-1.2-1.2-3.3-1.8-6.3-1.8h-5.2v54h5.2z"/><path fill="none" d="M0 0h600v95H0z"/></svg>