<svg xmlns="http://www.w3.org/2000/svg" width="600" height="95" viewBox="0 0 600 95"><path d="M92.7 13.5l15 68.3h2.1l12.9-58.5 12.8 58.5h2.1l15-68.8 3.6-.3-16 72.9h-7.5l-10.1-46.4-10.2 46.4H105L89 13l3.7.5zm5.9-.5l10.2 46.4L118.9 13h7.4l10.1 46.5L146.6 13l3.5-.1-13.7 62.6-12.8-58.7h-2.1l-12.8 58.6L95 13h3.6zm60.9 20.4c0-6.4 1.4-11.3 4.1-14.9 2.9-3.8 7.3-5.7 13-5.7 5.8 0 10.1 1.9 13 5.7 2.7 3.6 4.1 8.6 4.1 14.9v31.3c0 6.4-1.4 11.4-4.1 14.9-1.5 1.8-3 3-4.6 3.9-2.4 1.3-5.2 2-8.5 2-5.6 0-10-1.9-13-5.8-2.7-3.5-4.1-8.5-4.1-14.9V33.4zm7 44.1c2.3 3 5.7 4.4 10.2 4.4 4.4 0 7.8-1.5 10.2-4.5 2.4-3 3.5-7.2 3.5-12.8V33.4c0-5.6-1.2-9.8-3.5-12.8-2.3-2.9-5.7-4.4-10.2-4.4-4.5 0-7.9 1.5-10.2 4.4-2.3 2.9-3.5 7.2-3.5 12.8v31.3c-.1 5.6 1.1 9.9 3.5 12.8zm-1.2-44.1c0-5.2 1-8.9 2.9-11.3 1.8-2.4 4.6-3.6 8.4-3.6 3.9 0 6.7 1.2 8.5 3.6 1.9 2.3 2.9 6.1 2.9 11.3v31.3c0 9.9-3.8 14.9-11.4 14.9-7.6 0-11.3-5-11.3-14.9V33.4zm6.3 41.3c1.1 1 2.8 1.4 5 1.4s3.9-.5 5-1.4c1.9-1.6 2.9-5 2.9-10V33.4c0-5-1-8.3-2.9-10-1.1-.9-2.8-1.4-5-1.4s-3.9.5-5 1.4c-1.9 1.6-2.9 5-2.9 10v31.3c0 5 1 8.3 2.9 10zm27.5-61.8h3.4V82h28v3.5h-31.4V12.9zm5.8 0h3.4v63.4h22.2v3.5h-25.6V12.9zm29.1.1h29.9v3.5h-26.4v69.1H234V13zm5.8 5.7h24.1v3.6h-20.6v22.3h20.6v3.6h-24.1V18.7zm0 31.7h24.1V54h-20.6v31.6h-3.4V50.4zM312 13.2h8.9v72.6h-3.4V15.9h-2.9l-11.2 16.4-2.9-2.5L312 13.2zm3.1 5.9v66.7h-3.4V30.1l-4.1 5.6-2.5-2 10-14.6zm12.3 15c0-6.4 1.3-11.5 3.8-15.3 2.5-3.8 6.4-5.6 11.4-5.6 5.3 0 9.2 2.1 11.9 6.2 2.4 3.6 3.5 8.5 3.5 14.7V65c0 6.5-1.3 11.6-3.9 15.3-2.6 3.7-6.4 5.6-11.5 5.6s-8.9-1.9-11.4-5.6c-2.5-3.8-3.8-8.8-3.8-15.3V34.1zm6.4 43.7c2 3 4.9 4.5 8.8 4.5 3.9 0 6.8-1.5 8.8-4.5 2-3 3-7.3 3-12.9V34.1c0-5.6-1-9.9-3-12.9s-4.9-4.5-8.9-4.5-7 1.6-8.9 4.7c-1.9 2.8-2.9 7.1-2.9 12.7V65c.1 5.5 1.1 9.8 3.1 12.8zm-.6-43.7c0-10 3.2-15.1 9.5-15.1s9.5 5 9.5 15.1V65c0 10-3.2 15.1-9.5 15.1s-9.5-5-9.5-15.1V34.1zm4.2 37.5c.8 2.8 2.1 4.4 3.7 4.7.2 0 .4.1.8.1.4.1.6.1.8.1 1.6 0 2.8-.5 3.6-1.5.7-.7 1.3-1.9 1.8-3.5.4-1.5.7-3.7.7-6.7V34.1c0-3-.2-5.2-.7-6.7-.9-2.8-2.1-4.3-3.7-4.7-.9-.1-1.5-.2-1.7-.2-1.5 0-2.7.5-3.6 1.5-.6.6-1.1 1.7-1.7 3.4-.5 1.7-.8 3.9-.8 6.7V65c0 2.7.3 4.9.8 6.6zm26.8-37.5c0-6.4 1.3-11.5 3.8-15.3 2.5-3.8 6.4-5.6 11.4-5.6 5.3 0 9.2 2.1 11.9 6.2 2.4 3.6 3.5 8.5 3.5 14.7V65c0 6.5-1.3 11.6-3.9 15.3-2.6 3.7-6.4 5.6-11.5 5.6s-8.9-1.9-11.4-5.6c-2.6-3.8-3.8-8.8-3.8-15.3V34.1zm6.4 43.7c2 3 4.9 4.5 8.8 4.5 3.9 0 6.8-1.5 8.8-4.5 2-3 3-7.3 3-12.9V34.1c0-5.6-1-9.9-3-12.9s-4.9-4.5-8.9-4.5-7 1.6-8.9 4.7c-1.9 2.8-2.9 7.1-2.9 12.7V65c.1 5.5 1.1 9.8 3.1 12.8zm-.6-43.7c0-10 3.2-15.1 9.5-15.1s9.5 5 9.5 15.1V65c0 10-3.2 15.1-9.5 15.1s-9.5-5-9.5-15.1V34.1zm4.2 37.5c.8 2.8 2.1 4.4 3.7 4.7.2 0 .4.1.8.1.4.1.6.1.8.1 1.6 0 2.8-.5 3.6-1.5.7-.7 1.3-1.9 1.8-3.5.4-1.5.7-3.7.7-6.7V34.1c0-3-.2-5.2-.7-6.7-.9-2.8-2.1-4.3-3.7-4.7-.9-.1-1.5-.2-1.7-.2-1.5 0-2.7.5-3.6 1.5-.6.6-1.1 1.7-1.7 3.4-.5 1.7-.8 3.9-.8 6.7V65c0 2.7.3 4.9.8 6.6zM401 13.2h30.6v3.5h-27.2v40.1h2.3c0-3.2.6-6 1.7-8.2 1.5-3 4.1-4.5 7.8-4.5 6.3 0 9.5 4.8 9.5 14.3v7c0 4.3-.9 7.8-2.6 10.5-1.7 2.7-4 4-6.9 4-2.9 0-5.2-1.1-7-3.2-1.6-1.9-2.4-4-2.4-6.3v-1.6h3.4v1.6c0 1.2.4 2.4 1.3 3.6 1.2 1.7 2.8 2.5 4.7 2.5 2.2 0 3.8-1.3 4.8-4 .8-2.2 1.2-4.6 1.2-7.1v-7c0-2.6-.2-4.6-.6-6-.4-1.3-.7-2.2-1.1-2.8-.4-.6-.9-1.1-1.5-1.5-.6-.4-1.6-.6-2.9-.6-.8 0-1.5.1-2.1.4-.6.2-1 .5-1.3.6-.2.2-.5.5-.8.9-1.2 1.6-1.8 4-1.8 7.4v3.3H401V13.2zm0 55.7h3.4v1.6c0 2.7 1 5.3 3 7.8 2.4 2.8 5.3 4.1 8.8 4.1 3.9 0 6.9-1.7 9-5.2 1.9-3 2.8-7 2.8-11.7v-7c0-5.4-1-9.5-3-12.4-2-2.9-5-4.3-8.8-4.3-3.9 0-6.9 1.4-8.9 4.2l-.6.9V19h24.9v3.5h-21.4v16.8c2-.7 4-1.1 6-1.1 5.2 0 9.1 1.9 11.9 5.8 2.4 3.4 3.5 8.2 3.5 14.3v7c0 3.7-.5 7-1.6 10.1-1.1 3-2.8 5.5-5.2 7.4-2.4 1.9-5.2 2.9-8.5 2.9-4.7 0-8.6-1.8-11.4-5.3-2.5-3-3.8-6.3-3.8-10.1v-1.4zm36.4-34.8c0-6.4 1.3-11.5 3.8-15.3 2.5-3.8 6.4-5.6 11.4-5.6 5.3 0 9.2 2.1 11.9 6.2 2.4 3.6 3.5 8.5 3.5 14.7V65c0 6.5-1.3 11.6-3.9 15.3-2.6 3.7-6.4 5.6-11.5 5.6s-8.9-1.9-11.4-5.6c-2.6-3.8-3.8-8.8-3.8-15.3V34.1zm6.4 43.7c2 3 4.9 4.5 8.8 4.5 3.9 0 6.8-1.5 8.8-4.5 2-3 3-7.3 3-12.9V34.1c0-5.6-1-9.9-3-12.9s-4.9-4.5-8.9-4.5-7 1.6-8.9 4.7c-1.9 2.8-2.9 7.1-2.9 12.7V65c.1 5.5 1.1 9.8 3.1 12.8zm-.7-43.7c0-10 3.2-15.1 9.5-15.1s9.5 5 9.5 15.1V65c0 10-3.2 15.1-9.5 15.1s-9.5-5-9.5-15.1V34.1zm4.2 37.5c.8 2.8 2.1 4.4 3.7 4.7.2 0 .4.1.8.1.4.1.6.1.8.1 1.6 0 2.8-.5 3.6-1.5.7-.7 1.3-1.9 1.8-3.5.4-1.5.7-3.7.7-6.7V34.1c0-3-.2-5.2-.7-6.7-.9-2.8-2.1-4.3-3.7-4.7-.9-.1-1.5-.2-1.7-.2-1.5 0-2.7.5-3.6 1.5-.6.6-1.1 1.7-1.7 3.4-.5 1.7-.8 3.9-.8 6.7V65c.1 2.7.3 4.9.8 6.6zm26.9-37.5c0-6.4 1.3-11.5 3.8-15.3 2.5-3.8 6.4-5.6 11.4-5.6 5.3 0 9.2 2.1 11.9 6.2 2.4 3.6 3.5 8.5 3.5 14.7V65c0 6.5-1.3 11.6-3.9 15.3-2.6 3.7-6.4 5.6-11.5 5.6s-8.9-1.9-11.4-5.6c-2.5-3.8-3.8-8.8-3.8-15.3V34.1zm6.4 43.7c2 3 4.9 4.5 8.8 4.5 3.9 0 6.8-1.5 8.8-4.5 2-3 3-7.3 3-12.9V34.1c0-5.6-1-9.9-3-12.9s-4.9-4.5-8.9-4.5-7 1.6-8.9 4.7c-1.9 2.8-2.9 7.1-2.9 12.7V65c.1 5.5 1.1 9.8 3.1 12.8zm-.7-43.7c0-10 3.2-15.1 9.5-15.1s9.5 5 9.5 15.1V65c0 10-3.2 15.1-9.5 15.1s-9.5-5-9.5-15.1V34.1zm4.3 37.5c.8 2.8 2.1 4.4 3.7 4.7.2 0 .4.1.8.1.3.1.6.1.8.1 1.6 0 2.8-.5 3.6-1.5.7-.7 1.3-1.9 1.8-3.5.4-1.5.7-3.7.7-6.7V34.1c0-3-.2-5.2-.7-6.7-.9-2.8-2.1-4.3-3.7-4.7-.9-.1-1.5-.2-1.7-.2-1.5 0-2.7.5-3.6 1.5-.6.6-1.1 1.7-1.7 3.4-.5 1.7-.8 3.9-.8 6.7V65c0 2.7.2 4.9.8 6.6z"/><path fill="none" d="M0 0h600v95H0z"/></svg>