<svg xmlns="http://www.w3.org/2000/svg" width="295.5" height="103" viewBox="0 0 295.5 103"><path d="M56.2 29.2c-.2-.4-.4-.9-.6-1.4-2.6-4.5-6.4-7.3-11.6-8.2-.5-.1-1.1-.1-1.6-.2h-1.8c-.6.1-1.2.1-1.8.2-4.7.9-8.3 3.3-10.9 7.4-.2.2-.2.6-.3.8l-.1-.1c-.5.8-1.4 3.1-1.5 3.8.1-.1.2-.1.3-.2-.7 1-.7 2.2-.8 3.3V36c.1.6.1 1.1.2 1.7.2 1.4.6 2.8 1.2 4.1.1.2.2.3.4.4-.3-1.3-.8-2.6-.9-3.8.2.6.4 1.4.6 2.1.1.2.2.5.3.7.1.3.1.5.2.8.1.4.2.8.5 1h.1v-.5c0 .1.1.2.1.3.1.2.2.5.3.7l.1.1c.4-.1.4.2.6.4l.1.1c0-.1.1-.1.1-.2 0 0 0 .1.1.1s.1.1.2.1c0-.1.1-.1.1-.2-.1-.4-.1-.8-.6-1-.1-.1-.3-.2-.4-.3v-.1c.1 0 .3.1.5.2 0-.1 0-.2-.1-.3-.2-.7-.3-1.4-.5-2.2-.1-.3-.2-.5-.4-.6-.1-.1-.2-.2-.2-.3.1.1.3.2.4.3h.1c-.4-1.6-.3-3.2 0-4.8 0 .4 0 .8-.1 1.2 0 .6.1 1.2.4 1.8v.2c-.2.2-.1.4.1.4.1 0 .1.1.3.2-.3.2-.1.4-.1.7.2.6.2 1.2.4 1.8.4 1.3 1 2.4 1.8 3.3.3.3.5.6.9.9.4.2.6.6.9.9v.1c0 .5.4.8.6 1.2.2.2.4.4.6.4.2 0 .3.1.2.3v.2c-.1.3.1.6.5.6.3 0 .7.2.9-.2 0 0 .1 0 .2.1 0 0 0 .1.1.2.5.3.9.8 1.7.6.1 0 .3 0 .3.1.1.3.4.3.6.4.1-.3.2-.7.3-1 0-.1.2-.2.3-.3h.1c.2 0 .3-.2.4-.1.1 0 .2.2.3.3 0-.5 0-.6.6-.6.5 0 1-.1 1.6-.1.3 0 .6-.1.9-.1.2 0 .3-.2.3-.4 0-.3.1-.6.2-.9 0-.1.1-.2.3-.2.2.1.2 0 .3-.2.1-.3.1-.5.2-.8.1 0 .2.1.3.1.4.1.7-.2.8-.5.1-.5.3-1 .4-1.4.1-.4.1-.9.1-1.3 0-.2.1-.5.2-.7 0 .3 0 .6.1.9 0 .1.1.2.2.2s.1-.1.2-.1c.1-.5.1-1 .2-1.5h.1c0 .5 0 .9.1 1.4.5-.1.6-.2.7-.8 0 .7 0 1.5.1 2.2 0 .2 0 .4-.1.6-.2.4-.1.9 0 1.3 0 .3.1.4.4.2.5-.3 1-.7 1.4-1.2.4-.5.4-1 .5-1.5 0-.1 0-.2.1-.4.2.4-.1.9 0 1.4.2-.2.3-.4.5-.6h.1c0 .2-.1.4-.1.6.1-.1.2-.1.2-.2.8-1.1 1.5-2.2 2.3-3.4.2-.3.4-.5.5-.8.5-.9.7-2 .7-3 0-.2.1-.4.1-.6.2-.7.3-1.4.2-2.1v-1.2c0-.2 0-.4-.1-.6 0-.1-.2-.2-.3-.3l-.2-.2c.1-.7.1-1.4.2-2.1h.1c0 .4.1.8.1 1.2 0 .2.1.4.2.5.2.4.4.7.4 1.1.1 1.5 0 3 0 4.5 0 .4-.1.9-.2 1.3-.1.3-.3.5-.5.8-.2.2-.3.6-.4.8-.1.3-.1.5-.3.7-.1.1-.2.3-.1.4.2.4 0 .8-.3 1.1-.3.3-.4.7-.5 1.1 0 .3-.2.6-.5.8-.1.1-.2.3-.3.4-.1.2-.2.5-.4.8-.2.3-.4.7-.6.9-.3.4-.7.7-1 1.1-.5.5-1.1.9-1.6 1.4l-.6.3c-.2.1-.4.2-.5.4-.1.2-.2.3-.4.5.4-.1.6-.2.9-.3-.2-.3-.2-.4.2-.6.3-.1.5-.3.7-.4l.1-.1c.5-.1.7-.5 1.1-.7.2-.1.5-.2.7-.3.1 0 .3-.1.4-.1-.3.2-.6.4-1 .5-.4.2-.5.5-.7.8 1-.4 3.8-2.9 4.2-3.7-.5-.2-.7.3-1 .4.1-.1.2-.2.2-.3.1-.1.1-.2.1-.4 0-.1 0-.2.1-.3.3-.6.6-1.1.9-1.6.1-.1.2-.3.3-.4-.3.6-.6 1.2-1 1.8h.1l1-1c.2-.2.3-.3.4-.5.1-.2 0-.4-.3-.4-.1 0-.1 0-.3-.1.3-.5.7-1.1 1-1.6.1-.2.1-.4.2-.6.1-.3.1-.5.4-.6.1 0 .1-.2.1-.2 0-.1-.1-.1-.2-.2.1-.1.1-.2.2-.4l.1-.1c0-.5.3-.4.6-.3h.2c-.1-.2-.4-.1-.3-.4 0-.3.2-.3.3-.3-.1-.1-.2-.2-.3-.4l.2-.2c.1-.2.2-.3.3-.5 0-.1.1-.2.1-.3 0-.1 0-.2.1-.4v-1.7c-.1-.6-.1-1.2-.2-1.8 0-1-.4-2.2-.9-3.4zM28 40.9v.8c-.3-.2-.4-.6-.3-.9.1 0 .2 0 .3.1zm2-9.9c.2-.2.3-.4.5-.6-.1.5-.2.7-.5.6zm4 15c-.1-.1-.3-.2-.3-.3-.1-.2-.2-.5-.3-.7 0 0 .1 0 .1-.1.4.3.6.6.9 1.1H34zm.3-13.9c-.1-.3-.1-.6-.2-.9-.5.3-.7.7-.9 1.1h-.1c0-.1-.1-.1 0-.2 0-.1.1-.2.1-.3v-.4c-.1 0-.3 0-.4.1-.1 0-.1.1-.2.2-.1-.3-.1-.7-.2-1 .2 0 .6.1.9.1h.4c.2 0 .3-.1.4-.3.1-.3.2-.6.4-.9 0 .9-.1 1.7-.2 2.5zm.2-3.1c-.1 0-.1-.1 0 0-.1-.3.1-.5.2-.7h.1c-.1.2-.2.4-.3.7zm2.4 7.7c.7.2 1 .9 1.7 1.2-.2.1-1.3-.7-1.7-1.2zm2.2 1.7c-.2-.1-.3-.2-.5-.3l.1-.1c.2.1.3.2.5.3l-.1.1zm4.9 6.1c0-.1-.1-.2-.1-.3.2-.8 0-1.6.2-2.4 0-.2.1-.3.1-.5h.1c.1.6.1 1.3.2 1.9v.1c0 .5 0 .9-.5 1.2z"/><path d="M31 46.5c-.2-.4-.5-.7-.9-.9-.1-.1-.3-.1-.4-.2h.6v-.1c-.2-.2-.2-.5-.5-.6 0 .1 0 .1-.1.2-.1-.3-.3-.4-.8-.3v.3l-1.1-1.1c1.1 2 2.7 3.7 4.6 5 0-.4-.1-.4-.4-.8-.4-.5-.7-1-1-1.5zm8.3 4.9c-.5-.1-.9-.4-1.2-.7-.5-.4-1-.5-1.6-.5v.1c.4.3.9.5 1.3.8v.1c-1.5-.6-3.1-1.3-4.6-1.9 2 1.3 4.1 2.1 6.4 2.3-.2-.2-.2-.2-.3-.2zm-11.5-8c-.1-.2-.3-.5-.5-.7h-.1c.2.3.3.5.4.8 0 .1.1.1.2.1v-.2z"/><path fill="none" d="M80 73.7V3H3v70.7c11.6-5.8 24.7-9 38.5-9s26.9 3.2 38.5 9z"/><path fill="none" d="M80 100V74.8c-11.6-5.8-24.7-9.2-38.5-9.2S14.6 69 3 74.8V100h77z"/><path d="M80 74.8v-1.1c-11.6-5.8-24.7-9-38.5-9S14.6 68 3 73.7v1.1c11.6-5.8 24.7-9.2 38.5-9.2S68.4 69 80 74.8zm0 25.2H3V74.8c-1 .5-2 1-3 1.6V103h83V76.4c-1-.5-2-1.1-3-1.6V100z"/><path d="M3 3h77v70.7c1 .5 2 1 3 1.6V0H0v75.2c1-.5 2-1.1 3-1.6V3z"/><path d="M3 74.8v-1.1c-1 .5-2 1-3 1.6v1.2c1-.6 2-1.2 3-1.7zm77 0c1 .5 2 1 3 1.6v-1.2c-1-.5-2-1.1-3-1.6v1.2z"/><path d="M295.5 103H80V0h215.5v103zm-211.7-3h207.8V3H83.8v97z"/><path d="M83 63.2h208.6v3H83z"/><text x="105" y="42" font-size="25">Destiny</text><text x="145" y="87.5" font-size="12">Daily</text></svg>