<svg xmlns="http://www.w3.org/2000/svg" width="260" height="220" viewBox="0 0 260 220"><path class="fill" fill="none" d="M93.1 114.4c.1 7 .2 13.9 0 20.9 0 1.7-.7 3.8-2 4.7-17.8 13.8-35.6 27.5-53.5 41.2-.3.3-.7.3-2 .7 19.1-31.1 37.9-61.7 56.6-92.2l.9.3v24.4zm-.1 80.7v-46.8c-20.5 15.8-40.3 31-61 46.8h61zm164.7 13.8c-4 7.6-12.4 11-19.3 11H22.2c-6.8 0-15.7-2.9-20-10.9-3.4-6.3-2.9-14.5 1.2-21.8l.2-.3.2-.3L111.1 11.8C117.2 2 124.7 0 130 0s13 2.1 19 12.1l108 175.5.1.3c2.9 5.3 4.5 13.5.6 21zM242.2 196c-1.7-3.2-3.8-6.3-5.8-9.4L134.6 20.9c-3.1-5.2-5.8-5.2-9-.2-10.9 17.7-21.9 35.5-32.8 53.4C68 114.6 43.1 155 18.3 195.5c-.9 1.6-1.7 4.1-1 5.4s3.4 2 5.1 2c24.3.1 48.6.1 72.9 0 1.9 0 3.9-.8 5.4-1.9 9.7-7.3 19.3-14.7 29.2-22.4 9.8 7.6 19.3 14.9 28.9 22.1 1.5 1.1 3.6 2.2 5.3 2.2 24.8.1 49.6.1 74.3 0 1.5 0 3.7-.8 4.2-1.9.8-1.4.3-3.7-.4-5zm-85-123.4c-5.4-9.1-11-18.1-16.5-27.1l-10.3-16.6c-.6.3-.9.5-1.1.7C120 44.4 111.1 59 102 73.8c-.6 1-1.2 2.3-1.2 3.4v55.4c8.9-6.7 16.7-12.6 24.5-18.8 3.5-2.8 6-2.8 9.5 0 7.7 6.2 15.6 12 23.7 18.1.3-1.1.5-1.4.6-1.8 0-17.4.1-34.9-.2-52.4 0-1.8-.8-3.6-1.7-5.1zm.6 68.8c-9.2-7.2-18.3-14.1-27.7-21.3-9.5 7.3-18.5 14.1-27.5 21.3-1.1.9-1.6 3.2-1.6 4.9-.2 10.3-.1 20.8-.1 31.3v13.8c8.6-6.5 16.3-12.2 23.7-18.2 3.9-3.2 7-3.6 11.1-.1 7.2 6.1 14.9 11.7 22.6 17.5.3-.5.7-.8.7-1 0-15.1.1-30.3 0-45.4 0-1-.5-2.2-1.2-2.8zm9.2 54c20.2-.1 39.9-.1 59.7-.1.2-.3.4-.5.5-.8-20-15.4-39.8-30.7-60.2-46.2v47.1zm2.8-54.9c9.3 7.5 18.9 14.7 28.3 22 8.4 6.3 16.6 12.7 25 19l.8-.6-56.2-91.5c-.3.2-.7.3-1 .5 0 15.1-.1 30.5.1 45.4 0 1.8 1.5 4 3 5.2z"/><path class="stroke" d="M236.4 186.6L134.6 20.9c-3.1-5.2-5.8-5.2-9-.2-10.9 17.7-21.9 35.5-32.8 53.4C68 114.6 43.1 155 18.3 195.5c-.9 1.6-1.7 4.1-1 5.4s3.4 2 5.1 2c24.3.1 48.6.1 72.9 0 1.9 0 3.9-.8 5.4-1.9 9.7-7.3 19.3-14.7 29.2-22.4 9.8 7.6 19.3 14.9 28.9 22.1 1.5 1.1 3.6 2.2 5.3 2.2 24.8.1 49.6.1 74.3 0 1.5 0 3.7-.8 4.2-1.9.8-1.4.3-3.7-.4-5-1.7-3.2-3.8-6.3-5.8-9.4zM93 195.1H32c20.7-15.8 40.5-31 61-46.8v46.8zm.1-59.8c0 1.7-.7 3.8-2 4.7-17.8 13.8-35.6 27.5-53.5 41.2-.3.3-.7.3-2 .7 19.1-31.1 37.9-61.7 56.6-92.2l.9.3v24.4c.1 7 .2 13.9 0 20.9zm65.9 54.3c0 .2-.4.5-.7 1-7.7-5.8-15.4-11.4-22.6-17.5-4.1-3.5-7.2-3.1-11.1.1-7.4 6-15.1 11.7-23.7 18.2v-13.8c0-10.5-.1-21 .1-31.3 0-1.7.5-4 1.6-4.9 9-7.2 18-14 27.5-21.3 9.4 7.2 18.5 14.1 27.7 21.3.7.6 1.2 1.8 1.2 2.8.1 15.1 0 30.3 0 45.4zm.1-59.5c-.1.4-.3.7-.6 1.8-8.1-6.1-16-11.9-23.7-18.1-3.5-2.8-6-2.8-9.5 0-7.8 6.2-15.6 12.1-24.5 18.8V77.2c0-1.1.6-2.4 1.2-3.4 9.1-14.8 18-29.4 27.3-44.2.2-.2.5-.4 1.1-.7l10.3 16.6c5.5 9 11.1 18 16.5 27.1.9 1.5 1.7 3.3 1.7 5.1.3 17.5.2 35 .2 52.4zm7.6-40.2c.3-.2.7-.3 1-.5l56.2 91.5-.8.6c-8.4-6.3-16.6-12.7-25-19-9.4-7.3-19-14.5-28.3-22-1.5-1.2-3-3.4-3-5.2-.2-14.9-.1-30.3-.1-45.4zm60 105.4c-19.8 0-39.5 0-59.7.1v-47.1c20.4 15.5 40.2 30.8 60.2 46.2-.1.3-.3.5-.5.8z"/></svg>
