<svg xmlns="http://www.w3.org/2000/svg" width="120" height="120" viewBox="0 0 120 120"><path fill="#fff" d="M60 0L0 60l60 60 60-60L60 0zM2.8 60L60 2.8 117.2 60 60 117.2 2.8 60zm45.7-8.5h2v16.2c-.6.3-1.3.5-2 .7V51.5zm-2 0h1v17h-2v-17h1zm9.3-4c-.1 0-.1 0 0 0H41c-6.6 0-12 5.4-12 12v1.1c0 6.6 5.4 12 12 12h7c.2 0 .3 0 .5-.1.7-.1 1.3-.2 1.9-.4h.1c.2-.1.3-.1.5-.2s.3-.1.5-.2c.1 0 .2-.1.3-.1 1.1-.5 2.2-1.2 3.1-2 .2-.2.4-.3.5-.5l.5-.5c.3-.3.5-.6.7-.9.1-.2.2-.3.3-.5.1-.2.2-.4.3-.5.3-.5.6-1.1.8-1.6.1-.2.1-.3.2-.5s.1-.3.2-.5c.1-.3.2-.7.3-1.1.1-.3.1-.6.1-.9 0-.2 0-.3.1-.5v-.5h-7.4v-2h9.4v2.6c0 .2 0 .3-.1.5-.1.7-.2 1.4-.4 2 0 .2-.1.3-.1.5-.1.2-.1.3-.2.5 0 .1-.1.2-.1.4-.1.2-.2.4-.3.7l-.3.6c-.3.7-.7 1.3-1.2 1.9-.1.1-.2.3-.3.4-.1.1-.2.3-.3.4l-.1.1c-.6.7-1.3 1.4-2.1 2-.2.2-.4.3-.7.5-.3.2-.5.3-.8.5-.8.4-1.6.8-2.4 1.1-.2.1-.3.1-.5.2s-.3.1-.5.1c-.6.2-1.3.3-2 .4-.2 0-.3 0-.5.1h-6.6C33.5 74.5 27 68 27 60.1v-.3c0-7.9 6.5-14.4 14.4-14.4h14.3v2.1h.1zm-13.3 4h2v17h-2v-17zm8-1h-9.4c-5 0-9.1 4.1-9.1 9.1v.9c0 5 4.1 9.1 9.1 9.1H48c.2 0 .3 0 .5-.1.5-.1.9-.2 1.4-.4.2-.1.4-.1.6-.2.2-.1.3-.2.5-.2h.1c.2-.1.3-.2.4-.2 1.3-.8 2.5-1.9 3.3-3.3.1-.2.2-.3.3-.5.1-.2.2-.3.2-.5h-3.9v-2h6.4c-.1.7-.2 1.4-.5 2-.1.2-.1.3-.2.5s-.1.3-.2.5c-.1.1-.1.2-.2.4l-.3.6c-.1.2-.2.4-.3.5-.5.7-1 1.4-1.7 2-.2.2-.4.3-.6.5-.2.2-.4.3-.7.5-.6.4-1.2.7-1.8 1-.2.1-.3.1-.5.2s-.3.1-.5.2c-.6.2-1.3.4-2 .5-.2 0-.3 0-.5.1H41c-6 0-11-4.9-11-11v-1.1c0-6 4.9-11 11-11h14.8v2h-5.3zm-8 27h-1C31.9 77.5 24 69.6 24 60s7.9-17.5 17.5-17.5h14.3v2H41.4c-8.5 0-15.4 6.9-15.4 15.4v.3c0 8.5 6.9 15.4 15.4 15.4H48c.2 0 .3 0 .5-.1.7-.1 1.3-.2 2-.4.2 0 .3-.1.5-.1s.3-.1.5-.2.4-.1.5-.2c1.3-.5 2.6-1.2 3.7-2 .2-.2.5-.3.7-.5.2-.2.4-.3.6-.5l1.2-1.2c.1-.1.2-.3.4-.4.1-.1.2-.3.3-.4.1-.2.2-.3.4-.5.1-.2.2-.3.3-.5.2-.3.3-.5.5-.8.1-.2.2-.3.3-.5l.3-.6c.2-.5.5-1.1.6-1.6.1-.2.1-.3.2-.5 0-.2.1-.3.1-.5.1-.4.2-.7.2-1.1.1-.3.1-.6.1-.9 0-.2 0-.3.1-.5v-3.1c0-.2 0-.3-.1-.5H51.6v-2h11.8c.2.7.3 1.3.4 2v1c0 .3.1.7.1 1 0 .3 0 .7-.1 1v1c-.1.7-.2 1.3-.4 2 0 .2-.1.3-.1.5s-.1.3-.1.5c0 .1-.1.2-.1.4-.1.2-.2.4-.2.7-.1.2-.1.4-.2.6-.3.6-.6 1.3-.9 1.9-.1.2-.2.3-.3.5-.1.2-.2.3-.3.5-.4.6-.7 1.1-1.2 1.6-.1.1-.2.3-.3.4-.1.1-.2.2-.3.4l-.1.1-.5.5c-.8.7-1.6 1.4-2.4 2-.3.2-.5.3-.8.5-.3.2-.6.3-.9.5-1 .5-2 .9-3.1 1.3-.2 0-.3.1-.5.1h-.6c-.7.2-1.3.3-2 .4h-1c-.3 0-.7.1-1 .1h-4zm30-36V41c0-6.6-5.4-12-12-12h-1.1c-6.6 0-12 5.4-12 12v.5h-2v-.1C45.5 33.5 52 27 59.9 27h.3c7.9 0 14.4 6.5 14.4 14.4v.1h-2.1zm-3-.2V41c0-5-4.1-9.1-9.1-9.1h-.9c-5 0-9.1 4.1-9.1 9.1v.4h-2V41c0-6 4.9-11 11-11h1.1c5.9 0 10.8 4.8 10.9 10.7v.9c-.7.1-1.3.2-2 .3v-.6zm-25 .2h-2C42.5 31.9 50.4 24 60 24s17.5 7.9 17.5 17.5h-2v-.1c0-8.5-6.9-15.4-15.4-15.4h-.3c-8.5 0-15.4 6.9-15.4 15.4v.1zm34 9H72c-.2 0-.3 0-.5.1-.5.1-.9.2-1.4.4-.2.1-.4.1-.6.2-.2.1-.3.2-.5.2h-.1c-.2.1-.3.2-.4.2-1.3.8-2.5 1.9-3.3 3.3H63c.1-.1.1-.2.2-.4l.3-.6c.1-.2.2-.4.3-.5.5-.7 1-1.4 1.7-2 .2-.2.4-.3.6-.5.2-.2.4-.3.7-.5.6-.4 1.2-.7 1.8-1 .2-.1.3-.1.5-.2s.3-.1.5-.2c.6-.2 1.3-.4 2-.5.2 0 .3 0 .5-.1H79c6 0 11 4.9 11 11v1.1c0 6-4.9 11-11 11h-.5v-2h.4c5 0 9.1-4.1 9.1-9.1v-.9c0-5-4.1-9.1-9.1-9.1h-.4zm-16.8 1c.1-.1.2-.3.3-.4.1-.1.2-.3.3-.4l.1-.1c.6-.7 1.3-1.4 2.1-2 .2-.2.4-.3.7-.5.3-.2.5-.3.8-.5.8-.4 1.6-.8 2.4-1.1.2-.1.3-.1.5-.2s.3-.1.5-.1c.6-.2 1.3-.3 2-.4.2 0 .3 0 .5-.1h6.7C86.5 45.5 93 52 93 59.9v.3c0 7.9-6.5 14.4-14.4 14.4h-.1v-2h.5c6.6 0 12-5.4 12-12v-1.1c0-6.6-5.4-12-12-12h-7c-.2 0-.3 0-.5.1-.7.1-1.3.2-1.9.4h-.1c-.2.1-.3.1-.5.2s-.3.1-.5.2c-.1 0-.2.1-.3.1-1.1.5-2.2 1.2-3.1 2-.2.2-.4.3-.5.5l-.5.5c-.3.3-.5.6-.7.9-.1.2-.2.3-.3.5-.1.2-.2.4-.3.5-.3.5-.6 1.1-.8 1.6h-2c0-.1.1-.2.1-.4.1-.2.2-.4.3-.7l.3-.6c.2-.6.6-1.2 1-1.8zm6.8 16.8v2.2c-.6-.3-1.2-.6-1.8-1-.2-.2-.5-.3-.7-.5-.2-.2-.4-.3-.6-.5-.6-.6-1.2-1.3-1.7-2 .2-.5.4-1 .5-1.5 0-.2.1-.3.1-.5s.1-.3.1-.5c0-.1.1-.2.1-.3 0 .1.1.2.1.3.1.2.2.3.2.5.1.2.2.3.3.5.9 1.3 2.1 2.5 3.4 3.3zM96 60c0 9.6-7.9 17.5-17.5 17.5v-2h.1c8.5 0 15.4-6.9 15.4-15.4v-.3c0-8.5-6.9-15.4-15.4-15.4H72c-.2 0-.3 0-.5.1-.7.1-1.3.2-2 .4-.2 0-.3.1-.5.1s-.3.1-.5.2-.4.1-.5.2c-1.3.5-2.6 1.2-3.7 2-.2.2-.5.3-.7.5-.2.2-.4.3-.6.5l-1.2 1.2c-.1.1-.2.3-.4.4-.1.1-.2.3-.3.4-.1.2-.2.3-.4.5-.1.2-.2.3-.3.5-.2.3-.3.5-.5.8-.1.2-.2.3-.3.5l-.3.6c-.2.5-.5 1.1-.6 1.6h-2c0-.1.1-.2.1-.3.1-.2.2-.4.2-.7.1-.2.1-.4.2-.6 0-.1.1-.1.1-.2.2-.5.5-1 .7-1.5 0-.1.1-.1.1-.2.1-.2.2-.3.3-.5.1-.2.2-.3.3-.5l.9-1.2c.1-.1.2-.2.3-.4.1-.1.2-.3.3-.4.1-.1.2-.2.3-.4l.1-.1.5-.5.1-.1c.4-.3.7-.7 1.1-1l1.2-.9h.1c.3-.2.5-.3.8-.5.1-.1.2-.1.3-.2.2-.1.3-.2.5-.3h.1c.5-.3 1-.5 1.5-.7.4-.2.8-.3 1.2-.4.1 0 .2-.1.3-.1.2 0 .3-.1.5-.1h.1c.1 0 .3-.1.4-.1.3-.1.6-.1.9-.2.4-.1.7-.1 1.1-.2h7.2C88.1 42.5 96 50.4 96 60zm-20.5-8.5h2v27C77.5 88.1 69.6 96 60 96s-17.5-7.9-17.5-17.5h2v.1c0 8.5 6.9 15.4 15.4 15.4h.3c8.5 0 15.4-6.9 15.4-15.4V51.5zm-6 .8c.6-.3 1.3-.5 2-.7V79c0 6-4.9 11-11 11h-1.1c-5.9 0-10.8-4.8-11-10.7v-.9c.7-.1 1.3-.2 2-.3v.9c0 5 4.1 9.1 9.1 9.1h.9c5 0 9.1-4.1 9.1-9.1V52.3zm-7 17.2h-.2s0-.1.1-.1c.1-.1.2-.3.2-.4.1-.2.2-.3.3-.5.2-.3.3-.6.4-.9.2.3.5.6.7.9l.5.5c.2.2.4.3.6.5.9.8 2 1.5 3.1 2 .1 0 .2.1.3.1v2c-.8-.3-1.6-.7-2.4-1.1-.3-.2-.5-.3-.8-.5-.2-.2-.4-.3-.7-.5-.7-.6-1.5-1.3-2.1-2zm-15 9v.5c0 6.6 5.4 12 12 12h1.1c6.6 0 12-5.4 12-12V51.5h2v27.1C74.5 86.5 68 93 60.1 93h-.3c-7.9 0-14.4-6.5-14.4-14.4v-.1h2.1zm14.4-8.2l1.2 1.2c.2.2.4.3.6.5.2.2.4.3.7.5 1.1.8 2.4 1.5 3.7 2 .2.1.4.1.5.2v2.1c-.5-.2-1.1-.3-1.6-.6-.5-.2-1-.4-1.5-.7-.3-.2-.6-.3-.9-.5h-.1c-.3-.2-.5-.3-.8-.5-.4-.3-.9-.6-1.3-.9-.4-.3-.8-.7-1.2-1l-.5-.5-.1-.1c.1-.1.2-.2.3-.4.4-.5.7-.9 1-1.3z"/></svg>