<?xml version="1.0" encoding="utf-8"?>
<!-- Generator: Adobe Illustrator 20.1.0, SVG Export Plug-In . SVG Version: 6.00 Build 0)  -->
<!DOCTYPE svg PUBLIC "-//W3C//DTD SVG 1.1//EN" "http://www.w3.org/Graphics/SVG/1.1/DTD/svg11.dtd">
<svg version="1.1" id="Layer_1" xmlns="http://www.w3.org/2000/svg" xmlns:xlink="http://www.w3.org/1999/xlink" x="0px" y="0px"
	 width="500px" height="375px" viewBox="0 0 500 375" enable-background="new 0 0 500 375" xml:space="preserve">
<path d="M86.9,0.5l37.7,0.1l86.9,373.9l-18.6-1.2L111.2,21.8l-11.2,0L18.3,373.2L0,373.3L86.9,0.5z M58.9,251l93.4,0.1l28.5,122.2
	l-18.3-0.1l-24.4-104l-64.8-0.7L49.3,372.1l-18.8,1.2L58.9,251z M105.5,50.4l44.1,189l-88,0.1L105.5,50.4z M126.7,221.1l-21.4-91.2
	l-21,90.7L126.7,221.1z"/>
<path d="M156.4,0l89.2,355.1l9.6,0.1l88.7-353l18.8-1.7l-94.3,374.4l-37,0.1L138.5,2.2L156.4,0z M187.8,4l62.2,249.6L313.7,2.2
	l17.6-0.9l-81.2,324.9L169,2.2L187.8,4z"/>
<path d="M375.4,0.5l37.7,0.1L500,374.5l-18.6-1.2L399.7,21.8l-11.2,0l-81.7,351.5l-18.3,0.1L375.4,0.5z M347.4,251l93.4,0.1
	l28.5,122.2l-18.3-0.1l-24.4-104l-64.8-0.7l-23.9,103.4l-18.8,1.2L347.4,251z M394,50.4l44.1,189l-88,0.1L394,50.4z M415.2,221.1
	l-21.4-91.2l-21,90.7L415.2,221.1z"/>
<g>
</g>
<g>
</g>
<g>
</g>
<g>
</g>
<g>
</g>
<g>
</g>
</svg>
