<svg xmlns="http://www.w3.org/2000/svg" width="500" height="375" viewBox="0 0 500 375"><path d="M86.9.5l37.7.1 86.9 373.9-18.6-1.2-81.7-351.5H100L18.3 373.2l-18.3.1L86.9.5zM58.9 251l93.4.1 28.5 122.2-18.3-.1-24.4-104-64.8-.7-24 103.6-18.8 1.2L58.9 251zm46.6-200.6l44.1 189-88 .1 43.9-189.1zm21.2 170.7l-21.4-91.2-21 90.7 42.4.5zM156.4 0l89.2 355.1 9.6.1 88.7-353L362.7.5l-94.3 374.4-37 .1L138.5 2.2 156.4 0zm31.4 4L250 253.6 313.7 2.2l17.6-.9-81.2 324.9L169 2.2 187.8 4zM375.4.5l37.7.1L500 374.5l-18.6-1.2-81.7-351.5h-11.2l-81.7 351.5-18.3.1L375.4.5zm-28 250.5l93.4.1 28.5 122.2-18.3-.1-24.4-104-64.8-.7-23.9 103.4-18.8 1.2L347.4 251zM394 50.4l44.1 189-88 .1L394 50.4zm21.2 170.7l-21.4-91.2-21 90.7 42.4.5z"/></svg>