<svg version="1" xmlns="http://www.w3.org/2000/svg" width="682.667" height="682.667" viewBox="0 0 512.000000 512.000000"><path d="M252.6 77.1c-3.4 2.7 9.7-18.4-111.3 178.8C84.5 348.5 37.5 425.9 36.9 428c-1.5 4.9 0 7.6 4.9 9 5.1 1.4 146.3 1.4 151.4 0 3.2-.9 27.4-18.6 54.7-40.2 4-3.2 7.8-5.8 8.3-5.8.5 0 13.3 9.6 28.6 21.3 15.2 11.6 29.7 22.2 32.1 23.5l4.4 2.2h73.9c80.4 0 80 0 81.4-5.4.9-3.8 0-6.2-5.4-15.1-46.6-76.7-207.7-337.7-209.7-339.8-3.2-3.3-5.3-3.4-8.9-.6zm23.1 51.1c26.4 42.7 34.8 56.9 36.1 60.7 1.3 3.6 1.8 108.2.6 109.4-.4.3-10.5-6.9-22.6-16.1-26.8-20.4-29.4-22.2-33.1-22.2-3.9 0-5.4.9-19.7 12-11.7 9-31.2 23.9-35.2 26.8-1.7 1.3-1.8-1.1-1.8-54.1v-55.3l4.2-7c11.2-18.7 49.3-80.1 50.6-81.7.8-.9 1.8-1.7 2.2-1.7.4 0 8.8 13.2 18.7 29.2zm-91.3 131c.7 40.3.4 49.1-1.6 53-.7 1.5-23.2 19.1-90.8 71.1-17 13.1-20.8 15.2-17.3 9.7 1.1-1.7 25.8-42 54.9-89.5 29.1-47.5 53.2-86.4 53.5-86.5.3 0 .9 19 1.3 42.2zm200.4 46.4c29.9 48.7 54.2 89 54 89.6-.4 1.2-92.8-68.9-104.2-79.2-6.7-6-6.6-5.1-6.6-54.5 0-34.9.3-44.5 1.3-44.5.6 0 25.6 39.9 55.5 88.6zm-100.5-8.1c14.2 10.8 26.4 20.7 27.2 21.8 1.3 1.8 1.5 9.2 1.5 47.9 0 30.9-.3 45.8-1 45.8-1.2 0-25.7-18.2-37.2-27.6-16.5-13.6-19.2-13.7-34.3-1.4-3.8 3.1-14.5 11.4-23.7 18.4L200 415.1v-45.8c.1-33.5.4-46.5 1.3-48.5 1.5-3.4 54.7-44.9 56.2-43.8.6.4 12.6 9.6 26.8 20.5zM183.7 421.7c-.2.2-26.6.2-58.7.1l-58.3-.3 30.9-23.6c17-13 43.3-33.2 58.4-44.8l27.5-21.2.3 44.7c.1 24.6.1 44.9-.1 45.1zm177.8-65.3c65 49.7 84.4 64.9 83.9 65.7-.3.5-26.6.9-58.5.9H329v-45.6c0-36.1.3-45.4 1.3-44.8.6.5 14.7 11.1 31.2 23.8z"/></svg>