<svg version="1" xmlns="http://www.w3.org/2000/svg" width="682.667" height="682.667" viewBox="0 0 512.000000 512.000000"><path d="M251.7 78.2c-2.4 2.5-3.3 3.9-128.7 208.3C44.4 414.4 37.6 425.9 37.6 430c-.1 3.7.3 4.6 2.4 5.7 2 1 18.6 1.3 78.1 1.3h75.5l4.5-2.8c2.4-1.6 16.5-12.2 31.2-23.6 17.9-13.7 27.3-20.4 28-19.8 27.4 21.1 53.8 41 57.4 43.2l4.7 3h76.1c84.7 0 80.5.3 80.5-6.6 0-3.9-2.1-8.4-8.4-18.3-2.3-3.6-49.2-79.7-104.1-169.1-54.8-89.4-100.7-163.5-101.8-164.8-1.2-1.3-3.2-2.2-4.9-2.2-1.7 0-3.8 1-5.1 2.2zm30.3 59.5c13.4 21.8 25.9 42.5 27.8 46l3.4 6.4.5 50.7c.4 27.9.3 52.5-.1 54.6-.5 2.7-1.1 3.6-2.1 3.2-1.4-.5-30.2-22-43.5-32.5-10.4-8.1-13.2-7.9-26 2.4-3.6 2.9-14.6 11.4-24.5 18.9l-18 13.7-.3-53.3c-.1-29.3 0-54.7.3-56.5.3-1.7 12.3-22.2 26.6-45.5 27.4-44.4 29.6-47.8 30.8-47.8.3 0 11.7 17.9 25.1 39.7zm102.9 167.2c30 48.9 54.4 89.2 54.4 89.7-.1.5-.5 1-1 1.1-2 .7-105.8-79.8-108.4-84-1.8-3-1.9-5.5-1.9-48.8 0-25.1.3-45.9.7-46.2.3-.4.9-.7 1.2-.7.3.1 25.1 40.1 55 88.9zM185 262.4c0 29.3-.4 46.4-1.1 48.3-.7 2.2-4.8 6-13.7 12.9-69.6 53.7-94.1 72.2-96.2 72.9-2.3.7-2.4.7-.9-1.6.9-1.3 25.8-41.9 55.4-90.2 29.6-48.2 54.4-87.7 55.2-87.7 1.1 0 1.3 8.1 1.3 45.4zm99.5 34.7c15.6 11.9 27.7 22 28.1 23.2 1 2.9.6 91.9-.4 92.9-.7.7-29.2-20.3-42.1-31-11.1-9.3-14.8-9.2-26.6.1-16.2 12.8-42.7 32.7-43.6 32.7-1.1 0-1.1-75.8 0-87.4.7-7.6.8-8 4.6-11.3 5-4.3 51.6-40.3 52.2-40.3.2 0 12.8 9.5 27.8 21.1zM185 377v46h-60.2c-51.1 0-60-.2-58.8-1.4.8-.7 19.9-15.4 42.5-32.7 22.6-17.2 48.7-37.3 58-44.5 9.4-7.3 17.3-13.3 17.8-13.3.4-.1.7 20.6.7 45.9zm171.8-24.8c15.3 11.7 41.6 31.9 58.4 44.8 16.9 12.9 30.7 24.1 30.8 24.7 0 1-12.4 1.3-59 1.3h-59v-46c0-25.3.2-46 .5-46 .4 0 13.1 9.6 28.3 21.2z"/></svg>