<svg xmlns="http://www.w3.org/2000/svg" width="120" height="120" viewBox="0 0 120 120"><path fill="#fff" d="M0 60l60 60 60-60L60 0 0 60zm60 57.2L2.8 60 60 2.8 117.2 60 60 117.2zM44.5 41.4c0-8.5 6.9-15.4 15.4-15.4h.3c8.5 0 15.4 6.9 15.4 15.4v.1h2C77.5 31.9 69.6 24 60 24c-9.6 0-17.5 7.9-17.5 17.5h2v-.1zm29 .1h1v-.1C74.5 33.5 68 27 60.1 27h-.3c-7.9 0-14.4 6.5-14.4 14.4v.1h2V41c0-6.6 5.4-12 12-12h1.1c6.6 0 12 5.4 12 12v.5h1zm5 1h-7c-.4 0-.7.1-1.1.2-.3.1-.6.1-.9.2-.1 0-.3.1-.4.1H69c-.2 0-.3.1-.5.1-.1 0-.2.1-.3.1-.4.1-.8.3-1.2.4-.5.2-1 .4-1.5.7h-.1c-.2.1-.3.2-.5.3-.1.1-.2.1-.3.2-.3.2-.6.3-.8.5h-.1l-1.2.9c-.4.3-.8.7-1.1 1l-.1.1-.5.5-.1.1c-.1.1-.2.2-.3.4-.1.1-.2.2-.3.4-.1.1-.2.2-.3.4l-.9 1.2c-.1.2-.2.3-.3.5-.1.2-.2.3-.3.5 0 .1-.1.1-.1.2-.3.5-.5 1-.7 1.5 0 .1-.1.1-.1.2-.1.2-.1.4-.2.6-.1.2-.2.4-.2.7 0 .1-.1.2-.1.3h1.9c.2-.5.4-1.1.6-1.6l.3-.6c.1-.2.2-.3.3-.5.2-.3.3-.5.5-.8.1-.2.2-.3.3-.5.1-.2.2-.3.4-.5.1-.1.2-.3.3-.4.1-.1.2-.3.4-.4l1.2-1.2c.2-.2.4-.3.6-.5.2-.2.4-.3.7-.5 1.1-.8 2.4-1.5 3.7-2 .2-.1.4-.1.5-.2.2-.1.3-.1.5-.2.2 0 .3-.1.5-.1.6-.2 1.3-.3 2-.4.2 0 .3 0 .5-.1h6.5c8.5 0 15.4 6.9 15.4 15.4v.3c0 8.5-6.9 15.4-15.4 15.4h-.1v2C88.1 77.5 96 69.6 96 60c0-9.6-7.9-17.5-17.5-17.5zm-34 35h2c.3 0 .7 0 1-.1h1c.7-.1 1.3-.2 2-.4.2 0 .3-.1.5-.1s.3-.1.5-.1c1.1-.3 2.1-.7 3.1-1.3.3-.2.6-.3.9-.5.3-.2.6-.3.8-.5.9-.6 1.7-1.3 2.4-2l.5-.5.1-.1c.1-.1.2-.2.3-.4.1-.1.2-.2.3-.4.4-.5.8-1 1.2-1.6.1-.2.2-.3.3-.5.1-.2.2-.3.3-.5.3-.6.6-1.2.9-1.9.1-.2.1-.4.2-.6.1-.2.2-.4.2-.7 0-.1.1-.2.1-.4s.1-.3.1-.5.1-.3.1-.5c.2-.7.3-1.3.4-2v-1c0-.3.1-.7.1-1 0-.3 0-.7-.1-1v-1c-.1-.7-.2-1.3-.4-2H51.4v2h10.3c0 .2 0 .3.1.5v3.1c0 .2 0 .3-.1.5 0 .3-.1.6-.1.9-.1.4-.1.7-.2 1.1 0 .2-.1.3-.1.5s-.1.3-.2.5c-.2.5-.4 1.1-.6 1.6l-.3.6c-.1.2-.2.3-.3.5-.2.3-.3.5-.5.8-.1.2-.2.3-.3.5-.1.2-.2.3-.4.5-.1.1-.2.3-.3.4-.1.1-.2.3-.4.4l-1.2 1.2c-.2.2-.4.3-.6.5-.2.2-.4.3-.7.5-1.1.8-2.4 1.5-3.7 2-.2.1-.4.1-.5.2-.2.1-.3.1-.5.2-.2 0-.3.1-.5.1-.6.2-1.3.3-2 .4-.2 0-.3 0-.5.1h-6.4c-8.5 0-15.4-6.9-15.4-15.4v-.3c0-8.5 6.9-15.4 15.4-15.4h14.3v-1.9H41.5C31.9 42.5 24 50.4 24 60s7.9 17.5 17.5 17.5h3zm34.4-27c5 0 9.1 4.1 9.1 9.1v.9c0 5-4.1 9.1-9.1 9.1h-.4v2h.5c6 0 11-4.9 11-11v-1.1c0-6-4.9-11-11-11h-7c-.2 0-.3 0-.5.1-.7.1-1.4.2-2 .5-.2.1-.3.1-.5.2s-.3.1-.5.2c-.6.3-1.2.6-1.8 1-.2.2-.5.3-.7.5-.2.2-.4.3-.6.5-.6.6-1.2 1.3-1.7 2-.1.2-.2.4-.3.5l-.3.6c0 .2-.1.3-.1.4h2.3c.8-1.3 1.9-2.5 3.3-3.3.1-.1.3-.2.4-.2.2-.1.3-.2.5-.2.2-.1.4-.2.6-.2.4-.2.9-.3 1.4-.4.2 0 .3-.1.5-.1h6.9zm-3.4 18v10.1c0 8.5-6.9 15.4-15.4 15.4h-.3c-8.5 0-15.4-6.9-15.4-15.4v-.1h-2c.1 9.6 8 17.5 17.6 17.5 9.6 0 17.5-7.9 17.5-17.5v-27h-2v17zm-14.5 3c-.1.1-.2.2-.3.4l.1.1.5.5c.4.4.8.7 1.2 1 .4.3.8.7 1.3.9.2.2.5.3.8.5h.1c.3.2.6.3.9.5.5.3 1 .5 1.5.7.5.2 1 .4 1.6.6v-2c-.2-.1-.4-.1-.5-.2-1.3-.5-2.6-1.2-3.7-2-.2-.2-.5-.3-.7-.5-.2-.2-.4-.3-.6-.5L62 70.3c-.4.4-.7.8-1 1.2zm3.6 0c.2.2.4.3.7.5.3.2.5.3.8.5.8.4 1.6.8 2.4 1.1v-2c-.1 0-.2-.1-.3-.1-1.1-.5-2.2-1.2-3.1-2-.2-.2-.4-.3-.6-.5l-.5-.5c-.3-.3-.5-.6-.7-.9-.1.3-.3.6-.4.9-.1.2-.2.3-.3.5-.1.1-.2.3-.2.4 0 0 0 .1-.1.1h.2c.6.7 1.4 1.4 2.1 2zm.6-6.5c-.1-.2-.2-.3-.3-.5-.1-.2-.2-.3-.2-.5 0-.1-.1-.2-.1-.3 0 .1-.1.2-.1.3 0 .2-.1.3-.1.5s-.1.3-.1.5c-.1.5-.3 1-.5 1.5.5.7 1 1.4 1.7 2 .2.2.4.3.6.5.2.2.4.3.7.5.6.4 1.2.7 1.8 1v-2.2c-1.4-.8-2.6-2-3.4-3.3zm-9.4-17.5v-2H41.4C33.5 45.5 27 52 27 59.9v.3c0 7.9 6.5 14.4 14.4 14.4H48c.2 0 .3 0 .5-.1.7-.1 1.4-.2 2-.4.2 0 .3-.1.5-.1.2-.1.3-.1.5-.2.8-.3 1.6-.7 2.4-1.1.3-.2.5-.3.8-.5.2-.2.4-.3.7-.5.8-.6 1.5-1.3 2.1-2l.1-.1c.1-.1.2-.3.3-.4.1-.1.2-.3.3-.4.4-.6.8-1.2 1.2-1.9l.3-.6c.1-.2.2-.4.3-.7 0-.1.1-.2.1-.4.1-.2.1-.3.2-.5s.1-.3.1-.5c.2-.6.3-1.3.4-2 0-.2 0-.3.1-.5v-2.6L59 59h-7.5v2H59v.5c0 .2 0 .3-.1.5 0 .3-.1.6-.1.9-.1.4-.2.7-.3 1.1-.1.2-.1.3-.2.5s-.1.3-.2.5c-.2.6-.5 1.1-.8 1.6-.1.2-.2.4-.3.5-.1.2-.2.3-.3.5-.2.3-.5.6-.7.9l-.5.5c-.2.2-.4.3-.5.5-.9.8-2 1.5-3.1 2-.1 0-.2.1-.3.1-.2.1-.3.1-.5.2s-.3.1-.5.2h-.1c-.6.2-1.3.3-1.9.4-.2 0-.3 0-.5.1H41c-6.6 0-12-5.4-12-12v-1.1c0-6.6 5.4-12 12-12h14.8c-.1.1-.1.1 0 .1zm5.7 3.5zm.3-.5zm.3 18.5zm-1.8-15c-.1.2-.2.4-.3.7 0 .1-.1.2-.1.4h2c.2-.6.5-1.1.8-1.6.1-.2.2-.4.3-.5.1-.2.2-.3.3-.5.2-.3.5-.6.7-.9l.5-.5c.2-.2.4-.3.5-.5.9-.8 2-1.5 3.1-2 .1 0 .2-.1.3-.1.2-.1.3-.1.5-.2s.3-.1.5-.2h.1c.6-.2 1.3-.3 1.9-.4.2 0 .3 0 .5-.1H79c6.6 0 12 5.4 12 12v1.1c0 6.6-5.4 12-12 12h-.5v2h.1C86.5 74.5 93 68 93 60.1v-.3c0-7.9-6.5-14.4-14.4-14.4H72c-.2 0-.3 0-.5.1-.7.1-1.4.2-2 .4-.2 0-.3.1-.5.1-.2.1-.3.1-.5.2-.8.3-1.6.7-2.4 1.1-.3.2-.5.3-.8.5-.2.2-.4.3-.7.5-.8.6-1.5 1.3-2.1 2l-.1.1c-.1.1-.2.3-.3.4-.1.1-.2.3-.3.4-.4.6-.8 1.2-1.2 1.9-.1.5-.2.7-.3.9zm-1.8 15zM51 50.5h4.7v-2H41c-6 0-11 4.9-11 11v1.1c0 6 4.9 11 11 11h7c.2 0 .3 0 .5-.1.7-.1 1.4-.2 2-.5.2-.1.3-.1.5-.2s.3-.1.5-.2c.6-.3 1.2-.6 1.8-1 .2-.2.5-.3.7-.5.2-.2.4-.3.6-.5.6-.6 1.2-1.3 1.7-2 .1-.2.2-.4.3-.5l.3-.6c.1-.1.1-.2.2-.4s.1-.3.2-.5.1-.3.2-.5c.2-.6.4-1.3.5-2h-6.4v2h3.9c-.1.2-.2.3-.2.5-.1.2-.2.3-.3.5-.8 1.3-1.9 2.5-3.3 3.3-.1.1-.3.2-.4.2H51c-.2.1-.3.2-.5.2-.2.1-.4.2-.6.2-.4.2-.9.3-1.4.4-.2 0-.3.1-.5.1h-6.9c-5 0-9.1-4.1-9.1-9.1v-.9c0-5 4.1-9.1 9.1-9.1H51zm-8.5 11v7h2v-17h-2v10zm3-10v17h2v-17h-2zm3 .2v16.6c.7-.1 1.4-.4 2-.7V51.4h-2v.3zm11.8 19.8c.1 0 .1 0 0 0zm-.6-23c-.1 0-.1 0 0 0zM57.9 51zm11.6-9.5v.5c.7-.1 1.3-.3 2-.3v-1c-.2-5.9-5-10.7-10.9-10.7h-1.1c-6 0-11 4.9-11 11v.5h2v-.4c0-5 4.1-9.1 9.1-9.1h.9c5 0 9.1 4.1 9.1 9.1v.4zm0 15.2v22.2c0 5-4.1 9.1-9.1 9.1h-.9c-5 0-9.1-4.1-9.1-9.1V78c-.7.1-1.3.3-2 .3v1c.1 5.9 5 10.7 11 10.7h1.1c6 0 11-4.9 11-11V51.6c-.7.1-1.4.4-2 .7v4.4zm-22 21.8h-2v.1C45.5 86.5 52 93 59.9 93h.3c7.9 0 14.4-6.5 14.4-14.4V51.5h-2V79c0 6.6-5.4 12-12 12h-1.1c-6.6 0-12-5.4-12-12v-.5z"/></svg>