<svg version="1" xmlns="http://www.w3.org/2000/svg" width="682.667" height="682.667" viewBox="0 0 512.000000 512.000000"><path d="M0 230.7v230.8L18.5 443l18.6-18.5 41.8-68c23-37.4 58.8-95.7 79.6-129.5 20.8-33.8 49.5-80.6 63.8-104 14.4-23.4 27.4-43.7 28.8-45.3 3.9-3.8 7.9-3.6 11.5.6 1.6 1.9 12.6 19.2 24.4 38.5 11.8 19.3 21.7 35.1 22 35.2.3 0 34.7-34.2 76.5-76l76-76H0v230.7z"/><path d="M245.4 116.2c-21.4 34.5-42.1 68.4-43.8 71.5-1.4 2.8-1.6 7.7-1.6 38.5v35.3l48.6-48.6 48.6-48.6-15.2-24.9c-8.4-13.7-17.3-28.2-19.7-32.1-2.4-4-4.8-7.5-5.3-7.8-.5-.3-5.7 7.2-11.6 16.7zm-85.9 139.5c-12.6 20.8-34.2 56-47.8 78.3l-24.8 40.5 48.5-48.5 48.6-48.5v-29.7c0-16.4-.3-29.8-.7-29.8-.5.1-11.1 17-23.8 37.7z"/></svg>